<svg width="25" height="25" viewBox="0 0 25 25" fill="none" xmlns="http://www.w3.org/2000/svg">
<path d="M12.5007 2.08301C6.75065 2.08301 2.08398 6.74967 2.08398 12.4997C2.08398 18.2497 6.75065 22.9163 12.5007 22.9163C18.2507 22.9163 22.9173 18.2497 22.9173 12.4997C22.9173 6.74967 18.2507 2.08301 12.5007 2.08301ZM17.9694 12.8434C17.9694 13.2705 17.6152 13.6247 17.1882 13.6247C16.7611 13.6247 16.4069 13.2705 16.4069 12.8434V9.69759L8.36523 17.7393C8.20898 17.8955 8.01107 17.9684 7.81315 17.9684C7.61523 17.9684 7.41732 17.8955 7.26107 17.7393C6.95898 17.4372 6.95898 16.9372 7.26107 16.6351L15.3027 8.59342H12.1569C11.7298 8.59342 11.3757 8.23926 11.3757 7.81217C11.3757 7.38509 11.7298 7.03092 12.1569 7.03092H17.1882C17.6152 7.03092 17.9694 7.38509 17.9694 7.81217V12.8434Z" fill="white"/>
</svg>
