<svg width="22" height="22" viewBox="0 0 22 22" fill="none" xmlns="http://www.w3.org/2000/svg">
<path d="M1.375 17.5312C1.37495 17.7118 1.41048 17.8907 1.47957 18.0575C1.54865 18.2243 1.64993 18.3759 1.77762 18.5036C1.90531 18.6313 2.05691 18.7326 2.22375 18.8017C2.3906 18.8708 2.56942 18.9063 2.75 18.9062H5.80594C5.40375 18.6801 4.96882 17.6808 4.72312 17.3113C4.52875 16.9779 4.47437 16.5812 4.57188 16.2078C4.64287 15.9456 4.78434 15.7078 4.98094 15.5203C4.84777 14.8046 4.84778 14.0704 4.98096 13.3547C4.74372 13.1281 4.58937 12.8285 4.54262 12.5038C4.49587 12.1791 4.55943 11.8481 4.72312 11.5637L5.37281 10.4397C5.53765 10.1568 5.79211 9.93695 6.09593 9.81492C6.39976 9.69289 6.73559 9.67566 7.05031 9.76594C7.60651 9.29617 8.2421 8.92948 8.92719 8.68313C9.00469 8.36398 9.18707 8.08007 9.4451 7.87689C9.70313 7.67371 10.0219 7.563 10.3503 7.5625H11.6497C11.9781 7.563 12.2969 7.67371 12.5549 7.87689C12.8129 8.08007 12.9953 8.36398 13.0728 8.68313C13.7585 8.92812 14.3944 9.29495 14.9497 9.76594C15.264 9.6747 15.5998 9.69111 15.9037 9.81255C16.2077 9.934 16.4623 10.1535 16.6272 10.4363L17.2769 11.5637C17.4408 11.848 17.5044 12.179 17.4577 12.5038C17.4109 12.8286 17.2565 13.1282 17.0191 13.3547C17.1522 14.0704 17.1522 14.8046 17.019 15.5203C17.2562 15.7469 17.4106 16.0465 17.4573 16.3712C17.5041 16.6959 17.4405 17.0269 17.2769 17.3113L16.6272 18.4353C16.5198 18.6249 16.369 18.7862 16.1872 18.9062H19.25C19.4306 18.9063 19.6094 18.8708 19.7762 18.8017C19.9431 18.7326 20.0947 18.6313 20.2224 18.5036C20.3501 18.3759 20.4514 18.2243 20.5204 18.0575C20.5895 17.8907 20.625 17.7118 20.625 17.5312V4.8125H1.375V17.5312Z" fill="url(#paint0_linear_14381_26062)"/>
<path d="M19.2502 1.375H11.1445L13.8945 4.125H20.6252V2.75C20.6252 2.56942 20.5897 2.3906 20.5206 2.22375C20.4515 2.0569 20.3502 1.90531 20.2225 1.77761C20.0949 1.64992 19.9433 1.54864 19.7764 1.47956C19.6096 1.41048 19.4307 1.37495 19.2502 1.375ZM15.132 3.09375C15.0409 3.09375 14.9534 3.05753 14.889 2.99306C14.8245 2.92859 14.7883 2.84116 14.7883 2.74999C14.7883 2.65882 14.8245 2.57139 14.889 2.50692C14.9534 2.44246 15.0409 2.40625 15.1321 2.40625C15.2232 2.40625 15.3107 2.44247 15.3751 2.50694C15.4396 2.57141 15.4758 2.65884 15.4758 2.75001C15.4758 2.84118 15.4396 2.92861 15.3751 2.99308C15.3106 3.05754 15.2232 3.09375 15.132 3.09375ZM17.0227 3.09375C16.9315 3.09375 16.8441 3.05753 16.7796 2.99306C16.7151 2.92859 16.6789 2.84116 16.6789 2.74999C16.6789 2.65882 16.7151 2.57139 16.7796 2.50692C16.8441 2.44246 16.9315 2.40625 17.0227 2.40625C17.1138 2.40625 17.2013 2.44247 17.2657 2.50694C17.3302 2.57141 17.3664 2.65884 17.3664 2.75001C17.3664 2.84118 17.3302 2.92861 17.2657 2.99308C17.2013 3.05754 17.1138 3.09375 17.0227 3.09375ZM18.9133 3.09375C18.8221 3.09375 18.7347 3.05753 18.6702 2.99306C18.6058 2.92859 18.5695 2.84116 18.5695 2.74999C18.5695 2.65882 18.6058 2.57139 18.6702 2.50692C18.7347 2.44246 18.8221 2.40625 18.9133 2.40625C19.0045 2.40625 19.0919 2.44247 19.1564 2.50694C19.2208 2.57141 19.257 2.65884 19.257 2.75001C19.257 2.84118 19.2208 2.92861 19.1564 2.99308C19.0919 3.05754 19.0044 3.09375 18.9133 3.09375Z" fill="url(#paint1_linear_14381_26062)"/>
<path d="M10.1681 1.375H2.75C2.56942 1.37495 2.3906 1.41048 2.22375 1.47956C2.0569 1.54864 1.90531 1.64992 1.77761 1.77761C1.64992 1.90531 1.54864 2.0569 1.47956 2.22375C1.41048 2.3906 1.37495 2.56942 1.375 2.75V4.125H12.9181L10.1681 1.375ZM9.625 3.09375H3.09375C3.0035 3.09235 2.91743 3.05552 2.85411 2.9912C2.79078 2.92688 2.75529 2.84025 2.75529 2.74999C2.7553 2.65973 2.79079 2.5731 2.85412 2.50879C2.91745 2.44447 3.00352 2.40765 3.09377 2.40625H9.625C9.71525 2.40765 9.80132 2.44448 9.86465 2.50879C9.92797 2.57311 9.96347 2.65974 9.96347 2.75C9.96347 2.84026 9.92797 2.92689 9.86465 2.99121C9.80132 3.05552 9.71525 3.09235 9.625 3.09375Z" fill="url(#paint2_linear_14381_26062)"/>
<path d="M16.3969 15.9087C16.3485 15.8761 16.2388 15.8402 16.2663 15.7644C16.4847 14.8944 16.4847 13.984 16.2663 13.1141C16.2615 13.0957 16.263 13.0763 16.2704 13.0589C16.2779 13.0414 16.291 13.027 16.3076 13.0178C16.4166 12.969 16.5138 12.8969 16.5921 12.8067C16.6705 12.7164 16.7282 12.6101 16.7613 12.4953C16.8133 12.2966 16.7849 12.0854 16.6822 11.9075L16.0326 10.78C15.9753 10.6856 15.8991 10.6041 15.8087 10.5407C15.7183 10.4773 15.6157 10.4334 15.5074 10.4118C15.3991 10.3901 15.2875 10.3912 15.1797 10.4149C15.0719 10.4387 14.9701 10.4846 14.881 10.5497C14.8655 10.5591 14.8474 10.5631 14.8294 10.5613C14.8114 10.5594 14.7945 10.5517 14.7813 10.5394C14.1372 9.91497 13.3482 9.46023 12.4851 9.21594C12.4674 9.20981 12.4521 9.19813 12.4416 9.18265C12.4311 9.16717 12.4258 9.1487 12.4266 9.13C12.439 9.02009 12.4282 8.9088 12.395 8.80332C12.3617 8.69783 12.3067 8.60049 12.2335 8.51757C12.1603 8.43465 12.0705 8.368 11.97 8.32191C11.8694 8.27583 11.7603 8.25133 11.6497 8.25H10.3504C10.1444 8.25037 9.94705 8.33234 9.80144 8.47795C9.65583 8.62356 9.57386 8.82095 9.57349 9.02688C9.5695 9.08627 9.59283 9.19825 9.51505 9.21591C8.6519 9.46022 7.86289 9.91497 7.2188 10.5394C7.16522 10.6004 7.08045 10.5263 7.02974 10.4981C6.85094 10.3956 6.63881 10.3681 6.43976 10.4215C6.2407 10.475 6.07092 10.6051 5.96755 10.7834L5.31787 11.9075C5.26378 12.0038 5.23053 12.1104 5.22026 12.2204C5.20999 12.3304 5.22294 12.4413 5.25827 12.546C5.29359 12.6507 5.3505 12.7467 5.42532 12.828C5.50014 12.9093 5.59119 12.9739 5.69258 13.0178C5.7088 13.0265 5.72166 13.0403 5.72912 13.0571C5.73659 13.0739 5.73823 13.0928 5.7338 13.1106C5.51539 13.9806 5.51539 14.891 5.7338 15.7609C5.73859 15.7793 5.73714 15.7987 5.72967 15.8161C5.7222 15.8336 5.70914 15.848 5.69255 15.8572C5.59115 15.901 5.50009 15.9657 5.42527 16.047C5.35044 16.1282 5.29353 16.2243 5.25821 16.329C5.22288 16.4337 5.20994 16.5446 5.22022 16.6546C5.2305 16.7646 5.26376 16.8712 5.31787 16.9675L5.96755 18.095C6.02481 18.1894 6.10106 18.2709 6.19146 18.3343C6.28187 18.3977 6.38446 18.4416 6.49273 18.4632C6.60099 18.4849 6.71258 18.4838 6.82041 18.46C6.92824 18.4363 7.02996 18.3904 7.11912 18.3253C7.13459 18.3159 7.1527 18.3119 7.17069 18.3137C7.18868 18.3156 7.20557 18.3233 7.2188 18.3356C7.86289 18.96 8.6519 19.4147 9.51505 19.659C9.59033 19.6757 9.57177 19.7908 9.57349 19.8481C9.57385 20.054 9.65582 20.2514 9.80143 20.397C9.94704 20.5427 10.1444 20.6246 10.3504 20.625H11.6497C11.7603 20.6237 11.8694 20.5992 11.97 20.5531C12.0705 20.507 12.1603 20.4404 12.2335 20.3574C12.3067 20.2745 12.3617 20.1772 12.395 20.0717C12.4282 19.9662 12.439 19.8549 12.4266 19.745C12.4258 19.7263 12.4311 19.7078 12.4416 19.6923C12.4521 19.6769 12.4674 19.6652 12.4851 19.6591C13.3482 19.4148 14.1372 18.96 14.7813 18.3356C14.7977 18.3224 14.8181 18.3149 14.8392 18.3142C14.8603 18.3136 14.881 18.3199 14.8982 18.3322C14.9868 18.3959 15.0878 18.4404 15.1946 18.4628C15.3014 18.4853 15.4118 18.4852 15.5185 18.4625C15.6253 18.4399 15.7262 18.3952 15.8147 18.3313C15.9032 18.2674 15.9774 18.1858 16.0326 18.0916L16.6822 16.9675C16.7848 16.7893 16.8123 16.5776 16.7588 16.3791C16.7053 16.1805 16.5751 16.0114 16.3969 15.9087ZM11.0001 18.0469C10.0431 18.0458 9.12566 17.6652 8.449 16.9886C7.77234 16.3119 7.39173 15.3944 7.39068 14.4375C7.5888 9.64914 14.412 9.65053 14.6094 14.4375C14.6084 15.3944 14.2278 16.3119 13.5511 16.9886C12.8744 17.6652 11.957 18.0458 11.0001 18.0469Z" fill="url(#paint3_linear_14381_26062)"/>
<path d="M11 11.5156C10.2252 11.5161 9.48234 11.8241 8.93449 12.372C8.38665 12.9198 8.07864 13.6627 8.07812 14.4375C8.2235 18.3087 13.7771 18.3077 13.9219 14.4375C13.9214 13.6627 13.6133 12.9198 13.0655 12.372C12.5177 11.8241 11.7748 11.5161 11 11.5156ZM12.6741 13.2516L11.9281 13.9975C12.0016 14.1544 12.0344 14.3272 12.0236 14.5001C12.0128 14.673 11.9587 14.8404 11.8663 14.9869C11.7738 15.1334 11.6461 15.2543 11.4947 15.3385C11.3433 15.4227 11.1732 15.4675 11 15.4688C9.31582 15.3417 9.88526 12.8912 11.44 13.5094L12.1859 12.7634C12.2511 12.7008 12.3382 12.6662 12.4286 12.6671C12.5189 12.668 12.6054 12.7043 12.6693 12.7682C12.7332 12.8321 12.7695 12.9186 12.7704 13.0089C12.7713 13.0993 12.7367 13.1864 12.6741 13.2516Z" fill="url(#paint4_linear_14381_26062)"/>
<path d="M10.6562 14.4373C10.6576 14.5276 10.6944 14.6137 10.7587 14.6771C10.823 14.7405 10.9097 14.776 11 14.776C11.0903 14.776 11.177 14.7405 11.2413 14.6771C11.3056 14.6138 11.3424 14.5276 11.3438 14.4373C11.3424 14.3471 11.3056 14.2609 11.2413 14.1975C11.177 14.1342 11.0903 14.0986 11 14.0986C10.9097 14.0986 10.823 14.1342 10.7587 14.1975C10.6944 14.2609 10.6576 14.347 10.6562 14.4373Z" fill="url(#paint5_linear_14381_26062)"/>
<defs>
<linearGradient id="paint0_linear_14381_26062" x1="11" y1="4.8125" x2="11" y2="18.9062" gradientUnits="userSpaceOnUse">
<stop stop-color="#223CDD"/>
<stop offset="1" stop-color="#6176FF"/>
</linearGradient>
<linearGradient id="paint1_linear_14381_26062" x1="15.8848" y1="1.375" x2="15.8848" y2="4.125" gradientUnits="userSpaceOnUse">
<stop stop-color="#223CDD"/>
<stop offset="1" stop-color="#6176FF"/>
</linearGradient>
<linearGradient id="paint2_linear_14381_26062" x1="7.14656" y1="1.375" x2="7.14656" y2="4.125" gradientUnits="userSpaceOnUse">
<stop stop-color="#223CDD"/>
<stop offset="1" stop-color="#6176FF"/>
</linearGradient>
<linearGradient id="paint3_linear_14381_26062" x1="11.0018" y1="8.25" x2="11.0018" y2="20.625" gradientUnits="userSpaceOnUse">
<stop stop-color="#223CDD"/>
<stop offset="1" stop-color="#6176FF"/>
</linearGradient>
<linearGradient id="paint4_linear_14381_26062" x1="11" y1="11.5156" x2="11" y2="17.3405" gradientUnits="userSpaceOnUse">
<stop stop-color="#223CDD"/>
<stop offset="1" stop-color="#6176FF"/>
</linearGradient>
<linearGradient id="paint5_linear_14381_26062" x1="11" y1="14.0986" x2="11" y2="14.776" gradientUnits="userSpaceOnUse">
<stop stop-color="#223CDD"/>
<stop offset="1" stop-color="#6176FF"/>
</linearGradient>
</defs>
</svg>
