<svg width="22" height="22" viewBox="0 0 22 22" fill="none" xmlns="http://www.w3.org/2000/svg">
<g clip-path="url(#clip0_14358_25967)">
<path d="M20.625 6.875C21.0031 6.875 21.3125 6.56563 21.3125 6.1875C21.3125 5.80937 21.0031 5.5 20.625 5.5H19.1847C18.9166 4.14906 17.8509 3.08344 16.5 2.81531V1.375C16.5 0.996875 16.1906 0.6875 15.8125 0.6875C15.4344 0.6875 15.125 0.996875 15.125 1.375V2.75H14.0938V1.375C14.0938 0.996875 13.7844 0.6875 13.4062 0.6875C13.0281 0.6875 12.7188 0.996875 12.7188 1.375V2.75H11.6875V1.375C11.6875 0.996875 11.3781 0.6875 11 0.6875C10.6219 0.6875 10.3125 0.996875 10.3125 1.375V2.75H9.28125V1.375C9.28125 0.996875 8.97188 0.6875 8.59375 0.6875C8.21562 0.6875 7.90625 0.996875 7.90625 1.375V2.75H6.875V1.375C6.875 0.996875 6.56563 0.6875 6.1875 0.6875C5.80937 0.6875 5.5 0.996875 5.5 1.375V2.81531C4.14906 3.08344 3.08344 4.14906 2.81531 5.5H1.375C0.996875 5.5 0.6875 5.80937 0.6875 6.1875C0.6875 6.56563 0.996875 6.875 1.375 6.875H2.75V7.90625H1.375C0.996875 7.90625 0.6875 8.21562 0.6875 8.59375C0.6875 8.97188 0.996875 9.28125 1.375 9.28125H2.75V10.3125H1.375C0.996875 10.3125 0.6875 10.6219 0.6875 11C0.6875 11.3781 0.996875 11.6875 1.375 11.6875H2.75V12.7188H1.375C0.996875 12.7188 0.6875 13.0281 0.6875 13.4062C0.6875 13.7844 0.996875 14.0938 1.375 14.0938H2.75V15.125H1.375C0.996875 15.125 0.6875 15.4344 0.6875 15.8125C0.6875 16.1906 0.996875 16.5 1.375 16.5H2.81531C3.08344 17.8509 4.14906 18.9166 5.5 19.1847V20.625C5.5 21.0031 5.80937 21.3125 6.1875 21.3125C6.56563 21.3125 6.875 21.0031 6.875 20.625V19.25H7.90625V20.625C7.90625 21.0031 8.21562 21.3125 8.59375 21.3125C8.97188 21.3125 9.28125 21.0031 9.28125 20.625V19.25H10.3125V20.625C10.3125 21.0031 10.6219 21.3125 11 21.3125C11.3781 21.3125 11.6875 21.0031 11.6875 20.625V19.25H12.7188V20.625C12.7188 21.0031 13.0281 21.3125 13.4062 21.3125C13.7844 21.3125 14.0938 21.0031 14.0938 20.625V19.25H15.125V20.625C15.125 21.0031 15.4344 21.3125 15.8125 21.3125C16.1906 21.3125 16.5 21.0031 16.5 20.625V19.1847C17.8509 18.9166 18.9166 17.8509 19.1847 16.5H20.625C21.0031 16.5 21.3125 16.1906 21.3125 15.8125C21.3125 15.4344 21.0031 15.125 20.625 15.125H19.25V14.0938H20.625C21.0031 14.0938 21.3125 13.7844 21.3125 13.4062C21.3125 13.0281 21.0031 12.7188 20.625 12.7188H19.25V11.6875H20.625C21.0031 11.6875 21.3125 11.3781 21.3125 11C21.3125 10.6219 21.0031 10.3125 20.625 10.3125H19.25V9.28125H20.625C21.0031 9.28125 21.3125 8.97188 21.3125 8.59375C21.3125 8.21562 21.0031 7.90625 20.625 7.90625H19.25V6.875H20.625ZM17.875 15.8366C17.875 16.9606 16.9606 17.875 15.8366 17.875H6.16344C5.03938 17.875 4.125 16.9606 4.125 15.8366V6.16344C4.125 5.03938 5.03938 4.125 6.16344 4.125H15.84C16.9641 4.125 17.8784 5.03938 17.8784 6.16344V15.8366H17.875Z" fill="url(#paint0_linear_14358_25967)"/>
<path d="M10.8796 8.62426C10.8315 8.47988 10.7318 8.41113 10.584 8.41113H9.42898C9.28117 8.41113 9.18148 8.48332 9.13336 8.62426L7.41117 13.3646C7.40773 13.3783 7.4043 13.4024 7.4043 13.4299C7.4043 13.4677 7.42148 13.5055 7.45242 13.5364C7.48336 13.5674 7.52117 13.5846 7.55898 13.5846H8.52148C8.63836 13.5846 8.7243 13.5296 8.77242 13.423L9.03711 12.7046H10.9759L11.2405 13.423C11.2887 13.533 11.3746 13.5846 11.4915 13.5846H12.454C12.4918 13.5846 12.5296 13.5674 12.5605 13.5364C12.5915 13.5055 12.6087 13.4677 12.6087 13.4299C12.6087 13.3989 12.6052 13.3783 12.6018 13.3646L10.8796 8.62426ZM9.34648 11.5977L10.003 9.71051L10.6596 11.5977H9.34648Z" fill="url(#paint1_linear_14358_25967)"/>
<path d="M14.4143 8.41113H13.3555C13.3074 8.41113 13.2627 8.42832 13.2249 8.4627C13.1871 8.49707 13.1699 8.54176 13.1699 8.59676V13.4024C13.1699 13.4505 13.1871 13.4952 13.2249 13.533C13.2627 13.5708 13.304 13.588 13.3555 13.588H14.4143C14.4693 13.588 14.514 13.5708 14.5484 13.533C14.5827 13.4952 14.5999 13.4539 14.5999 13.4024V8.59676C14.5999 8.54176 14.5827 8.49707 14.5484 8.4627C14.5105 8.42832 14.4659 8.41113 14.4143 8.41113Z" fill="url(#paint2_linear_14358_25967)"/>
</g>
<defs>
<linearGradient id="paint0_linear_14358_25967" x1="11" y1="0.6875" x2="11" y2="21.3125" gradientUnits="userSpaceOnUse">
<stop stop-color="#223CDD"/>
<stop offset="1" stop-color="#6176FF"/>
</linearGradient>
<linearGradient id="paint1_linear_14358_25967" x1="10.0065" y1="8.41113" x2="10.0065" y2="13.5846" gradientUnits="userSpaceOnUse">
<stop stop-color="#223CDD"/>
<stop offset="1" stop-color="#6176FF"/>
</linearGradient>
<linearGradient id="paint2_linear_14358_25967" x1="13.8849" y1="8.41113" x2="13.8849" y2="13.588" gradientUnits="userSpaceOnUse">
<stop stop-color="#223CDD"/>
<stop offset="1" stop-color="#6176FF"/>
</linearGradient>
<clipPath id="clip0_14358_25967">
<rect width="22" height="22" fill="white"/>
</clipPath>
</defs>
</svg>
