<svg width="18" height="18" viewBox="0 0 18 18" fill="none" xmlns="http://www.w3.org/2000/svg">
<g clip-path="url(#clip0_12719_20104)">
<path d="M6.93745 18H1.31245C0.58873 18 0 17.4113 0 16.6875V13.3125C0 12.5887 0.58873 12 1.31245 12H6.93745C7.66132 12 8.25005 12.5887 8.25005 13.3125V16.6875C8.25005 17.4113 7.66132 18 6.93745 18Z" fill="url(#paint0_linear_12719_20104)"/>
<path d="M6.93745 10.5H1.31245C0.58873 10.5 0 9.91127 0 9.18741V1.31241C0 0.588684 0.58873 -4.57764e-05 1.31245 -4.57764e-05H6.93745C7.66132 -4.57764e-05 8.25005 0.588684 8.25005 1.31241V9.18741C8.25005 9.91127 7.66132 10.5 6.93745 10.5Z" fill="url(#paint1_linear_12719_20104)"/>
<path d="M16.6876 6H11.0626C10.3387 6 9.75 5.41127 9.75 4.68741V1.31241C9.75 0.588684 10.3387 -4.57764e-05 11.0626 -4.57764e-05H16.6876C17.4113 -4.57764e-05 18 0.588684 18 1.31241V4.68741C18 5.41127 17.4113 6 16.6876 6Z" fill="url(#paint2_linear_12719_20104)"/>
<path d="M16.6876 18H11.0626C10.3387 18 9.75 17.4113 9.75 16.6875V8.81255C9.75 8.08868 10.3387 7.49995 11.0626 7.49995H16.6876C17.4113 7.49995 18 8.08868 18 8.81255V16.6875C18 17.4113 17.4113 18 16.6876 18Z" fill="url(#paint3_linear_12719_20104)"/>
</g>
<defs>
<linearGradient id="paint0_linear_12719_20104" x1="4.12502" y1="18" x2="4.12502" y2="12" gradientUnits="userSpaceOnUse">
<stop stop-color="#223CDD"/>
<stop offset="1" stop-color="#6176FF"/>
</linearGradient>
<linearGradient id="paint1_linear_12719_20104" x1="4.12502" y1="10.5" x2="4.12502" y2="-4.57764e-05" gradientUnits="userSpaceOnUse">
<stop stop-color="#223CDD"/>
<stop offset="1" stop-color="#6176FF"/>
</linearGradient>
<linearGradient id="paint2_linear_12719_20104" x1="13.875" y1="6" x2="13.875" y2="-4.57764e-05" gradientUnits="userSpaceOnUse">
<stop stop-color="#223CDD"/>
<stop offset="1" stop-color="#6176FF"/>
</linearGradient>
<linearGradient id="paint3_linear_12719_20104" x1="13.875" y1="18" x2="13.875" y2="7.49995" gradientUnits="userSpaceOnUse">
<stop stop-color="#223CDD"/>
<stop offset="1" stop-color="#6176FF"/>
</linearGradient>
<clipPath id="clip0_12719_20104">
<rect width="18" height="18" fill="white" transform="matrix(1 0 0 -1 0 18)"/>
</clipPath>
</defs>
</svg>
