<svg width="22" height="22" viewBox="0 0 22 22" fill="none" xmlns="http://www.w3.org/2000/svg">
<path d="M15.366 8.17453L11.0004 5.55859L6.63477 8.17453L11.0004 10.7939L15.366 8.17453Z" fill="url(#paint0_linear_14381_26006)"/>
<path d="M6.31055 13.6301L10.6555 16.2357V11.3923L6.31055 8.7832V13.6301Z" fill="url(#paint1_linear_14381_26006)"/>
<path d="M15.6887 8.7832L11.3438 11.3923V16.2357L15.6887 13.6301V8.7832Z" fill="url(#paint2_linear_14381_26006)"/>
<path d="M7.25272 3.99438C8.02641 3.69865 8.8185 3.31082 9.67619 3.21067L10.1058 3.95313C10.1362 4.0055 10.1799 4.04896 10.2323 4.07913C10.2848 4.1093 10.3444 4.12512 10.4049 4.125H11.5943C11.6548 4.12512 11.7143 4.1093 11.7668 4.07913C11.8193 4.04896 11.863 4.0055 11.8933 3.95313L12.488 2.92188C12.5184 2.86969 12.5344 2.81039 12.5344 2.75C12.5344 2.68961 12.5184 2.63031 12.488 2.57813L11.8933 1.54688C11.863 1.4945 11.8193 1.45104 11.7668 1.42087C11.7143 1.3907 11.6548 1.37488 11.5943 1.375H10.4049C10.3444 1.37488 10.2848 1.3907 10.2323 1.42087C10.1799 1.45104 10.1362 1.4945 10.1058 1.54688L9.53522 2.53344C8.68495 2.67734 7.86182 2.95095 7.09459 3.34469C7.026 3.38004 6.97128 3.43743 6.93924 3.50764C6.90721 3.57784 6.89971 3.65678 6.91796 3.73176C6.93621 3.80675 6.97914 3.87341 7.03986 3.92104C7.10058 3.96867 7.17555 3.9945 7.25272 3.99438Z" fill="url(#paint3_linear_14381_26006)"/>
<path d="M3.04535 8.78265C3.13197 8.81058 3.22611 8.80312 3.30725 8.7619C3.38839 8.72069 3.44994 8.64907 3.47848 8.56265C3.6061 8.16531 3.7659 7.77903 3.95629 7.40765C4.12945 7.0647 4.32945 6.73596 4.55441 6.42453L5.38629 6.64796C5.41541 6.65615 5.44542 6.66077 5.47566 6.66171C5.52058 6.66119 5.56495 6.65181 5.60624 6.63411C5.64753 6.61642 5.68493 6.59075 5.71629 6.55859L6.55848 5.7164C6.60145 5.67437 6.63241 5.6216 6.64812 5.56358C6.66384 5.50555 6.66374 5.44438 6.64785 5.3864L6.33848 4.23484C6.32257 4.17698 6.2921 4.12417 6.24998 4.08144C6.20785 4.03872 6.15547 4.0075 6.09785 3.99078L4.94629 3.68484C4.88831 3.66895 4.82714 3.66885 4.76911 3.68457C4.71109 3.70028 4.65832 3.73124 4.61629 3.77421L3.7741 4.6164C3.73044 4.65797 3.69901 4.71071 3.68325 4.7689C3.66749 4.82709 3.668 4.88848 3.68473 4.9464L3.97691 6.04984C3.47637 6.75219 3.08789 7.52799 2.82535 8.34953C2.79729 8.43614 2.80469 8.53034 2.84592 8.61152C2.88715 8.69269 2.95886 8.75422 3.04535 8.78265Z" fill="url(#paint4_linear_14381_26006)"/>
<path d="M3.95656 14.5953C3.59075 13.8815 3.33905 13.1148 3.21063 12.3231L3.95313 11.8934C4.0055 11.8631 4.04896 11.8194 4.07913 11.7669C4.1093 11.7144 4.12512 11.6549 4.125 11.5944V10.405C4.12512 10.3444 4.1093 10.2849 4.07913 10.2324C4.04896 10.1799 4.0055 10.1363 3.95313 10.1059L2.92188 9.51125C2.86969 9.48086 2.81039 9.46484 2.75 9.46484C2.68961 9.46484 2.63031 9.48086 2.57813 9.51125L1.54688 10.1059C1.4945 10.1363 1.45105 10.1799 1.42088 10.2324C1.39071 10.2849 1.37488 10.3444 1.375 10.405V11.5944C1.37488 11.6549 1.39071 11.7144 1.42088 11.7669C1.45105 11.8194 1.4945 11.8631 1.54688 11.8934L2.53344 12.4641C2.67863 13.314 2.95217 14.1369 3.34469 14.9047C3.38609 14.9852 3.45764 15.046 3.54373 15.074C3.62982 15.1019 3.72347 15.0947 3.80425 15.0538C3.88503 15.013 3.94637 14.9419 3.97491 14.856C4.00344 14.7701 3.99685 14.6764 3.95656 14.5953Z" fill="url(#paint5_linear_14381_26006)"/>
<path d="M8.56262 18.5212C7.79822 18.2761 7.07682 17.913 6.42449 17.4452L6.64793 16.6134C6.66382 16.5554 6.66392 16.4942 6.6482 16.4362C6.63249 16.3782 6.60153 16.3254 6.55855 16.2834L5.71636 15.4412C5.6748 15.3975 5.62205 15.3661 5.56387 15.3503C5.50568 15.3346 5.44428 15.3351 5.38637 15.3518L4.2348 15.6612C4.17695 15.6771 4.12413 15.7075 4.08141 15.7497C4.03868 15.7918 4.00746 15.8442 3.99074 15.9018L3.6848 17.0534C3.66808 17.1113 3.66757 17.1727 3.68333 17.2309C3.69909 17.289 3.73051 17.3418 3.77418 17.3834L4.61637 18.2255C4.64772 18.2577 4.68512 18.2834 4.72641 18.3011C4.7677 18.3188 4.81207 18.3282 4.85699 18.3287C4.80044 18.3648 6.04986 18.018 6.0498 18.0227C6.75216 18.5233 7.52796 18.9118 8.34949 19.1743C8.39238 19.1883 8.4376 19.1937 8.48257 19.1902C8.52755 19.1868 8.5714 19.1744 8.61162 19.154C8.65184 19.1336 8.68764 19.1054 8.71698 19.0712C8.74632 19.0369 8.76862 18.9972 8.78261 18.9543C8.79661 18.9114 8.80202 18.8662 8.79854 18.8212C8.79505 18.7763 8.78275 18.7324 8.76232 18.6922C8.74189 18.652 8.71374 18.6162 8.67947 18.5868C8.64521 18.5575 8.6055 18.5352 8.56262 18.5212Z" fill="url(#paint6_linear_14381_26006)"/>
<path d="M14.5884 18.0434C13.8775 18.4102 13.1129 18.662 12.3231 18.7894L11.8934 18.0469C11.8631 17.9945 11.8194 17.951 11.7669 17.9209C11.7144 17.8907 11.6549 17.8749 11.5944 17.875H10.405C10.3444 17.8749 10.2849 17.8907 10.2324 17.9209C10.1799 17.951 10.1363 17.9945 10.1059 18.0469L9.51125 19.0781C9.48086 19.1303 9.46484 19.1896 9.46484 19.25C9.46484 19.3104 9.48086 19.3697 9.51125 19.4219L10.1059 20.4531C10.1363 20.5055 10.1799 20.549 10.2324 20.5791C10.2849 20.6093 10.3444 20.6251 10.405 20.625H11.5944C11.6549 20.6251 11.7144 20.6093 11.7669 20.5791C11.8194 20.549 11.8631 20.5055 11.8934 20.4531L12.4641 19.4631C13.3147 19.3226 14.1382 19.05 14.9047 18.6553C14.9858 18.6134 15.047 18.5409 15.0747 18.4539C15.1024 18.3669 15.0944 18.2724 15.0525 18.1913C15.0106 18.1101 14.9381 18.049 14.8511 18.0212C14.7641 17.9935 14.6696 18.0015 14.5884 18.0434Z" fill="url(#paint7_linear_14381_26006)"/>
<path d="M18.9543 13.217C18.8677 13.1889 18.7735 13.1963 18.6923 13.2375C18.6112 13.2787 18.5496 13.3505 18.5212 13.437C18.3923 13.8349 18.2325 14.2222 18.0434 14.5954C17.8679 14.936 17.668 15.2634 17.4453 15.5751L16.6134 15.3516C16.5555 15.3349 16.4941 15.3344 16.4359 15.3502C16.3777 15.3659 16.325 15.3974 16.2834 15.441L15.4412 16.2832C15.3982 16.3252 15.3673 16.378 15.3516 16.436C15.3358 16.4941 15.3359 16.5552 15.3518 16.6132L15.6612 17.7648C15.6771 17.8226 15.7076 17.8754 15.7497 17.9182C15.7918 17.9609 15.8442 17.9921 15.9018 18.0088L17.0534 18.3148C17.1113 18.3314 17.1727 18.3319 17.2309 18.3162C17.2891 18.3004 17.3418 18.269 17.3834 18.2254L18.2256 17.3832C18.2692 17.3416 18.3007 17.2889 18.3164 17.2307C18.3322 17.1725 18.3317 17.1111 18.315 17.0532L18.0228 15.9532C18.5201 15.2477 18.9083 14.4713 19.1743 13.6501C19.2024 13.5635 19.195 13.4693 19.1538 13.3881C19.1125 13.3069 19.0408 13.2454 18.9543 13.217Z" fill="url(#paint8_linear_14381_26006)"/>
<path d="M20.4531 10.1062L19.4666 9.53559C19.3227 8.68533 19.0491 7.86219 18.6553 7.09497C18.6347 7.05457 18.6063 7.01864 18.5717 6.98925C18.5371 6.95987 18.4971 6.9376 18.4539 6.92372C18.4107 6.90985 18.3652 6.90465 18.32 6.90842C18.2748 6.91218 18.2308 6.92484 18.1905 6.94567C18.1502 6.9665 18.1144 6.99509 18.0852 7.02979C18.056 7.0645 18.0339 7.10463 18.0202 7.14789C18.0066 7.19115 18.0016 7.23668 18.0056 7.28187C18.0095 7.32706 18.0224 7.37102 18.0434 7.41122C18.2344 7.78113 18.3942 8.16632 18.5213 8.56278C18.6408 8.9261 18.7305 9.2986 18.7894 9.67653L18.0469 10.1062C17.9945 10.1366 17.951 10.1802 17.9209 10.2327C17.8907 10.2852 17.8749 10.3447 17.875 10.4053V11.5947C17.8749 11.6552 17.8907 11.7147 17.9209 11.7672C17.951 11.8197 17.9945 11.8633 18.0469 11.8937C18.1571 11.9396 19.1396 12.5752 19.25 12.5331C19.357 12.5789 20.3449 11.936 20.4531 11.8937C20.5055 11.8633 20.549 11.8197 20.5791 11.7672C20.6093 11.7147 20.6251 11.6552 20.625 11.5947V10.4053C20.6251 10.3447 20.6093 10.2852 20.5791 10.2327C20.549 10.1802 20.5055 10.1366 20.4531 10.1062Z" fill="url(#paint9_linear_14381_26006)"/>
<path d="M13.438 3.47897C14.2026 3.72369 14.924 4.08674 15.5761 4.55491L15.3527 5.38678C15.3368 5.44476 15.3367 5.50593 15.3524 5.56396C15.3681 5.62198 15.3991 5.67475 15.4421 5.71678L16.2843 6.55897C16.3259 6.60248 16.3787 6.6338 16.4368 6.64955C16.495 6.6653 16.5563 6.66488 16.6143 6.64835L17.7658 6.33897C17.8237 6.32306 17.8765 6.29259 17.9192 6.25046C17.9619 6.20834 17.9931 6.15597 18.0099 6.09835L18.3158 4.94678C18.3325 4.88887 18.333 4.82747 18.3173 4.76928C18.3015 4.71109 18.2701 4.65835 18.2264 4.61678L17.3843 3.7746C17.3422 3.73162 17.2895 3.70067 17.2314 3.68495C17.1734 3.66924 17.1122 3.66933 17.0543 3.68522L15.9508 3.97741C15.2485 3.47687 14.4727 3.08839 13.6511 2.82585C13.5647 2.79825 13.4709 2.80597 13.3901 2.84731C13.3093 2.88866 13.2482 2.96027 13.2201 3.04652C13.1919 3.13277 13.199 3.22666 13.2399 3.30768C13.2807 3.3887 13.3519 3.45028 13.438 3.47897Z" fill="url(#paint10_linear_14381_26006)"/>
<defs>
<linearGradient id="paint0_linear_14381_26006" x1="11.0004" y1="5.55859" x2="11.0004" y2="10.7939" gradientUnits="userSpaceOnUse">
<stop stop-color="#223CDD"/>
<stop offset="1" stop-color="#6176FF"/>
</linearGradient>
<linearGradient id="paint1_linear_14381_26006" x1="8.48305" y1="8.7832" x2="8.48305" y2="16.2357" gradientUnits="userSpaceOnUse">
<stop stop-color="#223CDD"/>
<stop offset="1" stop-color="#6176FF"/>
</linearGradient>
<linearGradient id="paint2_linear_14381_26006" x1="13.5162" y1="8.7832" x2="13.5162" y2="16.2357" gradientUnits="userSpaceOnUse">
<stop stop-color="#223CDD"/>
<stop offset="1" stop-color="#6176FF"/>
</linearGradient>
<linearGradient id="paint3_linear_14381_26006" x1="9.72132" y1="1.375" x2="9.72132" y2="4.125" gradientUnits="userSpaceOnUse">
<stop stop-color="#223CDD"/>
<stop offset="1" stop-color="#6176FF"/>
</linearGradient>
<linearGradient id="paint4_linear_14381_26006" x1="4.73422" y1="3.67285" x2="4.73422" y2="8.79928" gradientUnits="userSpaceOnUse">
<stop stop-color="#223CDD"/>
<stop offset="1" stop-color="#6176FF"/>
</linearGradient>
<linearGradient id="paint5_linear_14381_26006" x1="2.75" y1="9.46484" x2="2.75" y2="15.0907" gradientUnits="userSpaceOnUse">
<stop stop-color="#223CDD"/>
<stop offset="1" stop-color="#6176FF"/>
</linearGradient>
<linearGradient id="paint6_linear_14381_26006" x1="6.23572" y1="15.3389" x2="6.23572" y2="19.1913" gradientUnits="userSpaceOnUse">
<stop stop-color="#223CDD"/>
<stop offset="1" stop-color="#6176FF"/>
</linearGradient>
<linearGradient id="paint7_linear_14381_26006" x1="12.2779" y1="17.875" x2="12.2779" y2="20.625" gradientUnits="userSpaceOnUse">
<stop stop-color="#223CDD"/>
<stop offset="1" stop-color="#6176FF"/>
</linearGradient>
<linearGradient id="paint8_linear_14381_26006" x1="17.2655" y1="13.2002" x2="17.2655" y2="18.3276" gradientUnits="userSpaceOnUse">
<stop stop-color="#223CDD"/>
<stop offset="1" stop-color="#6176FF"/>
</linearGradient>
<linearGradient id="paint9_linear_14381_26006" x1="19.25" y1="6.90723" x2="19.25" y2="12.5354" gradientUnits="userSpaceOnUse">
<stop stop-color="#223CDD"/>
<stop offset="1" stop-color="#6176FF"/>
</linearGradient>
<linearGradient id="paint10_linear_14381_26006" x1="15.7659" y1="2.80957" x2="15.7659" y2="6.66106" gradientUnits="userSpaceOnUse">
<stop stop-color="#223CDD"/>
<stop offset="1" stop-color="#6176FF"/>
</linearGradient>
</defs>
</svg>
