<svg width="22" height="22" viewBox="0 0 22 22" fill="none" xmlns="http://www.w3.org/2000/svg">
<path d="M19.992 11.3952C19.6014 11.3411 19.2073 11.3159 18.813 11.3196C18.0447 11.8626 17.1546 12.2085 16.2212 12.3267C14.5334 18.3886 5.77879 17.3558 5.61334 10.9998C5.73709 8.02653 7.57267 6.29064 9.69699 5.79221C9.79006 4.92167 10.0829 4.08439 10.5528 3.34565C11.0226 2.6069 11.6567 1.98665 12.4057 1.53325C12.2447 1.42708 12.0554 1.37197 11.8625 1.37513H10.137C9.99451 1.37562 9.85379 1.40631 9.72407 1.46516C9.59435 1.52401 9.47857 1.60969 9.38438 1.71655C9.29019 1.82341 9.21972 1.94902 9.17762 2.0851C9.13551 2.22119 9.12273 2.36465 9.14012 2.50603C9.14908 2.58187 9.13036 2.65839 9.08742 2.72154C9.04448 2.78469 8.98019 2.83022 8.90637 2.84978C8.13666 3.04543 7.39919 3.35106 6.71674 3.75726C6.65079 3.79675 6.57258 3.81052 6.4971 3.79594C6.42162 3.78135 6.35417 3.73942 6.30768 3.67819C6.21971 3.56611 6.109 3.47392 5.98284 3.40769C5.85668 3.34146 5.71793 3.30269 5.57571 3.29392C5.4335 3.28516 5.29103 3.3066 5.1577 3.35683C5.02436 3.40707 4.90317 3.48497 4.80209 3.5854L3.58526 4.80221C3.48363 4.90265 3.40467 5.02368 3.35369 5.15715C3.30271 5.29063 3.28088 5.43348 3.28967 5.57609C3.29846 5.7187 3.33767 5.85779 3.40466 5.98399C3.47165 6.1102 3.56488 6.22061 3.67807 6.3078C3.73862 6.3548 3.78002 6.4222 3.79457 6.49746C3.80911 6.57271 3.79581 6.65069 3.75713 6.71687C3.35094 7.39932 3.0453 8.13678 2.84965 8.9065C2.83053 8.98057 2.78509 9.04514 2.72183 9.08816C2.65857 9.13117 2.58181 9.14969 2.5059 9.14024C2.36456 9.12313 2.22121 9.13611 2.08524 9.17831C1.94927 9.22052 1.82377 9.29101 1.71697 9.38515C1.61017 9.4793 1.52449 9.59496 1.46555 9.72456C1.40662 9.85416 1.37576 9.99475 1.375 10.1371V11.8627C1.37629 12.0051 1.40747 12.1455 1.46653 12.2751C1.52559 12.4046 1.61121 12.5202 1.71783 12.6145C1.82445 12.7089 1.94971 12.7797 2.08547 12.8225C2.22123 12.8653 2.36447 12.8791 2.5059 12.863C2.58156 12.8519 2.65863 12.8693 2.72216 12.9119C2.78568 12.9545 2.83112 13.0191 2.84965 13.0933C3.0453 13.863 3.35094 14.6005 3.75713 15.2829C3.79663 15.3489 3.8104 15.4271 3.79581 15.5026C3.78122 15.5781 3.7393 15.6455 3.67807 15.692C3.56601 15.78 3.47384 15.8907 3.40762 16.0169C3.34141 16.143 3.30264 16.2818 3.29387 16.424C3.28511 16.5662 3.30654 16.7086 3.35676 16.842C3.40698 16.9753 3.48485 17.0965 3.58526 17.1976L4.80209 18.4144C4.90317 18.5149 5.02436 18.5928 5.1577 18.643C5.29104 18.6932 5.43351 18.7147 5.57572 18.7059C5.71794 18.6971 5.85669 18.6584 5.98285 18.5921C6.109 18.5259 6.21971 18.4337 6.30768 18.3216C6.35468 18.2611 6.42209 18.2197 6.49734 18.2051C6.5726 18.1906 6.65057 18.2039 6.71674 18.2426C7.39919 18.6488 8.13666 18.9544 8.90637 19.15C8.98019 19.1696 9.04447 19.2151 9.08742 19.2783C9.13036 19.3414 9.14907 19.4179 9.14012 19.4938C9.1216 19.6354 9.13358 19.7793 9.17526 19.9158C9.21694 20.0524 9.28734 20.1785 9.38176 20.2856C9.47617 20.3927 9.59241 20.4784 9.72266 20.5369C9.85291 20.5954 9.99417 20.6253 10.137 20.6247H11.8626C12.005 20.6242 12.1457 20.5935 12.2755 20.5347C12.4052 20.4758 12.521 20.3901 12.6152 20.2833C12.7094 20.1764 12.7798 20.0508 12.8219 19.9147C12.864 19.7786 12.8768 19.6352 12.8594 19.4938C12.8505 19.4179 12.8692 19.3414 12.9121 19.2783C12.9551 19.2151 13.0193 19.1696 13.0932 19.15C13.8629 18.9544 14.6003 18.6488 15.2828 18.2426C15.349 18.2039 15.4269 18.1906 15.5022 18.2051C15.5775 18.2197 15.6449 18.2611 15.6919 18.3216C15.7798 18.4337 15.8906 18.5259 16.0167 18.5921C16.1429 18.6583 16.2816 18.6971 16.4238 18.7058C16.566 18.7146 16.7085 18.6932 16.8418 18.643C16.9752 18.5927 17.0963 18.5149 17.1974 18.4145L18.4177 17.1976C18.5171 17.0959 18.5941 16.9744 18.6435 16.841C18.693 16.7076 18.7138 16.5653 18.7048 16.4234C18.6957 16.2814 18.6569 16.1429 18.5908 16.017C18.5248 15.891 18.433 15.7802 18.3215 15.692C18.2602 15.6455 18.2183 15.5781 18.2037 15.5026C18.1891 15.4271 18.2029 15.3489 18.2424 15.2829C18.6486 14.6005 18.9542 13.863 19.1499 13.0933C19.1688 13.0194 19.2144 12.955 19.2778 12.9125C19.3412 12.87 19.418 12.8524 19.4936 12.863C19.6351 12.8791 19.7783 12.8653 19.9141 12.8225C20.0498 12.7797 20.1751 12.7089 20.2817 12.6145C20.3883 12.5202 20.4739 12.4046 20.533 12.2751C20.592 12.1455 20.6232 12.0051 20.6245 11.8627V11.2887C20.4317 11.3944 20.2088 11.4319 19.992 11.3952Z" fill="url(#paint0_linear_14381_25998)"/>
<path d="M10.9992 15.6989C12.0053 15.6975 12.9846 15.374 13.7936 14.7759C14.6026 14.1778 15.199 13.3364 15.4954 12.375C11.5115 12.2546 9.64149 9.24154 9.65177 6.53137V6.51074C4.80501 7.89257 5.25189 15.4618 10.9992 15.6989Z" fill="url(#paint1_linear_14381_25998)"/>
<path d="M15.4693 11.6873C16.5937 11.692 17.6879 11.3232 18.5801 10.6388C19.089 10.6182 19.5988 10.6446 20.1029 10.7179C20.1651 10.7255 20.2281 10.7162 20.2855 10.6909C20.3428 10.6656 20.3922 10.6253 20.4285 10.5742C20.4647 10.5231 20.4865 10.4632 20.4916 10.4007C20.4966 10.3383 20.4846 10.2756 20.4569 10.2194C20.2589 9.83373 20.1022 9.42816 19.9895 9.00949C20.4203 8.22448 20.6393 7.34076 20.6247 6.44539C20.6101 5.55002 20.3625 4.6739 19.9063 3.90334C19.45 3.13279 18.8009 2.49439 18.0229 2.05104C17.2449 1.60769 16.3647 1.37469 15.4693 1.375C8.62995 1.65844 8.63012 11.404 15.4693 11.6873ZM18.2295 8.79982H12.709C12.6187 8.79845 12.5326 8.76163 12.4693 8.69731C12.4059 8.63299 12.3704 8.54634 12.3704 8.45607C12.3704 8.36579 12.406 8.27914 12.4693 8.21483C12.5327 8.15052 12.6188 8.1137 12.709 8.11234H18.2295C18.3197 8.11384 18.4056 8.15072 18.4689 8.21502C18.5321 8.27932 18.5675 8.36589 18.5675 8.45607C18.5675 8.54625 18.5321 8.63282 18.4689 8.69712C18.4056 8.76141 18.3197 8.79831 18.2295 8.79982ZM18.2295 6.87488H12.709C12.6187 6.87351 12.5326 6.83668 12.4693 6.77237C12.4059 6.70805 12.3704 6.6214 12.3704 6.53112C12.3704 6.44085 12.406 6.3542 12.4693 6.28989C12.5327 6.22558 12.6188 6.18876 12.709 6.18739H18.2295C18.3197 6.1889 18.4056 6.22578 18.4689 6.29008C18.5321 6.35438 18.5675 6.44095 18.5675 6.53113C18.5675 6.62131 18.5321 6.70788 18.4689 6.77217C18.4056 6.83647 18.3197 6.87337 18.2295 6.87488ZM12.709 4.26241C12.7347 4.26394 15.481 4.2613 15.4693 4.26241C15.5596 4.26376 15.6457 4.30057 15.7091 4.36489C15.7724 4.42921 15.8079 4.51588 15.8079 4.60617C15.8079 4.69647 15.7724 4.78313 15.709 4.84745C15.6456 4.91176 15.5595 4.94856 15.4692 4.94989H12.709C12.6187 4.94855 12.5326 4.91175 12.4692 4.84743C12.4058 4.78311 12.3703 4.69645 12.3703 4.60615C12.3703 4.51586 12.4058 4.42919 12.4692 4.36488C12.5326 4.30056 12.6187 4.26375 12.709 4.26241Z" fill="url(#paint2_linear_14381_25998)"/>
<defs>
<linearGradient id="paint0_linear_14381_25998" x1="10.9998" y1="1.375" x2="10.9998" y2="20.6247" gradientUnits="userSpaceOnUse">
<stop stop-color="#223CDD"/>
<stop offset="1" stop-color="#6176FF"/>
</linearGradient>
<linearGradient id="paint1_linear_14381_25998" x1="10.9098" y1="6.51074" x2="10.9098" y2="15.6989" gradientUnits="userSpaceOnUse">
<stop stop-color="#223CDD"/>
<stop offset="1" stop-color="#6176FF"/>
</linearGradient>
<linearGradient id="paint2_linear_14381_25998" x1="15.4826" y1="1.375" x2="15.4826" y2="11.6873" gradientUnits="userSpaceOnUse">
<stop stop-color="#223CDD"/>
<stop offset="1" stop-color="#6176FF"/>
</linearGradient>
</defs>
</svg>
