<svg width="22" height="22" viewBox="0 0 22 22" fill="none" xmlns="http://www.w3.org/2000/svg">
<path d="M18.1844 12.5382C18.0081 12.5378 17.8333 12.5052 17.6688 12.4419C17.3807 12.5851 17.0846 12.7114 16.7819 12.8201C16.6694 13.0711 16.4864 13.284 16.2551 13.433C16.0238 13.5819 15.7542 13.6603 15.4791 13.6588H14.6609C14.3853 13.659 14.1155 13.5792 13.8842 13.4291C13.653 13.279 13.4702 13.065 13.3581 12.8132C13.0493 12.7174 12.7501 12.5931 12.4644 12.4419C12.2068 12.5414 11.9259 12.5634 11.656 12.5054C11.386 12.4474 11.139 12.3118 10.945 12.1154L10.3709 11.5379C10.1719 11.3441 10.035 11.0956 9.97744 10.8239C9.91991 10.5521 9.9444 10.2694 10.0478 10.0116C9.8998 9.72658 9.77229 9.43136 9.66625 9.12819C9.41493 9.01608 9.20174 8.83313 9.05277 8.60175C8.9038 8.37036 8.82552 8.10056 8.8275 7.82537V7.00727C8.82646 6.73272 8.90474 6.46373 9.05292 6.23261C9.20111 6.00149 9.41289 5.81809 9.66281 5.70445C9.77432 5.40233 9.90169 5.10629 10.0444 4.81758C9.94301 4.56081 9.91911 4.27997 9.97563 4.00977H2.40625C2.13281 4.00998 1.87063 4.1187 1.67728 4.31205C1.48393 4.5054 1.37522 4.76758 1.375 5.04102V15.3879C1.37521 15.6613 1.48393 15.9235 1.67728 16.1169C1.87063 16.3102 2.13281 16.4189 2.40625 16.4191H18.6175C18.8909 16.4189 19.1531 16.3102 19.3465 16.1169C19.5398 15.9235 19.6485 15.6613 19.6488 15.3879V11.6616C19.2572 12.0656 18.7987 12.5769 18.1844 12.5382ZM4.91563 13.291C4.96272 13.3396 4.99456 13.4009 5.00721 13.4674C5.01986 13.5339 5.01278 13.6026 4.98682 13.6651C4.96087 13.7276 4.91719 13.7812 4.86117 13.8191C4.80515 13.8571 4.73923 13.8779 4.67156 13.8788C4.62606 13.8788 4.58102 13.8696 4.53911 13.8519C4.4972 13.8342 4.45925 13.8083 4.4275 13.7757L3.26906 12.6172C3.20465 12.5523 3.16851 12.4646 3.16851 12.3732C3.16851 12.2817 3.20465 12.194 3.26906 12.1291L4.4275 10.9707C4.49221 10.9081 4.57889 10.8733 4.66894 10.8739C4.75899 10.8745 4.84521 10.9103 4.90911 10.9738C4.97301 11.0372 5.00948 11.1232 5.01069 11.2132C5.01191 11.3033 4.97777 11.3902 4.9156 11.4554L3.99781 12.3732L4.91563 13.291ZM7.32531 11.2972L6.74781 13.6176C6.72457 13.705 6.6678 13.7798 6.58982 13.8256C6.51184 13.8715 6.41892 13.8848 6.3312 13.8627C6.24348 13.8405 6.16802 13.7847 6.12118 13.7073C6.07433 13.6299 6.05988 13.5371 6.08094 13.4491L6.65844 11.1288C6.68211 11.0418 6.73897 10.9676 6.81679 10.9222C6.89461 10.8767 6.98718 10.8636 7.07457 10.8856C7.16196 10.9077 7.23719 10.9632 7.28408 11.0402C7.33098 11.1172 7.34578 11.2095 7.32531 11.2972ZM10.1372 12.6172L8.97875 13.7757C8.947 13.8083 8.90905 13.8342 8.86714 13.8519C8.82522 13.8696 8.78019 13.8788 8.73469 13.8788C8.66702 13.8779 8.6011 13.8571 8.54508 13.8192C8.48906 13.7812 8.44538 13.7277 8.41943 13.6652C8.39347 13.6026 8.38639 13.5339 8.39904 13.4674C8.41169 13.4009 8.44353 13.3396 8.49063 13.291L9.40844 12.3732L8.49063 11.4554C8.45875 11.4236 8.43346 11.3858 8.41621 11.3442C8.39895 11.3027 8.39007 11.2581 8.39007 11.213C8.39007 11.168 8.39895 11.1234 8.41621 11.0819C8.43346 11.0403 8.45875 11.0025 8.49063 10.9707C8.55552 10.9063 8.64325 10.8701 8.73469 10.8701C8.82612 10.8701 8.91385 10.9063 8.97875 10.9707L10.1372 12.1291C10.2016 12.194 10.2377 12.2818 10.2377 12.3732C10.2377 12.4646 10.2016 12.5524 10.1372 12.6172Z" fill="url(#paint0_linear_14381_26073)"/>
<path d="M12.0585 18.2899C11.9689 17.9025 11.9342 17.5045 11.9554 17.1074H9.06788C9.08881 17.5045 9.05411 17.9025 8.96479 18.2899C5.27979 18.5099 3.95635 19.4724 3.89449 19.5171C3.82431 19.5723 3.77845 19.6528 3.76667 19.7413C3.75489 19.8298 3.77812 19.9194 3.83141 19.9911C3.8847 20.0628 3.96386 20.1108 4.05203 20.125C4.14021 20.1392 4.23044 20.1184 4.30353 20.0671C4.32072 20.0568 5.61665 19.1459 9.22603 18.9637C10.023 18.9225 11.0003 18.9225 11.7973 18.9637C15.4067 19.1459 16.7026 20.0568 16.7163 20.0671C16.7894 20.1193 16.88 20.1408 16.9688 20.1271C17.0575 20.1133 17.1373 20.0654 17.1912 19.9936C17.2451 19.9217 17.2687 19.8317 17.2571 19.7426C17.2454 19.6536 17.1994 19.5727 17.1288 19.5171C17.067 19.4724 15.7435 18.5099 12.0585 18.2899Z" fill="url(#paint1_linear_14381_26073)"/>
<path d="M19.9484 6.26819C19.9387 6.26853 19.929 6.26571 19.921 6.26013C19.9129 6.25456 19.9069 6.24654 19.9038 6.23726C19.7603 5.73278 19.568 5.24349 19.3296 4.77634C19.45 4.63573 19.5127 4.45475 19.505 4.26981C19.4974 4.08486 19.42 3.90967 19.2884 3.77946L18.7109 3.20196C18.5809 3.06918 18.4053 2.99072 18.2196 2.98242C18.0339 2.97413 17.852 3.03662 17.7106 3.15728C17.2428 2.92043 16.7536 2.72824 16.2497 2.58326C16.2404 2.58011 16.2324 2.57406 16.2268 2.566C16.2213 2.55795 16.2184 2.54831 16.2188 2.53852C16.2028 2.35358 16.118 2.18136 15.9811 2.05595C15.8443 1.93054 15.6653 1.86109 15.4797 1.86134H14.6616C14.4784 1.86051 14.3015 1.92805 14.1654 2.05075C14.0294 2.17344 13.944 2.34246 13.9259 2.52477C13.9275 2.53695 13.925 2.5493 13.9188 2.55988C13.9125 2.57046 13.903 2.57867 13.8916 2.58321C13.3968 2.70315 12.9237 2.89912 12.4891 3.16415C12.4803 3.16893 12.4703 3.17084 12.4605 3.1696C12.4506 3.16837 12.4413 3.16405 12.4341 3.15727C12.2928 3.03686 12.1113 2.97421 11.9258 2.98185C11.7404 2.9895 11.5646 3.06688 11.4338 3.19852L10.8563 3.77946C10.7242 3.90924 10.6462 4.08418 10.638 4.26911C10.6297 4.45405 10.6917 4.63527 10.8116 4.77634C10.5742 5.24395 10.382 5.73315 10.2376 6.23729C10.2349 6.24684 10.2289 6.25515 10.2207 6.2608C10.2126 6.26644 10.2027 6.26907 10.1928 6.26823C10.0079 6.28418 9.83566 6.36898 9.71025 6.50584C9.58484 6.64271 9.51539 6.82166 9.51563 7.00729V7.82538C9.51494 8.0108 9.58434 8.18962 9.70991 8.32604C9.83549 8.46245 10.008 8.54638 10.1928 8.56101C10.2029 8.56146 10.2126 8.565 10.2206 8.57115C10.2286 8.5773 10.2345 8.58576 10.2375 8.59538C10.3821 9.09834 10.5744 9.58637 10.8116 10.0528C10.6917 10.1945 10.6296 10.3763 10.6379 10.5618C10.6462 10.7472 10.7242 10.9227 10.8563 11.0532L11.4338 11.6307C11.5642 11.7628 11.7397 11.8408 11.9252 11.8491C12.1106 11.8573 12.2924 11.7953 12.4341 11.6754C12.4414 11.6687 12.4506 11.6644 12.4605 11.6632C12.4703 11.6619 12.4803 11.6638 12.4891 11.6685C12.9237 11.9335 13.3968 12.1295 13.8916 12.2494C13.9127 12.2523 13.9289 12.2824 13.9259 12.3079C13.9445 12.49 14.0301 12.6587 14.166 12.7813C14.3019 12.9038 14.4785 12.9716 14.6616 12.9713H15.4797C15.6653 12.9716 15.8443 12.9021 15.9811 12.7767C16.118 12.6513 16.2028 12.4791 16.2188 12.2941C16.2184 12.2843 16.2212 12.2747 16.2268 12.2667C16.2324 12.2586 16.2404 12.2526 16.2497 12.2495C16.7538 12.105 17.243 11.9127 17.7106 11.6753C17.852 11.796 18.0339 11.8585 18.2196 11.8502C18.4053 11.8419 18.5809 11.7635 18.7109 11.6307L19.2884 11.0532C19.4201 10.9223 19.4975 10.7466 19.5051 10.5611C19.5128 10.3757 19.4501 10.1941 19.3297 10.0529C19.567 9.58645 19.7592 9.0984 19.9037 8.59538C19.9072 8.58605 19.9133 8.57789 19.9212 8.57181C19.9291 8.56574 19.9385 8.562 19.9485 8.56101C20.1335 8.54697 20.3064 8.46322 20.432 8.32668C20.5577 8.19013 20.6269 8.01097 20.6256 7.82538V7.00727C20.6265 6.82146 20.5572 6.64217 20.4317 6.50517C20.3062 6.36817 20.1336 6.28355 19.9484 6.26819ZM15.0706 10.5101C14.2505 10.5089 13.4642 10.1826 12.8843 9.60269C12.3043 9.02274 11.978 8.23649 11.9769 7.41632C12.1446 3.31339 17.9973 3.31457 18.1644 7.41634C18.1632 8.2365 17.8369 9.02275 17.257 9.60269C16.677 10.1826 15.8908 10.5089 15.0706 10.5101Z" fill="url(#paint2_linear_14381_26073)"/>
<defs>
<linearGradient id="paint0_linear_14381_26073" x1="10.5119" y1="4.00977" x2="10.5119" y2="16.4191" gradientUnits="userSpaceOnUse">
<stop stop-color="#223CDD"/>
<stop offset="1" stop-color="#6176FF"/>
</linearGradient>
<linearGradient id="paint1_linear_14381_26073" x1="10.5118" y1="17.1074" x2="10.5118" y2="20.1311" gradientUnits="userSpaceOnUse">
<stop stop-color="#223CDD"/>
<stop offset="1" stop-color="#6176FF"/>
</linearGradient>
<linearGradient id="paint2_linear_14381_26073" x1="15.0706" y1="1.86133" x2="15.0706" y2="12.9713" gradientUnits="userSpaceOnUse">
<stop stop-color="#223CDD"/>
<stop offset="1" stop-color="#6176FF"/>
</linearGradient>
</defs>
</svg>
