<svg width="22" height="22" viewBox="0 0 22 22" fill="none" xmlns="http://www.w3.org/2000/svg">
<path d="M19.5938 1.39355H2.40625C2.13299 1.39435 1.87115 1.50326 1.67793 1.69648C1.4847 1.88971 1.3758 2.15155 1.375 2.4248V5.1748H9.5425L12.2203 3.83762C12.2682 3.81304 12.3212 3.80009 12.375 3.7998H20.625V2.4248C20.6242 2.15155 20.5153 1.88971 20.3221 1.69648C20.1288 1.50326 19.867 1.39435 19.5938 1.39355ZM3.26562 3.97168C3.16364 3.97168 3.06395 3.94144 2.97916 3.88478C2.89437 3.82812 2.82828 3.74759 2.78925 3.65338C2.75022 3.55916 2.74001 3.45548 2.75991 3.35546C2.7798 3.25544 2.82891 3.16356 2.90102 3.09145C2.97313 3.01934 3.06501 2.97023 3.16503 2.95034C3.26505 2.93044 3.36873 2.94065 3.46295 2.97968C3.55716 3.01871 3.63769 3.08479 3.69435 3.16959C3.75101 3.25438 3.78125 3.35407 3.78125 3.45605C3.78134 3.52379 3.76807 3.59088 3.74218 3.65348C3.7163 3.71608 3.67833 3.77296 3.63043 3.82086C3.58253 3.86876 3.52565 3.90673 3.46305 3.93261C3.40045 3.9585 3.33336 3.97177 3.26562 3.97168ZM5.32812 3.97168C5.22614 3.97168 5.12645 3.94144 5.04166 3.88478C4.95687 3.82812 4.89078 3.74759 4.85175 3.65338C4.81272 3.55916 4.80251 3.45548 4.82241 3.35546C4.8423 3.25544 4.89141 3.16356 4.96352 3.09145C5.03563 3.01934 5.12751 2.97023 5.22753 2.95034C5.32755 2.93044 5.43123 2.94065 5.52545 2.97968C5.61966 3.01871 5.70019 3.08479 5.75685 3.16959C5.81351 3.25438 5.84375 3.35407 5.84375 3.45605C5.84384 3.52379 5.83057 3.59088 5.80469 3.65348C5.7788 3.71608 5.74083 3.77296 5.69293 3.82086C5.64503 3.86876 5.58815 3.90673 5.52555 3.93261C5.46295 3.9585 5.39586 3.97177 5.32812 3.97168ZM7.39062 3.97168C7.28864 3.97168 7.18895 3.94144 7.10416 3.88478C7.01937 3.82812 6.95328 3.74759 6.91425 3.65338C6.87522 3.55916 6.86501 3.45548 6.88491 3.35546C6.9048 3.25544 6.95391 3.16356 7.02602 3.09145C7.09813 3.01934 7.19001 2.97023 7.29003 2.95034C7.39005 2.93044 7.49373 2.94065 7.58795 2.97968C7.68216 3.01871 7.76269 3.08479 7.81935 3.16959C7.87601 3.25438 7.90625 3.35407 7.90625 3.45605C7.90634 3.52379 7.89307 3.59088 7.86719 3.65348C7.8413 3.71608 7.80333 3.77296 7.75543 3.82086C7.70753 3.86876 7.65065 3.90673 7.58805 3.93261C7.52545 3.9585 7.45836 3.97177 7.39062 3.97168Z" fill="url(#paint0_linear_14381_26038)"/>
<path d="M8.79703 9.38965C8.36103 9.57066 7.94795 9.80258 7.56641 10.0806C7.73828 10.1837 7.92391 10.2834 8.12328 10.3797C8.31192 10.0266 8.53779 9.69469 8.79703 9.38965Z" fill="url(#paint1_linear_14381_26038)"/>
<path d="M9.77969 5.82449C9.73181 5.84906 9.67881 5.86201 9.625 5.8623H1.375V15.1436C1.37527 15.2346 1.41158 15.3219 1.47598 15.3863C1.54039 15.4507 1.62767 15.487 1.71875 15.4873H4.50656C4.40804 14.5757 4.50257 13.6536 4.78398 12.7809C5.0654 11.9083 5.5274 11.1047 6.13992 10.4224C6.75245 9.74011 7.50176 9.19443 8.33912 8.82088C9.17648 8.44733 10.0831 8.25427 11 8.25427C11.9169 8.25427 12.8235 8.44733 13.6609 8.82088C14.4982 9.19443 15.2476 9.74011 15.8601 10.4224C16.4726 11.1047 16.9346 11.9083 17.216 12.7809C17.4974 13.6536 17.592 14.5757 17.4934 15.4873H20.2812C20.3723 15.487 20.4596 15.4507 20.524 15.3863C20.5884 15.3219 20.6247 15.2346 20.625 15.1436V4.4873H12.4575L9.77969 5.82449Z" fill="url(#paint2_linear_14381_26038)"/>
<path d="M7.56641 19.5198C7.94796 19.7978 8.36103 20.0297 8.79703 20.2107C8.5378 19.9057 8.31193 19.5738 8.12328 19.2207C7.92391 19.317 7.73828 19.4166 7.56641 19.5198Z" fill="url(#paint3_linear_14381_26038)"/>
<path d="M10.6572 20.6064V18.5576C10.0137 18.5921 9.37885 18.7218 8.77344 18.9426C9.27531 19.8467 9.93531 20.4586 10.6572 20.6064Z" fill="url(#paint4_linear_14381_26038)"/>
<path d="M11.3438 18.5576V20.6064C12.0656 20.4585 12.7256 19.8467 13.2275 18.9426C12.6221 18.7218 11.9873 18.5921 11.3438 18.5576Z" fill="url(#paint5_linear_14381_26038)"/>
<path d="M13.2031 20.2107C13.6391 20.0297 14.0522 19.7978 14.4338 19.5198C14.2619 19.4166 14.0762 19.317 13.8769 19.2207C13.6882 19.5738 13.4624 19.9057 13.2031 20.2107Z" fill="url(#paint6_linear_14381_26038)"/>
<path d="M14.1719 18.6017C14.4542 18.7371 14.7285 18.8886 14.9934 19.0554C16.0828 18.0343 16.7386 16.6341 16.8256 15.1436H14.8731C14.853 16.3295 14.6153 17.5016 14.1719 18.6017Z" fill="url(#paint7_linear_14381_26038)"/>
<path d="M11.3438 17.8695C12.0905 17.9066 12.8269 18.0597 13.5266 18.3232C13.9364 17.3118 14.16 16.2346 14.1866 15.1436H11.3438V17.8695Z" fill="url(#paint8_linear_14381_26038)"/>
<path d="M8.4725 18.3232C9.17216 18.0597 9.90857 17.9066 10.6553 17.8695V15.1436H7.8125C7.8391 16.2346 8.06269 17.3118 8.4725 18.3232Z" fill="url(#paint9_linear_14381_26038)"/>
<path d="M7.12633 15.1436H5.17383C5.26085 16.6341 5.91669 18.0343 7.00602 19.0554C7.27094 18.8886 7.54525 18.7371 7.82758 18.6017C7.38419 17.5016 7.1465 16.3295 7.12633 15.1436Z" fill="url(#paint10_linear_14381_26038)"/>
<path d="M5.17383 14.4568H7.12633C7.14649 13.2709 7.38418 12.0988 7.82758 10.9987C7.54525 10.8633 7.27094 10.7118 7.00602 10.5449C5.91668 11.566 5.26085 12.9663 5.17383 14.4568Z" fill="url(#paint11_linear_14381_26038)"/>
<path d="M7.8125 14.4561H10.6553V11.7301C9.90857 11.693 9.17216 11.5399 8.4725 11.2764C8.06269 12.2878 7.8391 13.365 7.8125 14.4561Z" fill="url(#paint12_linear_14381_26038)"/>
<path d="M11.3438 14.4561H14.1866C14.16 13.365 13.9364 12.2878 13.5266 11.2764C12.8269 11.5399 12.0905 11.693 11.3438 11.7301V14.4561Z" fill="url(#paint13_linear_14381_26038)"/>
<path d="M14.1719 10.9987C14.6153 12.0988 14.853 13.2709 14.8731 14.4568H16.8256C16.7386 12.9663 16.0828 11.566 14.9934 10.5449C14.7285 10.7118 14.4542 10.8633 14.1719 10.9987Z" fill="url(#paint14_linear_14381_26038)"/>
<path d="M14.4338 10.0806C14.0522 9.80258 13.6391 9.57066 13.2031 9.38965C13.4624 9.69468 13.6882 10.0266 13.8769 10.3796C14.0762 10.2834 14.2619 10.1837 14.4338 10.0806Z" fill="url(#paint15_linear_14381_26038)"/>
<path d="M11.3438 8.99414V11.0429C11.9873 11.0084 12.6221 10.8787 13.2275 10.6579C12.7256 9.75383 12.0656 9.14195 11.3438 8.99414Z" fill="url(#paint16_linear_14381_26038)"/>
<path d="M8.77344 10.6579C9.37886 10.8787 10.0137 11.0084 10.6572 11.0429V8.99414C9.93531 9.14195 9.27531 9.75383 8.77344 10.6579Z" fill="url(#paint17_linear_14381_26038)"/>
<defs>
<linearGradient id="paint0_linear_14381_26038" x1="11" y1="1.39355" x2="11" y2="5.1748" gradientUnits="userSpaceOnUse">
<stop stop-color="#223CDD"/>
<stop offset="1" stop-color="#6176FF"/>
</linearGradient>
<linearGradient id="paint1_linear_14381_26038" x1="8.18172" y1="9.38965" x2="8.18172" y2="10.3797" gradientUnits="userSpaceOnUse">
<stop stop-color="#223CDD"/>
<stop offset="1" stop-color="#6176FF"/>
</linearGradient>
<linearGradient id="paint2_linear_14381_26038" x1="11" y1="4.4873" x2="11" y2="15.4873" gradientUnits="userSpaceOnUse">
<stop stop-color="#223CDD"/>
<stop offset="1" stop-color="#6176FF"/>
</linearGradient>
<linearGradient id="paint3_linear_14381_26038" x1="8.18172" y1="19.2207" x2="8.18172" y2="20.2107" gradientUnits="userSpaceOnUse">
<stop stop-color="#223CDD"/>
<stop offset="1" stop-color="#6176FF"/>
</linearGradient>
<linearGradient id="paint4_linear_14381_26038" x1="9.71531" y1="18.5576" x2="9.71531" y2="20.6064" gradientUnits="userSpaceOnUse">
<stop stop-color="#223CDD"/>
<stop offset="1" stop-color="#6176FF"/>
</linearGradient>
<linearGradient id="paint5_linear_14381_26038" x1="12.2856" y1="18.5576" x2="12.2856" y2="20.6064" gradientUnits="userSpaceOnUse">
<stop stop-color="#223CDD"/>
<stop offset="1" stop-color="#6176FF"/>
</linearGradient>
<linearGradient id="paint6_linear_14381_26038" x1="13.8184" y1="19.2207" x2="13.8184" y2="20.2107" gradientUnits="userSpaceOnUse">
<stop stop-color="#223CDD"/>
<stop offset="1" stop-color="#6176FF"/>
</linearGradient>
<linearGradient id="paint7_linear_14381_26038" x1="15.4988" y1="15.1436" x2="15.4988" y2="19.0554" gradientUnits="userSpaceOnUse">
<stop stop-color="#223CDD"/>
<stop offset="1" stop-color="#6176FF"/>
</linearGradient>
<linearGradient id="paint8_linear_14381_26038" x1="12.7652" y1="15.1436" x2="12.7652" y2="18.3232" gradientUnits="userSpaceOnUse">
<stop stop-color="#223CDD"/>
<stop offset="1" stop-color="#6176FF"/>
</linearGradient>
<linearGradient id="paint9_linear_14381_26038" x1="9.23391" y1="15.1436" x2="9.23391" y2="18.3232" gradientUnits="userSpaceOnUse">
<stop stop-color="#223CDD"/>
<stop offset="1" stop-color="#6176FF"/>
</linearGradient>
<linearGradient id="paint10_linear_14381_26038" x1="6.5007" y1="15.1436" x2="6.5007" y2="19.0554" gradientUnits="userSpaceOnUse">
<stop stop-color="#223CDD"/>
<stop offset="1" stop-color="#6176FF"/>
</linearGradient>
<linearGradient id="paint11_linear_14381_26038" x1="6.5007" y1="10.5449" x2="6.5007" y2="14.4568" gradientUnits="userSpaceOnUse">
<stop stop-color="#223CDD"/>
<stop offset="1" stop-color="#6176FF"/>
</linearGradient>
<linearGradient id="paint12_linear_14381_26038" x1="9.23391" y1="11.2764" x2="9.23391" y2="14.4561" gradientUnits="userSpaceOnUse">
<stop stop-color="#223CDD"/>
<stop offset="1" stop-color="#6176FF"/>
</linearGradient>
<linearGradient id="paint13_linear_14381_26038" x1="12.7652" y1="11.2764" x2="12.7652" y2="14.4561" gradientUnits="userSpaceOnUse">
<stop stop-color="#223CDD"/>
<stop offset="1" stop-color="#6176FF"/>
</linearGradient>
<linearGradient id="paint14_linear_14381_26038" x1="15.4988" y1="10.5449" x2="15.4988" y2="14.4568" gradientUnits="userSpaceOnUse">
<stop stop-color="#223CDD"/>
<stop offset="1" stop-color="#6176FF"/>
</linearGradient>
<linearGradient id="paint15_linear_14381_26038" x1="13.8184" y1="9.38965" x2="13.8184" y2="10.3796" gradientUnits="userSpaceOnUse">
<stop stop-color="#223CDD"/>
<stop offset="1" stop-color="#6176FF"/>
</linearGradient>
<linearGradient id="paint16_linear_14381_26038" x1="12.2856" y1="8.99414" x2="12.2856" y2="11.0429" gradientUnits="userSpaceOnUse">
<stop stop-color="#223CDD"/>
<stop offset="1" stop-color="#6176FF"/>
</linearGradient>
<linearGradient id="paint17_linear_14381_26038" x1="9.71531" y1="8.99414" x2="9.71531" y2="11.0429" gradientUnits="userSpaceOnUse">
<stop stop-color="#223CDD"/>
<stop offset="1" stop-color="#6176FF"/>
</linearGradient>
</defs>
</svg>
