<svg width="22" height="22" viewBox="0 0 22 22" fill="none" xmlns="http://www.w3.org/2000/svg">
<path d="M4.15603 11.0002C4.15096 9.57792 4.59352 8.1901 5.42103 7.03332C5.44984 6.99274 5.48729 6.95906 5.53068 6.93469C5.57407 6.91032 5.62232 6.89587 5.67196 6.89238C5.72177 6.88802 5.77193 6.89469 5.81887 6.91192C5.86581 6.92915 5.90837 6.95652 5.94353 6.99207L6.51759 7.5627V3.83301H2.7879L3.47196 4.51707C3.53176 4.57754 3.56726 4.65787 3.57169 4.7428C3.57613 4.82773 3.5492 4.91133 3.49603 4.9777C2.11495 6.68013 1.36557 8.80804 1.37509 11.0002C1.37568 12.9905 1.99426 14.9315 3.1454 16.5552V15.1389C3.14567 15.0479 3.18197 14.9606 3.24638 14.8962C3.31079 14.8318 3.39807 14.7955 3.48915 14.7952H5.30759C4.55721 13.6718 4.1565 12.3512 4.15603 11.0002Z" fill="url(#paint0_linear_14358_25981)"/>
<path d="M14.7942 18.5109V16.6924C13.6413 17.4622 12.2817 17.8635 10.8956 17.8433C9.50952 17.823 8.16227 17.3821 7.03234 16.579C6.99177 16.5502 6.95808 16.5127 6.93371 16.4693C6.90934 16.4259 6.89489 16.3777 6.89141 16.328C6.88624 16.2782 6.89254 16.2278 6.90982 16.1807C6.92709 16.1337 6.95489 16.0912 6.99109 16.0565L7.56172 15.4824H3.83203V19.2121L4.51609 18.528C4.57657 18.4683 4.6569 18.4328 4.74183 18.4283C4.82675 18.4239 4.91035 18.4508 4.97672 18.504C6.67886 19.8856 8.80696 20.635 10.9992 20.6249C12.9895 20.6243 14.9306 20.0057 16.5542 18.8546H15.138C15.0469 18.8543 14.9596 18.818 14.8952 18.7536C14.8308 18.6892 14.7945 18.6019 14.7942 18.5109Z" fill="url(#paint1_linear_14358_25981)"/>
<path d="M18.504 17.0228C19.8851 15.3204 20.6345 13.1925 20.6249 11.0003C20.6243 9.00999 20.0057 7.06897 18.8546 5.44531V6.86156C18.8543 6.95265 18.818 7.03993 18.7536 7.10434C18.6892 7.16875 18.6019 7.20505 18.5109 7.20531H16.6924C17.4622 8.35822 17.8635 9.71778 17.8432 11.1039C17.823 12.49 17.3821 13.8373 16.579 14.9672C16.5502 15.0078 16.5127 15.0414 16.4693 15.0658C16.4259 15.0902 16.3777 15.1046 16.328 15.1081C16.2782 15.1133 16.2278 15.107 16.1807 15.0897C16.1337 15.0724 16.0912 15.0446 16.0565 15.0084L15.4824 14.4378V18.1675H19.2121L18.528 17.4834C18.4683 17.423 18.4328 17.3426 18.4283 17.2577C18.4239 17.1728 18.4508 17.0892 18.504 17.0228Z" fill="url(#paint2_linear_14358_25981)"/>
<path d="M7.20531 3.48916V5.3076C8.35822 4.53784 9.71778 4.1365 11.1039 4.15676C12.49 4.17702 13.8373 4.61791 14.9672 5.42104C15.0078 5.44985 15.0414 5.4873 15.0658 5.53069C15.0902 5.57408 15.1046 5.62233 15.1081 5.67198C15.1133 5.72184 15.107 5.77223 15.0897 5.8193C15.0724 5.86636 15.0446 5.90886 15.0084 5.94354L14.4378 6.5176H18.1675V2.78791L17.4834 3.47198C17.423 3.53177 17.3426 3.56726 17.2577 3.5717C17.1728 3.57613 17.0892 3.54921 17.0228 3.49604C15.3207 2.11445 13.1926 1.36501 11.0003 1.3751C9.01 1.3757 7.06897 1.99428 5.44531 3.14541H6.86156C6.95265 3.14569 7.03992 3.18199 7.10433 3.2464C7.16874 3.3108 7.20504 3.39808 7.20531 3.48916Z" fill="url(#paint3_linear_14358_25981)"/>
<path d="M10.4753 8.21313C10.4272 8.06875 10.3275 8 10.1797 8H9.02469C8.87687 8 8.77719 8.07219 8.72906 8.21313L7.00687 12.9534C7.00344 12.9672 7 12.9913 7 13.0188C7 13.0566 7.01719 13.0944 7.04812 13.1253C7.07906 13.1563 7.11687 13.1734 7.15469 13.1734H8.11719C8.23406 13.1734 8.32 13.1184 8.36812 13.0119L8.63281 12.2934H10.5716L10.8362 13.0119C10.8844 13.1219 10.9703 13.1734 11.0872 13.1734H12.0497C12.0875 13.1734 12.1253 13.1563 12.1562 13.1253C12.1872 13.0944 12.2044 13.0566 12.2044 13.0188C12.2044 12.9878 12.2009 12.9672 12.1975 12.9534L10.4753 8.21313ZM8.94219 11.1866L9.59875 9.29938L10.2553 11.1866H8.94219Z" fill="url(#paint4_linear_14358_25981)"/>
<path d="M14.01 8H12.9512C12.9031 8 12.8584 8.01719 12.8206 8.05156C12.7828 8.08594 12.7656 8.13063 12.7656 8.18563V12.9913C12.7656 13.0394 12.7828 13.0841 12.8206 13.1219C12.8584 13.1597 12.8997 13.1769 12.9512 13.1769H14.01C14.065 13.1769 14.1097 13.1597 14.1441 13.1219C14.1784 13.0841 14.1956 13.0428 14.1956 12.9913V8.18563C14.1956 8.13063 14.1784 8.08594 14.1441 8.05156C14.1062 8.01719 14.0616 8 14.01 8Z" fill="url(#paint5_linear_14358_25981)"/>
<defs>
<linearGradient id="paint0_linear_14358_25981" x1="3.94629" y1="3.83301" x2="3.94629" y2="16.5552" gradientUnits="userSpaceOnUse">
<stop stop-color="#223CDD"/>
<stop offset="1" stop-color="#6176FF"/>
</linearGradient>
<linearGradient id="paint1_linear_14358_25981" x1="10.1931" y1="15.4824" x2="10.1931" y2="20.625" gradientUnits="userSpaceOnUse">
<stop stop-color="#223CDD"/>
<stop offset="1" stop-color="#6176FF"/>
</linearGradient>
<linearGradient id="paint2_linear_14358_25981" x1="18.0537" y1="5.44531" x2="18.0537" y2="18.1675" gradientUnits="userSpaceOnUse">
<stop stop-color="#223CDD"/>
<stop offset="1" stop-color="#6176FF"/>
</linearGradient>
<linearGradient id="paint3_linear_14358_25981" x1="11.8064" y1="1.375" x2="11.8064" y2="6.5176" gradientUnits="userSpaceOnUse">
<stop stop-color="#223CDD"/>
<stop offset="1" stop-color="#6176FF"/>
</linearGradient>
<linearGradient id="paint4_linear_14358_25981" x1="9.60219" y1="8" x2="9.60219" y2="13.1734" gradientUnits="userSpaceOnUse">
<stop stop-color="#223CDD"/>
<stop offset="1" stop-color="#6176FF"/>
</linearGradient>
<linearGradient id="paint5_linear_14358_25981" x1="13.4806" y1="8" x2="13.4806" y2="13.1769" gradientUnits="userSpaceOnUse">
<stop stop-color="#223CDD"/>
<stop offset="1" stop-color="#6176FF"/>
</linearGradient>
</defs>
</svg>
