<svg width="22" height="22" viewBox="0 0 22 22" fill="none" xmlns="http://www.w3.org/2000/svg">
<path d="M11.3438 11.2139L14.5269 9.37488V5.7002L11.3438 7.53926V11.2139Z" fill="url(#paint0_linear_14381_26081)"/>
<path d="M10.9995 3.26562L7.81641 5.10469L10.9995 6.94375L14.1827 5.10469L10.9995 3.26562Z" fill="url(#paint1_linear_14381_26081)"/>
<path d="M7.47266 9.37488L10.6558 11.2139V7.53926L7.47266 5.7002V9.37488Z" fill="url(#paint2_linear_14381_26081)"/>
<path d="M3.09375 4.07422H7.9509C8.04206 4.07422 8.1295 4.038 8.19396 3.97354C8.25843 3.90907 8.29465 3.82164 8.29465 3.73047C8.29465 3.6393 8.25843 3.55187 8.19396 3.4874C8.1295 3.42294 8.04206 3.38672 7.9509 3.38672H3.09375C3.00258 3.38672 2.91515 3.42294 2.85068 3.4874C2.78622 3.55187 2.75 3.6393 2.75 3.73047C2.75 3.82164 2.78622 3.90907 2.85068 3.97354C2.91515 4.038 3.00258 4.07422 3.09375 4.07422Z" fill="url(#paint3_linear_14381_26081)"/>
<path d="M6.34913 5.10547H3.09375C3.00258 5.10547 2.91515 5.14169 2.85068 5.20615C2.78622 5.27062 2.75 5.35805 2.75 5.44922C2.75 5.54039 2.78622 5.62782 2.85068 5.69229C2.91515 5.75675 3.00258 5.79297 3.09375 5.79297H6.34913C6.4403 5.79297 6.52774 5.75675 6.5922 5.69229C6.65667 5.62782 6.69288 5.54039 6.69288 5.44922C6.69288 5.35805 6.65667 5.27062 6.5922 5.20615C6.52774 5.14169 6.4403 5.10547 6.34913 5.10547Z" fill="url(#paint4_linear_14381_26081)"/>
<path d="M18.906 3.38672H14.0488C13.9577 3.38672 13.8702 3.42294 13.8058 3.4874C13.7413 3.55187 13.7051 3.6393 13.7051 3.73047C13.7051 3.82164 13.7413 3.90907 13.8058 3.97354C13.8702 4.038 13.9577 4.07422 14.0488 4.07422H18.906C18.9971 4.07422 19.0846 4.038 19.149 3.97354C19.2135 3.90907 19.2497 3.82164 19.2497 3.73047C19.2497 3.6393 19.2135 3.55187 19.149 3.4874C19.0846 3.42294 18.9971 3.38672 18.906 3.38672Z" fill="url(#paint5_linear_14381_26081)"/>
<path d="M18.9058 5.10547H15.6504C15.5592 5.10547 15.4718 5.14169 15.4073 5.20615C15.3429 5.27062 15.3066 5.35805 15.3066 5.44922C15.3066 5.54039 15.3429 5.62782 15.4073 5.69229C15.4718 5.75675 15.5592 5.79297 15.6504 5.79297H18.9058C18.9969 5.79297 19.0844 5.75675 19.1488 5.69229C19.2133 5.62782 19.2495 5.54039 19.2495 5.44922C19.2495 5.35805 19.2133 5.27062 19.1488 5.20615C19.0844 5.14169 18.9969 5.10547 18.9058 5.10547Z" fill="url(#paint6_linear_14381_26081)"/>
<path d="M19.5938 1.89062H2.40625C2.13299 1.89143 1.87115 2.00033 1.67793 2.19356C1.48471 2.38678 1.3758 2.64862 1.375 2.92188V14.6094C1.3758 14.8826 1.4847 15.1445 1.67793 15.3377C1.87115 15.5309 2.13299 15.6398 2.40625 15.6406H19.5938C19.867 15.6398 20.1288 15.5309 20.3221 15.3377C20.5153 15.1445 20.6242 14.8826 20.625 14.6094V2.92188C20.6242 2.64862 20.5153 2.38678 20.3221 2.19356C20.1288 2.00034 19.867 1.89143 19.5938 1.89062ZM12.375 14.2656H9.625C9.53383 14.2656 9.4464 14.2294 9.38193 14.1649C9.31747 14.1005 9.28125 14.013 9.28125 13.9219C9.28125 13.8307 9.31747 13.7433 9.38193 13.6788C9.4464 13.6143 9.53383 13.5781 9.625 13.5781H12.375C12.4662 13.5781 12.5536 13.6143 12.6181 13.6788C12.6825 13.7433 12.7188 13.8307 12.7188 13.9219C12.7188 14.013 12.6825 14.1005 12.6181 14.1649C12.5536 14.2294 12.4662 14.2656 12.375 14.2656ZM19.9375 12.2031H2.0625V2.92188C2.06276 2.83079 2.09907 2.74351 2.16347 2.6791C2.22788 2.61469 2.31516 2.57839 2.40625 2.57812H19.5938C19.6848 2.5784 19.7721 2.6147 19.8365 2.67911C19.9009 2.74351 19.9372 2.83079 19.9375 2.92188V12.2031Z" fill="url(#paint7_linear_14381_26081)"/>
<path d="M15.125 18.0469H14.3344L13.5609 16.3281H8.43906L7.66562 18.0469H6.875C6.6015 18.0469 6.33919 18.1555 6.1458 18.3489C5.9524 18.5423 5.84375 18.8046 5.84375 19.0781C5.84375 19.3516 5.9524 19.6139 6.1458 19.8073C6.33919 20.0007 6.6015 20.1094 6.875 20.1094H15.125C15.3985 20.1094 15.6608 20.0007 15.8542 19.8073C16.0476 19.6139 16.1562 19.3516 16.1562 19.0781C16.1562 18.8046 16.0476 18.5423 15.8542 18.3489C15.6608 18.1555 15.3985 18.0469 15.125 18.0469Z" fill="url(#paint8_linear_14381_26081)"/>
<defs>
<linearGradient id="paint0_linear_14381_26081" x1="12.9353" y1="5.7002" x2="12.9353" y2="11.2139" gradientUnits="userSpaceOnUse">
<stop stop-color="#223CDD"/>
<stop offset="1" stop-color="#6176FF"/>
</linearGradient>
<linearGradient id="paint1_linear_14381_26081" x1="10.9995" y1="3.26562" x2="10.9995" y2="6.94375" gradientUnits="userSpaceOnUse">
<stop stop-color="#223CDD"/>
<stop offset="1" stop-color="#6176FF"/>
</linearGradient>
<linearGradient id="paint2_linear_14381_26081" x1="9.06422" y1="5.7002" x2="9.06422" y2="11.2139" gradientUnits="userSpaceOnUse">
<stop stop-color="#223CDD"/>
<stop offset="1" stop-color="#6176FF"/>
</linearGradient>
<linearGradient id="paint3_linear_14381_26081" x1="5.52232" y1="3.38672" x2="5.52232" y2="4.07422" gradientUnits="userSpaceOnUse">
<stop stop-color="#223CDD"/>
<stop offset="1" stop-color="#6176FF"/>
</linearGradient>
<linearGradient id="paint4_linear_14381_26081" x1="4.72144" y1="5.10547" x2="4.72144" y2="5.79297" gradientUnits="userSpaceOnUse">
<stop stop-color="#223CDD"/>
<stop offset="1" stop-color="#6176FF"/>
</linearGradient>
<linearGradient id="paint5_linear_14381_26081" x1="16.4774" y1="3.38672" x2="16.4774" y2="4.07422" gradientUnits="userSpaceOnUse">
<stop stop-color="#223CDD"/>
<stop offset="1" stop-color="#6176FF"/>
</linearGradient>
<linearGradient id="paint6_linear_14381_26081" x1="17.2781" y1="5.10547" x2="17.2781" y2="5.79297" gradientUnits="userSpaceOnUse">
<stop stop-color="#223CDD"/>
<stop offset="1" stop-color="#6176FF"/>
</linearGradient>
<linearGradient id="paint7_linear_14381_26081" x1="11" y1="1.89063" x2="11" y2="15.6406" gradientUnits="userSpaceOnUse">
<stop stop-color="#223CDD"/>
<stop offset="1" stop-color="#6176FF"/>
</linearGradient>
<linearGradient id="paint8_linear_14381_26081" x1="11" y1="16.3281" x2="11" y2="20.1094" gradientUnits="userSpaceOnUse">
<stop stop-color="#223CDD"/>
<stop offset="1" stop-color="#6176FF"/>
</linearGradient>
</defs>
</svg>
