<svg width="22" height="22" viewBox="0 0 22 22" fill="none" xmlns="http://www.w3.org/2000/svg">
<path d="M6.15398 16.2458C5.68945 16.6447 5.09739 16.864 4.48508 16.864C3.87277 16.864 3.28071 16.6447 2.81617 16.2458C2.75327 16.1906 2.6723 16.1605 2.58864 16.1611C2.50499 16.1618 2.42448 16.1931 2.36242 16.2492C2.05829 16.5221 1.81508 16.8559 1.64864 17.2291C1.48221 17.6022 1.39629 18.0063 1.39649 18.4149V20.003C1.39625 20.1675 1.46125 20.3253 1.57724 20.442C1.69324 20.5586 1.85074 20.6245 2.01524 20.6252H6.95492C7.03619 20.6248 7.11658 20.6083 7.1915 20.5768C7.26642 20.5454 7.3344 20.4994 7.39154 20.4416C7.44869 20.3838 7.49389 20.3153 7.52455 20.2401C7.55521 20.1648 7.57073 20.0842 7.57024 20.003V18.4149C7.5703 18.0066 7.48466 17.6029 7.31886 17.2299C7.15306 16.8568 6.9108 16.5227 6.60773 16.2492C6.54568 16.1931 6.46517 16.1618 6.38151 16.1611C6.29786 16.1605 6.21688 16.1906 6.15398 16.2458Z" fill="url(#paint0_linear_14383_26317)"/>
<path d="M4.48221 16.1834C6.95787 16.1036 6.95726 12.5227 4.48217 12.4434C2.01087 12.5217 2.01142 16.1053 4.48221 16.1834Z" fill="url(#paint1_linear_14383_26317)"/>
<path d="M19.6375 16.1594C19.5755 16.1033 19.4949 16.0719 19.4113 16.0713C19.3276 16.0707 19.2467 16.1008 19.1838 16.156C18.7204 16.5573 18.1279 16.7781 17.5149 16.7781C16.9018 16.7781 16.3094 16.5573 15.8459 16.156C15.7837 16.1008 15.7033 16.0707 15.6201 16.0713C15.537 16.0719 15.457 16.1033 15.3956 16.1594C15.091 16.4311 14.8474 16.7643 14.6809 17.137C14.5145 17.5097 14.4288 17.9134 14.4297 18.3216V19.9097C14.4292 19.991 14.4447 20.0715 14.4754 20.1468C14.5061 20.2221 14.5512 20.2906 14.6084 20.3483C14.6655 20.4061 14.7335 20.4521 14.8084 20.4836C14.8834 20.5151 14.9637 20.5315 15.045 20.5319H19.9847C20.1492 20.5312 20.3067 20.4653 20.4227 20.3487C20.5387 20.2321 20.6037 20.0742 20.6034 19.9097V18.3216C20.6043 17.9134 20.5187 17.5097 20.3522 17.137C20.1857 16.7643 19.9421 16.4311 19.6375 16.1594Z" fill="url(#paint2_linear_14383_26317)"/>
<path d="M17.5166 16.094C19.9862 16.0142 19.9888 12.4286 17.5165 12.3506C15.0395 12.4303 15.0432 16.0133 17.5166 16.094Z" fill="url(#paint3_linear_14383_26317)"/>
<path d="M8.53282 9.55631H13.4691C13.5506 9.55627 13.6313 9.54012 13.7066 9.50879C13.7819 9.47747 13.8502 9.43158 13.9077 9.37377C13.9652 9.31596 14.0107 9.24736 14.0416 9.17191C14.0725 9.09647 14.0882 9.01566 14.0878 8.93412V7.346C14.0887 6.93781 14.0031 6.53407 13.8366 6.16139C13.6701 5.7887 13.4265 5.45552 13.1219 5.18381C13.0598 5.12771 12.9793 5.09636 12.8957 5.09572C12.812 5.09509 12.731 5.12521 12.6681 5.18037C12.2054 5.58165 11.6134 5.80256 11.0009 5.80256C10.3884 5.80256 9.7965 5.58165 9.33376 5.18037C9.27086 5.12521 9.18989 5.09508 9.10623 5.09571C9.02257 5.09634 8.94207 5.12769 8.88001 5.18379C8.57539 5.4555 8.33181 5.78868 8.16532 6.16137C7.99882 6.53406 7.91319 6.9378 7.91407 7.34598V8.93411C7.91366 9.01564 7.92936 9.09645 7.96027 9.1719C7.99117 9.24735 8.03668 9.31595 8.09417 9.37376C8.15167 9.43158 8.22001 9.47746 8.29529 9.50879C8.37056 9.54012 8.45129 9.55627 8.53282 9.55631Z" fill="url(#paint4_linear_14383_26317)"/>
<path d="M10.9999 5.11844C13.4696 5.04094 13.4725 1.45294 10.9998 1.375C8.52666 1.45332 8.53075 5.04132 10.9999 5.11844Z" fill="url(#paint5_linear_14383_26317)"/>
<path d="M14.7674 15.7025C14.6763 15.3416 14.5592 14.9878 14.4168 14.6438C14.4011 14.6003 14.3768 14.5605 14.3453 14.5267C14.3139 14.4928 14.2759 14.4657 14.2337 14.4469C14.1915 14.4281 14.146 14.418 14.0998 14.4172C14.0536 14.4164 14.0077 14.4249 13.9649 14.4423C13.9221 14.4596 13.8832 14.4855 13.8506 14.5182C13.818 14.5509 13.7923 14.5899 13.7752 14.6328C13.758 14.6757 13.7496 14.7216 13.7506 14.7678C13.7516 14.814 13.7619 14.8595 13.7809 14.9016L12.0106 13.8841C12.0556 13.6437 12.0132 13.395 11.8909 13.1832C11.7686 12.9713 11.5745 12.8103 11.3437 12.7291V11.4159C11.6551 11.8638 12.2743 11.4571 11.9281 11.0275C10.8712 9.97897 11.133 9.97145 10.0718 11.0275C10.0093 11.0922 9.97463 11.1789 9.97524 11.2689C9.97585 11.3589 10.0117 11.4451 10.0751 11.5089C10.1385 11.5728 10.2244 11.6093 10.3144 11.6105C10.4044 11.6118 10.4913 11.5777 10.5565 11.5157L10.6562 11.416V12.7291C10.4254 12.8103 10.2314 12.9714 10.109 13.1832C9.98673 13.3951 9.94426 13.6437 9.98932 13.8841L8.164 14.936C8.18219 14.894 8.19179 14.8488 8.19225 14.8031C8.19272 14.7573 8.18403 14.7119 8.1667 14.6696C8.14937 14.6272 8.12375 14.5888 8.09135 14.5565C8.05894 14.5242 8.02041 14.4987 7.97801 14.4815C7.93561 14.4643 7.89021 14.4558 7.84446 14.4564C7.79872 14.457 7.75356 14.4668 7.71163 14.4851C7.66971 14.5034 7.63188 14.5299 7.60035 14.5631C7.56883 14.5963 7.54425 14.6354 7.52807 14.6782L7.19463 15.5891C7.16727 15.6749 7.17331 15.7679 7.21154 15.8495C7.24978 15.9311 7.3174 15.9952 7.40088 16.0291L8.31178 16.3625C8.39687 16.3914 8.48988 16.3859 8.57095 16.3472C8.65203 16.3084 8.71475 16.2395 8.74571 16.1551C8.77668 16.0708 8.77344 15.9777 8.73668 15.8957C8.69993 15.8137 8.63258 15.7493 8.549 15.7163L8.329 15.6372L10.3365 14.4753C10.5208 14.6347 10.7563 14.7223 10.9999 14.7224C11.2436 14.7224 11.4791 14.6347 11.6634 14.4754L13.6159 15.6029L13.3959 15.6819C13.3214 15.7111 13.2593 15.7652 13.2202 15.835C13.1812 15.9048 13.1676 15.9861 13.1818 16.0648C13.196 16.1436 13.2371 16.2149 13.2981 16.2667C13.3591 16.3185 13.4362 16.3475 13.5162 16.3488C13.5664 16.3774 14.4684 16.0098 14.544 15.9947C14.6044 15.9711 14.6571 15.9313 14.6965 15.8798C14.7359 15.8283 14.7604 15.767 14.7674 15.7025Z" fill="url(#paint6_linear_14383_26317)"/>
<defs>
<linearGradient id="paint0_linear_14383_26317" x1="4.48337" y1="16.1611" x2="4.48337" y2="20.6252" gradientUnits="userSpaceOnUse">
<stop stop-color="#223CDD"/>
<stop offset="1" stop-color="#6176FF"/>
</linearGradient>
<linearGradient id="paint1_linear_14383_26317" x1="4.48381" y1="12.4434" x2="4.48381" y2="16.1834" gradientUnits="userSpaceOnUse">
<stop stop-color="#223CDD"/>
<stop offset="1" stop-color="#6176FF"/>
</linearGradient>
<linearGradient id="paint2_linear_14383_26317" x1="17.5166" y1="16.0713" x2="17.5166" y2="20.5319" gradientUnits="userSpaceOnUse">
<stop stop-color="#223CDD"/>
<stop offset="1" stop-color="#6176FF"/>
</linearGradient>
<linearGradient id="paint3_linear_14383_26317" x1="17.5149" y1="12.3506" x2="17.5149" y2="16.094" gradientUnits="userSpaceOnUse">
<stop stop-color="#223CDD"/>
<stop offset="1" stop-color="#6176FF"/>
</linearGradient>
<linearGradient id="paint4_linear_14383_26317" x1="11.0009" y1="5.0957" x2="11.0009" y2="9.55631" gradientUnits="userSpaceOnUse">
<stop stop-color="#223CDD"/>
<stop offset="1" stop-color="#6176FF"/>
</linearGradient>
<linearGradient id="paint5_linear_14383_26317" x1="10.9999" y1="1.375" x2="10.9999" y2="5.11844" gradientUnits="userSpaceOnUse">
<stop stop-color="#223CDD"/>
<stop offset="1" stop-color="#6176FF"/>
</linearGradient>
<linearGradient id="paint6_linear_14383_26317" x1="10.9726" y1="10.2383" x2="10.9726" y2="16.3808" gradientUnits="userSpaceOnUse">
<stop stop-color="#223CDD"/>
<stop offset="1" stop-color="#6176FF"/>
</linearGradient>
</defs>
</svg>
