<svg width="22" height="22" viewBox="0 0 22 22" fill="none" xmlns="http://www.w3.org/2000/svg">
<path d="M2.82217 12.4607C2.87129 12.4532 2.92154 12.4591 2.96755 12.4778C3.01356 12.4966 3.05361 12.5275 3.0834 12.5673C3.46212 12.1506 3.95596 11.8557 4.50241 11.7198C5.04885 11.584 5.62332 11.6133 6.15306 11.8042C5.97933 11.0725 5.97351 10.3109 6.13606 9.57666C6.2986 8.84239 6.62529 8.15445 7.09161 7.56443C7.55794 6.97442 8.1518 6.49764 8.82866 6.16987C9.50552 5.84209 10.2478 5.67181 10.9999 5.67182C11.7519 5.67182 12.4942 5.84209 13.1711 6.16988C13.8479 6.49766 14.4418 6.97443 14.9081 7.56445C15.3744 8.15447 15.7011 8.84241 15.8637 9.57668C16.0262 10.311 16.0204 11.0725 15.8466 11.8042C16.3764 11.6133 16.9509 11.5839 17.4973 11.7198C18.0438 11.8556 18.5376 12.1506 18.9163 12.5673C18.9471 12.5286 18.9872 12.4985 19.033 12.4799C19.0787 12.4612 19.1285 12.4546 19.1775 12.4608C19.3154 12.477 19.4551 12.4641 19.5876 12.4227C19.7201 12.3814 19.8424 12.3126 19.9465 12.2208C20.0506 12.129 20.1342 12.0163 20.1919 11.89C20.2495 11.7637 20.2798 11.6267 20.281 11.4879L20.281 9.82423C20.2807 9.68516 20.2509 9.54774 20.1936 9.42105C20.1362 9.29436 20.0527 9.18129 19.9483 9.08932C19.844 8.99736 19.7214 8.9286 19.5885 8.88759C19.4556 8.84658 19.3155 8.83426 19.1775 8.85144C19.1074 8.8614 19.036 8.84517 18.977 8.80586C18.9181 8.76656 18.8756 8.70691 18.8578 8.63832C18.6701 7.89527 18.3761 7.18324 17.9847 6.52428C17.9491 6.46374 17.9368 6.39229 17.9501 6.32331C17.9634 6.25433 18.0014 6.19257 18.0569 6.14961C18.1662 6.06351 18.2561 5.95534 18.3207 5.83216C18.3853 5.70897 18.4233 5.57355 18.432 5.43471C18.4408 5.29588 18.4202 5.15676 18.3715 5.02643C18.3229 4.8961 18.2473 4.7775 18.1497 4.67836L16.9776 3.5062C16.8789 3.40775 16.7604 3.3314 16.63 3.28221C16.4995 3.23303 16.3601 3.21213 16.221 3.22091C16.0819 3.22968 15.9462 3.26793 15.823 3.33312C15.6998 3.3983 15.5918 3.48894 15.5063 3.59901C15.4628 3.6539 15.4011 3.69137 15.3324 3.70462C15.2636 3.71787 15.1924 3.70601 15.1316 3.6712C14.4727 3.27989 13.7606 2.98582 13.0176 2.79809C12.9496 2.77927 12.8907 2.73661 12.8515 2.67792C12.8124 2.61922 12.7957 2.5484 12.8045 2.47841C12.8208 2.34056 12.8078 2.20083 12.7665 2.06832C12.7252 1.93582 12.6563 1.81352 12.5646 1.7094C12.4728 1.60528 12.36 1.52169 12.2338 1.46407C12.1075 1.40645 11.9705 1.3761 11.8317 1.375H10.168C10.0286 1.37623 9.89108 1.4069 9.76439 1.46502C9.63769 1.52313 9.52472 1.60737 9.43286 1.7122C9.34101 1.81704 9.27236 1.94011 9.2314 2.07334C9.19044 2.20657 9.17812 2.34696 9.19522 2.48529C9.20267 2.55425 9.18532 2.62362 9.14626 2.68094C9.1072 2.73826 9.049 2.7798 8.98209 2.7981C8.23905 2.98583 7.52702 3.2799 6.86806 3.67121C6.80729 3.7071 6.73539 3.71923 6.66621 3.70527C6.59703 3.6913 6.53546 3.65223 6.49337 3.59558C6.40728 3.48617 6.29901 3.39622 6.17568 3.33164C6.05235 3.26706 5.91675 3.22931 5.77779 3.22087C5.63883 3.21243 5.49965 3.23349 5.36941 3.28267C5.23917 3.33185 5.12082 3.40804 5.02212 3.50622L3.84997 4.67834C3.75239 4.77748 3.67682 4.89609 3.62817 5.02642C3.57953 5.15675 3.55892 5.29587 3.56767 5.4347C3.57643 5.57353 3.61437 5.70896 3.679 5.83214C3.74364 5.95532 3.83352 6.06349 3.94278 6.14959C3.99835 6.19255 4.03634 6.25431 4.04963 6.32329C4.06292 6.39227 4.0506 6.46372 4.01497 6.52426C3.62366 7.18322 3.32959 7.89525 3.14186 8.6383C3.12366 8.70665 3.08114 8.76601 3.02228 8.80525C2.96342 8.84448 2.89227 8.8609 2.82218 8.85142C2.68433 8.83511 2.5446 8.84805 2.41209 8.88939C2.27959 8.93072 2.15729 8.99954 2.05317 9.09133C1.94905 9.18312 1.86545 9.29584 1.80783 9.42212C1.75021 9.5484 1.71987 9.68541 1.71877 9.82421L1.71875 11.488C1.719 11.627 1.74878 11.7645 1.80612 11.8911C1.86346 12.0178 1.94706 12.1309 2.05137 12.2229C2.15569 12.3148 2.27834 12.3836 2.41123 12.4246C2.54411 12.4656 2.68417 12.4779 2.82217 12.4607Z" fill="url(#paint0_linear_14383_26279)"/>
<path d="M13.534 17.3008L13.0218 17.1289C12.7594 17.3997 12.4453 17.615 12.0981 17.762C11.7509 17.9091 11.3777 17.9848 11.0006 17.9848C10.6235 17.9848 10.2503 17.9091 9.9031 17.762C9.55589 17.615 9.24176 17.3997 8.97938 17.1289L8.46719 17.3008C8.09695 17.4241 7.77489 17.6607 7.54662 17.9772C7.31835 18.2937 7.19544 18.674 7.19531 19.0642V19.8479C7.19521 19.95 7.21523 20.0511 7.25423 20.1454C7.29324 20.2397 7.35046 20.3254 7.42262 20.3975C7.49478 20.4697 7.58046 20.5269 7.67476 20.5659C7.76907 20.6049 7.87014 20.6249 7.97219 20.6248H14.029C14.1311 20.6249 14.2321 20.6049 14.3264 20.5659C14.4207 20.5269 14.5064 20.4697 14.5786 20.3975C14.6507 20.3254 14.708 20.2397 14.747 20.1454C14.786 20.0511 14.806 19.95 14.8059 19.8479V19.0642C14.8057 18.674 14.6828 18.2937 14.4546 17.9772C14.2263 17.6607 13.9042 17.4241 13.534 17.3008Z" fill="url(#paint1_linear_14383_26279)"/>
<path d="M11.0004 10.7943C11.425 10.7947 11.8401 10.6691 12.1934 10.4335C12.5466 10.1979 12.822 9.86287 12.9848 9.47075C13.1476 9.07863 13.1904 8.64703 13.1079 8.23055C13.0254 7.81407 12.8213 7.4314 12.5213 7.13094C12.2213 6.83048 11.839 6.62573 11.4226 6.54256C11.0063 6.4594 10.5746 6.50156 10.1822 6.66373C9.78986 6.82589 9.45437 7.10077 9.21821 7.4536C8.98204 7.80643 8.85581 8.22137 8.85547 8.64594C8.85548 9.21513 9.08136 9.76106 9.48351 10.1639C9.88567 10.5667 10.4312 10.7934 11.0004 10.7943Z" fill="url(#paint2_linear_14383_26279)"/>
<path d="M14.0069 14.1209C14.0839 13.5018 14.363 12.9255 14.8009 12.4812C14.7857 12.1049 14.6561 11.7421 14.4295 11.4412C14.2029 11.1403 13.89 10.9155 13.5325 10.7969L13.0203 10.625C12.7579 10.8958 12.4438 11.1111 12.0966 11.2581C11.7494 11.4052 11.3762 11.4809 10.9991 11.4809C10.622 11.4809 10.2488 11.4052 9.90161 11.2581C9.55439 11.1111 9.24026 10.8958 8.97787 10.625L8.46569 10.7969C8.10818 10.9155 7.7953 11.1403 7.5687 11.4412C7.3421 11.7421 7.21254 12.1049 7.19727 12.4812C7.63516 12.9255 7.91427 13.5018 7.99133 14.1209H8.35914C8.56629 13.5892 8.92914 13.1325 9.40018 12.8105C9.87122 12.4885 10.4285 12.3162 10.9991 12.3162C11.5697 12.3162 12.127 12.4885 12.598 12.8105C13.0691 13.1325 13.4319 13.5892 13.6391 14.1209H14.0069Z" fill="url(#paint3_linear_14383_26279)"/>
<path d="M19.3531 16.6172L18.8409 16.4453C18.5785 16.7161 18.2644 16.9314 17.9172 17.0785C17.57 17.2255 17.1968 17.3013 16.8197 17.3013C16.4426 17.3013 16.0694 17.2255 15.7222 17.0784C15.375 16.9314 15.0609 16.7161 14.7985 16.4453C14.5234 16.5251 14.2546 16.6251 13.9941 16.7444C14.4409 16.9457 14.82 17.2718 15.0859 17.6834C15.3517 18.095 15.4931 18.5746 15.4929 19.0646C15.4861 19.1349 15.5039 19.8905 15.4894 19.9412H19.8481C19.9502 19.9413 20.0512 19.9213 20.1455 19.8823C20.2398 19.8433 20.3255 19.7861 20.3977 19.7139C20.4698 19.6418 20.5271 19.5561 20.5661 19.4618C20.6051 19.3675 20.6251 19.2664 20.625 19.1643V18.3806C20.6249 17.9904 20.502 17.6101 20.2737 17.2936C20.0454 16.9771 19.7234 16.7405 19.3531 16.6172Z" fill="url(#paint4_linear_14383_26279)"/>
<path d="M5.17966 12.3203C4.75509 12.32 4.33995 12.4455 3.98674 12.6811C3.63353 12.9167 3.35811 13.2518 3.19532 13.6439C3.03253 14.036 2.98967 14.4676 3.07216 14.8841C3.15466 15.3006 3.35881 15.6833 3.65878 15.9837C3.95876 16.2842 4.3411 16.4889 4.75745 16.5721C5.1738 16.6553 5.60546 16.6131 5.99785 16.4509C6.39024 16.2888 6.72572 16.0139 6.96189 15.6611C7.19805 15.3082 7.32429 14.8933 7.32463 14.4687C7.32461 13.8995 7.09873 13.3536 6.69657 12.9508C6.29442 12.548 5.74885 12.3212 5.17966 12.3203Z" fill="url(#paint5_linear_14383_26279)"/>
<path d="M11 13.0039C10.5754 13.0036 10.1603 13.1291 9.80706 13.3647C9.45384 13.6003 9.17843 13.9354 9.01563 14.3275C8.85284 14.7196 8.80998 15.1512 8.89248 15.5677C8.97497 15.9842 9.17912 16.3669 9.4791 16.6673C9.77908 16.9678 10.1614 17.1726 10.5778 17.2557C10.9941 17.3389 11.4258 17.2967 11.8182 17.1346C12.2106 16.9724 12.5461 16.6975 12.7822 16.3447C13.0184 15.9918 13.1446 15.5769 13.145 15.1523C13.1449 14.5831 12.9191 14.0372 12.5169 13.6344C12.1147 13.2316 11.5692 13.0048 11 13.0039Z" fill="url(#paint6_linear_14383_26279)"/>
<path d="M16.8188 16.6137C17.2435 16.614 17.6588 16.4884 18.0121 16.2526C18.3654 16.0169 18.6408 15.6816 18.8035 15.2893C18.9662 14.897 19.0088 14.4652 18.926 14.0486C18.8433 13.632 18.6388 13.2494 18.3385 12.9491C18.0381 12.6487 17.6555 12.4443 17.2389 12.3615C16.8223 12.2787 16.3905 12.3214 15.9982 12.484C15.6059 12.6467 15.2706 12.9222 15.0349 13.2754C14.7991 13.6287 14.6735 14.044 14.6738 14.4687C14.6746 15.0374 14.9008 15.5825 15.3029 15.9846C15.705 16.3867 16.2501 16.613 16.8188 16.6137Z" fill="url(#paint7_linear_14383_26279)"/>
<path d="M8.00582 16.7444C7.74464 16.627 7.47594 16.5271 7.2015 16.4453C6.93708 16.7125 6.62229 16.9246 6.27536 17.0694C5.92842 17.2142 5.55623 17.2887 5.1803 17.2887C4.80437 17.2888 4.43217 17.2142 4.08523 17.0695C3.73829 16.9247 3.4235 16.7126 3.15906 16.4454L2.64688 16.6172C2.27664 16.7405 1.95457 16.9772 1.7263 17.2937C1.49803 17.6101 1.37513 17.9904 1.375 18.3807V19.1644C1.37489 19.2665 1.39492 19.3675 1.43392 19.4618C1.47292 19.5561 1.53014 19.6418 1.6023 19.714C1.67446 19.7861 1.76015 19.8434 1.85445 19.8824C1.94875 19.9214 2.04982 19.9414 2.15188 19.9413H6.51056C6.5003 19.9258 6.51285 19.1077 6.50712 19.0647C6.50692 18.5747 6.64825 18.0951 6.91412 17.6834C7.17999 17.2718 7.55908 16.9458 8.00582 16.7444Z" fill="url(#paint8_linear_14383_26279)"/>
<defs>
<linearGradient id="paint0_linear_14383_26279" x1="10.9999" y1="1.375" x2="10.9999" y2="12.5673" gradientUnits="userSpaceOnUse">
<stop stop-color="#223CDD"/>
<stop offset="1" stop-color="#6176FF"/>
</linearGradient>
<linearGradient id="paint1_linear_14383_26279" x1="11.0006" y1="17.1289" x2="11.0006" y2="20.6248" gradientUnits="userSpaceOnUse">
<stop stop-color="#223CDD"/>
<stop offset="1" stop-color="#6176FF"/>
</linearGradient>
<linearGradient id="paint2_linear_14383_26279" x1="11.0022" y1="6.50098" x2="11.0022" y2="10.7943" gradientUnits="userSpaceOnUse">
<stop stop-color="#223CDD"/>
<stop offset="1" stop-color="#6176FF"/>
</linearGradient>
<linearGradient id="paint3_linear_14383_26279" x1="10.9991" y1="10.625" x2="10.9991" y2="14.1209" gradientUnits="userSpaceOnUse">
<stop stop-color="#223CDD"/>
<stop offset="1" stop-color="#6176FF"/>
</linearGradient>
<linearGradient id="paint4_linear_14383_26279" x1="17.3096" y1="16.4453" x2="17.3096" y2="19.9412" gradientUnits="userSpaceOnUse">
<stop stop-color="#223CDD"/>
<stop offset="1" stop-color="#6176FF"/>
</linearGradient>
<linearGradient id="paint5_linear_14383_26279" x1="5.17794" y1="12.3203" x2="5.17794" y2="16.6137" gradientUnits="userSpaceOnUse">
<stop stop-color="#223CDD"/>
<stop offset="1" stop-color="#6176FF"/>
</linearGradient>
<linearGradient id="paint6_linear_14383_26279" x1="10.9983" y1="13.0039" x2="10.9983" y2="17.2973" gradientUnits="userSpaceOnUse">
<stop stop-color="#223CDD"/>
<stop offset="1" stop-color="#6176FF"/>
</linearGradient>
<linearGradient id="paint7_linear_14383_26279" x1="16.8205" y1="12.3203" x2="16.8205" y2="16.6137" gradientUnits="userSpaceOnUse">
<stop stop-color="#223CDD"/>
<stop offset="1" stop-color="#6176FF"/>
</linearGradient>
<linearGradient id="paint8_linear_14383_26279" x1="4.69041" y1="16.4453" x2="4.69041" y2="19.9413" gradientUnits="userSpaceOnUse">
<stop stop-color="#223CDD"/>
<stop offset="1" stop-color="#6176FF"/>
</linearGradient>
</defs>
</svg>
