<svg width="22" height="22" viewBox="0 0 22 22" fill="none" xmlns="http://www.w3.org/2000/svg">
<path d="M19.2853 10.2676C19.1942 10.2679 19.1069 10.3042 19.0425 10.3686C18.9781 10.433 18.9418 10.5202 18.9415 10.6113C18.9412 10.8766 18.9417 17.3359 18.9415 17.7922C18.9414 17.7859 18.9416 18.0219 18.9415 18.026C18.9418 18.1171 18.9781 18.2044 19.0425 18.2688C19.1069 18.3332 19.1942 18.3695 19.2853 18.3698H20.6259V10.2676L19.2853 10.2676Z" fill="url(#paint0_linear_14383_26291)"/>
<path d="M12.0621 11.948L8.45958 13.598C8.38557 13.6328 8.3219 13.6863 8.27488 13.7532C8.22786 13.8201 8.1991 13.8981 8.19146 13.9796C8.18281 14.6412 9.29916 14.7893 9.79674 14.5399L12.5639 13.3402C12.6088 13.3205 12.6573 13.3106 12.7062 13.3113C12.7552 13.3119 12.8034 13.323 12.8477 13.3438C12.892 13.3647 12.9314 13.3948 12.963 13.4321C12.9947 13.4694 13.0181 13.5131 13.0314 13.5602C13.0452 13.6014 13.4268 14.7014 15.5786 14.5674C15.6694 14.5635 15.7582 14.595 15.8262 14.6553C15.8942 14.7156 15.936 14.7999 15.943 14.8905C15.9586 15.3697 15.3383 15.2563 15.0389 15.2618L15.4858 15.6124C15.6216 15.72 15.7344 15.8538 15.8176 16.0058C15.9009 16.1577 15.9528 16.3248 15.9704 16.4972C15.9881 16.6696 15.971 16.8437 15.9202 17.0094C15.8695 17.175 15.786 17.3289 15.6749 17.4618L18.253 17.4514V11.7314H13.0383C12.701 11.7314 12.3678 11.8053 12.0621 11.948Z" fill="url(#paint1_linear_14383_26291)"/>
<path d="M13.4638 14.9077C13.0882 14.727 12.7687 14.4478 12.5391 14.0999L10.071 15.1689C9.8025 15.2876 9.51206 15.3485 9.21852 15.3477C8.42024 15.3551 7.40871 14.8412 7.50664 13.9177C7.52358 13.7159 7.59397 13.5223 7.71058 13.3567C7.82718 13.1912 7.98579 13.0597 8.17008 12.9758L9.67227 12.2849C9.28693 11.9415 8.79258 11.7455 8.27664 11.7315L3.67383 11.7314V17.4549H4.45414C4.76455 17.4537 5.06752 17.5499 5.32039 17.7299C6.8432 18.8024 8.26289 19.7649 9.2082 20.3733C9.33885 20.453 9.49482 20.4803 9.64474 20.4496C9.79466 20.4189 9.92741 20.3326 10.0163 20.208C10.1051 20.0834 10.1435 19.9298 10.1237 19.7781C10.1039 19.6264 10.0273 19.4878 9.90945 19.3902C9.66878 19.1982 8.9218 18.5994 8.69602 18.4174C8.62611 18.36 8.58165 18.2774 8.57226 18.1875C8.56287 18.0975 8.58932 18.0075 8.64587 17.9369C8.70242 17.8664 8.78451 17.8209 8.87434 17.8105C8.96417 17.8 9.05449 17.8254 9.12572 17.8811L11.116 19.4727C11.1802 19.5232 11.2538 19.5604 11.3325 19.5822C11.4113 19.6039 11.4935 19.6098 11.5746 19.5994C11.6556 19.589 11.7337 19.5625 11.8044 19.5216C11.875 19.4806 11.9368 19.426 11.9862 19.3609C12.0355 19.2958 12.0714 19.2216 12.0917 19.1425C12.112 19.0634 12.1163 18.981 12.1044 18.9002C12.0925 18.8194 12.0647 18.7418 12.0224 18.6718C11.9802 18.6019 11.9245 18.5411 11.8585 18.493L10.3666 17.3002C10.2975 17.2426 10.2537 17.1602 10.2446 17.0706C10.2356 16.981 10.2621 16.8915 10.3184 16.8213C10.3747 16.751 10.4563 16.7057 10.5457 16.6949C10.635 16.6842 10.725 16.709 10.7963 16.764C11.0942 17.0013 12.4503 18.0915 12.7213 18.304C12.8459 18.4009 13.003 18.4461 13.16 18.4302C13.3171 18.4143 13.4619 18.3386 13.5646 18.2187C13.6672 18.0988 13.7197 17.9439 13.7112 17.7864C13.7027 17.6288 13.6338 17.4805 13.5188 17.3724C13.5129 17.3623 12.0483 16.2025 12.0373 16.1899C11.9682 16.1316 11.9245 16.0487 11.9158 15.9587C11.907 15.8688 11.9338 15.779 11.9903 15.7085C12.0469 15.638 12.1288 15.5925 12.2185 15.5816C12.3082 15.5707 12.3986 15.5953 12.4704 15.6502C12.7164 15.8446 14.0404 16.902 14.2476 17.0802C14.9114 17.5647 15.7058 16.7335 15.0588 16.1486L13.4638 14.9077Z" fill="url(#paint2_linear_14383_26291)"/>
<path d="M2.64344 10.2676H1.375V18.3698H2.64344C2.73452 18.3695 2.8218 18.3332 2.8862 18.2688C2.95061 18.2044 2.98692 18.1171 2.98719 18.026V10.6113C2.98692 10.5202 2.95061 10.433 2.8862 10.3686C2.8218 10.3042 2.73452 10.2679 2.64344 10.2676Z" fill="url(#paint3_linear_14383_26291)"/>
<path d="M15.0606 5.27215H16.5353L13.9297 2.66309V4.13777C13.9298 4.438 14.0489 4.72595 14.2608 4.93857C14.4728 5.15118 14.7604 5.27113 15.0606 5.27215Z" fill="url(#paint4_linear_14383_26291)"/>
<path d="M9.92438 11.6218L10.3987 11.9553L11.7772 11.3228C12.1722 11.1386 12.6029 11.0435 13.0387 11.0443H17.6725V6.72338C17.6719 6.52115 17.5914 6.32737 17.4484 6.18437C17.3054 6.04138 17.1116 5.9608 16.9094 5.96025H15.06C14.5774 5.95929 14.1149 5.76692 13.774 5.42536C13.4331 5.0838 13.2416 4.62094 13.2416 4.13836V2.29242C13.2406 2.09032 13.1599 1.89676 13.017 1.75385C12.8741 1.61094 12.6805 1.53024 12.4784 1.5293H5.4625C5.16174 1.52959 4.87337 1.6492 4.6607 1.86187C4.44803 2.07455 4.32842 2.36291 4.32812 2.66367V11.0443H8.27781C8.8758 11.0473 9.45552 11.2506 9.92438 11.6218ZM16.5381 6.75088C16.6284 6.75228 16.7144 6.78911 16.7778 6.85343C16.8411 6.91774 16.8766 7.00438 16.8766 7.09464C16.8766 7.1849 16.8411 7.27153 16.7778 7.33584C16.7144 7.40015 16.6283 7.43698 16.5381 7.43838H5.4625C5.37225 7.43698 5.28618 7.40015 5.22285 7.33583C5.15953 7.27152 5.12403 7.18488 5.12403 7.09463C5.12403 7.00437 5.15953 6.91773 5.22285 6.85342C5.28618 6.78911 5.37225 6.75227 5.4625 6.75088H16.5381ZM5.4625 4.16588H11.0003C11.0906 4.16722 11.1767 4.20403 11.2401 4.26835C11.3035 4.33267 11.339 4.41934 11.339 4.50964C11.339 4.59993 11.3035 4.6866 11.2401 4.75092C11.1767 4.81524 11.0906 4.85204 11.0003 4.85338H5.4625C5.37219 4.85207 5.28603 4.81528 5.22263 4.75095C5.15923 4.68663 5.12369 4.59994 5.12369 4.50962C5.12369 4.41931 5.15923 4.33262 5.22263 4.2683C5.28603 4.20397 5.37219 4.16719 5.4625 4.16588ZM5.11875 9.67619C5.11902 9.5851 5.15532 9.49782 5.21973 9.43341C5.28413 9.36901 5.37141 9.33271 5.4625 9.33244H16.5381C16.6293 9.33244 16.7167 9.36866 16.7812 9.43312C16.8457 9.49759 16.8819 9.58502 16.8819 9.67619C16.8819 9.76736 16.8457 9.85479 16.7812 9.91926C16.7167 9.98372 16.6293 10.0199 16.5381 10.0199H5.4625C5.41731 10.0201 5.37254 10.0113 5.33077 9.99409C5.28899 9.97687 5.25104 9.95156 5.21908 9.91961C5.18713 9.88766 5.16182 9.8497 5.1446 9.80793C5.12738 9.76615 5.11859 9.72137 5.11875 9.67619Z" fill="url(#paint5_linear_14383_26291)"/>
<defs>
<linearGradient id="paint0_linear_14383_26291" x1="19.7837" y1="10.2676" x2="19.7837" y2="18.3698" gradientUnits="userSpaceOnUse">
<stop stop-color="#223CDD"/>
<stop offset="1" stop-color="#6176FF"/>
</linearGradient>
<linearGradient id="paint1_linear_14383_26291" x1="13.2222" y1="11.7314" x2="13.2222" y2="17.4618" gradientUnits="userSpaceOnUse">
<stop stop-color="#223CDD"/>
<stop offset="1" stop-color="#6176FF"/>
</linearGradient>
<linearGradient id="paint2_linear_14383_26291" x1="9.48631" y1="11.7314" x2="9.48631" y2="20.4619" gradientUnits="userSpaceOnUse">
<stop stop-color="#223CDD"/>
<stop offset="1" stop-color="#6176FF"/>
</linearGradient>
<linearGradient id="paint3_linear_14383_26291" x1="2.18109" y1="10.2676" x2="2.18109" y2="18.3698" gradientUnits="userSpaceOnUse">
<stop stop-color="#223CDD"/>
<stop offset="1" stop-color="#6176FF"/>
</linearGradient>
<linearGradient id="paint4_linear_14383_26291" x1="15.2325" y1="2.66309" x2="15.2325" y2="5.27215" gradientUnits="userSpaceOnUse">
<stop stop-color="#223CDD"/>
<stop offset="1" stop-color="#6176FF"/>
</linearGradient>
<linearGradient id="paint5_linear_14383_26291" x1="11.0003" y1="1.5293" x2="11.0003" y2="11.9553" gradientUnits="userSpaceOnUse">
<stop stop-color="#223CDD"/>
<stop offset="1" stop-color="#6176FF"/>
</linearGradient>
</defs>
</svg>
