<svg width="22" height="22" viewBox="0 0 22 22" fill="none" xmlns="http://www.w3.org/2000/svg">
<path d="M11.0006 6.52051C9.54128 6.52244 8.14232 7.10299 7.11045 8.13486C6.07858 9.16673 5.49802 10.5657 5.49609 12.025C5.79966 19.3272 16.2026 19.3251 16.505 12.0249C16.5031 10.5657 15.9225 9.16671 14.8907 8.13485C13.8588 7.10299 12.4598 6.52244 11.0006 6.52051ZM8.94672 13.0949C8.99313 13.1438 9.02435 13.2051 9.03661 13.2714C9.04886 13.3377 9.04163 13.4062 9.01577 13.4684C8.98992 13.5307 8.94656 13.5841 8.89094 13.6223C8.83533 13.6604 8.76986 13.6815 8.70246 13.6832C8.61119 13.6828 8.52362 13.6471 8.45819 13.5834L7.144 12.2692C7.07955 12.2043 7.04338 12.1165 7.04338 12.025C7.04338 11.9335 7.07955 11.8457 7.144 11.7807L8.45819 10.4665C8.52297 10.4017 8.61084 10.3653 8.70246 10.3653C8.79408 10.3653 8.88194 10.4017 8.94672 10.4665C9.01151 10.5313 9.0479 10.6192 9.0479 10.7108C9.0479 10.8024 9.01151 10.8903 8.94672 10.9551L7.87333 12.025L8.94672 13.0949ZM11.6611 10.7934L11.0075 13.4217C10.9967 13.4656 10.9774 13.507 10.9506 13.5434C10.9238 13.5798 10.8901 13.6106 10.8514 13.634C10.8128 13.6574 10.7699 13.6729 10.7252 13.6797C10.6805 13.6865 10.6349 13.6844 10.591 13.6735C10.5471 13.6626 10.5058 13.6432 10.4695 13.6164C10.4331 13.5896 10.4024 13.5558 10.3791 13.5171C10.3558 13.4784 10.3403 13.4354 10.3336 13.3907C10.3269 13.346 10.3291 13.3004 10.34 13.2566L10.9937 10.6282C11.0169 10.5411 11.0734 10.4666 11.1509 10.4208C11.2285 10.3749 11.321 10.3613 11.4085 10.383C11.496 10.4046 11.5715 10.4598 11.6187 10.5365C11.666 10.6133 11.6812 10.7055 11.6611 10.7934ZM14.8571 12.2692L13.5429 13.5834C13.4775 13.6471 13.3899 13.6828 13.2987 13.6832C13.2312 13.6817 13.1656 13.6606 13.1099 13.6225C13.0542 13.5844 13.0108 13.531 12.9849 13.4686C12.959 13.4063 12.9518 13.3378 12.9642 13.2714C12.9765 13.2051 13.0078 13.1438 13.0544 13.0949L14.1278 12.025L13.0544 10.9551C12.992 10.8898 12.9577 10.8027 12.9587 10.7124C12.9597 10.6221 12.996 10.5358 13.0599 10.472C13.1237 10.4081 13.21 10.3718 13.3003 10.3708C13.3906 10.3698 13.4777 10.4042 13.543 10.4665L14.8571 11.7807C14.9216 11.8457 14.9578 11.9335 14.9578 12.025C14.9578 12.1165 14.9216 12.2043 14.8571 12.2692Z" fill="url(#paint0_linear_14383_26300)"/>
<path d="M6.10435 3.07997C6.03378 0.806751 2.73483 0.806617 2.66406 3.07993C2.7398 5.3529 6.02811 5.35383 6.10435 3.07997Z" fill="url(#paint1_linear_14383_26300)"/>
<path d="M2.07274 7.33947H6.69647C6.87522 7.33918 7.04656 7.26804 7.17296 7.14165C7.29935 7.01526 7.37049 6.84391 7.37078 6.66517V6.07C7.37009 5.7359 7.2586 5.41145 7.05378 5.1475C6.84896 4.88354 6.56237 4.69497 6.2389 4.61133C6.01393 4.88558 5.73092 5.10652 5.41027 5.25821C5.08962 5.40991 4.73932 5.4886 4.3846 5.4886C4.02987 5.4886 3.67957 5.40991 3.35892 5.25821C3.03827 5.10652 2.75526 4.88558 2.53029 4.61133L2.42364 4.64572C2.12478 4.74531 1.86489 4.93652 1.68087 5.19218C1.49684 5.44785 1.39802 5.75499 1.39844 6.07V6.66517C1.39872 6.84391 1.46986 7.01526 1.59625 7.14165C1.72264 7.26805 1.89399 7.33918 2.07274 7.33947Z" fill="url(#paint2_linear_14383_26300)"/>
<path d="M6.10435 16.3114C6.03375 14.0382 2.73485 14.0381 2.66406 16.3114C2.73978 18.5843 6.02813 18.5853 6.10435 16.3114Z" fill="url(#paint3_linear_14383_26300)"/>
<path d="M6.34555 17.8763L6.2389 17.8418C6.01247 18.1138 5.72897 18.3327 5.40852 18.4829C5.08806 18.633 4.73849 18.7109 4.38458 18.7109C4.03068 18.7109 3.68111 18.633 3.36065 18.4828C3.0402 18.3326 2.75671 18.1138 2.53028 17.8418C2.20682 17.9255 1.92024 18.114 1.71543 18.378C1.51061 18.642 1.39913 18.9664 1.39844 19.3005V19.8957C1.39801 20.075 1.46881 20.2471 1.59526 20.3742C1.7217 20.5013 1.89345 20.5729 2.07274 20.5734H6.69647C6.87575 20.5729 7.0475 20.5013 7.17395 20.3742C7.3004 20.2471 7.3712 20.075 7.37077 19.8957V19.3005C7.37119 18.9855 7.27237 18.6784 7.08834 18.4227C6.9043 18.167 6.64441 17.9758 6.34555 17.8763Z" fill="url(#paint4_linear_14383_26300)"/>
<path d="M15.8965 16.3114C15.9722 18.5843 19.2606 18.5853 19.3368 16.3114C19.2662 14.0382 15.9673 14.0381 15.8965 16.3114Z" fill="url(#paint5_linear_14383_26300)"/>
<path d="M19.576 17.8763L19.4694 17.8418C19.243 18.1138 18.9595 18.3327 18.639 18.4829C18.3186 18.633 17.969 18.7109 17.6151 18.7109C17.2612 18.7109 16.9116 18.633 16.5911 18.4828C16.2707 18.3326 15.9872 18.1138 15.7608 17.8418C15.4373 17.9255 15.1507 18.114 14.9459 18.378C14.7411 18.642 14.6296 18.9664 14.6289 19.3005V19.8957C14.6285 20.075 14.6993 20.2471 14.8257 20.3742C14.9522 20.5013 15.1239 20.5729 15.3032 20.5734H19.927C20.1062 20.5729 20.278 20.5013 20.4044 20.3742C20.5309 20.2471 20.6017 20.075 20.6012 19.8957V19.3005C20.6017 18.9855 20.5028 18.6784 20.3188 18.4227C20.1348 18.167 19.8749 17.9758 19.576 17.8763Z" fill="url(#paint6_linear_14383_26300)"/>
<path d="M19.3368 3.07997C19.2662 0.806751 15.9672 0.806617 15.8965 3.07993C15.9722 5.35287 19.2605 5.35383 19.3368 3.07997Z" fill="url(#paint7_linear_14383_26300)"/>
<path d="M19.576 4.64576L19.4694 4.61137C19.243 4.88335 18.9595 5.1022 18.639 5.25238C18.3185 5.40257 17.969 5.48042 17.6151 5.48042C17.2612 5.48041 16.9116 5.40255 16.5911 5.25236C16.2707 5.10217 15.9872 4.88332 15.7608 4.61133C15.4373 4.69499 15.1507 4.88357 14.9459 5.14754C14.7411 5.4115 14.6296 5.73594 14.6289 6.07005V6.66521C14.6292 6.84396 14.7003 7.0153 14.8267 7.1417C14.9531 7.26809 15.1245 7.33923 15.3032 7.33952H19.9269C20.1057 7.33923 20.277 7.2681 20.4034 7.1417C20.5298 7.01531 20.6009 6.84397 20.6012 6.66522V6.07006C20.6017 5.75504 20.5028 5.4479 20.3188 5.19223C20.1348 4.93656 19.8749 4.74535 19.576 4.64576Z" fill="url(#paint8_linear_14383_26300)"/>
<path d="M4.20247 8.0711C4.16315 8.04877 4.1198 8.03444 4.07492 8.02893C4.03004 8.02341 3.98451 8.02683 3.94096 8.03897C3.8974 8.05112 3.85667 8.07176 3.82112 8.0997C3.78557 8.12764 3.75589 8.16233 3.7338 8.20179C2.76061 9.93705 2.43735 11.9622 2.82199 13.9142C2.83991 14.0035 2.89249 14.082 2.96819 14.1326C3.0439 14.1832 3.13657 14.2017 3.2259 14.1841C3.31524 14.1665 3.39396 14.1142 3.44482 14.0387C3.49569 13.9632 3.51455 13.8706 3.49728 13.7812C3.1445 11.9902 3.44082 10.1322 4.33317 8.5398C4.35538 8.50045 4.36963 8.4571 4.37509 8.41224C4.38054 8.36738 4.3771 8.32189 4.36497 8.27836C4.35283 8.23483 4.33223 8.19412 4.30435 8.15855C4.27646 8.12299 4.24185 8.09327 4.20247 8.0711Z" fill="url(#paint9_linear_14383_26300)"/>
<path d="M13.4839 19.5228C11.8732 20.0725 10.1256 20.0725 8.51493 19.5228C8.4293 19.4949 8.33614 19.5018 8.25547 19.5418C8.17481 19.5819 8.11306 19.6519 8.08351 19.737C8.05395 19.8221 8.05893 19.9154 8.09739 19.9968C8.13585 20.0782 8.20471 20.1414 8.28919 20.1726C10.0457 20.7754 11.9531 20.7754 13.7096 20.1726C13.7942 20.1414 13.8631 20.0783 13.9015 19.9968C13.94 19.9154 13.945 19.8221 13.9155 19.737C13.8859 19.6519 13.8241 19.5817 13.7434 19.5417C13.6627 19.5017 13.5695 19.4949 13.4839 19.5228Z" fill="url(#paint10_linear_14383_26300)"/>
<path d="M18.7735 14.1858C18.8631 14.2031 18.9558 14.1843 19.0315 14.1335C19.1072 14.0827 19.1598 14.0041 19.1777 13.9147C19.5623 11.9627 19.2391 9.93748 18.2659 8.20221C18.2202 8.12437 18.1458 8.06759 18.0587 8.04409C17.9715 8.0206 17.8787 8.03227 17.8001 8.0766C17.7215 8.12093 17.6634 8.19437 17.6384 8.28109C17.6135 8.36781 17.6236 8.46087 17.6665 8.54022C18.5589 10.1326 18.8552 11.9906 18.5024 13.7816C18.4848 13.8711 18.5035 13.964 18.5543 14.0398C18.6052 14.1156 18.684 14.1681 18.7735 14.1858Z" fill="url(#paint11_linear_14383_26300)"/>
<path d="M8.21331 5.16828C10.0056 4.47015 11.9947 4.47015 13.787 5.16828C13.8713 5.19974 13.9647 5.19689 14.0469 5.16034C14.1292 5.12379 14.1939 5.05646 14.2271 4.97278C14.2604 4.8891 14.2595 4.79573 14.2247 4.7127C14.1899 4.62967 14.1239 4.56358 14.0409 4.5286C12.0861 3.7626 9.91417 3.7626 7.95932 4.5286C7.8745 4.56228 7.80652 4.62828 7.77036 4.71208C7.73419 4.79588 7.7328 4.89061 7.76648 4.97543C7.80016 5.06026 7.86616 5.12823 7.94996 5.1644C8.03375 5.20056 8.12849 5.20197 8.21331 5.16828Z" fill="url(#paint12_linear_14383_26300)"/>
<defs>
<linearGradient id="paint0_linear_14383_26300" x1="11.0006" y1="6.52051" x2="11.0006" y2="17.5008" gradientUnits="userSpaceOnUse">
<stop stop-color="#223CDD"/>
<stop offset="1" stop-color="#6176FF"/>
</linearGradient>
<linearGradient id="paint1_linear_14383_26300" x1="4.38421" y1="1.375" x2="4.38421" y2="4.78501" gradientUnits="userSpaceOnUse">
<stop stop-color="#223CDD"/>
<stop offset="1" stop-color="#6176FF"/>
</linearGradient>
<linearGradient id="paint2_linear_14383_26300" x1="4.38461" y1="4.61133" x2="4.38461" y2="7.33947" gradientUnits="userSpaceOnUse">
<stop stop-color="#223CDD"/>
<stop offset="1" stop-color="#6176FF"/>
</linearGradient>
<linearGradient id="paint3_linear_14383_26300" x1="4.38421" y1="14.6064" x2="4.38421" y2="18.0165" gradientUnits="userSpaceOnUse">
<stop stop-color="#223CDD"/>
<stop offset="1" stop-color="#6176FF"/>
</linearGradient>
<linearGradient id="paint4_linear_14383_26300" x1="4.38461" y1="17.8418" x2="4.38461" y2="20.5734" gradientUnits="userSpaceOnUse">
<stop stop-color="#223CDD"/>
<stop offset="1" stop-color="#6176FF"/>
</linearGradient>
<linearGradient id="paint5_linear_14383_26300" x1="17.6166" y1="14.6064" x2="17.6166" y2="18.0165" gradientUnits="userSpaceOnUse">
<stop stop-color="#223CDD"/>
<stop offset="1" stop-color="#6176FF"/>
</linearGradient>
<linearGradient id="paint6_linear_14383_26300" x1="17.6151" y1="17.8418" x2="17.6151" y2="20.5734" gradientUnits="userSpaceOnUse">
<stop stop-color="#223CDD"/>
<stop offset="1" stop-color="#6176FF"/>
</linearGradient>
<linearGradient id="paint7_linear_14383_26300" x1="17.6166" y1="1.375" x2="17.6166" y2="4.785" gradientUnits="userSpaceOnUse">
<stop stop-color="#223CDD"/>
<stop offset="1" stop-color="#6176FF"/>
</linearGradient>
<linearGradient id="paint8_linear_14383_26300" x1="17.6151" y1="4.61133" x2="17.6151" y2="7.33952" gradientUnits="userSpaceOnUse">
<stop stop-color="#223CDD"/>
<stop offset="1" stop-color="#6176FF"/>
</linearGradient>
<linearGradient id="paint9_linear_14383_26300" x1="3.52083" y1="8.02637" x2="3.52083" y2="14.1906" gradientUnits="userSpaceOnUse">
<stop stop-color="#223CDD"/>
<stop offset="1" stop-color="#6176FF"/>
</linearGradient>
<linearGradient id="paint10_linear_14383_26300" x1="10.9995" y1="19.5059" x2="10.9995" y2="20.6247" gradientUnits="userSpaceOnUse">
<stop stop-color="#223CDD"/>
<stop offset="1" stop-color="#6176FF"/>
</linearGradient>
<linearGradient id="paint11_linear_14383_26300" x1="18.4803" y1="8.03223" x2="18.4803" y2="14.1921" gradientUnits="userSpaceOnUse">
<stop stop-color="#223CDD"/>
<stop offset="1" stop-color="#6176FF"/>
</linearGradient>
<linearGradient id="paint12_linear_14383_26300" x1="10.9968" y1="3.9541" x2="10.9968" y2="5.19257" gradientUnits="userSpaceOnUse">
<stop stop-color="#223CDD"/>
<stop offset="1" stop-color="#6176FF"/>
</linearGradient>
</defs>
</svg>
