<svg width="22" height="22" viewBox="0 0 22 22" fill="none" xmlns="http://www.w3.org/2000/svg">
<path fill-rule="evenodd" clip-rule="evenodd" d="M11.5238 11.0911H10.41C10.3125 11.0911 10.2274 11.0253 10.2025 10.9312L9.94168 9.94508C9.67828 9.86902 9.42434 9.76375 9.18371 9.63098L8.30199 10.144C8.21734 10.193 8.11078 10.1788 8.04203 10.1101L7.25441 9.32289C7.18566 9.25371 7.17148 9.14715 7.22047 9.06293L7.73395 8.18078C7.60074 7.94016 7.49547 7.68621 7.41941 7.42281L6.43328 7.16199C6.33918 7.13707 6.27344 7.05156 6.27344 6.95445V5.8407C6.27344 5.74316 6.33918 5.65809 6.43328 5.63316L7.41941 5.37234C7.49547 5.10895 7.60074 4.855 7.73395 4.61438L7.22047 3.73223C7.17148 3.64801 7.18566 3.54145 7.25441 3.47227L8.0416 2.68508C8.11078 2.6159 8.21734 2.60215 8.30156 2.65113L9.18371 3.16418C9.42434 3.03141 9.67828 2.92613 9.94168 2.85008L10.2025 1.86395C10.2274 1.76941 10.3129 1.7041 10.41 1.7041H11.5238C11.6213 1.7041 11.7064 1.76941 11.7313 1.86395L11.9921 2.85008C12.2555 2.92613 12.5095 3.03141 12.7501 3.16418L13.6323 2.65113C13.7165 2.60215 13.823 2.6159 13.8922 2.68508L14.6794 3.47227C14.7486 3.54145 14.7623 3.64801 14.7134 3.73223L14.2003 4.61438C14.3331 4.855 14.4384 5.10895 14.5144 5.37234L15.5005 5.63316C15.5946 5.65809 15.6604 5.74316 15.6604 5.8407V6.95445C15.6604 7.05156 15.5946 7.13707 15.5005 7.16199L14.5144 7.42281C14.4384 7.68621 14.3331 7.94016 14.2003 8.18078L14.7134 9.06293C14.7623 9.14715 14.7486 9.25371 14.6794 9.32246L13.8922 10.1101C13.823 10.1788 13.7165 10.193 13.6323 10.144L12.7501 9.63055C12.5095 9.76375 12.2555 9.86902 11.9921 9.94508L11.7313 10.9312C11.7064 11.0253 11.6213 11.0911 11.5238 11.0911ZM10.9669 8.94992C9.55969 8.94992 8.41457 7.8048 8.41457 6.39758C8.41457 4.99035 9.55969 3.84523 10.9669 3.84523C12.3746 3.84523 13.5193 4.99035 13.5193 6.39758C13.5193 7.8048 12.3746 8.94992 10.9669 8.94992Z" fill="url(#paint0_linear_14358_25863)"/>
<path fill-rule="evenodd" clip-rule="evenodd" d="M16.5191 11.6835C16.617 11.6569 16.7137 11.7011 16.7631 11.787L17.5383 13.0916L18.3126 11.7888C18.3607 11.7033 18.4574 11.659 18.5532 11.6822C20.5706 12.1712 21.9984 13.9553 21.9984 16.0251V16.0306L21.9976 16.0418L21.9967 16.0526L21.995 16.0633L21.9929 16.0736L21.9903 16.0839L21.9873 16.0942L21.9834 16.1041L21.9795 16.1136L21.9774 16.1183L21.9722 16.1278L21.9696 16.132L21.9645 16.1411L21.9589 16.1497L21.9525 16.1578L21.946 16.166L21.9426 16.1699L21.9357 16.1772C21.9344 16.1772 21.8816 16.2395 21.7836 16.2399H13.293C13.1744 16.2399 13.0781 16.1441 13.0781 16.0251C13.0781 13.9638 14.5163 12.1562 16.5191 11.6835Z" fill="url(#paint1_linear_14358_25863)"/>
<path fill-rule="evenodd" clip-rule="evenodd" d="M17.5372 10.8029C16.5129 10.8029 15.6797 9.83219 15.6797 8.63852C15.6797 7.44527 16.5133 6.47461 17.5372 6.47461C18.5612 6.47461 19.3948 7.44527 19.3948 8.63852C19.3948 9.83219 18.5612 10.8029 17.5372 10.8029Z" fill="url(#paint2_linear_14358_25863)"/>
<path fill-rule="evenodd" clip-rule="evenodd" d="M16.3594 11.2805V10.8719V10.8672C16.6924 11.0958 17.0898 11.2324 17.5376 11.2324C17.9849 11.2324 18.3823 11.0958 18.7158 10.8672V10.8719V11.2797C18.6952 11.2745 18.6745 11.2689 18.6535 11.2638C18.3742 11.1963 18.0884 11.3227 17.9423 11.5684L17.5376 12.2499L17.132 11.5667C16.9837 11.3175 16.695 11.1946 16.4127 11.2664C16.395 11.2707 16.377 11.2758 16.3594 11.2805Z" fill="url(#paint3_linear_14358_25863)"/>
<path fill-rule="evenodd" clip-rule="evenodd" d="M17.4302 20.2958H4.46094C4.34234 20.2958 4.24609 20.2 4.24609 20.081V17.5381C4.24609 17.4195 4.34234 17.3232 4.46094 17.3232C4.57953 17.3232 4.67578 17.4195 4.67578 17.5381V19.8666H17.2154V17.5381C17.2154 17.4195 17.3116 17.3232 17.4302 17.3232C17.5488 17.3232 17.645 17.4195 17.645 17.5381V20.081C17.645 20.2 17.5488 20.2958 17.4302 20.2958Z" fill="url(#paint4_linear_14358_25863)"/>
<path fill-rule="evenodd" clip-rule="evenodd" d="M3.44094 11.6825C3.53934 11.6559 3.63602 11.7001 3.685 11.7861L4.46016 13.0906L5.23445 11.7878C5.28258 11.7023 5.37926 11.658 5.47508 11.6812C7.49246 12.1702 8.92031 13.9543 8.92031 16.0241V16.0297L8.91988 16.0408L8.91859 16.0516L8.91687 16.0623L8.91473 16.0726L8.91215 16.0829L8.90914 16.0933L8.90527 16.1031L8.90141 16.1126L8.89926 16.1173L8.89453 16.1268L8.89195 16.1311L8.88637 16.1401L8.88078 16.1487L8.87434 16.1569L8.86789 16.165L8.86445 16.1689L8.85758 16.1762C8.85629 16.1762 8.80344 16.2385 8.70547 16.2389H0.214844C0.09625 16.2389 0 16.1431 0 16.0241C0 13.9629 1.43816 12.1552 3.44094 11.6825Z" fill="url(#paint5_linear_14358_25863)"/>
<path fill-rule="evenodd" clip-rule="evenodd" d="M4.46063 10.8029C3.43668 10.8029 2.60352 9.83219 2.60352 8.63852C2.60352 7.44527 3.43668 6.47461 4.46063 6.47461C5.485 6.47461 6.31816 7.44527 6.31816 8.63852C6.31816 9.83219 5.485 10.8029 4.46063 10.8029Z" fill="url(#paint6_linear_14358_25863)"/>
<path fill-rule="evenodd" clip-rule="evenodd" d="M3.28125 11.2805V10.8719V10.8672C3.61426 11.0958 4.01215 11.2324 4.45945 11.2324C4.90719 11.2324 5.30465 11.0958 5.63766 10.8672V10.8719V11.2797C5.61703 11.2745 5.59641 11.2689 5.57535 11.2638C5.29605 11.1963 5.01031 11.3227 4.86422 11.5684L4.45945 12.2499L4.05383 11.5667C3.90559 11.3175 3.61684 11.1946 3.33453 11.2664C3.31691 11.2707 3.2993 11.2758 3.28125 11.2805Z" fill="url(#paint7_linear_14358_25863)"/>
<defs>
<linearGradient id="paint0_linear_14358_25863" x1="10.9669" y1="1.7041" x2="10.9669" y2="11.0911" gradientUnits="userSpaceOnUse">
<stop stop-color="#223CDD"/>
<stop offset="1" stop-color="#6176FF"/>
</linearGradient>
<linearGradient id="paint1_linear_14358_25863" x1="17.5383" y1="11.6758" x2="17.5383" y2="16.2399" gradientUnits="userSpaceOnUse">
<stop stop-color="#223CDD"/>
<stop offset="1" stop-color="#6176FF"/>
</linearGradient>
<linearGradient id="paint2_linear_14358_25863" x1="17.5372" y1="6.47461" x2="17.5372" y2="10.8029" gradientUnits="userSpaceOnUse">
<stop stop-color="#223CDD"/>
<stop offset="1" stop-color="#6176FF"/>
</linearGradient>
<linearGradient id="paint3_linear_14358_25863" x1="17.5376" y1="10.8672" x2="17.5376" y2="12.2499" gradientUnits="userSpaceOnUse">
<stop stop-color="#223CDD"/>
<stop offset="1" stop-color="#6176FF"/>
</linearGradient>
<linearGradient id="paint4_linear_14358_25863" x1="10.9456" y1="17.3232" x2="10.9456" y2="20.2958" gradientUnits="userSpaceOnUse">
<stop stop-color="#223CDD"/>
<stop offset="1" stop-color="#6176FF"/>
</linearGradient>
<linearGradient id="paint5_linear_14358_25863" x1="4.46016" y1="11.6748" x2="4.46016" y2="16.2389" gradientUnits="userSpaceOnUse">
<stop stop-color="#223CDD"/>
<stop offset="1" stop-color="#6176FF"/>
</linearGradient>
<linearGradient id="paint6_linear_14358_25863" x1="4.46084" y1="6.47461" x2="4.46084" y2="10.8029" gradientUnits="userSpaceOnUse">
<stop stop-color="#223CDD"/>
<stop offset="1" stop-color="#6176FF"/>
</linearGradient>
<linearGradient id="paint7_linear_14358_25863" x1="4.45945" y1="10.8672" x2="4.45945" y2="12.2499" gradientUnits="userSpaceOnUse">
<stop stop-color="#223CDD"/>
<stop offset="1" stop-color="#6176FF"/>
</linearGradient>
</defs>
</svg>
