<svg width="22" height="22" viewBox="0 0 22 22" fill="none" xmlns="http://www.w3.org/2000/svg">
<path d="M15.8202 13.6436H14.4108C14.4045 13.9348 14.4941 14.3968 14.067 14.4101L13.6442 14.4101V14.8742C13.6425 14.9642 13.6056 15.05 13.5413 15.113C13.477 15.1761 13.3905 15.2114 13.3005 15.2114C13.2104 15.2114 13.124 15.1761 13.0597 15.113C12.9954 15.05 12.9584 14.9642 12.9567 14.8741V14.4101H12.1111V15.6407C12.1098 15.7311 12.0731 15.8173 12.0087 15.8807C11.9444 15.9441 11.8577 15.9797 11.7674 15.9797C11.677 15.9796 11.5903 15.9441 11.526 15.8807C11.4617 15.8172 11.4249 15.731 11.4236 15.6407V14.4101H10.578V15.2179C10.5768 15.3082 10.54 15.3944 10.4757 15.4578C10.4113 15.5213 10.3246 15.5568 10.2343 15.5568C10.144 15.5568 10.0572 15.5212 9.99292 15.4578C9.9286 15.3944 9.89182 15.3082 9.89055 15.2179V14.4101H9.04492V16.1323C11.5324 17.1631 14.6342 15.9494 15.8202 13.6436Z" fill="url(#paint0_linear_14383_26359)"/>
<path d="M6.783 9.88908H7.59082V9.04004H5.89272C5.62202 9.65716 5.48832 10.3256 5.5008 10.9994C5.50114 11.985 5.76649 12.9524 6.26905 13.8003C6.7716 14.6481 7.49289 15.3453 8.35736 15.8187V14.4093C7.62071 14.442 7.56493 14.3658 7.59084 13.6428L7.12675 13.6428C7.03671 13.6411 6.95094 13.6041 6.88787 13.5398C6.8248 13.4756 6.78947 13.3891 6.78947 13.299C6.78947 13.209 6.82481 13.1225 6.88788 13.0582C6.95095 12.994 7.03673 12.957 7.12677 12.9553H7.59083V12.1097H6.36021C6.26988 12.1084 6.18369 12.0716 6.12027 12.0073C6.05684 11.943 6.02129 11.8562 6.02129 11.7659C6.0213 11.6756 6.05686 11.5889 6.12028 11.5245C6.18371 11.4602 6.2699 11.4234 6.36023 11.4222H7.59082V10.5765H6.78301C6.69288 10.575 6.60696 10.5381 6.54377 10.4738C6.48058 10.4095 6.44518 10.323 6.44518 10.2328C6.44518 10.1427 6.48058 10.0561 6.54377 9.99184C6.60696 9.92754 6.69287 9.89064 6.783 9.88908Z" fill="url(#paint1_linear_14383_26359)"/>
<path d="M14.4091 7.93373V8.35654H14.8732C14.9644 8.35654 15.0518 8.39276 15.1163 8.45722C15.1807 8.52169 15.2169 8.60912 15.2169 8.70029C15.2169 8.79146 15.1807 8.87889 15.1163 8.94336C15.0518 9.00782 14.9644 9.04404 14.8732 9.04404H14.4091V9.88964H15.6397C15.7301 9.89092 15.8163 9.9277 15.8797 9.99203C15.9431 10.0564 15.9787 10.1431 15.9787 10.2334C15.9787 10.3237 15.9431 10.4104 15.8797 10.4748C15.8162 10.5391 15.7301 10.5759 15.6397 10.5771H14.4091V11.4228H15.2169C15.3073 11.424 15.3935 11.4608 15.4569 11.5252C15.5203 11.5895 15.5559 11.6762 15.5559 11.7665C15.5559 11.8569 15.5203 11.9436 15.4569 12.0079C15.3934 12.0722 15.3073 12.109 15.2169 12.1103H14.4091V12.9559H16.1313C16.3732 12.3321 16.4979 11.669 16.4991 11C16.4988 10.0144 16.2334 9.04697 15.7309 8.1991C15.2283 7.35123 14.5071 6.65408 13.6426 6.18066V7.59001C13.9338 7.59627 14.3959 7.50663 14.4091 7.93373Z" fill="url(#paint2_linear_14383_26359)"/>
<path d="M13.7223 8.27734H8.27734V13.7223H13.7223V8.27734ZM11.5223 12.4607C11.5211 12.5511 11.4843 12.6374 11.42 12.7008C11.3557 12.7643 11.2689 12.7999 11.1785 12.7999C11.0882 12.7999 11.0014 12.7643 10.9371 12.7008C10.8728 12.6373 10.836 12.5511 10.8348 12.4607V11.3436H9.69699V12.4608C9.69571 12.5511 9.65893 12.6373 9.5946 12.7007C9.53027 12.7641 9.44356 12.7997 9.35323 12.7997C9.26289 12.7997 9.17619 12.7641 9.11186 12.7007C9.04754 12.6373 9.01076 12.5511 9.00949 12.4607V10.2711C9.00913 9.98622 9.12189 9.71286 9.323 9.5111C9.52411 9.30935 9.7971 9.1957 10.082 9.19515H10.4498C10.7346 9.19571 11.0076 9.30935 11.2087 9.51111C11.4099 9.71286 11.5226 9.98622 11.5223 10.2711L11.5223 12.4607ZM12.777 12.4607C12.7757 12.5511 12.739 12.6374 12.6747 12.7008C12.6103 12.7643 12.5236 12.7999 12.4332 12.7999C12.3428 12.7999 12.2561 12.7643 12.1917 12.7008C12.1274 12.6373 12.0907 12.5511 12.0895 12.4607V9.53891C12.0907 9.44854 12.1274 9.36228 12.1918 9.2988C12.2561 9.23533 12.3428 9.19974 12.4332 9.19974C12.5236 9.19974 12.6103 9.23533 12.6747 9.2988C12.739 9.36228 12.7757 9.44854 12.777 9.53891V12.4607Z" fill="url(#paint3_linear_14383_26359)"/>
<path d="M6.18164 8.35275H7.59102C7.59821 8.05906 7.50611 7.60612 7.93478 7.58962H8.35756V7.12558C8.35922 7.03551 8.39617 6.94969 8.46046 6.88658C8.52475 6.82347 8.61124 6.78812 8.70132 6.78812C8.79141 6.78812 8.87789 6.82348 8.94218 6.8866C9.00646 6.94971 9.0434 7.03553 9.04506 7.1256V7.58962H9.89069V6.35903C9.89196 6.26871 9.92874 6.18251 9.99307 6.11909C10.0574 6.05567 10.1441 6.02011 10.2344 6.02011C10.3248 6.02011 10.4115 6.05567 10.4758 6.11909C10.5401 6.18251 10.5769 6.26871 10.5782 6.35903V7.58962H11.4238V6.78183C11.4251 6.69151 11.4618 6.60531 11.5262 6.54189C11.5905 6.47847 11.6772 6.44291 11.7675 6.44291C11.8579 6.44291 11.9446 6.47847 12.0089 6.54189C12.0732 6.60531 12.11 6.69151 12.1113 6.78183V7.58962H12.9569V5.86748C10.4704 4.83666 7.37323 6.05079 6.18164 8.35275Z" fill="url(#paint4_linear_14383_26359)"/>
<path d="M10.4501 9.88281H10.0823C10.0314 9.88283 9.9811 9.89291 9.93417 9.91248C9.88724 9.93205 9.84465 9.96071 9.80886 9.99682C9.77306 10.0329 9.74478 10.0758 9.72563 10.1229C9.70648 10.17 9.69684 10.2204 9.69728 10.2712V10.6562H10.8351V10.2712C10.8355 10.2204 10.8259 10.17 10.8067 10.1229C10.7876 10.0758 10.7593 10.0329 10.7235 9.99682C10.6877 9.96071 10.6451 9.93205 10.5982 9.91248C10.5513 9.89291 10.5009 9.88283 10.4501 9.88281Z" fill="url(#paint5_linear_14383_26359)"/>
<path d="M4.81246 10.9999C4.81411 10.1589 4.98688 9.32705 5.32025 8.55497C5.65362 7.78288 6.14063 7.08672 6.75162 6.50885C7.36261 5.93098 8.08481 5.48349 8.87426 5.19363C9.6637 4.90376 10.5039 4.77758 11.3436 4.82276L11.3436 1.71875C11.3434 1.62766 11.3071 1.54039 11.2426 1.47598C11.1782 1.41157 11.091 1.37527 10.9999 1.375H10.1371C9.99409 1.37482 9.85274 1.40517 9.72244 1.46402C9.59215 1.52288 9.47593 1.60888 9.38156 1.71628C9.28719 1.82367 9.21684 1.94998 9.17522 2.08676C9.1336 2.22353 9.12167 2.36762 9.14022 2.50938C9.14863 2.58472 9.12964 2.66057 9.08672 2.72306C9.0438 2.78555 8.97982 2.8305 8.90647 2.84969C8.13672 3.04523 7.39923 3.35088 6.71682 3.75719C6.65413 3.79395 6.58077 3.8082 6.50888 3.79757C6.43699 3.78695 6.37089 3.75208 6.32153 3.69875C6.23534 3.58287 6.1253 3.48682 5.99884 3.41707C5.87238 3.34732 5.73244 3.3055 5.58845 3.29443C5.44445 3.28335 5.29976 3.30328 5.16412 3.35286C5.02848 3.40245 4.90505 3.48054 4.80215 3.58188L3.58186 4.80215C3.48036 4.90496 3.40213 5.02837 3.35245 5.16403C3.30276 5.2997 3.28279 5.44444 3.29387 5.58849C3.30495 5.73254 3.34684 5.87253 3.41669 5.99899C3.48654 6.12545 3.58273 6.23544 3.69876 6.32152C3.75209 6.37089 3.78696 6.437 3.79758 6.50889C3.80821 6.58079 3.79395 6.65415 3.75717 6.71683C3.35025 7.40016 3.04457 8.13887 2.84967 8.90993C2.83241 8.98414 2.78777 9.0491 2.72467 9.0918C2.66157 9.1345 2.58467 9.1518 2.50936 9.14024C2.36785 9.12311 2.22431 9.13605 2.08814 9.17821C1.95197 9.22037 1.82624 9.2908 1.71917 9.3849C1.61209 9.479 1.52609 9.59464 1.46679 9.72427C1.40748 9.85389 1.37621 9.99457 1.37503 10.1371L1.375 11.8627C1.3746 12.1294 1.48011 12.3853 1.66834 12.5742C1.85657 12.763 2.1121 12.8694 2.37875 12.8699C2.57316 12.8346 2.79859 12.8744 2.84969 13.0933C3.04523 13.8631 3.35088 14.6006 3.75719 15.283C3.79408 15.345 3.80841 15.4179 3.79776 15.4893C3.78712 15.5607 3.75214 15.6263 3.69875 15.6749C3.58279 15.7614 3.4867 15.8717 3.41693 15.9985C3.34716 16.1252 3.30534 16.2654 3.29426 16.4097C3.28319 16.5539 3.30313 16.6989 3.35274 16.8348C3.40235 16.9707 3.48048 17.0944 3.58188 17.1976L4.80215 18.4179C4.90363 18.5176 5.02493 18.5948 5.15818 18.6446C5.29143 18.6943 5.43365 18.7155 5.57562 18.7068C5.71758 18.698 5.85612 18.6595 5.98225 18.5938C6.10838 18.528 6.21928 18.4365 6.30775 18.3251C6.35342 18.2629 6.42066 18.22 6.49632 18.2047C6.57198 18.1895 6.65061 18.203 6.71681 18.2426C7.40013 18.6496 8.13885 18.9552 8.90991 19.1501C8.97652 19.1682 9.0354 19.2075 9.0776 19.2621C9.1198 19.3167 9.14299 19.3836 9.14366 19.4526C9.1213 19.5966 9.13017 19.7438 9.16967 19.884C9.20918 20.0243 9.27839 20.1545 9.37262 20.2656C9.46684 20.3768 9.58387 20.4664 9.71578 20.5284C9.84768 20.5904 9.99137 20.6232 10.1371 20.6248L10.9999 20.6248C11.091 20.6245 11.1782 20.5882 11.2427 20.5238C11.3071 20.4594 11.3434 20.3721 11.3436 20.2811V17.177C10.5039 17.2222 9.66369 17.096 8.87424 16.8062C8.08479 16.5163 7.36259 16.0688 6.7516 15.4909C6.14061 14.913 5.6536 14.2169 5.32023 13.4448C4.98686 12.6727 4.8141 11.8409 4.81246 10.9999Z" fill="url(#paint6_linear_14383_26359)"/>
<path d="M18.2193 11.3438C18.3096 11.3425 18.3958 11.3057 18.4592 11.2414C18.5227 11.177 18.5582 11.0903 18.5582 11C18.5582 10.9097 18.5226 10.823 18.4592 10.7586C18.3958 10.6943 18.3096 10.6575 18.2193 10.6562H17.1777C17.1915 10.8852 17.1915 11.1148 17.1777 11.3438H18.2193Z" fill="url(#paint7_linear_14383_26359)"/>
<path d="M15.6062 6.87498C15.7917 6.85591 16.2637 6.94015 16.4002 6.77529L16.9846 6.1875H17.2493C17.3304 6.41686 17.4899 6.61016 17.6997 6.73325C17.9096 6.85634 18.1562 6.90129 18.3959 6.86015C18.6357 6.81901 18.8532 6.69444 19.01 6.50845C19.1668 6.32246 19.2528 6.08702 19.2528 5.84375C19.2528 5.60048 19.1668 5.36505 19.01 5.17906C18.8532 4.99306 18.6357 4.86849 18.3959 4.82735C18.1562 4.78622 17.9096 4.83116 17.6997 4.95425C17.4899 5.07734 17.3304 5.27065 17.2493 5.5H16.8436C16.7525 5.50067 16.6651 5.53637 16.5996 5.59969L16.0152 6.1875H14.8809C15.1423 6.39501 15.385 6.62505 15.6062 6.87498Z" fill="url(#paint8_linear_14383_26359)"/>
<path d="M18.2186 15.1251C18.0059 15.1257 17.7985 15.1921 17.625 15.3152C17.4514 15.4382 17.3202 15.612 17.2493 15.8126H16.9846L16.4002 15.2248C16.2657 15.0601 15.7879 15.144 15.6062 15.1251C15.385 15.375 15.1423 15.605 14.8809 15.8126H16.0152L16.5996 16.4004C16.6651 16.4637 16.7525 16.4994 16.8436 16.5H17.2493C17.3125 16.678 17.4234 16.8351 17.5699 16.9542C17.7164 17.0733 17.8928 17.1499 18.0799 17.1756C18.2669 17.2012 18.4575 17.175 18.6306 17.0997C18.8038 17.0244 18.9529 16.9029 19.0617 16.7486C19.1705 16.5943 19.2348 16.413 19.2475 16.2246C19.2603 16.0363 19.221 15.848 19.134 15.6804C19.047 15.5129 18.9156 15.3724 18.7541 15.2745C18.5927 15.1765 18.4075 15.1248 18.2186 15.1251Z" fill="url(#paint9_linear_14383_26359)"/>
<path d="M18.6237 8.93748H18.06L17.4722 8.06094C17.4412 8.01354 17.3988 7.97459 17.349 7.94759C17.2992 7.92059 17.2435 7.90639 17.1869 7.90625H16.3516C16.4843 8.12644 16.6003 8.35624 16.6987 8.59375H17.0012L17.589 9.47031C17.6201 9.51771 17.6624 9.55665 17.7122 9.58365C17.762 9.61065 17.8177 9.62486 17.8744 9.625H18.6237C18.7048 9.85396 18.8642 10.0469 19.0737 10.1697C19.2833 10.2925 19.5295 10.3373 19.7689 10.2962C20.0083 10.2551 20.2254 10.1307 20.3819 9.94493C20.5385 9.75921 20.6243 9.52414 20.6243 9.28125C20.6243 9.03836 20.5385 8.80329 20.3819 8.61757C20.2254 8.43184 20.0083 8.30742 19.7689 8.26629C19.5295 8.22516 19.2833 8.26996 19.0737 8.39279C18.8642 8.51561 18.7048 8.70852 18.6237 8.93748Z" fill="url(#paint10_linear_14383_26359)"/>
<path d="M19.5931 11.6875C19.3803 11.6881 19.173 11.7545 18.9994 11.8776C18.8259 12.0007 18.6947 12.1744 18.6237 12.375H17.8744C17.8177 12.3751 17.762 12.3893 17.7122 12.4163C17.6624 12.4433 17.6201 12.4823 17.589 12.5297L17.0012 13.4062H16.6987C16.6003 13.6437 16.4843 13.8735 16.3516 14.0937H17.1869C17.2435 14.0936 17.2992 14.0794 17.349 14.0524C17.3988 14.0254 17.4412 13.9864 17.4722 13.939L18.06 13.0625H18.6237C18.687 13.2404 18.7979 13.3975 18.9444 13.5166C19.0908 13.6358 19.2673 13.7124 19.4543 13.738C19.6414 13.7637 19.8319 13.7374 20.0051 13.6621C20.1782 13.5868 20.3273 13.4654 20.4361 13.3111C20.5449 13.1567 20.6092 12.9755 20.622 12.7871C20.6347 12.5987 20.5954 12.4104 20.5084 12.2429C20.4214 12.0753 20.29 11.9349 20.1286 11.8369C19.9672 11.739 19.7819 11.6873 19.5931 11.6875Z" fill="url(#paint11_linear_14383_26359)"/>
<defs>
<linearGradient id="paint0_linear_14383_26359" x1="12.4325" y1="13.6436" x2="12.4325" y2="16.5027" gradientUnits="userSpaceOnUse">
<stop stop-color="#223CDD"/>
<stop offset="1" stop-color="#6176FF"/>
</linearGradient>
<linearGradient id="paint1_linear_14383_26359" x1="6.92868" y1="9.04004" x2="6.92868" y2="15.8187" gradientUnits="userSpaceOnUse">
<stop stop-color="#223CDD"/>
<stop offset="1" stop-color="#6176FF"/>
</linearGradient>
<linearGradient id="paint2_linear_14383_26359" x1="15.0708" y1="6.18066" x2="15.0708" y2="12.9559" gradientUnits="userSpaceOnUse">
<stop stop-color="#223CDD"/>
<stop offset="1" stop-color="#6176FF"/>
</linearGradient>
<linearGradient id="paint3_linear_14383_26359" x1="10.9998" y1="8.27734" x2="10.9998" y2="13.7223" gradientUnits="userSpaceOnUse">
<stop stop-color="#223CDD"/>
<stop offset="1" stop-color="#6176FF"/>
</linearGradient>
<linearGradient id="paint4_linear_14383_26359" x1="9.56928" y1="5.49707" x2="9.56928" y2="8.35275" gradientUnits="userSpaceOnUse">
<stop stop-color="#223CDD"/>
<stop offset="1" stop-color="#6176FF"/>
</linearGradient>
<linearGradient id="paint5_linear_14383_26359" x1="10.2662" y1="9.88281" x2="10.2662" y2="10.6562" gradientUnits="userSpaceOnUse">
<stop stop-color="#223CDD"/>
<stop offset="1" stop-color="#6176FF"/>
</linearGradient>
<linearGradient id="paint6_linear_14383_26359" x1="6.35932" y1="1.375" x2="6.35932" y2="20.6248" gradientUnits="userSpaceOnUse">
<stop stop-color="#223CDD"/>
<stop offset="1" stop-color="#6176FF"/>
</linearGradient>
<linearGradient id="paint7_linear_14383_26359" x1="17.868" y1="10.6562" x2="17.868" y2="11.3438" gradientUnits="userSpaceOnUse">
<stop stop-color="#223CDD"/>
<stop offset="1" stop-color="#6176FF"/>
</linearGradient>
<linearGradient id="paint8_linear_14383_26359" x1="17.0668" y1="4.8125" x2="17.0668" y2="6.87997" gradientUnits="userSpaceOnUse">
<stop stop-color="#223CDD"/>
<stop offset="1" stop-color="#6176FF"/>
</linearGradient>
<linearGradient id="paint9_linear_14383_26359" x1="17.0654" y1="15.1201" x2="17.0654" y2="17.1851" gradientUnits="userSpaceOnUse">
<stop stop-color="#223CDD"/>
<stop offset="1" stop-color="#6176FF"/>
</linearGradient>
<linearGradient id="paint10_linear_14383_26359" x1="18.4879" y1="7.90625" x2="18.4879" y2="10.3111" gradientUnits="userSpaceOnUse">
<stop stop-color="#223CDD"/>
<stop offset="1" stop-color="#6176FF"/>
</linearGradient>
<linearGradient id="paint11_linear_14383_26359" x1="18.4879" y1="11.6875" x2="18.4879" y2="14.0937" gradientUnits="userSpaceOnUse">
<stop stop-color="#223CDD"/>
<stop offset="1" stop-color="#6176FF"/>
</linearGradient>
</defs>
</svg>
