<svg width="22" height="22" viewBox="0 0 22 22" fill="none" xmlns="http://www.w3.org/2000/svg">
<path d="M7.81252 11.2898H10.1569C10.2021 11.2899 10.2468 11.2812 10.2886 11.2639C10.3304 11.2467 10.3684 11.2214 10.4003 11.1894C10.4323 11.1575 10.4576 11.1195 10.4748 11.0778C10.492 11.036 10.5008 10.9912 10.5006 10.946V2.65822C10.5008 2.61303 10.492 2.56826 10.4748 2.52649C10.4576 2.48471 10.4323 2.44675 10.4003 2.4148C10.3684 2.38285 10.3304 2.35754 10.2886 2.34032C10.2468 2.3231 10.2021 2.31431 10.1569 2.31447H7.81252C7.76725 2.31402 7.72235 2.32261 7.68044 2.33973C7.63854 2.35684 7.60046 2.38215 7.56845 2.41416C7.53644 2.44617 7.51114 2.48424 7.49402 2.52615C7.47691 2.56805 7.46832 2.61295 7.46877 2.65822V10.946C7.46832 10.9913 7.47691 11.0362 7.49402 11.0781C7.51114 11.12 7.53644 11.1581 7.56845 11.1901C7.60046 11.2221 7.63854 11.2474 7.68044 11.2645C7.72235 11.2816 7.76725 11.2902 7.81252 11.2898Z" fill="url(#paint0_linear_14383_26218)"/>
<path d="M15.877 11.2898H18.2179C18.2631 11.2899 18.3079 11.2812 18.3496 11.2639C18.3914 11.2467 18.4294 11.2214 18.4613 11.1894C18.4933 11.1575 18.5186 11.1195 18.5358 11.0778C18.553 11.036 18.5618 10.9912 18.5617 10.946V2.65822C18.5618 2.61303 18.553 2.56826 18.5358 2.52649C18.5186 2.48471 18.4933 2.44675 18.4613 2.4148C18.4294 2.38285 18.3914 2.35754 18.3496 2.34032C18.3079 2.3231 18.2631 2.31431 18.2179 2.31447H15.877C15.8317 2.31402 15.7868 2.32261 15.7449 2.33973C15.703 2.35684 15.6649 2.38215 15.6329 2.41416C15.6009 2.44617 15.5756 2.48424 15.5585 2.52615C15.5414 2.56805 15.5328 2.61295 15.5332 2.65822V10.946C15.5328 10.9913 15.5414 11.0362 15.5585 11.0781C15.5756 11.12 15.6009 11.1581 15.6329 11.1901C15.6649 11.2221 15.703 11.2474 15.7449 11.2645C15.7868 11.2816 15.8317 11.2902 15.877 11.2898Z" fill="url(#paint1_linear_14383_26218)"/>
<path d="M11.8418 11.2902H14.1862C14.2314 11.2906 14.2763 11.282 14.3182 11.2649C14.3602 11.2478 14.3982 11.2225 14.4302 11.1905C14.4622 11.1585 14.4875 11.1204 14.5047 11.0785C14.5218 11.0366 14.5304 10.9917 14.5299 10.9464V4.9961C14.5301 4.95091 14.5213 4.90614 14.5041 4.86436C14.4869 4.82259 14.4615 4.78463 14.4296 4.75268C14.3976 4.72073 14.3597 4.69541 14.3179 4.67819C14.2761 4.66097 14.2314 4.65219 14.1862 4.65235H11.8418C11.7507 4.65262 11.6634 4.68892 11.599 4.75333C11.5346 4.81774 11.4983 4.90501 11.498 4.9961V10.9464C11.4979 10.9916 11.5067 11.0364 11.5239 11.0781C11.5411 11.1199 11.5664 11.1579 11.5984 11.1898C11.6303 11.2218 11.6683 11.2471 11.7101 11.2643C11.7518 11.2815 11.7966 11.2903 11.8418 11.2902Z" fill="url(#paint2_linear_14383_26218)"/>
<path d="M3.78125 11.2895H6.12219C6.16746 11.2899 6.21236 11.2814 6.25426 11.2642C6.29617 11.2471 6.33424 11.2218 6.36625 11.1898C6.39826 11.1578 6.42356 11.1197 6.44068 11.0778C6.4578 11.0359 6.46639 10.991 6.46594 10.9457V6.31543C6.4661 6.27025 6.45731 6.22548 6.44009 6.1837C6.42287 6.14192 6.39756 6.10397 6.36561 6.07201C6.33366 6.04006 6.2957 6.01475 6.25392 5.99753C6.21215 5.98031 6.16738 5.97153 6.12219 5.97168H3.78125C3.69017 5.97195 3.60289 6.00826 3.53848 6.07266C3.47408 6.13707 3.43777 6.22435 3.4375 6.31543V10.9457C3.43735 10.9909 3.44613 11.0357 3.46335 11.0775C3.48057 11.1193 3.50588 11.1572 3.53783 11.1892C3.56979 11.2211 3.60774 11.2464 3.64952 11.2636C3.6913 11.2809 3.73607 11.2897 3.78125 11.2895Z" fill="url(#paint3_linear_14383_26218)"/>
<path d="M20.2812 16.9482H12.0312C11.7897 16.9485 11.5526 17.0125 11.3438 17.1339C11.3442 17.3591 11.3423 17.2662 11.3472 17.4776C11.3472 17.5697 11.3106 17.658 11.2455 17.7231C11.1804 17.7882 11.0921 17.8248 11 17.8248C10.9079 17.8248 10.8196 17.7882 10.7545 17.7231C10.6894 17.658 10.6528 17.5697 10.6528 17.4776C10.6573 17.2617 10.6559 17.3612 10.6562 17.1339C10.4474 17.0125 10.2103 16.9485 9.96875 16.9482H1.71875C1.62767 16.9485 1.54039 16.9848 1.47598 17.0492C1.41158 17.1136 1.37527 17.2009 1.375 17.292V17.6357C1.3758 17.909 1.48471 18.1708 1.67793 18.3641C1.87115 18.5573 2.13299 18.6662 2.40625 18.667H9.21594C9.27592 18.6673 9.33478 18.6834 9.38664 18.7135C9.4385 18.7437 9.48157 18.7869 9.51156 18.8388C9.66493 19.0969 9.88278 19.3107 10.1437 19.4592C10.4047 19.6077 10.6997 19.6858 11 19.6858C11.3002 19.6858 11.5953 19.6077 11.8563 19.4592C12.1172 19.3108 12.3351 19.097 12.4884 18.8389C12.5184 18.7869 12.5615 18.7437 12.6133 18.7135C12.6652 18.6834 12.7241 18.6673 12.7841 18.667H19.5938C19.867 18.6662 20.1288 18.5573 20.3221 18.3641C20.5153 18.1708 20.6242 17.909 20.625 17.6357V17.292C20.6247 17.2009 20.5884 17.1136 20.524 17.0492C20.4596 16.9848 20.3723 16.9485 20.2812 16.9482Z" fill="url(#paint4_linear_14383_26218)"/>
<path d="M10.6563 16.4462V13.6377C10.0085 13.0071 9.24057 13.0459 8.10565 13.5415C6.42185 14.3426 4.59544 14.8007 2.73284 14.889C2.553 14.892 2.38162 14.9659 2.25606 15.0947C2.13049 15.2234 2.06093 15.3966 2.06253 15.5765V16.2606H9.96878C10.2103 16.2608 10.4475 16.3249 10.6563 16.4462Z" fill="url(#paint5_linear_14383_26218)"/>
<path d="M19.9375 16.2605V15.5765C19.9373 15.3971 19.8672 15.2249 19.742 15.0965C19.6168 14.9681 19.4465 14.8937 19.2672 14.889C17.4046 14.8007 15.5782 14.3426 13.8944 13.5415C12.759 13.0457 11.9921 13.0073 11.3438 13.6377V16.4462C11.5526 16.3248 11.7897 16.2608 12.0312 16.2605H19.9375Z" fill="url(#paint6_linear_14383_26218)"/>
<defs>
<linearGradient id="paint0_linear_14383_26218" x1="8.9847" y1="2.31445" x2="8.9847" y2="11.2898" gradientUnits="userSpaceOnUse">
<stop stop-color="#223CDD"/>
<stop offset="1" stop-color="#6176FF"/>
</linearGradient>
<linearGradient id="paint1_linear_14383_26218" x1="17.0474" y1="2.31445" x2="17.0474" y2="11.2898" gradientUnits="userSpaceOnUse">
<stop stop-color="#223CDD"/>
<stop offset="1" stop-color="#6176FF"/>
</linearGradient>
<linearGradient id="paint2_linear_14383_26218" x1="13.014" y1="4.65234" x2="13.014" y2="11.2902" gradientUnits="userSpaceOnUse">
<stop stop-color="#223CDD"/>
<stop offset="1" stop-color="#6176FF"/>
</linearGradient>
<linearGradient id="paint3_linear_14383_26218" x1="4.95173" y1="5.97168" x2="4.95173" y2="11.2895" gradientUnits="userSpaceOnUse">
<stop stop-color="#223CDD"/>
<stop offset="1" stop-color="#6176FF"/>
</linearGradient>
<linearGradient id="paint4_linear_14383_26218" x1="11" y1="16.9482" x2="11" y2="19.6858" gradientUnits="userSpaceOnUse">
<stop stop-color="#223CDD"/>
<stop offset="1" stop-color="#6176FF"/>
</linearGradient>
<linearGradient id="paint5_linear_14383_26218" x1="6.35939" y1="13.167" x2="6.35939" y2="16.4462" gradientUnits="userSpaceOnUse">
<stop stop-color="#223CDD"/>
<stop offset="1" stop-color="#6176FF"/>
</linearGradient>
<linearGradient id="paint6_linear_14383_26218" x1="15.6406" y1="13.167" x2="15.6406" y2="16.4462" gradientUnits="userSpaceOnUse">
<stop stop-color="#223CDD"/>
<stop offset="1" stop-color="#6176FF"/>
</linearGradient>
</defs>
</svg>
