<svg width="22" height="22" viewBox="0 0 22 22" fill="none" xmlns="http://www.w3.org/2000/svg">
<path d="M9.10938 14.4424H12.8906C13.1639 14.4416 13.4257 14.3327 13.6189 14.1395C13.8122 13.9462 13.9211 13.6844 13.9219 13.4111V4.47363H8.07812V13.4111C8.07893 13.6844 8.18783 13.9462 8.38106 14.1395C8.57428 14.3327 8.83612 14.4416 9.10938 14.4424ZM11 6.70801C11.1355 6.70993 11.2648 6.7651 11.3599 6.86159C11.455 6.95808 11.5084 7.08814 11.5084 7.22364C11.5084 7.35915 11.455 7.4892 11.3599 7.58569C11.2648 7.68218 11.1355 7.73734 11 7.73926C10.8645 7.73734 10.7352 7.68217 10.6401 7.58568C10.5449 7.48918 10.4916 7.35913 10.4916 7.22362C10.4916 7.08812 10.5449 6.95806 10.6401 6.86157C10.7352 6.76509 10.8645 6.70992 11 6.70801ZM11 9.45801C11.1355 9.45993 11.2648 9.5151 11.3599 9.61159C11.455 9.70808 11.5084 9.83814 11.5084 9.97364C11.5084 10.1091 11.455 10.2392 11.3599 10.3357C11.2648 10.4322 11.1355 10.4873 11 10.4893C10.8645 10.4873 10.7352 10.4322 10.6401 10.3357C10.5449 10.2392 10.4916 10.1091 10.4916 9.97362C10.4916 9.83812 10.5449 9.70806 10.6401 9.61157C10.7352 9.51509 10.8645 9.45992 11 9.45801Z" fill="url(#paint0_linear_14383_26206)"/>
<path d="M19.5938 2.75488H15.8125C15.5392 2.75568 15.2774 2.86458 15.0842 3.05781C14.891 3.25103 14.782 3.51287 14.7812 3.78613V5.16113H20.625V3.78613C20.6242 3.51287 20.5153 3.25103 20.3221 3.05781C20.1288 2.86458 19.867 2.75568 19.5938 2.75488Z" fill="url(#paint1_linear_14383_26206)"/>
<path d="M2.40625 14.4424H6.1875C6.46076 14.4416 6.7226 14.3327 6.91582 14.1395C7.10904 13.9462 7.21795 13.6844 7.21875 13.4111V5.84863H1.375V13.4111C1.3758 13.6844 1.48471 13.9462 1.67793 14.1395C1.87115 14.3327 2.13299 14.4416 2.40625 14.4424ZM4.40687 7.39551C4.54236 7.39743 4.67165 7.4526 4.76679 7.54909C4.86192 7.64558 4.91525 7.77564 4.91525 7.91114C4.91525 8.04665 4.86191 8.1767 4.76677 8.27319C4.67164 8.36968 4.54234 8.42484 4.40685 8.42676C4.27136 8.42484 4.14208 8.36967 4.04694 8.27318C3.95181 8.17668 3.89848 8.04663 3.89848 7.91112C3.89848 7.77562 3.95182 7.64556 4.04696 7.54907C4.14209 7.45259 4.27139 7.39742 4.40687 7.39551ZM4.40687 10.1455C4.54236 10.1474 4.67165 10.2026 4.76679 10.2991C4.86192 10.3956 4.91525 10.5256 4.91525 10.6611C4.91525 10.7966 4.86191 10.9267 4.76677 11.0232C4.67164 11.1197 4.54234 11.1748 4.40685 11.1768C4.27136 11.1748 4.14208 11.1197 4.04694 11.0232C3.95181 10.9267 3.89848 10.7966 3.89848 10.6611C3.89848 10.5256 3.95182 10.3956 4.04696 10.2991C4.14209 10.2026 4.27139 10.1474 4.40687 10.1455Z" fill="url(#paint2_linear_14383_26206)"/>
<path d="M13.9219 2.41113C13.9211 2.13787 13.8122 1.87603 13.6189 1.68281C13.4257 1.48959 13.1639 1.38068 12.8906 1.37988H9.10938C8.83612 1.38068 8.57428 1.48959 8.38105 1.68281C8.18783 1.87603 8.07892 2.13787 8.07812 2.41113V3.78613H13.9219V2.41113Z" fill="url(#paint3_linear_14383_26206)"/>
<path d="M7.21875 3.78613C7.21795 3.51287 7.10905 3.25103 6.91582 3.05781C6.7226 2.86458 6.46076 2.75568 6.1875 2.75488H2.40625C2.13299 2.75568 1.87115 2.86458 1.67793 3.05781C1.4847 3.25103 1.3758 3.51287 1.375 3.78613V5.16113H7.21875V3.78613Z" fill="url(#paint4_linear_14383_26206)"/>
<path d="M14.7812 13.4111C14.7821 13.6844 14.891 13.9462 15.0842 14.1395C15.2774 14.3327 15.5392 14.4416 15.8125 14.4424H19.5938C19.867 14.4416 20.1288 14.3327 20.3221 14.1395C20.5153 13.9462 20.6242 13.6844 20.625 13.4111V5.84863H14.7812V13.4111ZM17.6791 7.39551C17.8146 7.39743 17.9438 7.4526 18.039 7.54909C18.1341 7.64558 18.1874 7.77564 18.1874 7.91114C18.1874 8.04665 18.1341 8.1767 18.039 8.27319C17.9438 8.36968 17.8145 8.42484 17.679 8.42676C17.5436 8.42484 17.4143 8.36967 17.3191 8.27318C17.224 8.17668 17.1707 8.04663 17.1707 7.91112C17.1707 7.77562 17.224 7.64556 17.3191 7.54907C17.4143 7.45259 17.5436 7.39742 17.6791 7.39551ZM17.6791 10.1455C17.8146 10.1474 17.9438 10.2026 18.039 10.2991C18.1341 10.3956 18.1874 10.5256 18.1874 10.6611C18.1874 10.7966 18.1341 10.9267 18.039 11.0232C17.9438 11.1197 17.8145 11.1748 17.679 11.1768C17.5436 11.1748 17.4143 11.1197 17.3191 11.0232C17.224 10.9267 17.1707 10.7966 17.1707 10.6611C17.1707 10.5256 17.224 10.3956 17.3191 10.2991C17.4143 10.2026 17.5436 10.1474 17.6791 10.1455Z" fill="url(#paint5_linear_14383_26206)"/>
<path d="M20.2814 18.9111H19.0336C18.9553 18.6181 18.7824 18.3592 18.5419 18.1745C18.3013 17.9898 18.0065 17.8897 17.7033 17.8897C17.4 17.8897 17.1052 17.9898 16.8647 18.1745C16.6241 18.3592 16.4513 18.6182 16.373 18.9112L12.3305 18.9111C12.2698 18.6732 12.1461 18.4561 11.9725 18.2825C11.7989 18.1089 11.5818 17.9853 11.3439 17.9246V15.1299H10.6564V17.9246C10.4185 17.9853 10.2014 18.1089 10.0278 18.2825C9.85416 18.4561 9.73052 18.6732 9.66983 18.9111H5.62733C5.55137 18.616 5.37945 18.3546 5.13863 18.1679C4.8978 17.9812 4.60173 17.8799 4.29702 17.8799C3.99231 17.8799 3.69624 17.9812 3.45541 18.1679C3.21459 18.3546 3.04267 18.616 2.96671 18.9111H1.71889C1.62872 18.9126 1.54276 18.9495 1.47952 19.0138C1.41629 19.0781 1.38086 19.1647 1.38086 19.2549C1.38086 19.3451 1.4163 19.4317 1.47954 19.4959C1.54277 19.5602 1.62874 19.5971 1.71892 19.5986H2.96671C3.04503 19.8916 3.21788 20.1506 3.45843 20.3352C3.69897 20.5199 3.99376 20.62 4.29704 20.62C4.60031 20.62 4.89509 20.5199 5.13564 20.3352C5.37618 20.1505 5.54902 19.8916 5.62733 19.5986L9.66983 19.5986C9.74824 19.8915 9.92112 20.1504 10.1617 20.335C10.4022 20.5196 10.6969 20.6197 11.0002 20.6197C11.3034 20.6197 11.5981 20.5196 11.8387 20.335C12.0792 20.1503 12.2521 19.8915 12.3305 19.5986L16.373 19.5986C16.4515 19.8915 16.6244 20.1502 16.8649 20.3347C17.1054 20.5193 17.4001 20.6193 17.7033 20.6193C18.0065 20.6193 18.3011 20.5193 18.5417 20.3347C18.7822 20.1502 18.9551 19.8914 19.0336 19.5986L20.2814 19.5986C20.3716 19.5972 20.4576 19.5603 20.5209 19.496C20.5842 19.4317 20.6196 19.3451 20.6196 19.2549C20.6196 19.1647 20.5842 19.0781 20.5209 19.0138C20.4576 18.9494 20.3716 18.9126 20.2814 18.9111Z" fill="url(#paint6_linear_14383_26206)"/>
<defs>
<linearGradient id="paint0_linear_14383_26206" x1="11" y1="4.47363" x2="11" y2="14.4424" gradientUnits="userSpaceOnUse">
<stop stop-color="#223CDD"/>
<stop offset="1" stop-color="#6176FF"/>
</linearGradient>
<linearGradient id="paint1_linear_14383_26206" x1="17.7031" y1="2.75488" x2="17.7031" y2="5.16113" gradientUnits="userSpaceOnUse">
<stop stop-color="#223CDD"/>
<stop offset="1" stop-color="#6176FF"/>
</linearGradient>
<linearGradient id="paint2_linear_14383_26206" x1="4.29688" y1="5.84863" x2="4.29688" y2="14.4424" gradientUnits="userSpaceOnUse">
<stop stop-color="#223CDD"/>
<stop offset="1" stop-color="#6176FF"/>
</linearGradient>
<linearGradient id="paint3_linear_14383_26206" x1="11" y1="1.37988" x2="11" y2="3.78613" gradientUnits="userSpaceOnUse">
<stop stop-color="#223CDD"/>
<stop offset="1" stop-color="#6176FF"/>
</linearGradient>
<linearGradient id="paint4_linear_14383_26206" x1="4.29688" y1="2.75488" x2="4.29688" y2="5.16113" gradientUnits="userSpaceOnUse">
<stop stop-color="#223CDD"/>
<stop offset="1" stop-color="#6176FF"/>
</linearGradient>
<linearGradient id="paint5_linear_14383_26206" x1="17.7031" y1="5.84863" x2="17.7031" y2="14.4424" gradientUnits="userSpaceOnUse">
<stop stop-color="#223CDD"/>
<stop offset="1" stop-color="#6176FF"/>
</linearGradient>
<linearGradient id="paint6_linear_14383_26206" x1="11.0003" y1="15.1299" x2="11.0003" y2="20.62" gradientUnits="userSpaceOnUse">
<stop stop-color="#223CDD"/>
<stop offset="1" stop-color="#6176FF"/>
</linearGradient>
</defs>
</svg>
