<svg width="22" height="22" viewBox="0 0 22 22" fill="none" xmlns="http://www.w3.org/2000/svg">
<path d="M17.6309 6.52974C17.4826 6.52954 17.3344 6.53988 17.1875 6.56068C16.9812 5.79375 16.5328 5.11389 15.9092 4.62215C15.2855 4.13041 14.5198 3.85305 13.7259 3.8313C13.2989 3.03704 12.6341 2.39622 11.8247 1.99858C11.0153 1.60094 10.1018 1.4664 9.21216 1.6138C8.32249 1.76119 7.5012 2.18314 6.86328 2.82056C6.22537 3.45797 5.80278 4.27894 5.65469 5.16849C5.46256 5.13798 5.26828 5.12303 5.07375 5.1238C4.09278 5.1238 3.15199 5.51349 2.45834 6.20714C1.76469 6.90079 1.375 7.84159 1.375 8.82256C1.375 9.80352 1.76469 10.7443 2.45834 11.438C3.15199 12.1316 4.09278 12.5213 5.07375 12.5213H6.1875V11.1635C6.1883 10.8902 6.2972 10.6284 6.49043 10.4352C6.68365 10.2419 6.94549 10.133 7.21875 10.1322H14.7812C15.0545 10.133 15.3163 10.2419 15.5096 10.4352C15.7028 10.6284 15.8117 10.8902 15.8125 11.1635V12.5213H17.6309C18.4255 12.5213 19.1875 12.2057 19.7493 11.6439C20.3111 11.082 20.6267 10.32 20.6267 9.52551C20.6267 8.73098 20.3111 7.96899 19.7493 7.40717C19.1875 6.84535 18.4255 6.52974 17.6309 6.52974Z" fill="url(#paint0_linear_14383_26191)"/>
<path d="M14.7812 10.8193H7.21875C7.12758 10.8193 7.04015 10.8556 6.97568 10.92C6.91122 10.9845 6.875 11.0719 6.875 11.1631V13.2256C6.875 13.3168 6.91122 13.4042 6.97568 13.4687C7.04015 13.5331 7.12758 13.5693 7.21875 13.5693H14.7812C14.8724 13.5693 14.9599 13.5331 15.0243 13.4687C15.0888 13.4042 15.125 13.3168 15.125 13.2256V11.1631C15.125 11.0719 15.0888 10.9845 15.0243 10.92C14.9599 10.8556 14.8724 10.8193 14.7812 10.8193ZM8.94438 12.5381C8.89923 12.5383 8.85449 12.5296 8.8127 12.5126C8.7709 12.4955 8.73288 12.4704 8.7008 12.4386C8.66872 12.4069 8.64321 12.3691 8.62573 12.3275C8.60825 12.2859 8.59913 12.2412 8.59891 12.1961C8.59868 12.1509 8.60735 12.1062 8.62441 12.0644C8.64148 12.0226 8.66661 11.9846 8.69837 11.9525C8.73013 11.9204 8.7679 11.8949 8.80952 11.8774C8.85114 11.8599 8.8958 11.8508 8.94094 11.8506H8.94438C9.03554 11.8506 9.12298 11.8868 9.18744 11.9513C9.25191 12.0157 9.28813 12.1032 9.28813 12.1943C9.28813 12.2855 9.25191 12.3729 9.18744 12.4374C9.12298 12.5019 9.03554 12.5381 8.94438 12.5381ZM11.0069 12.5381C10.9617 12.5383 10.917 12.5296 10.8752 12.5126C10.8334 12.4955 10.7954 12.4704 10.7633 12.4386C10.7312 12.4069 10.7057 12.3691 10.6882 12.3275C10.6707 12.2859 10.6616 12.2412 10.6614 12.1961C10.6612 12.1509 10.6698 12.1062 10.6869 12.0644C10.704 12.0226 10.7291 11.9846 10.7609 11.9525C10.7926 11.9204 10.8304 11.8949 10.872 11.8774C10.9136 11.8599 10.9583 11.8508 11.0034 11.8506H11.0069C11.098 11.8506 11.1855 11.8868 11.2499 11.9513C11.3144 12.0157 11.3506 12.1032 11.3506 12.1943C11.3506 12.2855 11.3144 12.3729 11.2499 12.4374C11.1855 12.5019 11.098 12.5381 11.0069 12.5381ZM13.0694 12.5381C13.0242 12.5383 12.9795 12.5296 12.9377 12.5126C12.8959 12.4955 12.8579 12.4704 12.8258 12.4386C12.7937 12.4069 12.7682 12.3691 12.7507 12.3275C12.7332 12.2859 12.7241 12.2412 12.7239 12.1961C12.7237 12.1509 12.7323 12.1062 12.7494 12.0644C12.7665 12.0226 12.7916 11.9846 12.8234 11.9525C12.8551 11.9204 12.8929 11.8949 12.9345 11.8774C12.9761 11.8599 13.0208 11.8508 13.0659 11.8506H13.0694C13.1605 11.8506 13.248 11.8868 13.3124 11.9513C13.3769 12.0157 13.4131 12.1032 13.4131 12.1943C13.4131 12.2855 13.3769 12.3729 13.3124 12.4374C13.248 12.5019 13.1605 12.5381 13.0694 12.5381Z" fill="url(#paint1_linear_14383_26191)"/>
<path d="M14.7812 14.2568H7.21875C7.12758 14.2568 7.04015 14.2931 6.97568 14.3575C6.91122 14.422 6.875 14.5094 6.875 14.6006V16.6631C6.875 16.7543 6.91122 16.8417 6.97568 16.9062C7.04015 16.9706 7.12758 17.0068 7.21875 17.0068H14.7812C14.8724 17.0068 14.9599 16.9706 15.0243 16.9062C15.0888 16.8417 15.125 16.7543 15.125 16.6631V14.6006C15.125 14.5094 15.0888 14.422 15.0243 14.3575C14.9599 14.2931 14.8724 14.2568 14.7812 14.2568ZM8.94438 15.9756C8.89923 15.9758 8.85449 15.9671 8.8127 15.9501C8.7709 15.933 8.73288 15.9079 8.7008 15.8761C8.66872 15.8444 8.64321 15.8066 8.62573 15.765C8.60825 15.7234 8.59913 15.6787 8.59891 15.6336C8.59868 15.5884 8.60735 15.5437 8.62441 15.5019C8.64148 15.4601 8.66661 15.4221 8.69837 15.39C8.73013 15.3579 8.7679 15.3324 8.80952 15.3149C8.85114 15.2974 8.8958 15.2883 8.94094 15.2881H8.94438C9.03554 15.2881 9.12298 15.3243 9.18744 15.3888C9.25191 15.4532 9.28813 15.5407 9.28813 15.6318C9.28813 15.723 9.25191 15.8104 9.18744 15.8749C9.12298 15.9394 9.03554 15.9756 8.94438 15.9756ZM11.0069 15.9756C10.9617 15.9758 10.917 15.9671 10.8752 15.9501C10.8334 15.933 10.7954 15.9079 10.7633 15.8761C10.7312 15.8444 10.7057 15.8066 10.6882 15.765C10.6707 15.7234 10.6616 15.6787 10.6614 15.6336C10.6612 15.5884 10.6698 15.5437 10.6869 15.5019C10.704 15.4601 10.7291 15.4221 10.7609 15.39C10.7926 15.3579 10.8304 15.3324 10.872 15.3149C10.9136 15.2974 10.9583 15.2883 11.0034 15.2881H11.0069C11.098 15.2881 11.1855 15.3243 11.2499 15.3888C11.3144 15.4532 11.3506 15.5407 11.3506 15.6318C11.3506 15.723 11.3144 15.8104 11.2499 15.8749C11.1855 15.9394 11.098 15.9756 11.0069 15.9756ZM13.0694 15.9756C12.9782 15.976 12.8906 15.9403 12.8258 15.8761C12.761 15.812 12.7244 15.7247 12.7239 15.6336C12.7235 15.5424 12.7592 15.4548 12.8234 15.39C12.8875 15.3252 12.9748 15.2885 13.0659 15.2881H13.0694C13.1605 15.2881 13.248 15.3243 13.3124 15.3888C13.3769 15.4532 13.4131 15.5407 13.4131 15.6318C13.4131 15.723 13.3769 15.8104 13.3124 15.8749C13.248 15.9394 13.1605 15.9756 13.0694 15.9756Z" fill="url(#paint2_linear_14383_26191)"/>
<path d="M14.7812 17.6943H7.21875C7.12758 17.6943 7.04015 17.7306 6.97568 17.795C6.91122 17.8595 6.875 17.9469 6.875 18.0381V20.1006C6.875 20.1918 6.91122 20.2792 6.97568 20.3437C7.04015 20.4081 7.12758 20.4443 7.21875 20.4443H14.7812C14.8724 20.4443 14.9599 20.4081 15.0243 20.3437C15.0888 20.2792 15.125 20.1918 15.125 20.1006V18.0381C15.125 17.9469 15.0888 17.8595 15.0243 17.795C14.9599 17.7306 14.8724 17.6943 14.7812 17.6943ZM8.94438 19.4131C8.89923 19.4133 8.85449 19.4046 8.8127 19.3876C8.7709 19.3705 8.73288 19.3454 8.7008 19.3136C8.66872 19.2819 8.64321 19.2441 8.62573 19.2025C8.60825 19.1609 8.59913 19.1162 8.59891 19.0711C8.59868 19.0259 8.60735 18.9812 8.62441 18.9394C8.64148 18.8976 8.66661 18.8596 8.69837 18.8275C8.73013 18.7954 8.7679 18.7699 8.80952 18.7524C8.85114 18.7349 8.8958 18.7258 8.94094 18.7256H8.94438C9.03554 18.7256 9.12298 18.7618 9.18744 18.8263C9.25191 18.8907 9.28813 18.9782 9.28813 19.0693C9.28813 19.1605 9.25191 19.2479 9.18744 19.3124C9.12298 19.3769 9.03554 19.4131 8.94438 19.4131ZM11.0069 19.4131C10.9617 19.4133 10.917 19.4046 10.8752 19.3876C10.8334 19.3705 10.7954 19.3454 10.7633 19.3136C10.7312 19.2819 10.7057 19.2441 10.6882 19.2025C10.6707 19.1609 10.6616 19.1162 10.6614 19.0711C10.6612 19.0259 10.6698 18.9812 10.6869 18.9394C10.704 18.8976 10.7291 18.8596 10.7609 18.8275C10.7926 18.7954 10.8304 18.7699 10.872 18.7524C10.9136 18.7349 10.9583 18.7258 11.0034 18.7256H11.0069C11.098 18.7256 11.1855 18.7618 11.2499 18.8263C11.3144 18.8907 11.3506 18.9782 11.3506 19.0693C11.3506 19.1605 11.3144 19.2479 11.2499 19.3124C11.1855 19.3769 11.098 19.4131 11.0069 19.4131ZM13.0694 19.4131C12.9782 19.4135 12.8906 19.3778 12.8258 19.3136C12.761 19.2495 12.7244 19.1622 12.7239 19.0711C12.7235 18.9799 12.7592 18.8923 12.8234 18.8275C12.8875 18.7627 12.9748 18.726 13.0659 18.7256H13.0694C13.1605 18.7256 13.248 18.7618 13.3124 18.8263C13.3769 18.8907 13.4131 18.9782 13.4131 19.0693C13.4131 19.1605 13.3769 19.2479 13.3124 19.3124C13.248 19.3769 13.1605 19.4131 13.0694 19.4131Z" fill="url(#paint3_linear_14383_26191)"/>
<defs>
<linearGradient id="paint0_linear_14383_26191" x1="11.0009" y1="1.55566" x2="11.0009" y2="12.5213" gradientUnits="userSpaceOnUse">
<stop stop-color="#223CDD"/>
<stop offset="1" stop-color="#6176FF"/>
</linearGradient>
<linearGradient id="paint1_linear_14383_26191" x1="11" y1="10.8193" x2="11" y2="13.5693" gradientUnits="userSpaceOnUse">
<stop stop-color="#223CDD"/>
<stop offset="1" stop-color="#6176FF"/>
</linearGradient>
<linearGradient id="paint2_linear_14383_26191" x1="11" y1="14.2568" x2="11" y2="17.0068" gradientUnits="userSpaceOnUse">
<stop stop-color="#223CDD"/>
<stop offset="1" stop-color="#6176FF"/>
</linearGradient>
<linearGradient id="paint3_linear_14383_26191" x1="11" y1="17.6943" x2="11" y2="20.4443" gradientUnits="userSpaceOnUse">
<stop stop-color="#223CDD"/>
<stop offset="1" stop-color="#6176FF"/>
</linearGradient>
</defs>
</svg>
