<svg width="22" height="22" viewBox="0 0 22 22" fill="none" xmlns="http://www.w3.org/2000/svg">
<path d="M13.75 6.46594C13.7048 6.46609 13.66 6.45731 13.6183 6.44009C13.5765 6.42287 13.5385 6.39756 13.5066 6.36561C13.4746 6.33365 13.4493 6.2957 13.4321 6.25392C13.4149 6.21214 13.4061 6.16737 13.4062 6.12219V1.375H4.125C4.03392 1.37527 3.94664 1.41158 3.88223 1.47598C3.81783 1.54039 3.78152 1.62767 3.78125 1.71875V20.2812C3.78152 20.3723 3.81783 20.4596 3.88223 20.524C3.94664 20.5884 4.03392 20.6247 4.125 20.625H17.875C17.9661 20.6247 18.0534 20.5884 18.1178 20.524C18.1822 20.4596 18.2185 20.3723 18.2188 20.2812V6.46594H13.75ZM13.75 7.90625C13.8412 7.90625 13.9286 7.94247 13.9931 8.00693C14.0575 8.0714 14.0938 8.15883 14.0938 8.25C14.0938 8.34117 14.0575 8.4286 13.9931 8.49307C13.9286 8.55753 13.8412 8.59375 13.75 8.59375H8.25C8.15883 8.59375 8.0714 8.55753 8.00693 8.49307C7.94247 8.4286 7.90625 8.34117 7.90625 8.25C7.90625 8.15883 7.94247 8.0714 8.00693 8.00693C8.0714 7.94247 8.15883 7.90625 8.25 7.90625H13.75ZM5.15625 4.125C5.15652 4.03392 5.19283 3.94664 5.25723 3.88223C5.32164 3.81783 5.40892 3.78152 5.5 3.78125H9.625C9.71608 3.78152 9.80336 3.81783 9.86777 3.88223C9.93217 3.94664 9.96848 4.03392 9.96875 4.125V6.875C9.96848 6.96608 9.93217 7.05336 9.86777 7.11777C9.80336 7.18217 9.71608 7.21848 9.625 7.21875H5.5C5.40892 7.21848 5.32164 7.18217 5.25723 7.11777C5.19283 7.05336 5.15652 6.96608 5.15625 6.875V4.125ZM16.5 18.2188H5.5C5.40883 18.2188 5.3214 18.1825 5.25693 18.1181C5.19247 18.0536 5.15625 17.9662 5.15625 17.875C5.15625 17.7838 5.19247 17.6964 5.25693 17.6319C5.3214 17.5675 5.40883 17.5312 5.5 17.5312H16.5C16.5912 17.5312 16.6786 17.5675 16.7431 17.6319C16.8075 17.6964 16.8438 17.7838 16.8438 17.875C16.8438 17.9662 16.8075 18.0536 16.7431 18.1181C16.6786 18.1825 16.5912 18.2188 16.5 18.2188ZM16.5 15.73H5.5C5.40883 15.73 5.3214 15.6938 5.25693 15.6293C5.19247 15.5649 5.15625 15.4774 5.15625 15.3862C5.15625 15.2951 5.19247 15.2076 5.25693 15.1432C5.3214 15.0787 5.40883 15.0425 5.5 15.0425H16.5C16.5912 15.0425 16.6786 15.0787 16.7431 15.1432C16.8075 15.2076 16.8438 15.2951 16.8438 15.3862C16.8438 15.4774 16.8075 15.5649 16.7431 15.6293C16.6786 15.6938 16.5912 15.73 16.5 15.73ZM16.5 13.2413H5.5C5.40883 13.2413 5.3214 13.205 5.25693 13.1406C5.19247 13.0761 5.15625 12.9887 5.15625 12.8975C5.15625 12.8063 5.19247 12.7189 5.25693 12.6544C5.3214 12.59 5.40883 12.5538 5.5 12.5538H16.5C16.5912 12.5538 16.6786 12.59 16.7431 12.6544C16.8075 12.7189 16.8438 12.8063 16.8438 12.8975C16.8438 12.9887 16.8075 13.0761 16.7431 13.1406C16.6786 13.205 16.5912 13.2413 16.5 13.2413ZM16.5 10.7491H5.5C5.40883 10.7491 5.3214 10.7128 5.25693 10.6484C5.19247 10.5839 5.15625 10.4965 5.15625 10.4053C5.15625 10.3141 5.19247 10.2267 5.25693 10.1622C5.3214 10.0978 5.40883 10.0616 5.5 10.0616H16.5C16.5912 10.0616 16.6786 10.0978 16.7431 10.1622C16.8075 10.2267 16.8438 10.3141 16.8438 10.4053C16.8438 10.4965 16.8075 10.5839 16.7431 10.6484C16.6786 10.7128 16.5912 10.7491 16.5 10.7491Z" fill="url(#paint0_linear_14383_26402)"/>
<path d="M14.0938 1.58496V5.77871H18.0228L14.0938 1.58496Z" fill="url(#paint1_linear_14383_26402)"/>
<path d="M5.84375 4.46875H9.28125V6.53125H5.84375V4.46875Z" fill="url(#paint2_linear_14383_26402)"/>
<defs>
<linearGradient id="paint0_linear_14383_26402" x1="11" y1="1.375" x2="11" y2="20.625" gradientUnits="userSpaceOnUse">
<stop stop-color="#223CDD"/>
<stop offset="1" stop-color="#6176FF"/>
</linearGradient>
<linearGradient id="paint1_linear_14383_26402" x1="16.0583" y1="1.58496" x2="16.0583" y2="5.77871" gradientUnits="userSpaceOnUse">
<stop stop-color="#223CDD"/>
<stop offset="1" stop-color="#6176FF"/>
</linearGradient>
<linearGradient id="paint2_linear_14383_26402" x1="7.5625" y1="4.46875" x2="7.5625" y2="6.53125" gradientUnits="userSpaceOnUse">
<stop stop-color="#223CDD"/>
<stop offset="1" stop-color="#6176FF"/>
</linearGradient>
</defs>
</svg>
