<svg width="22" height="22" viewBox="0 0 22 22" fill="none" xmlns="http://www.w3.org/2000/svg">
<path d="M15.125 13.75C15.0799 13.75 15.0351 13.7588 14.9934 13.7761C14.9517 13.7934 14.9138 13.8187 14.8819 13.8506C14.8499 13.8825 14.8246 13.9205 14.8074 13.9622C14.7901 14.0039 14.7812 14.0486 14.7812 14.0938C14.7812 15.0966 14.3829 16.0584 13.6737 16.7675C12.9646 17.4766 12.0028 17.875 11 17.875C9.99715 17.875 9.03537 17.4766 8.32625 16.7675C7.61713 16.0584 7.21875 15.0966 7.21875 14.0938C7.21875 14.0026 7.18253 13.9151 7.11807 13.8507C7.0536 13.7862 6.96617 13.75 6.875 13.75C6.78383 13.75 6.6964 13.7862 6.63193 13.8507C6.56747 13.9151 6.53125 14.0026 6.53125 14.0938C6.53302 15.2185 6.95857 16.3013 7.72307 17.1263C8.48758 17.9513 9.53489 18.4578 10.6562 18.5451V19.9375H8.25C8.15883 19.9375 8.0714 19.9737 8.00693 20.0382C7.94247 20.1026 7.90625 20.1901 7.90625 20.2812C7.90625 20.3724 7.94247 20.4599 8.00693 20.5243C8.0714 20.5888 8.15883 20.625 8.25 20.625H13.75C13.8412 20.625 13.9286 20.5888 13.9931 20.5243C14.0575 20.4599 14.0938 20.3724 14.0938 20.2812C14.0938 20.1901 14.0575 20.1026 13.9931 20.0382C13.9286 19.9737 13.8412 19.9375 13.75 19.9375H11.3438V18.5451C12.4651 18.4578 13.5124 17.9513 14.2769 17.1263C15.0414 16.3013 15.467 15.2185 15.4688 14.0938C15.4688 14.0486 15.4599 14.0039 15.4426 13.9622C15.4254 13.9205 15.4001 13.8825 15.3681 13.8506C15.3362 13.8187 15.2983 13.7934 15.2566 13.7761C15.2149 13.7588 15.1701 13.75 15.125 13.75Z" fill="url(#paint0_linear_14383_26374)"/>
<path d="M11 17.1875C11.8201 17.1863 12.6063 16.8599 13.1862 16.28C13.7662 15.7001 14.0925 14.9139 14.0938 14.0938V11.3438C14.0938 10.5232 13.7678 9.73633 13.1876 9.15614C12.6074 8.57595 11.8205 8.25 11 8.25C10.1795 8.25 9.39258 8.57595 8.81239 9.15614C8.2322 9.73633 7.90625 10.5232 7.90625 11.3438V14.0938C7.90748 14.9139 8.23383 15.7001 8.81375 16.28C9.39367 16.8599 10.1799 17.1863 11 17.1875Z" fill="url(#paint1_linear_14383_26374)"/>
<path d="M20.2812 4.05281H15.2636L14.3435 1.59807C14.3189 1.53259 14.275 1.47616 14.2175 1.43631C14.1601 1.39645 14.0918 1.37506 14.0219 1.375C13.952 1.37503 13.8834 1.39636 13.826 1.43616C13.7685 1.47595 13.7246 1.53232 13.7 1.59773L12.0071 6.09787L11.3216 4.27556C11.297 4.21014 11.253 4.15377 11.1956 4.11398C11.1381 4.07418 11.0699 4.05284 11 4.05281H10.2309L9.3071 1.59775C9.28252 1.53232 9.23856 1.47594 9.1811 1.43614C9.12364 1.39634 9.0554 1.37502 8.9855 1.37502C8.91561 1.37502 8.84737 1.39634 8.78991 1.43614C8.73244 1.47594 8.68849 1.53232 8.66391 1.59775L7.74042 4.05281H1.71875C1.62758 4.05281 1.54015 4.08903 1.47568 4.15349C1.41122 4.21796 1.375 4.30539 1.375 4.39656C1.375 4.48773 1.41122 4.57516 1.47568 4.63963C1.54015 4.7041 1.62758 4.74031 1.71875 4.74031H7.97844C8.04833 4.74028 8.11655 4.71895 8.17401 4.67915C8.23147 4.63936 8.27543 4.583 8.30003 4.51758L8.98552 2.6951L9.67134 4.51758C9.69595 4.583 9.73991 4.63936 9.79736 4.67915C9.85482 4.71895 9.92304 4.74028 9.99293 4.74031H10.762L11.6855 7.19541C11.7101 7.26084 11.754 7.31722 11.8115 7.35702C11.869 7.39682 11.9372 7.41814 12.0071 7.41814C12.077 7.41814 12.1452 7.39682 12.2027 7.35702C12.2602 7.31722 12.3041 7.26084 12.3287 7.19541L14.0209 2.69661L14.7034 4.51724C14.728 4.58276 14.772 4.63922 14.8295 4.67908C14.887 4.71894 14.9553 4.7403 15.0253 4.74031H20.2812C20.3724 4.74031 20.4599 4.7041 20.5243 4.63963C20.5888 4.57516 20.625 4.48773 20.625 4.39656C20.625 4.30539 20.5888 4.21796 20.5243 4.15349C20.4599 4.08903 20.3724 4.05281 20.2812 4.05281Z" fill="url(#paint2_linear_14383_26374)"/>
<defs>
<linearGradient id="paint0_linear_14383_26374" x1="11" y1="13.75" x2="11" y2="20.625" gradientUnits="userSpaceOnUse">
<stop stop-color="#223CDD"/>
<stop offset="1" stop-color="#6176FF"/>
</linearGradient>
<linearGradient id="paint1_linear_14383_26374" x1="11" y1="8.25" x2="11" y2="17.1875" gradientUnits="userSpaceOnUse">
<stop stop-color="#223CDD"/>
<stop offset="1" stop-color="#6176FF"/>
</linearGradient>
<linearGradient id="paint2_linear_14383_26374" x1="11" y1="1.375" x2="11" y2="7.41814" gradientUnits="userSpaceOnUse">
<stop stop-color="#223CDD"/>
<stop offset="1" stop-color="#6176FF"/>
</linearGradient>
</defs>
</svg>
