<svg width="22" height="22" viewBox="0 0 22 22" fill="none" xmlns="http://www.w3.org/2000/svg">
<path d="M19.25 2.23438H15.8537C16.0719 2.43166 16.2554 2.66403 16.3969 2.92188H19.25C19.4322 2.92241 19.6067 2.99501 19.7355 3.12383C19.8644 3.25264 19.937 3.4272 19.9375 3.60938V13.7122H2.0625V3.60938C2.06303 3.4272 2.13564 3.25264 2.26445 3.12383C2.39327 2.99501 2.56783 2.92241 2.75 2.92188H5.60312C5.74457 2.66403 5.92815 2.43166 6.14625 2.23438H2.75C2.56942 2.23432 2.3906 2.26985 2.22375 2.33894C2.0569 2.40802 1.90531 2.5093 1.77761 2.63699C1.64992 2.76468 1.54864 2.91628 1.47956 3.08312C1.41048 3.24997 1.37495 3.42879 1.375 3.60938V14.3997C1.37495 14.5803 1.41048 14.7591 1.47956 14.9259C1.54865 15.0928 1.64993 15.2444 1.77762 15.3721C1.90531 15.4998 2.05691 15.601 2.22375 15.6701C2.3906 15.7392 2.56942 15.7747 2.75 15.7747H19.25C19.4306 15.7747 19.6094 15.7392 19.7762 15.6701C19.9431 15.601 20.0947 15.4998 20.2224 15.3721C20.3501 15.2444 20.4514 15.0928 20.5204 14.9259C20.5895 14.7591 20.625 14.5803 20.625 14.3997V3.60938C20.6251 3.42879 20.5895 3.24997 20.5204 3.08312C20.4514 2.91628 20.3501 2.76468 20.2224 2.63699C20.0947 2.5093 19.9431 2.40802 19.7763 2.33894C19.6094 2.26985 19.4306 2.23432 19.25 2.23438Z" fill="url(#paint0_linear_14383_26341)"/>
<path d="M14.6816 17.9744C14.616 17.9111 14.5286 17.8754 14.4375 17.8747H12.7188V16.4619H9.09219V17.8747H7.5625C7.47137 17.8754 7.38398 17.9111 7.31844 17.9744L6.28719 19.0057C6.22386 19.0712 6.18817 19.1586 6.1875 19.2497V20.281C6.18777 20.3721 6.22408 20.4593 6.28848 20.5237C6.35289 20.5882 6.44017 20.6245 6.53125 20.6247H15.4688C15.5598 20.6245 15.6471 20.5882 15.7115 20.5237C15.7759 20.4593 15.8122 20.3721 15.8125 20.281V19.2497C15.8118 19.1586 15.7761 19.0712 15.7128 19.0057L14.6816 17.9744Z" fill="url(#paint1_linear_14383_26341)"/>
<path d="M8.96875 5.46582C9.1586 5.46582 9.3125 5.31192 9.3125 5.12207C9.3125 4.93222 9.1586 4.77832 8.96875 4.77832C8.7789 4.77832 8.625 4.93222 8.625 5.12207C8.625 5.31192 8.7789 5.46582 8.96875 5.46582Z" fill="url(#paint2_linear_14383_26341)"/>
<path d="M13.0312 5.46582C13.2211 5.46582 13.375 5.31192 13.375 5.12207C13.375 4.93222 13.2211 4.77832 13.0312 4.77832C12.8414 4.77832 12.6875 4.93222 12.6875 5.12207C12.6875 5.31192 12.8414 5.46582 13.0312 5.46582Z" fill="url(#paint3_linear_14383_26341)"/>
<path d="M17.8751 7.16699V5.44824C17.8745 5.26607 17.8019 5.09151 17.6731 4.9627C17.5443 4.83388 17.3697 4.76128 17.1876 4.76074H16.7441V7.85449H17.1876C17.3698 7.85396 17.5443 7.78136 17.6731 7.65254C17.8019 7.52372 17.8745 7.34916 17.8751 7.16699Z" fill="url(#paint4_linear_14383_26341)"/>
<path d="M4.125 5.44824V7.16699C4.12553 7.34916 4.19814 7.52372 4.32695 7.65254C4.45577 7.78136 4.63033 7.85396 4.8125 7.85449H5.25594V4.76074H4.8125C4.63033 4.76128 4.45577 4.83388 4.32696 4.9627C4.19814 5.09151 4.12554 5.26607 4.125 5.44824Z" fill="url(#paint5_linear_14383_26341)"/>
<path d="M5.94336 8.36C5.94379 8.90688 6.16123 9.43123 6.54793 9.81793C6.93463 10.2046 7.45898 10.4221 8.00586 10.4225H13.994C14.5409 10.4221 15.0652 10.2046 15.4519 9.81793C15.8386 9.43123 16.0561 8.90688 16.0565 8.36V4.25563C16.0561 3.70875 15.8386 3.1844 15.4519 2.7977C15.0652 2.411 14.5409 2.19356 13.994 2.19313H11.3437V1.71875C11.3437 1.62758 11.3075 1.54015 11.243 1.47568C11.1785 1.41122 11.0911 1.375 10.9999 1.375C10.9088 1.375 10.8213 1.41122 10.7569 1.47568C10.6924 1.54015 10.6562 1.62758 10.6562 1.71875V2.19313H8.00586C7.45898 2.19356 6.93463 2.411 6.54793 2.7977C6.16123 3.1844 5.94379 3.70875 5.94336 4.25563V8.36ZM13.0315 4.09062C13.2354 4.09062 13.4348 4.15111 13.6044 4.26442C13.774 4.37774 13.9062 4.5388 13.9842 4.72723C14.0623 4.91567 14.0827 5.12302 14.0429 5.32306C14.0031 5.5231 13.9049 5.70686 13.7607 5.85108C13.6165 5.9953 13.4327 6.09352 13.2327 6.13331C13.0326 6.1731 12.8253 6.15268 12.6368 6.07463C12.4484 5.99657 12.2873 5.8644 12.174 5.69481C12.0607 5.52522 12.0002 5.32584 12.0002 5.12187C12.0001 4.9864 12.0266 4.85222 12.0784 4.72702C12.1301 4.60182 12.2061 4.48806 12.3019 4.39227C12.3977 4.29647 12.5114 4.22052 12.6366 4.16876C12.7618 4.11699 12.896 4.09044 13.0315 4.09062ZM10.9999 8.56625C11.3986 8.5607 11.7914 8.46978 12.1519 8.29959C12.5124 8.12941 12.8323 7.88393 13.0899 7.57969C13.1186 7.5447 13.1539 7.51571 13.1937 7.49435C13.2336 7.473 13.2773 7.45971 13.3223 7.45524C13.3673 7.45077 13.4128 7.45521 13.456 7.46831C13.4993 7.4814 13.5396 7.5029 13.5746 7.53156C13.6096 7.56023 13.6386 7.5955 13.6599 7.63537C13.6813 7.67525 13.6946 7.71893 13.6991 7.76394C13.7035 7.80895 13.6991 7.85439 13.686 7.89769C13.6729 7.94098 13.6514 7.98127 13.6227 8.01625C13.3039 8.40324 12.9034 8.71488 12.45 8.92884C11.9965 9.14279 11.5013 9.25374 10.9999 9.25374C10.4985 9.25374 10.0033 9.14279 9.54988 8.92884C9.09642 8.71488 8.69592 8.40324 8.37711 8.01625C8.34844 7.98127 8.32695 7.94098 8.31386 7.89769C8.30076 7.85439 8.29632 7.80895 8.30079 7.76394C8.30526 7.71893 8.31855 7.67525 8.3399 7.63537C8.36125 7.5955 8.39025 7.56023 8.42523 7.53156C8.46022 7.5029 8.50051 7.4814 8.5438 7.46831C8.58709 7.45521 8.63254 7.45077 8.67755 7.45524C8.72255 7.45971 8.76624 7.473 8.80611 7.49435C8.84598 7.51571 8.88126 7.5447 8.90992 7.57969C9.16744 7.88407 9.48727 8.12966 9.84782 8.29985C10.2084 8.47005 10.6013 8.56089 10.9999 8.56625ZM8.96836 4.09062C9.17232 4.09062 9.3717 4.15111 9.54129 4.26442C9.71088 4.37774 9.84306 4.5388 9.92111 4.72723C9.99916 4.91567 10.0196 5.12302 9.97979 5.32306C9.94 5.5231 9.84179 5.70686 9.69756 5.85108C9.55334 5.9953 9.36959 6.09352 9.16955 6.13331C8.9695 6.1731 8.76215 6.15268 8.57372 6.07463C8.38528 5.99657 8.22422 5.8644 8.11091 5.69481C7.99759 5.52522 7.93711 5.32584 7.93711 5.12187C7.93733 4.84844 8.04605 4.58626 8.2394 4.39291C8.43275 4.19957 8.69492 4.09085 8.96836 4.09062Z" fill="url(#paint6_linear_14383_26341)"/>
<defs>
<linearGradient id="paint0_linear_14383_26341" x1="11" y1="2.23438" x2="11" y2="15.7747" gradientUnits="userSpaceOnUse">
<stop stop-color="#223CDD"/>
<stop offset="1" stop-color="#6176FF"/>
</linearGradient>
<linearGradient id="paint1_linear_14383_26341" x1="11" y1="16.4619" x2="11" y2="20.6247" gradientUnits="userSpaceOnUse">
<stop stop-color="#223CDD"/>
<stop offset="1" stop-color="#6176FF"/>
</linearGradient>
<linearGradient id="paint2_linear_14383_26341" x1="8.96875" y1="4.77832" x2="8.96875" y2="5.46582" gradientUnits="userSpaceOnUse">
<stop stop-color="#223CDD"/>
<stop offset="1" stop-color="#6176FF"/>
</linearGradient>
<linearGradient id="paint3_linear_14383_26341" x1="13.0312" y1="4.77832" x2="13.0312" y2="5.46582" gradientUnits="userSpaceOnUse">
<stop stop-color="#223CDD"/>
<stop offset="1" stop-color="#6176FF"/>
</linearGradient>
<linearGradient id="paint4_linear_14383_26341" x1="17.3096" y1="4.76074" x2="17.3096" y2="7.85449" gradientUnits="userSpaceOnUse">
<stop stop-color="#223CDD"/>
<stop offset="1" stop-color="#6176FF"/>
</linearGradient>
<linearGradient id="paint5_linear_14383_26341" x1="4.69047" y1="4.76074" x2="4.69047" y2="7.85449" gradientUnits="userSpaceOnUse">
<stop stop-color="#223CDD"/>
<stop offset="1" stop-color="#6176FF"/>
</linearGradient>
<linearGradient id="paint6_linear_14383_26341" x1="10.9999" y1="1.375" x2="10.9999" y2="10.4225" gradientUnits="userSpaceOnUse">
<stop stop-color="#223CDD"/>
<stop offset="1" stop-color="#6176FF"/>
</linearGradient>
</defs>
</svg>
