<svg width="22" height="22" viewBox="0 0 22 22" fill="none" xmlns="http://www.w3.org/2000/svg">
<path d="M13.5138 11.9902C13.4686 11.9901 13.4238 11.9989 13.382 12.0161C13.3402 12.0333 13.3022 12.0586 13.2703 12.0906C13.2383 12.1226 13.213 12.1605 13.1958 12.2023C13.1786 12.2441 13.1698 12.2889 13.1699 12.3341V19.1801H16.3711V12.3341C16.3713 12.2889 16.3625 12.2441 16.3453 12.2023C16.3281 12.1605 16.3027 12.1226 16.2708 12.0906C16.2388 12.0586 16.2008 12.0333 16.1591 12.0161C16.1173 11.9989 16.0725 11.9901 16.0273 11.9902H13.5138Z" fill="url(#paint0_linear_14383_26251)"/>
<path d="M16.9375 10.9591V19.1804H20.1387V10.9591C20.1389 10.9139 20.1301 10.8691 20.1129 10.8273C20.0956 10.7855 20.0703 10.7476 20.0384 10.7156C20.0064 10.6836 19.9684 10.6583 19.9266 10.6411C19.8848 10.6239 19.8401 10.6151 19.7949 10.6152H17.2813C17.2361 10.6151 17.1914 10.6239 17.1496 10.6411C17.1078 10.6583 17.0698 10.6836 17.0379 10.7156C17.0059 10.7476 16.9806 10.7855 16.9634 10.8273C16.9461 10.8691 16.9373 10.9139 16.9375 10.9591Z" fill="url(#paint1_linear_14383_26251)"/>
<path d="M5.97275 14.7412C5.92756 14.7411 5.88277 14.7498 5.84098 14.7671C5.7992 14.7843 5.76123 14.8096 5.72927 14.8416C5.69731 14.8735 5.67199 14.9115 5.65476 14.9533C5.63754 14.9951 5.62875 15.0399 5.62891 15.0851V19.1803H8.83012V15.0851C8.83028 15.0399 8.82149 14.9951 8.80427 14.9533C8.78704 14.9115 8.76172 14.8735 8.72976 14.8416C8.6978 14.8096 8.65983 14.7843 8.61805 14.7671C8.57626 14.7498 8.53147 14.7411 8.48627 14.7412H5.97275Z" fill="url(#paint2_linear_14383_26251)"/>
<path d="M2.20518 16.0781C2.15998 16.078 2.1152 16.0868 2.07341 16.104C2.03162 16.1212 1.99365 16.1465 1.96169 16.1785C1.92973 16.2104 1.90441 16.2484 1.88718 16.2902C1.86996 16.332 1.86117 16.3768 1.86133 16.422V19.1796H5.06255V16.422C5.06271 16.3768 5.05392 16.332 5.0367 16.2902C5.01947 16.2484 4.99415 16.2104 4.96219 16.1785C4.93023 16.1465 4.89226 16.1212 4.85047 16.104C4.80868 16.0868 4.7639 16.078 4.7187 16.0781H2.20518Z" fill="url(#paint3_linear_14383_26251)"/>
<path d="M9.74425 13.3653C9.69897 13.3648 9.65406 13.3734 9.61214 13.3905C9.57022 13.4076 9.53214 13.4329 9.50012 13.465C9.4681 13.497 9.44279 13.5351 9.42567 13.577C9.40855 13.6189 9.39996 13.6638 9.40041 13.7091V19.1797H12.5982V13.7091C12.5986 13.6638 12.5901 13.6189 12.5729 13.577C12.5558 13.5351 12.5305 13.497 12.4985 13.465C12.4665 13.4329 12.4284 13.4076 12.3865 13.3905C12.3445 13.3734 12.2996 13.3648 12.2544 13.3653H9.74425Z" fill="url(#paint4_linear_14383_26251)"/>
<path d="M20.2831 19.8682H1.71542C1.62517 19.8696 1.53909 19.9064 1.47577 19.9708C1.41245 20.0351 1.37696 20.1217 1.37695 20.212C1.37695 20.3023 1.41244 20.3889 1.47575 20.4532C1.53907 20.5176 1.62515 20.5544 1.7154 20.5559H20.2831C20.3284 20.556 20.3732 20.5472 20.4151 20.53C20.4569 20.5128 20.4949 20.4875 20.527 20.4555C20.559 20.4236 20.5844 20.3856 20.6018 20.3439C20.6191 20.3021 20.6281 20.2573 20.6281 20.212C20.6281 20.1668 20.6191 20.122 20.6018 20.0802C20.5844 20.0384 20.559 20.0004 20.527 19.9685C20.4949 19.9365 20.4569 19.9112 20.4151 19.894C20.3732 19.8768 20.3284 19.868 20.2831 19.8682Z" fill="url(#paint5_linear_14383_26251)"/>
<path d="M2.88275 12.9808C2.79792 13.0006 2.72379 13.0519 2.67532 13.1243C2.62686 13.1967 2.60767 13.2848 2.62164 13.3708C2.63561 13.4568 2.68169 13.5343 2.75058 13.5876C2.81947 13.6409 2.90603 13.6661 2.99278 13.6581C8.19872 13.1801 13.1697 11.266 17.3518 8.12906L17.7954 8.59327C17.8366 8.63755 17.8891 8.66986 17.9472 8.6868C18.0053 8.70375 18.0669 8.70468 18.1255 8.68952C18.1848 8.67592 18.2393 8.64628 18.283 8.60383C18.3266 8.56139 18.3578 8.50777 18.3731 8.44882L19.3736 4.89348C19.389 4.83514 19.3889 4.77381 19.3734 4.7155C19.3579 4.65719 19.3275 4.60392 19.2852 4.56092C19.2429 4.51791 19.1902 4.48665 19.1321 4.4702C19.0741 4.45376 19.0127 4.45269 18.9542 4.46711L15.3816 5.4058C15.3242 5.42182 15.2719 5.45239 15.2298 5.49457C15.1877 5.53675 15.1572 5.58909 15.1413 5.64653C15.1254 5.70396 15.1246 5.76453 15.139 5.82236C15.1533 5.88019 15.1824 5.93332 15.2234 5.9766L15.5226 6.28605C13.9413 7.7401 12.1993 9.00907 10.3305 10.0684C7.99968 11.3898 5.49164 12.3705 2.88275 12.9808Z" fill="url(#paint6_linear_14383_26251)"/>
<path d="M10.1919 5.74275C10.1894 4.60446 9.73542 3.51365 8.92964 2.70964C8.12386 1.90563 7.03205 1.4541 5.89376 1.4541C4.75547 1.45411 3.66366 1.90565 2.85789 2.70967C2.05212 3.51369 1.59819 4.60451 1.5957 5.7428C1.83034 11.4449 9.95807 11.4433 10.1919 5.74275ZM5.54995 4.99665L5.54992 2.86824C5.54978 2.82299 5.55857 2.77817 5.57579 2.73632C5.593 2.69448 5.61831 2.65644 5.65025 2.6244C5.68219 2.59236 5.72015 2.56693 5.76194 2.54958C5.80372 2.53223 5.84853 2.5233 5.89377 2.5233C5.93902 2.5233 5.98382 2.53223 6.02561 2.54958C6.0674 2.56693 6.10535 2.59236 6.13729 2.6244C6.16924 2.65644 6.19454 2.69448 6.21176 2.73632C6.22898 2.77817 6.23776 2.82299 6.23762 2.86824V4.99665C6.41553 5.0783 6.55827 5.22104 6.63991 5.39895H8.08063C8.17094 5.40029 8.2571 5.4371 8.32049 5.50144C8.38388 5.56578 8.41942 5.65247 8.41942 5.7428C8.41942 5.83312 8.38388 5.91981 8.32049 5.98415C8.2571 6.04849 8.17094 6.0853 8.08063 6.08664H6.63991C6.58479 6.20753 6.50121 6.31327 6.39632 6.39482C6.29143 6.47637 6.16836 6.5313 6.03761 6.55493C5.90687 6.57856 5.77235 6.57017 5.64555 6.53048C5.51875 6.4908 5.40346 6.421 5.30951 6.32705C5.21556 6.2331 5.14577 6.1178 5.10608 5.99101C5.0664 5.86421 5.05802 5.72969 5.08165 5.59895C5.10527 5.4682 5.16021 5.34513 5.24177 5.24024C5.32332 5.13535 5.42906 5.05177 5.54995 4.99665Z" fill="url(#paint7_linear_14383_26251)"/>
<path d="M6.06415 5.74231C6.0632 5.69793 6.0449 5.65568 6.01317 5.62462C5.98144 5.59357 5.93881 5.57618 5.89441 5.57617C5.85002 5.57617 5.80738 5.59356 5.77565 5.62461C5.74392 5.65566 5.72561 5.6979 5.72465 5.74229C5.72416 5.76489 5.72819 5.78736 5.7365 5.80838C5.74481 5.8294 5.75723 5.84856 5.77304 5.86471C5.78885 5.88087 5.80773 5.89371 5.82857 5.90247C5.84941 5.91124 5.87178 5.91575 5.89439 5.91576C5.917 5.91576 5.93937 5.91124 5.96021 5.90248C5.98105 5.89372 5.99993 5.88089 6.01574 5.86473C6.03155 5.84858 6.04398 5.82943 6.0523 5.8084C6.06061 5.78738 6.06464 5.76491 6.06415 5.74231Z" fill="url(#paint8_linear_14383_26251)"/>
<defs>
<linearGradient id="paint0_linear_14383_26251" x1="14.7705" y1="11.9902" x2="14.7705" y2="19.1801" gradientUnits="userSpaceOnUse">
<stop stop-color="#223CDD"/>
<stop offset="1" stop-color="#6176FF"/>
</linearGradient>
<linearGradient id="paint1_linear_14383_26251" x1="18.5381" y1="10.6152" x2="18.5381" y2="19.1804" gradientUnits="userSpaceOnUse">
<stop stop-color="#223CDD"/>
<stop offset="1" stop-color="#6176FF"/>
</linearGradient>
<linearGradient id="paint2_linear_14383_26251" x1="7.22951" y1="14.7412" x2="7.22951" y2="19.1803" gradientUnits="userSpaceOnUse">
<stop stop-color="#223CDD"/>
<stop offset="1" stop-color="#6176FF"/>
</linearGradient>
<linearGradient id="paint3_linear_14383_26251" x1="3.46194" y1="16.0781" x2="3.46194" y2="19.1796" gradientUnits="userSpaceOnUse">
<stop stop-color="#223CDD"/>
<stop offset="1" stop-color="#6176FF"/>
</linearGradient>
<linearGradient id="paint4_linear_14383_26251" x1="10.9993" y1="13.3652" x2="10.9993" y2="19.1797" gradientUnits="userSpaceOnUse">
<stop stop-color="#223CDD"/>
<stop offset="1" stop-color="#6176FF"/>
</linearGradient>
<linearGradient id="paint5_linear_14383_26251" x1="11.0025" y1="19.8682" x2="11.0025" y2="20.5559" gradientUnits="userSpaceOnUse">
<stop stop-color="#223CDD"/>
<stop offset="1" stop-color="#6176FF"/>
</linearGradient>
<linearGradient id="paint6_linear_14383_26251" x1="11.0012" y1="4.45703" x2="11.0012" y2="13.6596" gradientUnits="userSpaceOnUse">
<stop stop-color="#223CDD"/>
<stop offset="1" stop-color="#6176FF"/>
</linearGradient>
<linearGradient id="paint7_linear_14383_26251" x1="5.89378" y1="1.4541" x2="5.89378" y2="10.0188" gradientUnits="userSpaceOnUse">
<stop stop-color="#223CDD"/>
<stop offset="1" stop-color="#6176FF"/>
</linearGradient>
<linearGradient id="paint8_linear_14383_26251" x1="5.8944" y1="5.57617" x2="5.8944" y2="5.91576" gradientUnits="userSpaceOnUse">
<stop stop-color="#223CDD"/>
<stop offset="1" stop-color="#6176FF"/>
</linearGradient>
</defs>
</svg>
