<svg width="22" height="22" viewBox="0 0 22 22" fill="none" xmlns="http://www.w3.org/2000/svg">
<path d="M5.07422 12.7842C5.02903 12.784 4.98426 12.7928 4.94249 12.81C4.90071 12.8272 4.86275 12.8526 4.8308 12.8845C4.79885 12.9165 4.77354 12.9544 4.75632 12.9962C4.7391 13.038 4.73031 13.0827 4.73047 13.1279V15.4482C4.73074 15.5393 4.76705 15.6266 4.83145 15.691C4.89586 15.7554 4.98314 15.7917 5.07422 15.792H6.94766C7.03874 15.7917 7.12602 15.7554 7.19043 15.691C7.25483 15.6266 7.29114 15.5393 7.29141 15.4482V13.1279C7.29157 13.0827 7.28278 13.038 7.26556 12.9962C7.24834 12.9544 7.22303 12.9165 7.19108 12.8845C7.15913 12.8526 7.12117 12.8272 7.07939 12.81C7.03761 12.7928 6.99284 12.784 6.94766 12.7842H5.07422Z" fill="url(#paint0_linear_14383_26165)"/>
<path d="M7.88477 10.4639C7.83958 10.4637 7.79481 10.4725 7.75303 10.4897C7.71126 10.5069 7.6733 10.5322 7.64135 10.5642C7.6094 10.5962 7.58408 10.6341 7.56686 10.6759C7.54964 10.7177 7.54086 10.7624 7.54102 10.8076V15.4482C7.54086 15.4934 7.54964 15.5382 7.56686 15.58C7.58408 15.6218 7.6094 15.6597 7.64135 15.6917C7.6733 15.7236 7.71126 15.7489 7.75303 15.7661C7.79481 15.7834 7.83958 15.7922 7.88477 15.792H9.7582C9.84929 15.7917 9.93657 15.7554 10.001 15.691C10.0654 15.6266 10.1017 15.5393 10.102 15.4482V10.8076C10.1017 10.7165 10.0654 10.6293 10.001 10.5649C9.93657 10.5004 9.84929 10.4641 9.7582 10.4639H7.88477Z" fill="url(#paint1_linear_14383_26165)"/>
<path d="M10.6934 12.0108C10.6482 12.0106 10.6034 12.0194 10.5616 12.0366C10.5199 12.0538 10.4819 12.0791 10.4499 12.1111C10.418 12.143 10.3927 12.181 10.3755 12.2228C10.3582 12.2646 10.3495 12.3093 10.3496 12.3545V15.4483C10.3499 15.5393 10.3862 15.6266 10.4506 15.691C10.515 15.7554 10.6023 15.7917 10.6934 15.792H12.5668C12.612 15.7922 12.6568 15.7834 12.6985 15.7662C12.7403 15.7489 12.7783 15.7236 12.8102 15.6917C12.8422 15.6597 12.8675 15.6218 12.8847 15.58C12.9019 15.5382 12.9107 15.4934 12.9105 15.4483V12.3545C12.911 12.3092 12.9024 12.2643 12.8853 12.2224C12.8682 12.1805 12.8429 12.1425 12.8109 12.1104C12.7789 12.0784 12.7408 12.0531 12.6989 12.036C12.657 12.0189 12.6121 12.0103 12.5668 12.0108H10.6934Z" fill="url(#paint2_linear_14383_26165)"/>
<path d="M15.3793 9.69043H13.5059C13.316 9.69043 13.1621 9.84433 13.1621 10.0342V15.4482C13.1621 15.6381 13.316 15.792 13.5059 15.792H15.3793C15.5691 15.792 15.723 15.6381 15.723 15.4482V10.0342C15.723 9.84433 15.5691 9.69043 15.3793 9.69043Z" fill="url(#paint3_linear_14383_26165)"/>
<path d="M11.4925 8.06445C11.2938 8.06436 11.1005 8.12959 10.9425 8.25008L9.88031 7.60039C9.88375 7.56258 9.88719 7.52133 9.88719 7.48008C9.8857 7.35422 9.8585 7.23 9.80725 7.11504C9.75601 7.00008 9.68181 6.89681 9.58921 6.81157C9.4966 6.72633 9.38755 6.66092 9.26875 6.61935C9.14995 6.57779 9.0239 6.56095 8.89835 6.56987C8.77281 6.57879 8.65041 6.61328 8.53867 6.67122C8.42694 6.72916 8.32823 6.80933 8.24861 6.90681C8.16898 7.00428 8.11013 7.11701 8.07565 7.23806C8.04117 7.35911 8.03181 7.48593 8.04812 7.61073L6.97219 8.28102C6.80428 8.1594 6.60031 8.09786 6.39316 8.10631C6.186 8.11476 5.98773 8.19271 5.83028 8.3276C5.67284 8.46249 5.5654 8.64646 5.52527 8.84987C5.48514 9.05327 5.51466 9.26427 5.60908 9.44884C5.7035 9.63342 5.85732 9.78084 6.04574 9.86733C6.23416 9.95382 6.44622 9.97435 6.64773 9.92562C6.84925 9.87689 7.02849 9.76172 7.15657 9.59869C7.28465 9.43566 7.35411 9.23425 7.35375 9.02693C7.35444 8.97276 7.34984 8.91866 7.34 8.86539L8.39187 8.20539C8.55521 8.33565 8.75824 8.40601 8.96715 8.40475C9.17606 8.4035 9.37823 8.33072 9.54 8.19852L10.5816 8.83446C10.5604 8.96611 10.5681 9.10078 10.604 9.22918C10.64 9.35758 10.7033 9.47666 10.7897 9.57822C10.8761 9.67978 10.9835 9.7614 11.1045 9.81745C11.2255 9.87351 11.3572 9.90266 11.4905 9.90291C11.6238 9.90316 11.7557 9.8745 11.8768 9.81889C11.998 9.76329 12.1057 9.68208 12.1925 9.58084C12.2793 9.4796 12.3431 9.36076 12.3795 9.23249C12.4159 9.10422 12.4241 8.96959 12.4034 8.83786L13.4759 8.18133C13.6337 8.30232 13.8271 8.3676 14.0259 8.36695C14.2154 8.36722 14.4003 8.30931 14.5557 8.20105C14.7111 8.0928 14.8296 7.93942 14.895 7.76166C14.9604 7.5839 14.9697 7.39034 14.9215 7.20715C14.8734 7.02396 14.7701 6.85998 14.6257 6.73738C14.4813 6.61479 14.3028 6.53949 14.1142 6.52168C13.9256 6.50386 13.7361 6.54439 13.5713 6.63778C13.4065 6.73117 13.2744 6.87291 13.1928 7.04385C13.1112 7.21478 13.084 7.40665 13.115 7.59352L12.0425 8.25008C11.8845 8.12959 11.6912 8.06437 11.4925 8.06445Z" fill="url(#paint4_linear_14383_26165)"/>
<path d="M18.7344 11.4297H17.3422C17.2511 11.43 17.1638 11.4663 17.0994 11.5307C17.035 11.5951 16.9987 11.6824 16.9984 11.7734C16.6257 20.7562 3.8269 20.7552 3.45466 11.7734C3.45702 9.97809 4.17125 8.25701 5.44072 6.98756C6.71019 5.7181 8.43127 5.0039 10.2266 5.00156C10.3176 5.00129 10.4049 4.96499 10.4693 4.90058C10.5337 4.83617 10.57 4.7489 10.5703 4.65781V3.26562C10.57 3.17454 10.5337 3.08726 10.4693 3.02286C10.4049 2.95845 10.3176 2.92215 10.2266 2.92188C7.87975 2.92436 5.62976 3.85774 3.97031 5.51719C2.31086 7.17664 1.37749 9.42662 1.375 11.7734C1.86043 23.516 18.5942 23.5133 19.0781 11.7734C19.0779 11.6823 19.0415 11.595 18.9771 11.5306C18.9127 11.4662 18.8255 11.43 18.7344 11.4297Z" fill="url(#paint5_linear_14383_26165)"/>
<path d="M11.7734 1.375C11.6824 1.37527 11.5951 1.41158 11.5307 1.47598C11.4663 1.54039 11.43 1.62767 11.4297 1.71875V3.11094C11.43 3.20202 11.4663 3.2893 11.5307 3.3537C11.5951 3.41811 11.6824 3.45442 11.7734 3.45469C13.5687 3.45703 15.2898 4.17124 16.5593 5.44071C17.8288 6.71017 18.543 8.43127 18.5453 10.2266C18.5456 10.3176 18.5819 10.4049 18.6463 10.4693C18.7107 10.5337 18.798 10.57 18.8891 10.5703H20.2812C20.3723 10.57 20.4596 10.5337 20.524 10.4693C20.5884 10.4049 20.6247 10.3176 20.625 10.2266C20.6225 7.87975 19.6891 5.62976 18.0297 3.97031C16.3702 2.31086 14.1203 1.37749 11.7734 1.375Z" fill="url(#paint6_linear_14383_26165)"/>
<defs>
<linearGradient id="paint0_linear_14383_26165" x1="6.01094" y1="12.7842" x2="6.01094" y2="15.792" gradientUnits="userSpaceOnUse">
<stop stop-color="#223CDD"/>
<stop offset="1" stop-color="#6176FF"/>
</linearGradient>
<linearGradient id="paint1_linear_14383_26165" x1="8.82149" y1="10.4639" x2="8.82149" y2="15.792" gradientUnits="userSpaceOnUse">
<stop stop-color="#223CDD"/>
<stop offset="1" stop-color="#6176FF"/>
</linearGradient>
<linearGradient id="paint2_linear_14383_26165" x1="11.6301" y1="12.0107" x2="11.6301" y2="15.792" gradientUnits="userSpaceOnUse">
<stop stop-color="#223CDD"/>
<stop offset="1" stop-color="#6176FF"/>
</linearGradient>
<linearGradient id="paint3_linear_14383_26165" x1="14.4426" y1="9.69043" x2="14.4426" y2="15.792" gradientUnits="userSpaceOnUse">
<stop stop-color="#223CDD"/>
<stop offset="1" stop-color="#6176FF"/>
</linearGradient>
<linearGradient id="paint4_linear_14383_26165" x1="10.2299" y1="6.51758" x2="10.2299" y2="9.95148" gradientUnits="userSpaceOnUse">
<stop stop-color="#223CDD"/>
<stop offset="1" stop-color="#6176FF"/>
</linearGradient>
<linearGradient id="paint5_linear_14383_26165" x1="10.2266" y1="2.92188" x2="10.2266" y2="20.5794" gradientUnits="userSpaceOnUse">
<stop stop-color="#223CDD"/>
<stop offset="1" stop-color="#6176FF"/>
</linearGradient>
<linearGradient id="paint6_linear_14383_26165" x1="16.0273" y1="1.375" x2="16.0273" y2="10.5703" gradientUnits="userSpaceOnUse">
<stop stop-color="#223CDD"/>
<stop offset="1" stop-color="#6176FF"/>
</linearGradient>
</defs>
</svg>
