<svg width="22" height="22" viewBox="0 0 22 22" fill="none" xmlns="http://www.w3.org/2000/svg">
<path d="M15.4688 8.25H6.53125C6.25799 8.2508 5.99615 8.3597 5.80293 8.55293C5.6097 8.74615 5.5008 9.00799 5.5 9.28125V12.7188C5.5008 12.992 5.60971 13.2538 5.80293 13.4471C5.99615 13.6403 6.25799 13.7492 6.53125 13.75H15.4688C15.742 13.7492 16.0038 13.6403 16.1971 13.4471C16.3903 13.2538 16.4992 12.992 16.5 12.7188V9.28125C16.4992 9.00799 16.3903 8.74615 16.1971 8.55293C16.0038 8.3597 15.742 8.2508 15.4688 8.25ZM7.21875 9.79688H11C11.0912 9.79688 11.1786 9.83309 11.2431 9.89756C11.3075 9.96202 11.3438 10.0495 11.3438 10.1406C11.3438 10.2318 11.3075 10.3192 11.2431 10.3837C11.1786 10.4482 11.0912 10.4844 11 10.4844H7.21875C7.12758 10.4844 7.04015 10.4482 6.97568 10.3837C6.91122 10.3192 6.875 10.2318 6.875 10.1406C6.875 10.0495 6.91122 9.96202 6.97568 9.89756C7.04015 9.83309 7.12758 9.79688 7.21875 9.79688ZM14.7812 12.2031H7.21875C7.12758 12.2031 7.04015 12.1669 6.97568 12.1024C6.91122 12.038 6.875 11.9505 6.875 11.8594C6.875 11.7682 6.91122 11.6808 6.97568 11.6163C7.04015 11.5518 7.12758 11.5156 7.21875 11.5156H14.7812C14.8724 11.5156 14.9599 11.5518 15.0243 11.6163C15.0888 11.6808 15.125 11.7682 15.125 11.8594C15.125 11.9505 15.0888 12.038 15.0243 12.1024C14.9599 12.1669 14.8724 12.2031 14.7812 12.2031Z" fill="url(#paint0_linear_14383_26198)"/>
<path d="M15.4688 1.375H6.53125C6.25799 1.3758 5.99615 1.4847 5.80293 1.67793C5.6097 1.87115 5.5008 2.13299 5.5 2.40625V5.84375C5.5008 6.11701 5.60971 6.37885 5.80293 6.57207C5.99615 6.76529 6.25799 6.8742 6.53125 6.875H15.4688C15.742 6.8742 16.0038 6.76529 16.1971 6.57207C16.3903 6.37885 16.4992 6.11701 16.5 5.84375V2.40625C16.4992 2.13299 16.3903 1.87115 16.1971 1.67793C16.0038 1.4847 15.742 1.3758 15.4688 1.375ZM7.21875 2.92188H11C11.0912 2.92188 11.1786 2.95809 11.2431 3.02256C11.3075 3.08702 11.3438 3.17446 11.3438 3.26562C11.3438 3.35679 11.3075 3.44423 11.2431 3.50869C11.1786 3.57316 11.0912 3.60938 11 3.60938H7.21875C7.12758 3.60938 7.04015 3.57316 6.97568 3.50869C6.91122 3.44423 6.875 3.35679 6.875 3.26562C6.875 3.17446 6.91122 3.08702 6.97568 3.02256C7.04015 2.95809 7.12758 2.92188 7.21875 2.92188ZM14.7812 5.32812H7.21875C7.12758 5.32812 7.04015 5.29191 6.97568 5.22744C6.91122 5.16298 6.875 5.07554 6.875 4.98438C6.875 4.89321 6.91122 4.80577 6.97568 4.74131C7.04015 4.67684 7.12758 4.64062 7.21875 4.64062H14.7812C14.8724 4.64062 14.9599 4.67684 15.0243 4.74131C15.0888 4.80577 15.125 4.89321 15.125 4.98438C15.125 5.07554 15.0888 5.16298 15.0243 5.22744C14.9599 5.29191 14.8724 5.32812 14.7812 5.32812Z" fill="url(#paint1_linear_14383_26198)"/>
<path d="M15.4688 15.125H6.53125C6.25799 15.1258 5.99615 15.2347 5.80293 15.4279C5.6097 15.6212 5.5008 15.883 5.5 16.1562V19.5938C5.5008 19.867 5.60971 20.1288 5.80293 20.3221C5.99615 20.5153 6.25799 20.6242 6.53125 20.625H15.4688C15.742 20.6242 16.0038 20.5153 16.1971 20.3221C16.3903 20.1288 16.4992 19.867 16.5 19.5938V16.1562C16.4992 15.883 16.3903 15.6212 16.1971 15.4279C16.0038 15.2347 15.742 15.1258 15.4688 15.125ZM7.21875 16.6719H11C11.0912 16.6719 11.1786 16.7081 11.2431 16.7726C11.3075 16.837 11.3438 16.9245 11.3438 17.0156C11.3438 17.1068 11.3075 17.1942 11.2431 17.2587C11.1786 17.3232 11.0912 17.3594 11 17.3594H7.21875C7.12758 17.3594 7.04015 17.3232 6.97568 17.2587C6.91122 17.1942 6.875 17.1068 6.875 17.0156C6.875 16.9245 6.91122 16.837 6.97568 16.7726C7.04015 16.7081 7.12758 16.6719 7.21875 16.6719ZM14.7812 19.0781H7.21875C7.12758 19.0781 7.04015 19.0419 6.97568 18.9774C6.91122 18.913 6.875 18.8255 6.875 18.7344C6.875 18.6432 6.91122 18.5558 6.97568 18.4913C7.04015 18.4268 7.12758 18.3906 7.21875 18.3906H14.7812C14.8724 18.3906 14.9599 18.4268 15.0243 18.4913C15.0888 18.5558 15.125 18.6432 15.125 18.7344C15.125 18.8255 15.0888 18.913 15.0243 18.9774C14.9599 19.0419 14.8724 19.0781 14.7812 19.0781Z" fill="url(#paint2_linear_14383_26198)"/>
<path d="M19.5938 3.78125H17.875C17.7838 3.78125 17.6964 3.81747 17.6319 3.88193C17.5675 3.9464 17.5312 4.03383 17.5312 4.125C17.5312 4.21617 17.5675 4.3036 17.6319 4.36807C17.6964 4.43253 17.7838 4.46875 17.875 4.46875H19.5938C19.6849 4.46884 19.7723 4.50509 19.8367 4.56953C19.9012 4.63398 19.9374 4.72136 19.9375 4.8125V10.3125C19.9374 10.4036 19.9012 10.491 19.8367 10.5555C19.7723 10.6199 19.6849 10.6562 19.5938 10.6562H18.7048L19.1493 10.2118C19.1815 10.1799 19.2072 10.142 19.2247 10.1002C19.2423 10.0585 19.2514 10.0136 19.2515 9.9683C19.2516 9.92298 19.2428 9.87808 19.2255 9.83618C19.2083 9.79428 19.1829 9.75622 19.1508 9.72417C19.1188 9.69213 19.0807 9.66674 19.0388 9.64946C18.9969 9.63219 18.952 9.62337 18.9067 9.62351C18.8614 9.62365 18.8165 9.63276 18.7748 9.6503C18.733 9.66784 18.6951 9.69347 18.6632 9.72572L17.632 10.757C17.6 10.7889 17.5747 10.8268 17.5574 10.8685C17.5402 10.9102 17.5313 10.9549 17.5313 11C17.5313 11.0452 17.5402 11.0898 17.5574 11.1316C17.5747 11.1733 17.6 11.2111 17.632 11.2431L18.6632 12.2743C18.7278 12.3381 18.815 12.3737 18.9058 12.3734C18.9966 12.3732 19.0836 12.337 19.1478 12.2728C19.212 12.2086 19.2481 12.1216 19.2484 12.0308C19.2487 11.94 19.2131 11.8528 19.1493 11.7882L18.7048 11.3438H19.5938C19.8672 11.3435 20.1293 11.2347 20.3226 11.0414C20.516 10.848 20.6247 10.5859 20.625 10.3125V4.8125C20.6247 4.53909 20.516 4.27696 20.3226 4.08363C20.1293 3.89029 19.8672 3.78155 19.5938 3.78125Z" fill="url(#paint3_linear_14383_26198)"/>
<path d="M2.40625 11.3438H4.125C4.21617 11.3438 4.3036 11.3075 4.36807 11.2431C4.43253 11.1786 4.46875 11.0912 4.46875 11C4.46875 10.9088 4.43253 10.8214 4.36807 10.7569C4.3036 10.6925 4.21617 10.6562 4.125 10.6562H2.40625C2.13284 10.6565 1.87071 10.7653 1.67738 10.9586C1.48404 11.152 1.3753 11.4141 1.375 11.6875V17.1875C1.3753 17.4609 1.48404 17.723 1.67738 17.9164C1.87071 18.1097 2.13284 18.2185 2.40625 18.2188H3.29517L2.85072 18.6632C2.81833 18.695 2.79256 18.7329 2.7749 18.7748C2.75724 18.8166 2.74805 18.8615 2.74784 18.9069C2.74763 18.9523 2.75642 18.9973 2.7737 19.0393C2.79098 19.0812 2.81641 19.1194 2.84851 19.1515C2.88061 19.1836 2.91875 19.209 2.96074 19.2263C3.00272 19.2436 3.04771 19.2524 3.09311 19.2522C3.1385 19.252 3.18341 19.2428 3.22524 19.2251C3.26706 19.2074 3.30497 19.1817 3.33678 19.1493L4.36803 18.118C4.39996 18.0861 4.42529 18.0482 4.44257 18.0065C4.45985 17.9648 4.46874 17.9201 4.46874 17.875C4.46874 17.8298 4.45985 17.7852 4.44257 17.7434C4.42529 17.7017 4.39996 17.6639 4.36803 17.6319L3.33678 16.6007C3.27218 16.5369 3.18497 16.5013 3.09419 16.5016C3.00341 16.5018 2.91643 16.538 2.85223 16.6022C2.78804 16.6664 2.75185 16.7534 2.75157 16.8442C2.75129 16.935 2.78693 17.0222 2.85072 17.0868L3.29517 17.5312H2.40625C2.31511 17.5312 2.22773 17.4949 2.16328 17.4305C2.09884 17.366 2.06259 17.2786 2.0625 17.1875V11.6875C2.06259 11.5964 2.09884 11.509 2.16328 11.4445C2.22773 11.3801 2.31511 11.3438 2.40625 11.3438Z" fill="url(#paint4_linear_14383_26198)"/>
<defs>
<linearGradient id="paint0_linear_14383_26198" x1="11" y1="8.25" x2="11" y2="13.75" gradientUnits="userSpaceOnUse">
<stop stop-color="#223CDD"/>
<stop offset="1" stop-color="#6176FF"/>
</linearGradient>
<linearGradient id="paint1_linear_14383_26198" x1="11" y1="1.375" x2="11" y2="6.875" gradientUnits="userSpaceOnUse">
<stop stop-color="#223CDD"/>
<stop offset="1" stop-color="#6176FF"/>
</linearGradient>
<linearGradient id="paint2_linear_14383_26198" x1="11" y1="15.125" x2="11" y2="20.625" gradientUnits="userSpaceOnUse">
<stop stop-color="#223CDD"/>
<stop offset="1" stop-color="#6176FF"/>
</linearGradient>
<linearGradient id="paint3_linear_14383_26198" x1="19.0781" y1="3.78125" x2="19.0781" y2="12.3734" gradientUnits="userSpaceOnUse">
<stop stop-color="#223CDD"/>
<stop offset="1" stop-color="#6176FF"/>
</linearGradient>
<linearGradient id="paint4_linear_14383_26198" x1="2.92188" y1="10.6562" x2="2.92188" y2="19.2522" gradientUnits="userSpaceOnUse">
<stop stop-color="#223CDD"/>
<stop offset="1" stop-color="#6176FF"/>
</linearGradient>
</defs>
</svg>
