<svg width="22" height="22" viewBox="0 0 22 22" fill="none" xmlns="http://www.w3.org/2000/svg">
<path d="M20.625 8.94413C20.6242 10.0461 20.1861 11.1027 19.4068 11.8819C18.6276 12.6611 17.571 13.0992 16.4691 13.1001H3.99782C3.35511 13.0997 2.73488 12.8635 2.25475 12.4362C1.77462 12.0089 1.46797 11.4203 1.39295 10.782C1.31792 10.1437 1.47975 9.50005 1.84773 8.97311C2.21572 8.44617 2.76427 8.07258 3.38938 7.92319C3.4533 7.24032 3.67299 6.58122 4.03156 5.99657C4.39013 5.41192 4.87803 4.9173 5.45772 4.55076C6.03741 4.18422 6.69344 3.95553 7.37537 3.88227C8.0573 3.80901 8.74694 3.89314 9.39126 4.12819C9.80099 3.4329 10.3856 2.857 11.087 2.45776C11.7884 2.05853 12.582 1.84988 13.3891 1.85256C14.3602 1.85661 15.306 2.16249 16.0955 2.72787C16.8851 3.29325 17.4793 4.09014 17.7959 5.00819C18.6192 5.28708 19.3346 5.81651 19.8419 6.52231C20.3492 7.22811 20.623 8.07492 20.625 8.94413Z" fill="url(#paint0_linear_14383_26176)"/>
<path d="M19.0781 18.9443C19.0784 19.1675 19.0166 19.3864 18.8996 19.5765C18.7826 19.7665 18.615 19.9203 18.4156 20.0206C18.2162 20.1209 17.9929 20.1637 17.7705 20.1443C17.5482 20.1249 17.3356 20.0441 17.1566 19.9108C16.9775 19.7775 16.8391 19.5971 16.7568 19.3896C16.6744 19.1822 16.6514 18.9559 16.6903 18.7362C16.7292 18.5164 16.8284 18.3118 16.9769 18.1452C17.1254 17.9785 17.3174 17.8565 17.5312 17.7928V15.8506H14.0938C13.9116 15.85 13.737 15.7774 13.6082 15.6486C13.4794 15.5198 13.4068 15.3453 13.4062 15.1631V14.1318C13.4062 14.0407 13.4425 13.9532 13.5069 13.8888C13.5714 13.8243 13.6588 13.7881 13.75 13.7881C13.8412 13.7881 13.9286 13.8243 13.9931 13.8888C14.0575 13.9532 14.0938 14.0407 14.0938 14.1318V15.1631H17.5312C17.7134 15.1636 17.888 15.2362 18.0168 15.365C18.1456 15.4939 18.2182 15.6684 18.2188 15.8506V17.7928C18.4666 17.8671 18.684 18.0192 18.8387 18.2265C18.9935 18.4339 19.0774 18.6856 19.0781 18.9443Z" fill="url(#paint1_linear_14383_26176)"/>
<path d="M8.59375 14.1318V15.1631C8.59322 15.3453 8.52061 15.5198 8.3918 15.6486C8.26298 15.7774 8.08842 15.85 7.90625 15.8506H4.46875V17.7928C4.7457 17.8753 4.98367 18.0548 5.13916 18.2984C5.29464 18.542 5.35725 18.8335 5.31552 19.1194C5.2738 19.4054 5.13054 19.6668 4.91194 19.8558C4.69333 20.0448 4.414 20.1489 4.125 20.1489C3.83601 20.1489 3.55667 20.0448 3.33807 19.8558C3.11946 19.6668 2.9762 19.4054 2.93448 19.1194C2.89276 18.8335 2.95536 18.542 3.11085 18.2984C3.26633 18.0548 3.50431 17.8753 3.78125 17.7928V15.8506C3.78179 15.6684 3.85439 15.4939 3.98321 15.365C4.11202 15.2362 4.28658 15.1636 4.46875 15.1631H7.90625V14.1318C7.90625 14.0407 7.94247 13.9532 8.00693 13.8888C8.0714 13.8243 8.15883 13.7881 8.25 13.7881C8.34117 13.7881 8.42861 13.8243 8.49307 13.8888C8.55754 13.9532 8.59375 14.0407 8.59375 14.1318Z" fill="url(#paint2_linear_14383_26176)"/>
<path d="M12.2031 18.9443C12.2034 19.1675 12.1416 19.3864 12.0246 19.5765C11.9076 19.7665 11.74 19.9203 11.5406 20.0206C11.3412 20.1209 11.1179 20.1637 10.8955 20.1443C10.6732 20.1249 10.4606 20.0441 10.2816 19.9108C10.1025 19.7775 9.96411 19.5971 9.88176 19.3896C9.79941 19.1822 9.77639 18.9559 9.81527 18.7362C9.85415 18.5164 9.9534 18.3118 10.1019 18.1452C10.2504 17.9785 10.4424 17.8565 10.6562 17.7928V14.1318C10.6562 14.0407 10.6925 13.9532 10.7569 13.8888C10.8214 13.8243 10.9088 13.7881 11 13.7881C11.0912 13.7881 11.1786 13.8243 11.2431 13.8888C11.3075 13.9532 11.3437 14.0407 11.3437 14.1318V17.7928C11.5916 17.8671 11.809 18.0192 11.9637 18.2265C12.1185 18.4339 12.2024 18.6856 12.2031 18.9443Z" fill="url(#paint3_linear_14383_26176)"/>
<defs>
<linearGradient id="paint0_linear_14383_26176" x1="11" y1="1.85254" x2="11" y2="13.1001" gradientUnits="userSpaceOnUse">
<stop stop-color="#223CDD"/>
<stop offset="1" stop-color="#6176FF"/>
</linearGradient>
<linearGradient id="paint1_linear_14383_26176" x1="16.2422" y1="13.7881" x2="16.2422" y2="20.1489" gradientUnits="userSpaceOnUse">
<stop stop-color="#223CDD"/>
<stop offset="1" stop-color="#6176FF"/>
</linearGradient>
<linearGradient id="paint2_linear_14383_26176" x1="5.75781" y1="13.7881" x2="5.75781" y2="20.1489" gradientUnits="userSpaceOnUse">
<stop stop-color="#223CDD"/>
<stop offset="1" stop-color="#6176FF"/>
</linearGradient>
<linearGradient id="paint3_linear_14383_26176" x1="11" y1="13.7881" x2="11" y2="20.1489" gradientUnits="userSpaceOnUse">
<stop stop-color="#223CDD"/>
<stop offset="1" stop-color="#6176FF"/>
</linearGradient>
</defs>
</svg>
