<svg width="22" height="22" viewBox="0 0 22 22" fill="none" xmlns="http://www.w3.org/2000/svg">
<path d="M20.5863 11.1549C20.6117 11.1072 20.625 11.0541 20.625 11.0002C20.625 10.9462 20.6117 10.8931 20.5863 10.8455C19.6176 9.16345 18.2197 7.76869 16.5354 6.80369C14.8512 5.83868 12.941 5.33803 11 5.35286C9.05897 5.33803 7.14878 5.83868 5.46456 6.80368C3.78034 7.76867 2.38244 9.16343 1.41366 10.8455C1.38828 10.8931 1.375 10.9462 1.375 11.0002C1.375 11.0541 1.38828 11.1072 1.41366 11.1548C2.38244 12.8369 3.78033 14.2316 5.46456 15.1966C7.14878 16.1616 9.05897 16.6623 11 16.6475C12.941 16.6623 14.8512 16.1617 16.5354 15.1967C18.2197 14.2317 19.6176 12.8369 20.5863 11.1549ZM11 15.96C9.21557 15.9748 7.45796 15.5254 5.89965 14.6558C4.34135 13.7863 3.0359 12.5265 2.11142 11.0002C3.0359 9.47381 4.34134 8.21405 5.89965 7.34451C7.45795 6.47496 9.21557 6.02553 11 6.0403C12.7844 6.02553 14.542 6.47496 16.1004 7.34451C17.6587 8.21405 18.9641 9.47381 19.8886 11.0002C18.9641 12.5265 17.6587 13.7863 16.1003 14.6558C14.542 15.5254 12.7844 15.9748 11 15.96Z" fill="url(#paint0_linear_14383_26390)"/>
<path d="M10.9996 6.70313C10.1499 6.70312 9.31917 6.95511 8.61262 7.42721C7.90606 7.89932 7.35537 8.57034 7.03018 9.35542C6.70499 10.1405 6.6199 11.0044 6.78568 11.8378C6.95146 12.6713 7.36067 13.4368 7.96154 14.0377C8.56242 14.6386 9.32798 15.0478 10.1614 15.2136C10.9949 15.3793 11.8587 15.2943 12.6438 14.9691C13.4289 14.6439 14.0999 14.0932 14.572 13.3866C15.0441 12.6801 15.2961 11.8494 15.2961 10.9996C15.2945 9.8606 14.8414 8.76869 14.036 7.96328C13.2305 7.15788 12.1386 6.70471 10.9996 6.70313ZM13.4263 12.2026C13.4268 12.2628 13.4111 12.322 13.3808 12.374C13.3506 12.426 13.3069 12.4689 13.2544 12.4982L11.1715 13.7047C11.119 13.734 11.0598 13.7494 10.9996 13.7494C10.9395 13.7494 10.8803 13.734 10.8278 13.7047L8.74484 12.4982C8.69231 12.4689 8.64863 12.426 8.61839 12.374C8.58815 12.322 8.57246 12.2628 8.57296 12.2026V9.7966C8.57246 9.73644 8.58815 9.67726 8.61839 9.62525C8.64863 9.57324 8.69231 9.53033 8.74484 9.50101L10.8277 8.29455C10.8805 8.26578 10.9396 8.25071 10.9996 8.25071C11.0597 8.25071 11.1188 8.26578 11.1715 8.29455L13.2544 9.50101C13.3069 9.53033 13.3506 9.57324 13.3808 9.62525C13.4111 9.67726 13.4268 9.73644 13.4263 9.7966V12.2026Z" fill="url(#paint1_linear_14383_26390)"/>
<path d="M11.3438 12.8113L12.7394 12.0038V10.3916L11.3438 11.1994V12.8113Z" fill="url(#paint2_linear_14383_26390)"/>
<path d="M9.25977 12.0038L10.6554 12.8113V11.1994L9.25977 10.3916V12.0038Z" fill="url(#paint3_linear_14383_26390)"/>
<path d="M10.9991 8.98926L9.60352 9.79707L10.9991 10.6049L12.3948 9.79707L10.9991 8.98926Z" fill="url(#paint4_linear_14383_26390)"/>
<path d="M1.88154 5.42823C2.01583 5.42809 2.14458 5.37468 2.23955 5.27972C2.33451 5.18476 2.38792 5.05601 2.38807 4.92172V2.38903H4.92074C5.05508 2.38903 5.18392 2.33566 5.27891 2.24067C5.3739 2.14568 5.42727 2.01684 5.42727 1.8825C5.42727 1.74816 5.3739 1.61933 5.27891 1.52433C5.18392 1.42934 5.05508 1.37598 4.92074 1.37598H1.88154C1.74724 1.37612 1.61848 1.42954 1.52352 1.5245C1.42856 1.61946 1.37515 1.74822 1.375 1.88251V4.92172C1.37515 5.05601 1.42856 5.18476 1.52353 5.27972C1.61849 5.37468 1.74724 5.42809 1.88154 5.42823Z" fill="url(#paint5_linear_14383_26390)"/>
<path d="M4.92074 19.6115H2.38807V17.0788C2.38807 16.9445 2.33471 16.8156 2.23971 16.7206C2.14472 16.6256 2.01588 16.5723 1.88154 16.5723C1.74719 16.5723 1.61836 16.6256 1.52336 16.7206C1.42837 16.8156 1.375 16.9445 1.375 17.0788V20.118C1.37515 20.2523 1.42856 20.3811 1.52353 20.476C1.61849 20.571 1.74724 20.6244 1.88154 20.6246H4.92074C5.05508 20.6246 5.18392 20.5712 5.27892 20.4762C5.37391 20.3812 5.42728 20.2524 5.42728 20.118C5.42728 19.9837 5.37391 19.8548 5.27892 19.7598C5.18392 19.6649 5.05508 19.6115 4.92074 19.6115Z" fill="url(#paint6_linear_14383_26390)"/>
<path d="M20.118 16.5723C19.9837 16.5724 19.855 16.6258 19.76 16.7208C19.6651 16.8158 19.6116 16.9445 19.6115 17.0788V19.6115H17.0788C16.9445 19.6115 16.8156 19.6648 16.7206 19.7598C16.6256 19.8548 16.5723 19.9837 16.5723 20.118C16.5723 20.2523 16.6256 20.3812 16.7206 20.4762C16.8156 20.5712 16.9445 20.6245 17.0788 20.6245H20.118C20.2523 20.6244 20.3811 20.571 20.476 20.476C20.571 20.3811 20.6244 20.2523 20.6245 20.118V17.0788C20.6244 16.9445 20.571 16.8158 20.476 16.7208C20.3811 16.6258 20.2523 16.5724 20.118 16.5723Z" fill="url(#paint7_linear_14383_26390)"/>
<path d="M17.0788 2.38903H19.6115V4.92172C19.6115 5.05606 19.6648 5.1849 19.7598 5.27989C19.8548 5.37489 19.9837 5.42825 20.118 5.42825C20.2523 5.42825 20.3812 5.37489 20.4762 5.27989C20.5712 5.1849 20.6245 5.05606 20.6245 4.92172V1.88251C20.6244 1.74822 20.571 1.61947 20.476 1.5245C20.3811 1.42954 20.2523 1.37613 20.118 1.37598H17.0788C16.9445 1.37598 16.8156 1.42934 16.7206 1.52433C16.6256 1.61933 16.5723 1.74816 16.5723 1.8825C16.5723 2.01684 16.6256 2.14568 16.7206 2.24067C16.8156 2.33566 16.9445 2.38903 17.0788 2.38903Z" fill="url(#paint8_linear_14383_26390)"/>
<defs>
<linearGradient id="paint0_linear_14383_26390" x1="11" y1="5.35254" x2="11" y2="16.6478" gradientUnits="userSpaceOnUse">
<stop stop-color="#223CDD"/>
<stop offset="1" stop-color="#6176FF"/>
</linearGradient>
<linearGradient id="paint1_linear_14383_26390" x1="10.9996" y1="6.70312" x2="10.9996" y2="15.2961" gradientUnits="userSpaceOnUse">
<stop stop-color="#223CDD"/>
<stop offset="1" stop-color="#6176FF"/>
</linearGradient>
<linearGradient id="paint2_linear_14383_26390" x1="12.0416" y1="10.3916" x2="12.0416" y2="12.8113" gradientUnits="userSpaceOnUse">
<stop stop-color="#223CDD"/>
<stop offset="1" stop-color="#6176FF"/>
</linearGradient>
<linearGradient id="paint3_linear_14383_26390" x1="9.95758" y1="10.3916" x2="9.95758" y2="12.8113" gradientUnits="userSpaceOnUse">
<stop stop-color="#223CDD"/>
<stop offset="1" stop-color="#6176FF"/>
</linearGradient>
<linearGradient id="paint4_linear_14383_26390" x1="10.9991" y1="8.98926" x2="10.9991" y2="10.6049" gradientUnits="userSpaceOnUse">
<stop stop-color="#223CDD"/>
<stop offset="1" stop-color="#6176FF"/>
</linearGradient>
<linearGradient id="paint5_linear_14383_26390" x1="3.40113" y1="1.37598" x2="3.40113" y2="5.42823" gradientUnits="userSpaceOnUse">
<stop stop-color="#223CDD"/>
<stop offset="1" stop-color="#6176FF"/>
</linearGradient>
<linearGradient id="paint6_linear_14383_26390" x1="3.40114" y1="16.5723" x2="3.40114" y2="20.6246" gradientUnits="userSpaceOnUse">
<stop stop-color="#223CDD"/>
<stop offset="1" stop-color="#6176FF"/>
</linearGradient>
<linearGradient id="paint7_linear_14383_26390" x1="18.5984" y1="16.5723" x2="18.5984" y2="20.6245" gradientUnits="userSpaceOnUse">
<stop stop-color="#223CDD"/>
<stop offset="1" stop-color="#6176FF"/>
</linearGradient>
<linearGradient id="paint8_linear_14383_26390" x1="18.5984" y1="1.37598" x2="18.5984" y2="5.42825" gradientUnits="userSpaceOnUse">
<stop stop-color="#223CDD"/>
<stop offset="1" stop-color="#6176FF"/>
</linearGradient>
</defs>
</svg>
