<svg width="22" height="22" viewBox="0 0 22 22" fill="none" xmlns="http://www.w3.org/2000/svg">
<g clip-path="url(#clip0_14358_25845)">
<path fill-rule="evenodd" clip-rule="evenodd" d="M12.2309 21.9964H9.7718C9.42547 21.9964 9.15047 21.7339 9.0873 21.3433L8.79254 19.512C8.00406 19.3078 7.24953 18.995 6.5457 18.5804L5.04137 19.6675C4.89227 19.7749 4.71996 19.8342 4.55539 19.8342C4.37836 19.8342 4.21937 19.7689 4.09605 19.6452L2.35711 17.9066C2.11219 17.6617 2.10316 17.2819 2.33477 16.9609L3.42187 15.457C3.00723 14.7532 2.69398 13.9986 2.48988 13.2097L0.658984 12.915C0.268398 12.8518 0.00585938 12.5772 0.00585938 12.2305V9.7718C0.00585938 9.42504 0.268398 9.15004 0.658984 9.0873L2.48988 8.79254C2.69398 8.00363 3.00723 7.24867 3.42187 6.54527L2.33477 5.04137C2.10316 4.72082 2.11219 4.34055 2.35711 4.09562L4.09605 2.35711C4.21937 2.23336 4.37836 2.16805 4.55496 2.16805C4.71953 2.16805 4.89227 2.22734 5.04137 2.33477L6.5457 3.42187C7.2491 3.00723 8.00363 2.69441 8.79254 2.49031L9.0873 0.658984C9.15047 0.268398 9.42547 0.00585938 9.7718 0.00585938H12.2309C12.5772 0.00585938 12.8522 0.268398 12.915 0.658555L13.2097 2.49031C13.9982 2.69441 14.7532 3.00723 15.4566 3.42187L16.9609 2.33477C17.11 2.22691 17.2827 2.16805 17.4473 2.16805C17.6239 2.16805 17.7829 2.23336 17.9066 2.35668L19.6452 4.09562C19.8901 4.34055 19.8991 4.72039 19.6675 5.04094L18.5804 6.54527C18.9955 7.2491 19.3083 8.00363 19.5124 8.79254L21.3433 9.0873C21.7339 9.15004 21.9964 9.42504 21.9964 9.7718V12.2305C21.9964 12.5768 21.7339 12.8518 21.3437 12.915L19.512 13.2097C19.3078 13.9982 18.995 14.7527 18.5804 15.4566L19.6675 16.9609C19.8991 17.2814 19.8905 17.6613 19.6452 17.9062L17.9066 19.6452C17.7829 19.7689 17.6239 19.8342 17.4473 19.8342C17.2827 19.8342 17.11 19.7749 16.9613 19.6675L15.457 18.5804C14.7532 18.995 13.9986 19.3083 13.2097 19.5124L12.915 21.3433C12.8522 21.7339 12.5772 21.9964 12.2309 21.9964ZM11.0011 17.7833C7.26156 17.7833 4.21937 14.7407 4.21937 11.0011C4.21937 7.26156 7.26156 4.21895 11.0011 4.21895C14.7407 4.21895 17.7833 7.26156 17.7833 11.0011C17.7833 14.7407 14.7407 17.7833 11.0011 17.7833Z" fill="url(#paint0_linear_14358_25845)"/>
<path fill-rule="evenodd" clip-rule="evenodd" d="M9.025 14.9625H7.16016C7.04113 14.9625 6.94531 14.8663 6.94531 14.7477V10.3047C6.94531 10.1857 7.04113 10.0898 7.16016 10.0898H9.025C9.14359 10.0898 9.23984 10.1857 9.23984 10.3047V14.7477C9.23984 14.8663 9.14359 14.9625 9.025 14.9625Z" fill="url(#paint1_linear_14358_25845)"/>
<path fill-rule="evenodd" clip-rule="evenodd" d="M11.9332 14.9621H10.0684C9.94977 14.9621 9.85352 14.8659 9.85352 14.7473V8.97656C9.85352 8.85797 9.94977 8.76172 10.0684 8.76172H11.9332C12.0518 8.76172 12.148 8.85797 12.148 8.97656V14.7473C12.148 14.8659 12.0518 14.9621 11.9332 14.9621Z" fill="url(#paint2_linear_14358_25845)"/>
<path fill-rule="evenodd" clip-rule="evenodd" d="M14.8395 14.9624H12.9746C12.856 14.9624 12.7598 14.8661 12.7598 14.7475V7.25293C12.7598 7.13434 12.856 7.03809 12.9746 7.03809H14.8395C14.9585 7.03809 15.0543 7.13434 15.0543 7.25293V14.7475C15.0543 14.8661 14.9585 14.9624 14.8395 14.9624Z" fill="url(#paint3_linear_14358_25845)"/>
</g>
<defs>
<linearGradient id="paint0_linear_14358_25845" x1="11.0011" y1="0.00585938" x2="11.0011" y2="21.9964" gradientUnits="userSpaceOnUse">
<stop stop-color="#223CDD"/>
<stop offset="1" stop-color="#6176FF"/>
</linearGradient>
<linearGradient id="paint1_linear_14358_25845" x1="8.09258" y1="10.0898" x2="8.09258" y2="14.9625" gradientUnits="userSpaceOnUse">
<stop stop-color="#223CDD"/>
<stop offset="1" stop-color="#6176FF"/>
</linearGradient>
<linearGradient id="paint2_linear_14358_25845" x1="11.0008" y1="8.76172" x2="11.0008" y2="14.9621" gradientUnits="userSpaceOnUse">
<stop stop-color="#223CDD"/>
<stop offset="1" stop-color="#6176FF"/>
</linearGradient>
<linearGradient id="paint3_linear_14358_25845" x1="13.907" y1="7.03809" x2="13.907" y2="14.9624" gradientUnits="userSpaceOnUse">
<stop stop-color="#223CDD"/>
<stop offset="1" stop-color="#6176FF"/>
</linearGradient>
<clipPath id="clip0_14358_25845">
<rect width="22" height="22" fill="white"/>
</clipPath>
</defs>
</svg>
