<svg width="22" height="22" viewBox="0 0 22 22" fill="none" xmlns="http://www.w3.org/2000/svg">
<g clip-path="url(#clip0_14358_25877)">
<path fill-rule="evenodd" clip-rule="evenodd" d="M21.0985 17.6374H0.900625C0.403906 17.6374 0 17.2335 0 16.7372V15.422H21.9991V16.7372C21.9991 17.2335 21.5952 17.6374 21.0985 17.6374ZM0 14.9923V4.29906C0 3.80234 0.403906 3.39844 0.900625 3.39844H5.47809C5.11887 3.78688 4.89887 4.30594 4.89887 4.8757C4.89887 5.2027 4.9702 5.51895 5.10727 5.8077C4.96762 6.09473 4.88941 6.41699 4.88941 6.7573C4.88941 7.3898 5.16828 7.97848 5.62203 8.38367C5.44543 8.69219 5.34918 9.04582 5.34918 9.4132C5.34918 10.5536 6.27344 11.4817 7.41254 11.4877C7.71074 12.3346 8.51898 12.9435 9.46688 12.9435C10.0641 12.9435 10.606 12.7016 10.9996 12.311C11.3932 12.7016 11.935 12.9435 12.5323 12.9435C13.4793 12.9435 14.2772 12.3316 14.5771 11.4877C15.7205 11.4869 16.65 10.557 16.65 9.4132C16.65 9.04539 16.5541 8.69133 16.3775 8.38238C16.8309 7.97719 17.1097 7.38937 17.1097 6.7573C17.1097 6.4273 17.0341 6.10246 16.8919 5.80813C17.0289 5.51938 17.1003 5.2027 17.1003 4.8757C17.1003 4.31496 16.8876 3.79203 16.5236 3.39844H21.0985C21.5952 3.39844 21.9991 3.80234 21.9991 4.29906V14.9923H0Z" fill="url(#paint0_linear_14358_25877)"/>
<path fill-rule="evenodd" clip-rule="evenodd" d="M9.12109 19.7625C9.23324 19.0647 9.19285 18.4717 9.12969 18.0674H12.8688C12.8061 18.4726 12.7657 19.0664 12.877 19.7625H9.12109Z" fill="url(#paint1_linear_14358_25877)"/>
<path fill-rule="evenodd" clip-rule="evenodd" d="M14.7451 21.9958H7.25305C6.7559 21.9958 6.35156 21.5914 6.35156 21.0939C6.35156 20.5967 6.7559 20.1924 7.25305 20.1924H14.7451C15.2422 20.1924 15.6466 20.5967 15.6466 21.0939C15.6466 21.5914 15.2422 21.9958 14.7451 21.9958Z" fill="url(#paint2_linear_14358_25877)"/>
<path fill-rule="evenodd" clip-rule="evenodd" d="M13.7041 1.44219C13.8451 1.40352 13.9907 1.38375 14.1407 1.38375C15.0478 1.38375 15.7855 2.12195 15.7855 3.02902C15.7855 3.13387 15.7757 3.23785 15.7563 3.33969C16.3166 3.64305 16.6698 4.22785 16.6698 4.87582C16.6698 5.21141 16.577 5.53109 16.4 5.80953C16.5809 6.09055 16.6793 6.42098 16.6793 6.75742C16.6793 7.39766 16.3214 7.98375 15.7757 8.28711C16.0584 8.58703 16.2195 8.9875 16.2195 9.41332C16.2195 10.3204 15.4818 11.0582 14.5747 11.0582C14.4655 11.0582 14.3577 11.0479 14.252 11.0268C14.1201 11.8686 13.3986 12.5139 12.5315 12.5139C12.006 12.5139 11.5338 12.2802 11.2132 11.9115L11.2137 0.246797C11.4693 0.0903906 11.7663 0.00488281 12.0722 0.00488281C12.9088 0.00488281 13.6014 0.632656 13.7041 1.44219ZM13.8674 8.96773C13.8288 8.96773 13.7905 8.97805 13.7566 8.99781C13.7054 9.02746 13.6685 9.07559 13.653 9.13273C13.6375 9.19031 13.6457 9.25004 13.6754 9.3016C13.7149 9.37035 13.7888 9.41289 13.8683 9.41289C13.9074 9.41289 13.9448 9.40301 13.9791 9.38324C14.0307 9.35359 14.0677 9.30547 14.0827 9.24789C14.0982 9.19074 14.0904 9.13059 14.0608 9.07945C14.0208 9.0107 13.9469 8.96773 13.8674 8.96773ZM12.8736 6.89664C12.6192 6.8077 12.4361 6.56535 12.4361 6.2809C12.4361 5.92125 12.7288 5.62863 13.0884 5.62863C13.448 5.62863 13.7407 5.92125 13.7407 6.2809C13.7407 6.56535 13.5576 6.8077 13.3032 6.89664V7.78266L13.7463 8.54965C13.7862 8.54191 13.8266 8.53805 13.8674 8.53805C14.0999 8.53805 14.3164 8.66309 14.4325 8.86418C14.5197 9.01543 14.5429 9.19117 14.4978 9.35918C14.4527 9.52762 14.3448 9.66813 14.194 9.75535C14.0947 9.8125 13.9821 9.84258 13.8683 9.84258C13.6358 9.84258 13.4193 9.71754 13.3032 9.51645C13.216 9.36563 13.1928 9.18988 13.2379 9.02145C13.2637 8.92519 13.3105 8.83797 13.3737 8.76449L13.0884 8.26992L12.8027 8.76449C12.8663 8.83754 12.9127 8.92519 12.9389 9.02145C12.984 9.18988 12.9608 9.36563 12.8736 9.51645C12.7575 9.71754 12.541 9.84258 12.3085 9.84258C12.1942 9.84258 12.0816 9.8125 11.9828 9.75535C11.832 9.66813 11.7241 9.52762 11.679 9.35918C11.6339 9.19117 11.6567 9.01543 11.7439 8.86418C11.8604 8.66309 12.0769 8.53805 12.3089 8.53805C12.3502 8.53805 12.3906 8.54191 12.4305 8.54965L12.8736 7.78266V6.89664ZM12.4232 8.99953L12.4224 8.9991L12.4215 8.99867L12.4198 8.99781L12.4185 8.99695L12.4168 8.99609C12.3837 8.97762 12.3468 8.96773 12.3089 8.96773C12.2299 8.96773 12.1555 9.0107 12.116 9.07902C12.0864 9.13059 12.0786 9.19074 12.0937 9.24789C12.1091 9.30547 12.1461 9.35316 12.1972 9.38324C12.2316 9.40301 12.269 9.41289 12.3085 9.41289C12.3876 9.41289 12.4619 9.37035 12.5014 9.3016C12.5311 9.25004 12.5388 9.19031 12.5238 9.13273C12.5087 9.07644 12.4731 9.02961 12.4232 8.99953ZM13.0884 6.05832C12.9655 6.05832 12.8658 6.15844 12.8658 6.2809C12.8658 6.40336 12.9655 6.50348 13.0884 6.50348C13.2109 6.50348 13.311 6.40336 13.311 6.2809C13.311 6.15844 13.2109 6.05832 13.0884 6.05832ZM14.0341 2.53918C13.9198 2.53918 13.8249 2.62555 13.8133 2.73941C13.8073 2.79871 13.8249 2.85629 13.8623 2.90227C13.8996 2.94824 13.9529 2.97703 14.0122 2.98305C14.1351 2.99551 14.2434 2.90613 14.2559 2.7841C14.2683 2.66207 14.1794 2.55293 14.0569 2.54047C14.0496 2.53961 14.0419 2.53918 14.0341 2.53918ZM13.705 4.45387L12.9861 3.93523C12.8774 4.01086 12.7472 4.0534 12.6119 4.0534C12.4744 4.0534 12.3429 4.01043 12.2307 3.93008C12.0898 3.82781 11.9966 3.67742 11.9686 3.50512C11.9407 3.33324 11.9815 3.16094 12.0838 3.01957C12.2058 2.84984 12.4035 2.74887 12.6127 2.74887C12.7502 2.74887 12.8821 2.79141 12.9939 2.87219C13.2246 3.03848 13.314 3.32852 13.2375 3.58719L13.7011 3.92105L13.7587 3.35301C13.6706 3.31219 13.5924 3.2516 13.5293 3.17383C13.4193 3.03891 13.3681 2.86918 13.3857 2.69602C13.4197 2.36172 13.6986 2.10949 14.0341 2.10949C14.0561 2.10949 14.0784 2.11078 14.1003 2.11293C14.4582 2.14945 14.7199 2.47 14.6834 2.82793C14.6546 3.11023 14.4509 3.3341 14.1862 3.39641L14.0964 4.27727L14.46 5.08551C14.4784 5.08379 14.4969 5.08293 14.5158 5.08293C14.7723 5.08293 15.0061 5.23418 15.1109 5.46793C15.2583 5.79578 15.1114 6.18293 14.7835 6.33031C14.6989 6.36813 14.6091 6.38746 14.5167 6.38746C14.2602 6.38746 14.0264 6.23664 13.9216 6.00246C13.8498 5.84391 13.8446 5.66645 13.9065 5.50359C13.9422 5.41035 13.9972 5.32785 14.0677 5.26125L13.705 4.45387ZM14.4277 5.53109L14.4264 5.53195L14.4252 5.53238L14.4239 5.53281C14.3702 5.5573 14.3293 5.60113 14.3083 5.65613C14.2872 5.71199 14.2889 5.77215 14.3134 5.82629C14.3491 5.90621 14.429 5.95777 14.5167 5.95777C14.5476 5.95777 14.5781 5.95133 14.6073 5.93844C14.7191 5.88773 14.7693 5.75625 14.7191 5.6441C14.6834 5.56418 14.6035 5.51262 14.5158 5.51262C14.4857 5.51262 14.4561 5.51906 14.4277 5.53109ZM12.7928 3.53133V3.5309C12.8645 3.43164 12.8422 3.29199 12.7425 3.22066C12.7043 3.19316 12.6596 3.17855 12.6127 3.17855C12.5401 3.17855 12.4744 3.21207 12.4318 3.27094C12.397 3.31906 12.3833 3.37793 12.3927 3.43637C12.4022 3.49523 12.434 3.5468 12.4821 3.58117C12.5204 3.60867 12.5655 3.62328 12.6119 3.62328C12.6845 3.62328 12.7507 3.58977 12.7928 3.53133ZM10.7836 11.9128C10.463 12.2811 9.99121 12.5139 9.46613 12.5139C8.59129 12.5139 7.86469 11.8681 7.73836 11.0281C7.63523 11.0483 7.52953 11.0582 7.42297 11.0582C6.5159 11.0582 5.7777 10.3204 5.7777 9.41332C5.7777 8.98965 5.93969 8.58918 6.22285 8.28754C5.67672 7.98461 5.31836 7.39809 5.31836 6.75742C5.31836 6.40852 5.42105 6.08324 5.59809 5.80996C5.42062 5.53109 5.32781 5.21141 5.32781 4.87582C5.32781 4.2141 5.69777 3.63703 6.24176 3.34055C6.22199 3.23828 6.21211 3.13387 6.21211 3.02902C6.21211 2.12195 6.94988 1.38375 7.85695 1.38375C8.00691 1.38375 8.15258 1.40352 8.29352 1.44219C8.39621 0.632656 9.08887 0.00488281 9.92547 0.00488281C10.2314 0.00488281 10.5279 0.0903906 10.784 0.246797L10.7836 11.9128Z" fill="url(#paint3_linear_14358_25877)"/>
</g>
<defs>
<linearGradient id="paint0_linear_14358_25877" x1="10.9996" y1="3.39844" x2="10.9996" y2="17.6374" gradientUnits="userSpaceOnUse">
<stop stop-color="#223CDD"/>
<stop offset="1" stop-color="#6176FF"/>
</linearGradient>
<linearGradient id="paint1_linear_14358_25877" x1="10.999" y1="18.0674" x2="10.999" y2="19.7625" gradientUnits="userSpaceOnUse">
<stop stop-color="#223CDD"/>
<stop offset="1" stop-color="#6176FF"/>
</linearGradient>
<linearGradient id="paint2_linear_14358_25877" x1="10.9991" y1="20.1924" x2="10.9991" y2="21.9958" gradientUnits="userSpaceOnUse">
<stop stop-color="#223CDD"/>
<stop offset="1" stop-color="#6176FF"/>
</linearGradient>
<linearGradient id="paint3_linear_14358_25877" x1="10.9988" y1="0.00488281" x2="10.9988" y2="12.5139" gradientUnits="userSpaceOnUse">
<stop stop-color="#223CDD"/>
<stop offset="1" stop-color="#6176FF"/>
</linearGradient>
<clipPath id="clip0_14358_25877">
<rect width="22" height="22" fill="white"/>
</clipPath>
</defs>
</svg>
