<svg width="22" height="22" viewBox="0 0 22 22" fill="none" xmlns="http://www.w3.org/2000/svg">
<path d="M3.13147 4.00417H10.1868V3.06624C10.1869 3.02091 10.1781 2.97599 10.1609 2.93408C10.1436 2.89217 10.1182 2.8541 10.0861 2.82204C10.0541 2.78999 10.016 2.7646 9.9741 2.74732C9.93219 2.73005 9.88727 2.72124 9.84195 2.7214H5.68324C5.06801 2.75615 4.58648 1.9962 4.17286 1.63515C4.10711 1.57163 4.01946 1.53583 3.92804 1.53516H1.74523C1.65385 1.53542 1.5663 1.57184 1.50168 1.63646C1.43707 1.70107 1.40066 1.78862 1.40039 1.88V6.96287L2.14868 4.7111C2.21809 4.50535 2.35021 4.32652 2.52649 4.19972C2.70276 4.07293 2.91433 4.00454 3.13147 4.00417Z" fill="url(#paint0_linear_14383_26228)"/>
<path d="M11.1538 4.69336H3.13294C3.06064 4.69318 2.99012 4.71573 2.93134 4.75781C2.87255 4.79989 2.82848 4.85938 2.80534 4.92787L1.68807 8.28656C1.67051 8.33851 1.6656 8.39389 1.67374 8.44812C1.68188 8.50235 1.70283 8.55385 1.73486 8.59835C1.7669 8.64286 1.80908 8.67909 1.85791 8.70402C1.90675 8.72896 1.96083 8.74189 2.01566 8.74174H10.0365C10.1088 8.74163 10.1792 8.71851 10.2375 8.67573C10.2957 8.63296 10.3389 8.57274 10.3607 8.50381L11.4814 5.14855C11.4981 5.09661 11.5023 5.04148 11.4939 4.9876C11.4854 4.93371 11.4643 4.88257 11.4325 4.83829C11.4006 4.79401 11.3588 4.75783 11.3104 4.73266C11.262 4.70749 11.2084 4.69403 11.1538 4.69336Z" fill="url(#paint1_linear_14383_26228)"/>
<path d="M12.233 15.7288H19.2849V14.7908C19.2853 14.7454 19.2767 14.7004 19.2596 14.6584C19.2424 14.6163 19.217 14.5781 19.1849 14.546C19.1528 14.5139 19.1146 14.4885 19.0725 14.4713C19.0305 14.4542 18.9855 14.4456 18.9401 14.446H14.7848C14.1594 14.4728 13.7187 13.751 13.271 13.3598C13.2066 13.2963 13.12 13.2605 13.0296 13.2598H10.8468C10.8015 13.2596 10.7565 13.2684 10.7146 13.2857C10.6727 13.303 10.6347 13.3284 10.6026 13.3604C10.5705 13.3925 10.5452 13.4306 10.5279 13.4725C10.5106 13.5144 10.5018 13.5593 10.502 13.6046V18.6875L11.2502 16.4357C11.3192 16.2297 11.4512 16.0506 11.6276 15.9237C11.804 15.7969 12.0158 15.7287 12.233 15.7288Z" fill="url(#paint2_linear_14383_26228)"/>
<path d="M20.2532 16.418H12.2324C12.1601 16.4178 12.0895 16.4403 12.0307 16.4824C11.972 16.5245 11.9279 16.584 11.9048 16.6525L10.784 20.0112C10.7675 20.0631 10.7634 20.1182 10.7719 20.172C10.7805 20.2258 10.8015 20.2769 10.8334 20.3212C10.8652 20.3654 10.9069 20.4016 10.9553 20.4268C11.0036 20.452 11.0571 20.4655 11.1116 20.4664H19.1325C19.2051 20.4658 19.2757 20.4426 19.3345 20.3999C19.3932 20.3573 19.4371 20.2973 19.4601 20.2284L20.5808 16.8732C20.5974 16.8212 20.6015 16.7661 20.5929 16.7123C20.5844 16.6585 20.5633 16.6074 20.5315 16.5632C20.4997 16.5189 20.4579 16.4828 20.4096 16.4575C20.3613 16.4323 20.3077 16.4188 20.2532 16.418Z" fill="url(#paint3_linear_14383_26228)"/>
<path d="M12.0576 3.59585C12.1081 3.67082 12.186 3.72297 12.2746 3.74104C12.3632 3.75912 12.4553 3.74169 12.5312 3.6925C12.607 3.64331 12.6605 3.56631 12.6801 3.47806C12.6998 3.38981 12.684 3.29739 12.6361 3.22069L12.4397 2.91784C17.0776 3.60654 20.263 8.55833 18.9956 13.0723C18.9742 13.1602 18.9882 13.2531 19.0346 13.3308C19.081 13.4085 19.156 13.4649 19.2436 13.4878C19.3312 13.5106 19.4243 13.4982 19.5027 13.4531C19.5812 13.408 19.6388 13.3338 19.6631 13.2467C19.9752 12.0535 20.0354 10.8085 19.8401 9.59082C19.6447 8.37313 19.198 7.20944 18.5284 6.17379C17.8588 5.13815 16.981 4.25323 15.9507 3.57535C14.9205 2.89746 13.7604 2.44146 12.5443 2.23635L12.8944 2.00925C12.9707 1.95933 13.0242 1.8812 13.043 1.79197C13.0618 1.70274 13.0446 1.60968 12.9949 1.53316C12.9453 1.45665 12.8674 1.4029 12.7783 1.3837C12.6891 1.36451 12.596 1.38141 12.5193 1.43072L11.4952 2.09494C11.4572 2.11955 11.4244 2.15141 11.3987 2.1887C11.373 2.22599 11.3549 2.26798 11.3455 2.31227C11.336 2.35656 11.3354 2.40228 11.3436 2.44681C11.3519 2.49134 11.3688 2.53381 11.3935 2.57178L12.0576 3.59585Z" fill="url(#paint4_linear_14383_26228)"/>
<path d="M8.88862 18.5007C8.84598 18.4211 8.77379 18.3614 8.68758 18.3344C8.60136 18.3074 8.508 18.3153 8.42756 18.3564C8.34712 18.3975 8.28601 18.4686 8.25737 18.5542C8.22872 18.6399 8.23484 18.7334 8.27439 18.8146L8.44733 19.1531C6.55634 18.5495 4.93435 17.3066 3.85964 15.6377C2.78493 13.9688 2.3245 11.978 2.55733 10.0067C2.56644 9.91668 2.53985 9.82671 2.48328 9.75615C2.42672 9.68558 2.34469 9.64005 2.25488 9.62937C2.16507 9.61869 2.07466 9.6437 2.00312 9.69903C1.93157 9.75437 1.88462 9.83558 1.87238 9.92519C1.30501 14.1656 4.07884 18.5304 8.16717 19.788L7.77094 19.9646C7.68743 20.0019 7.62214 20.0708 7.58943 20.1562C7.55671 20.2416 7.55925 20.3365 7.59648 20.42C7.63371 20.5035 7.70258 20.5688 7.78796 20.6016C7.87334 20.6344 7.96824 20.6319 8.05178 20.5947L9.27251 20.0505C9.31508 20.0312 9.35332 20.0035 9.38493 19.969C9.41653 19.9346 9.44084 19.8941 9.45641 19.85C9.47198 19.8059 9.47848 19.7592 9.47552 19.7125C9.47257 19.6659 9.46021 19.6203 9.4392 19.5785L8.88862 18.5007Z" fill="url(#paint5_linear_14383_26228)"/>
<defs>
<linearGradient id="paint0_linear_14383_26228" x1="5.79359" y1="1.53516" x2="5.79359" y2="6.96287" gradientUnits="userSpaceOnUse">
<stop stop-color="#223CDD"/>
<stop offset="1" stop-color="#6176FF"/>
</linearGradient>
<linearGradient id="paint1_linear_14383_26228" x1="6.58401" y1="4.69336" x2="6.58401" y2="8.74174" gradientUnits="userSpaceOnUse">
<stop stop-color="#223CDD"/>
<stop offset="1" stop-color="#6176FF"/>
</linearGradient>
<linearGradient id="paint2_linear_14383_26228" x1="14.8934" y1="13.2598" x2="14.8934" y2="18.6875" gradientUnits="userSpaceOnUse">
<stop stop-color="#223CDD"/>
<stop offset="1" stop-color="#6176FF"/>
</linearGradient>
<linearGradient id="paint3_linear_14383_26228" x1="15.6824" y1="16.418" x2="15.6824" y2="20.4664" gradientUnits="userSpaceOnUse">
<stop stop-color="#223CDD"/>
<stop offset="1" stop-color="#6176FF"/>
</linearGradient>
<linearGradient id="paint4_linear_14383_26228" x1="15.6451" y1="1.37598" x2="15.6451" y2="13.499" gradientUnits="userSpaceOnUse">
<stop stop-color="#223CDD"/>
<stop offset="1" stop-color="#6176FF"/>
</linearGradient>
<linearGradient id="paint5_linear_14383_26228" x1="5.63752" y1="9.62695" x2="5.63752" y2="20.6245" gradientUnits="userSpaceOnUse">
<stop stop-color="#223CDD"/>
<stop offset="1" stop-color="#6176FF"/>
</linearGradient>
</defs>
</svg>
