<svg width="22" height="22" viewBox="0 0 22 22" fill="none" xmlns="http://www.w3.org/2000/svg">
<path d="M19.5938 2.88379H2.40625C2.13281 2.884 1.87063 2.99272 1.67728 3.18607C1.48393 3.37942 1.37521 3.6416 1.375 3.91504V13.54H20.625V3.91504C20.6248 3.6416 20.5161 3.37942 20.3227 3.18607C20.1294 2.99272 19.8672 2.884 19.5938 2.88379ZM8.06437 12.6944C8.06453 12.7396 8.05575 12.7844 8.03853 12.8261C8.02131 12.8679 7.996 12.9059 7.96404 12.9378C7.93209 12.9698 7.89413 12.9951 7.85236 13.0123C7.81058 13.0295 7.76581 13.0383 7.72062 13.0382H5.84719C5.802 13.0383 5.75723 13.0295 5.71545 13.0123C5.67368 12.9951 5.63572 12.9698 5.60377 12.9378C5.57182 12.9059 5.5465 12.8679 5.52928 12.8261C5.51206 12.7844 5.50328 12.7396 5.50344 12.6944V10.3741C5.50371 10.283 5.54001 10.1957 5.60442 10.1313C5.66883 10.0669 5.7561 10.0306 5.84719 10.0304H7.72062C7.81171 10.0306 7.89899 10.0669 7.96339 10.1313C8.0278 10.1957 8.0641 10.283 8.06437 10.3741V12.6944ZM7.20156 7.19785C6.95882 7.19474 6.72708 7.09613 6.55653 6.92338C6.38597 6.75062 6.29034 6.51763 6.29034 6.27487C6.29035 6.03211 6.38598 5.79913 6.55654 5.62638C6.7271 5.45362 6.95884 5.35502 7.20158 5.35191C7.39834 5.35053 7.5902 5.41328 7.74811 5.53066L8.82061 4.86035C8.80195 4.7298 8.81143 4.59677 8.84842 4.47019C8.88541 4.34361 8.94905 4.22641 9.03508 4.12645C9.1211 4.0265 9.22752 3.9461 9.34718 3.89067C9.46683 3.83523 9.59697 3.80604 9.72884 3.80505C9.86071 3.80406 9.99127 3.8313 10.1117 3.88493C10.2322 3.93856 10.3398 4.01735 10.4273 4.116C10.5149 4.21466 10.5803 4.33089 10.6191 4.4569C10.658 4.58291 10.6695 4.71579 10.6528 4.8466L11.715 5.49973C11.8736 5.38064 12.0666 5.31627 12.265 5.31627C12.4634 5.31627 12.6564 5.38064 12.815 5.49973L13.8875 4.84316C13.8514 4.63125 13.8902 4.41338 13.9972 4.22695C14.1042 4.04052 14.2728 3.89716 14.474 3.82149C14.6752 3.74581 14.8965 3.74255 15.0999 3.81224C15.3032 3.88194 15.476 4.02026 15.5884 4.20345C15.7009 4.38664 15.7461 4.60327 15.7163 4.81615C15.6865 5.02904 15.5834 5.2249 15.4249 5.37011C15.2664 5.51531 15.0623 5.60081 14.8476 5.61191C14.6329 5.62302 14.4211 5.55905 14.2484 5.43098L13.1759 6.0841C13.1856 6.13508 13.1902 6.1869 13.1897 6.23879C13.1861 6.48164 13.087 6.71331 12.914 6.88376C12.741 7.05421 12.5079 7.14975 12.265 7.14975C12.0221 7.14974 11.789 7.05419 11.616 6.88373C11.4429 6.71328 11.3439 6.4816 11.3403 6.23875C11.3398 6.18687 11.3444 6.13507 11.3541 6.0841L10.3125 5.44816C10.1493 5.57751 9.94729 5.64818 9.73903 5.6488C9.53077 5.64942 9.32836 5.57995 9.16437 5.45158L8.1125 6.1116C8.1359 6.24465 8.1299 6.3812 8.09492 6.51168C8.05995 6.64215 7.99685 6.7634 7.91005 6.86691C7.82324 6.97041 7.71485 7.05367 7.59246 7.11084C7.47007 7.16801 7.33665 7.19771 7.20156 7.19785ZM10.8762 12.6944C10.8764 12.7396 10.8676 12.7844 10.8504 12.8261C10.8332 12.8679 10.8079 12.9059 10.7759 12.9378C10.744 12.9698 10.706 12.9951 10.6642 13.0123C10.6225 13.0295 10.5777 13.0383 10.5325 13.0382H8.65906C8.6138 13.0386 8.5689 13.03 8.52699 13.0129C8.48508 12.9958 8.44701 12.9705 8.415 12.9385C8.38299 12.9065 8.35769 12.8684 8.34057 12.8265C8.32345 12.7846 8.31487 12.7397 8.31531 12.6944V8.05379C8.31516 8.0086 8.32394 7.96383 8.34116 7.92206C8.35838 7.88028 8.38369 7.84232 8.41564 7.81037C8.4476 7.77842 8.48555 7.7531 8.52733 7.73589C8.56911 7.71867 8.61388 7.70988 8.65906 7.71004H10.5325C10.6236 7.71031 10.7109 7.74661 10.7753 7.81102C10.8397 7.87543 10.876 7.9627 10.8762 8.05379V12.6944ZM13.6847 12.6944C13.6851 12.7397 13.6765 12.7846 13.6594 12.8265C13.6423 12.8684 13.617 12.9065 13.585 12.9385C13.553 12.9705 13.5149 12.9958 13.473 13.0129C13.4311 13.03 13.3862 13.0386 13.3409 13.0382H11.4675C11.4223 13.0383 11.3775 13.0295 11.3358 13.0123C11.294 12.9951 11.256 12.9698 11.2241 12.9378C11.1921 12.9059 11.1668 12.8679 11.1496 12.8261C11.1324 12.7844 11.1236 12.7396 11.1238 12.6944V9.60066C11.124 9.50958 11.1603 9.4223 11.2247 9.3579C11.2891 9.29349 11.3764 9.25719 11.4675 9.25691H13.3409C13.3861 9.25676 13.4309 9.26554 13.4727 9.28276C13.5144 9.29998 13.5524 9.32529 13.5844 9.35725C13.6163 9.3892 13.6416 9.42715 13.6588 9.46893C13.6761 9.51071 13.6848 9.55548 13.6847 9.60066V12.6944ZM16.4966 12.6944C16.4967 12.7396 16.4879 12.7844 16.4707 12.8261C16.4535 12.8679 16.4282 12.9059 16.3962 12.9378C16.3643 12.9698 16.3263 12.9951 16.2845 13.0123C16.2428 13.0295 16.198 13.0383 16.1528 13.0382H14.2794C14.2342 13.0383 14.1894 13.0295 14.1476 13.0123C14.1059 12.9951 14.0679 12.9698 14.036 12.9378C14.004 12.9059 13.9787 12.8679 13.9615 12.8261C13.9443 12.7844 13.9355 12.7396 13.9356 12.6944V7.28035C13.9359 7.18927 13.9722 7.10199 14.0366 7.03758C14.101 6.97318 14.1883 6.93687 14.2794 6.9366H16.1528C16.2439 6.93687 16.3312 6.97318 16.3956 7.03758C16.46 7.10199 16.4963 7.18927 16.4966 7.28035V12.6944Z" fill="url(#paint0_linear_14383_26237)"/>
<path d="M1.375 14.915C1.3758 15.1883 1.48471 15.4501 1.67793 15.6434C1.87115 15.8366 2.13299 15.9455 2.40625 15.9463H19.5938C19.867 15.9455 20.1288 15.8366 20.3221 15.6434C20.5153 15.4501 20.6242 15.1883 20.625 14.915V14.2275H1.375V14.915Z" fill="url(#paint1_linear_14383_26237)"/>
<path d="M16.3287 18.4282H13.8537V16.6338H13.1662V18.4282H8.83494V16.6338H8.14744V18.4282H5.67246C5.58221 18.4296 5.49614 18.4664 5.43281 18.5307C5.36948 18.595 5.33399 18.6816 5.33398 18.7719C5.33398 18.8622 5.36947 18.9488 5.4328 19.0131C5.49612 19.0774 5.58219 19.1143 5.67244 19.1157H16.3287C16.4199 19.1157 16.5073 19.0794 16.5718 19.015C16.6362 18.9505 16.6724 18.8631 16.6724 18.7719C16.6724 18.6807 16.6362 18.5933 16.5718 18.5288C16.5073 18.4644 16.4199 18.4282 16.3287 18.4282Z" fill="url(#paint2_linear_14383_26237)"/>
<path d="M6.19141 10.7178H7.37734V12.3506H6.19141V10.7178Z" fill="url(#paint3_linear_14383_26237)"/>
<path d="M9.00195 8.39746H10.1879V12.3506H9.00195V8.39746Z" fill="url(#paint4_linear_14383_26237)"/>
<path d="M11.8105 9.94434H12.9965V12.3506H11.8105V9.94434Z" fill="url(#paint5_linear_14383_26237)"/>
<path d="M14.623 7.62402H15.809V12.3506H14.623V7.62402Z" fill="url(#paint6_linear_14383_26237)"/>
<path d="M6.96875 6.27667C6.9705 6.33796 6.99607 6.39615 7.04004 6.43888C7.08401 6.48161 7.1429 6.50551 7.20421 6.50552C7.26552 6.50552 7.32441 6.48162 7.36838 6.43889C7.41235 6.39616 7.43793 6.33798 7.43969 6.27669C7.43794 6.21541 7.41236 6.15722 7.3684 6.11449C7.32443 6.07176 7.26554 6.04785 7.20423 6.04785C7.14292 6.04785 7.08402 6.07175 7.04005 6.11448C6.99608 6.1572 6.97051 6.21539 6.96875 6.27667Z" fill="url(#paint7_linear_14383_26237)"/>
<path d="M9.97242 4.72953C9.97117 4.66745 9.94563 4.60833 9.90129 4.56487C9.85694 4.52141 9.79733 4.49707 9.73523 4.49707C9.67314 4.49707 9.61353 4.52141 9.56918 4.56487C9.52484 4.60833 9.4993 4.66745 9.49805 4.72953C9.4993 4.79161 9.52484 4.85072 9.56918 4.89418C9.61353 4.93764 9.67314 4.96198 9.73523 4.96198C9.79733 4.96198 9.85694 4.93764 9.90129 4.89418C9.94563 4.85072 9.97117 4.79161 9.97242 4.72953Z" fill="url(#paint8_linear_14383_26237)"/>
<path d="M12.5013 6.23945C12.5003 6.18706 12.4821 6.13645 12.4496 6.0954C12.417 6.05434 12.3719 6.02512 12.3211 6.01223C12.2703 5.99934 12.2167 6.00349 12.1685 6.02405C12.1203 6.04461 12.0802 6.08043 12.0544 6.12601C12.0385 6.15757 12.03 6.19227 12.0293 6.22757C12.0287 6.26287 12.036 6.29787 12.0506 6.32998C12.0653 6.3621 12.087 6.39052 12.1141 6.41314C12.1412 6.43576 12.173 6.45201 12.2073 6.4607C12.2415 6.46939 12.2772 6.47029 12.3118 6.46333C12.3464 6.45638 12.3791 6.44175 12.4073 6.42052C12.4355 6.39929 12.4586 6.372 12.4748 6.34066C12.4911 6.30932 12.5001 6.27474 12.5013 6.23945Z" fill="url(#paint9_linear_14383_26237)"/>
<path d="M15.0315 4.69261C15.0307 4.63065 15.0056 4.57149 14.9615 4.52794C14.9175 4.48439 14.858 4.45996 14.796 4.45996C14.7341 4.45996 14.6746 4.48438 14.6305 4.52792C14.5864 4.57147 14.5613 4.63063 14.5605 4.69259C14.5613 4.75455 14.5864 4.81372 14.6305 4.85727C14.6746 4.90082 14.734 4.92524 14.796 4.92524C14.858 4.92525 14.9174 4.90083 14.9615 4.85728C15.0056 4.81373 15.0307 4.75457 15.0315 4.69261Z" fill="url(#paint10_linear_14383_26237)"/>
<defs>
<linearGradient id="paint0_linear_14383_26237" x1="11" y1="2.88379" x2="11" y2="13.54" gradientUnits="userSpaceOnUse">
<stop stop-color="#223CDD"/>
<stop offset="1" stop-color="#6176FF"/>
</linearGradient>
<linearGradient id="paint1_linear_14383_26237" x1="11" y1="14.2275" x2="11" y2="15.9463" gradientUnits="userSpaceOnUse">
<stop stop-color="#223CDD"/>
<stop offset="1" stop-color="#6176FF"/>
</linearGradient>
<linearGradient id="paint2_linear_14383_26237" x1="11.0032" y1="16.6338" x2="11.0032" y2="19.1157" gradientUnits="userSpaceOnUse">
<stop stop-color="#223CDD"/>
<stop offset="1" stop-color="#6176FF"/>
</linearGradient>
<linearGradient id="paint3_linear_14383_26237" x1="6.78437" y1="10.7178" x2="6.78437" y2="12.3506" gradientUnits="userSpaceOnUse">
<stop stop-color="#223CDD"/>
<stop offset="1" stop-color="#6176FF"/>
</linearGradient>
<linearGradient id="paint4_linear_14383_26237" x1="9.59492" y1="8.39746" x2="9.59492" y2="12.3506" gradientUnits="userSpaceOnUse">
<stop stop-color="#223CDD"/>
<stop offset="1" stop-color="#6176FF"/>
</linearGradient>
<linearGradient id="paint5_linear_14383_26237" x1="12.4035" y1="9.94434" x2="12.4035" y2="12.3506" gradientUnits="userSpaceOnUse">
<stop stop-color="#223CDD"/>
<stop offset="1" stop-color="#6176FF"/>
</linearGradient>
<linearGradient id="paint6_linear_14383_26237" x1="15.216" y1="7.62402" x2="15.216" y2="12.3506" gradientUnits="userSpaceOnUse">
<stop stop-color="#223CDD"/>
<stop offset="1" stop-color="#6176FF"/>
</linearGradient>
<linearGradient id="paint7_linear_14383_26237" x1="7.20422" y1="6.04785" x2="7.20422" y2="6.50552" gradientUnits="userSpaceOnUse">
<stop stop-color="#223CDD"/>
<stop offset="1" stop-color="#6176FF"/>
</linearGradient>
<linearGradient id="paint8_linear_14383_26237" x1="9.73523" y1="4.49707" x2="9.73523" y2="4.96198" gradientUnits="userSpaceOnUse">
<stop stop-color="#223CDD"/>
<stop offset="1" stop-color="#6176FF"/>
</linearGradient>
<linearGradient id="paint9_linear_14383_26237" x1="12.2653" y1="6.00488" x2="12.2653" y2="6.46796" gradientUnits="userSpaceOnUse">
<stop stop-color="#223CDD"/>
<stop offset="1" stop-color="#6176FF"/>
</linearGradient>
<linearGradient id="paint10_linear_14383_26237" x1="14.796" y1="4.45996" x2="14.796" y2="4.92524" gradientUnits="userSpaceOnUse">
<stop stop-color="#223CDD"/>
<stop offset="1" stop-color="#6176FF"/>
</linearGradient>
</defs>
</svg>
