<svg width="22" height="22" viewBox="0 0 22 22" fill="none" xmlns="http://www.w3.org/2000/svg">
<path d="M6.14833 15.3381C6.14821 15.0302 6.07112 14.7273 5.92407 14.4568C5.77701 14.1863 5.56467 13.9569 5.30635 13.7894C5.04804 13.6219 4.75194 13.5216 4.445 13.4978C4.13806 13.4739 3.83002 13.5271 3.5489 13.6526C3.26777 13.7781 3.02249 13.9719 2.83536 14.2164C2.64823 14.4608 2.52519 14.7482 2.47743 15.0524C2.42967 15.3565 2.45872 15.6678 2.56192 15.9578C2.66512 16.2479 2.8392 16.5075 3.06833 16.7132C4.19468 17.783 6.17867 16.9073 6.14833 15.3381Z" fill="url(#paint0_linear_14383_26380)"/>
<path d="M6.14456 17.0704C5.90792 17.3222 5.6222 17.5229 5.30502 17.6601C4.98784 17.7973 4.64591 17.8681 4.30033 17.8681C3.95474 17.8681 3.61282 17.7973 3.29564 17.6601C2.97846 17.5229 2.69275 17.3222 2.45612 17.0703C2.10678 17.3375 1.8265 17.6845 1.63871 18.0822C1.45093 18.4799 1.3611 18.9168 1.37674 19.3563C1.37767 19.6924 1.5116 20.0145 1.74928 20.2522C1.98696 20.4899 2.30905 20.6238 2.64518 20.6247H5.95206C7.90059 20.5036 7.30272 17.8249 6.14456 17.0704Z" fill="url(#paint1_linear_14383_26380)"/>
<path d="M15.8555 15.3379C15.9399 17.7811 19.4703 17.7801 19.5542 15.3379C19.4749 12.899 15.9346 12.8992 15.8555 15.3379Z" fill="url(#paint2_linear_14383_26380)"/>
<path d="M9.15234 15.3379C9.23673 17.7811 12.7672 17.7801 12.8511 15.3379C12.7718 12.899 9.23144 12.8992 9.15234 15.3379Z" fill="url(#paint3_linear_14383_26380)"/>
<path d="M12.8477 17.0704C12.611 17.3222 12.3253 17.5229 12.0081 17.6601C11.691 17.7973 11.349 17.8681 11.0035 17.8681C10.6579 17.8681 10.3159 17.7973 9.99877 17.6601C9.68159 17.5229 9.39588 17.3222 9.15924 17.0703C8.8099 17.3375 8.52962 17.6845 8.34184 18.0822C8.15405 18.4799 8.06423 18.9168 8.07987 19.3563C8.08079 19.6924 8.21473 20.0145 8.45241 20.2522C8.69009 20.4899 9.01218 20.6238 9.34831 20.6247H12.6552C14.6037 20.5036 14.0058 17.8249 12.8477 17.0704Z" fill="url(#paint4_linear_14383_26380)"/>
<path d="M19.5508 17.0704C19.3142 17.3222 19.0285 17.5229 18.7113 17.6601C18.3941 17.7973 18.0522 17.8681 17.7066 17.8681C17.361 17.8681 17.0191 17.7973 16.7019 17.6601C16.3847 17.5229 16.099 17.3222 15.8624 17.0703C15.513 17.3375 15.2327 17.6845 15.045 18.0822C14.8572 18.4799 14.7674 18.9168 14.783 19.3563C14.7839 19.6924 14.9179 20.0145 15.1555 20.2522C15.3932 20.4899 15.7153 20.6238 16.0514 20.6247H19.3583C21.3068 20.5036 20.709 17.8249 19.5508 17.0704Z" fill="url(#paint5_linear_14383_26380)"/>
<path d="M4.29883 12.7188C4.38991 12.7185 4.47719 12.6822 4.5416 12.6178C4.606 12.5534 4.64231 12.4661 4.64258 12.375V11.3438H10.6582V12.375C10.6595 12.4653 10.6964 12.5514 10.7607 12.6148C10.825 12.6782 10.9117 12.7137 11.002 12.7137C11.0923 12.7137 11.1789 12.6781 11.2432 12.6148C11.3076 12.5514 11.3444 12.4653 11.3457 12.375V11.3438H17.3613V12.375C17.3628 12.4652 17.3996 12.5512 17.464 12.6145C17.5283 12.6778 17.6149 12.7132 17.7051 12.7132C17.7953 12.7132 17.8819 12.6778 17.9462 12.6145C18.0105 12.5512 18.0474 12.4652 18.0488 12.375V11C18.0486 10.9089 18.0123 10.8216 17.9478 10.7572C17.8834 10.6928 17.7962 10.6565 17.7051 10.6562H11.3457V9.61125C16.5533 8.99945 16.2688 1.56048 11.0019 1.375C9.93767 1.37512 8.91465 1.78653 8.14663 2.52325C7.37861 3.25997 6.92502 4.265 6.88065 5.32831C6.83628 6.39163 7.20455 7.43095 7.90852 8.2291C8.61249 9.02725 9.59767 9.52246 10.6582 9.61125V10.6562H4.29883C4.20774 10.6565 4.12047 10.6928 4.05606 10.7572C3.99165 10.8216 3.95535 10.9089 3.95508 11V12.375C3.95535 12.4661 3.99165 12.5534 4.05606 12.6178C4.12047 12.6822 4.20774 12.7185 4.29883 12.7188ZM10.201 5.96406L8.93945 7.22563C8.87425 7.2875 8.78741 7.3214 8.69753 7.32007C8.60765 7.31873 8.52186 7.28226 8.45852 7.21847C8.39518 7.15468 8.35933 7.06864 8.35863 6.97875C8.35794 6.88886 8.39245 6.80226 8.45479 6.7375L9.96038 5.23531C9.99193 5.20301 10.0296 5.17733 10.0712 5.15981C10.1129 5.14228 10.1576 5.13325 10.2027 5.13325C10.2479 5.13325 10.2926 5.14228 10.3342 5.15981C10.3758 5.17733 10.4135 5.20301 10.4451 5.23531L10.9538 5.74406L12.4766 4.22125H12.2738C12.1835 4.21991 12.0974 4.1831 12.034 4.11878C11.9707 4.05446 11.9351 3.96778 11.9351 3.87749C11.9351 3.78719 11.9707 3.70053 12.034 3.63621C12.0974 3.57189 12.1836 3.53509 12.2738 3.53375H13.3051C13.3503 3.53359 13.395 3.54238 13.4368 3.5596C13.4786 3.57682 13.5165 3.60213 13.5485 3.63408C13.5805 3.66603 13.6058 3.70399 13.623 3.74577C13.6402 3.78754 13.649 3.83231 13.6488 3.8775V4.90875C13.6473 4.99889 13.6104 5.0848 13.5461 5.14799C13.4818 5.21118 13.3952 5.24659 13.3051 5.24659C13.2149 5.24658 13.1284 5.21117 13.0641 5.14798C12.9998 5.08479 12.9629 4.99887 12.9613 4.90873V4.70937L11.1979 6.4728C11.1333 6.53645 11.0462 6.57214 10.9556 6.57214C10.8649 6.57214 10.7778 6.53645 10.7132 6.4728L10.201 5.96406Z" fill="url(#paint6_linear_14383_26380)"/>
<defs>
<linearGradient id="paint0_linear_14383_26380" x1="4.30188" y1="13.4922" x2="4.30188" y2="17.1846" gradientUnits="userSpaceOnUse">
<stop stop-color="#223CDD"/>
<stop offset="1" stop-color="#6176FF"/>
</linearGradient>
<linearGradient id="paint1_linear_14383_26380" x1="4.29661" y1="17.0703" x2="4.29661" y2="20.6247" gradientUnits="userSpaceOnUse">
<stop stop-color="#223CDD"/>
<stop offset="1" stop-color="#6176FF"/>
</linearGradient>
<linearGradient id="paint2_linear_14383_26380" x1="17.7048" y1="13.5088" x2="17.7048" y2="17.1699" gradientUnits="userSpaceOnUse">
<stop stop-color="#223CDD"/>
<stop offset="1" stop-color="#6176FF"/>
</linearGradient>
<linearGradient id="paint3_linear_14383_26380" x1="11.0017" y1="13.5088" x2="11.0017" y2="17.1699" gradientUnits="userSpaceOnUse">
<stop stop-color="#223CDD"/>
<stop offset="1" stop-color="#6176FF"/>
</linearGradient>
<linearGradient id="paint4_linear_14383_26380" x1="10.9997" y1="17.0703" x2="10.9997" y2="20.6247" gradientUnits="userSpaceOnUse">
<stop stop-color="#223CDD"/>
<stop offset="1" stop-color="#6176FF"/>
</linearGradient>
<linearGradient id="paint5_linear_14383_26380" x1="17.7029" y1="17.0703" x2="17.7029" y2="20.6247" gradientUnits="userSpaceOnUse">
<stop stop-color="#223CDD"/>
<stop offset="1" stop-color="#6176FF"/>
</linearGradient>
<linearGradient id="paint6_linear_14383_26380" x1="11.002" y1="1.375" x2="11.002" y2="12.7188" gradientUnits="userSpaceOnUse">
<stop stop-color="#223CDD"/>
<stop offset="1" stop-color="#6176FF"/>
</linearGradient>
</defs>
</svg>
