<svg width="22" height="22" viewBox="0 0 22 22" fill="none" xmlns="http://www.w3.org/2000/svg">
<path d="M3.28778 4.63306C3.33293 4.63306 3.37764 4.62415 3.41936 4.60687C3.46107 4.58958 3.49897 4.56424 3.53089 4.5323C3.56281 4.50037 3.58813 4.46246 3.6054 4.42073C3.62266 4.37901 3.63154 4.3343 3.63153 4.28914L3.63086 2.42353C3.63135 2.3279 3.66957 2.23633 3.73721 2.16872C3.80485 2.10112 3.89643 2.06294 3.99206 2.0625H5.85819C5.94936 2.0625 6.0368 2.02628 6.10126 1.96182C6.16573 1.89735 6.20194 1.80992 6.20194 1.71875C6.20194 1.62758 6.16573 1.54015 6.10126 1.47568C6.0368 1.41122 5.94936 1.375 5.85819 1.375H3.99206C3.85432 1.375 3.71792 1.40214 3.59066 1.45486C3.46341 1.50758 3.34778 1.58486 3.2504 1.68228C3.15301 1.77969 3.07577 1.89534 3.02309 2.02262C2.97041 2.14989 2.94331 2.2863 2.94336 2.42404L2.94403 4.28949C2.94408 4.38063 2.98031 4.46802 3.04477 4.53244C3.10924 4.59687 3.19664 4.63306 3.28778 4.63306Z" fill="url(#paint0_linear_14383_26351)"/>
<path d="M2.94531 9.43085V11.2965C2.94561 11.5745 3.05619 11.8411 3.25279 12.0377C3.4494 12.2343 3.71597 12.3449 3.99402 12.3452H5.85948C5.94948 12.3434 6.03521 12.3064 6.09825 12.2422C6.16128 12.1779 6.19659 12.0915 6.19659 12.0014C6.19659 11.9114 6.16128 11.825 6.09825 11.7607C6.03521 11.6964 5.94948 11.6594 5.85948 11.6577H3.99402C3.89825 11.6576 3.80645 11.6195 3.73873 11.5518C3.67101 11.484 3.63292 11.3922 3.63281 11.2965V9.43087C3.63106 9.34087 3.59408 9.25514 3.5298 9.1921C3.46553 9.12906 3.3791 9.09375 3.28907 9.09375C3.19905 9.09375 3.11261 9.12905 3.04834 9.19209C2.98406 9.25512 2.94707 9.34085 2.94531 9.43085Z" fill="url(#paint1_linear_14383_26351)"/>
<path d="M16.1406 2.0625H18.0071C18.0545 2.06245 18.1015 2.07176 18.1454 2.08991C18.1892 2.10805 18.229 2.13468 18.2626 2.16825C18.2961 2.20183 18.3227 2.24169 18.3407 2.28556C18.3588 2.32942 18.3681 2.37643 18.368 2.42387L18.3676 4.28932C18.3676 4.38049 18.4038 4.46793 18.4683 4.53239C18.5328 4.59686 18.6202 4.63307 18.7114 4.63307C18.8025 4.63307 18.89 4.59686 18.9544 4.53239C19.0189 4.46793 19.0551 4.38049 19.0551 4.28932L19.0555 2.42421C19.0556 2.28647 19.0285 2.15006 18.9759 2.02277C18.9232 1.89548 18.846 1.77981 18.7487 1.68238C18.6513 1.58494 18.5357 1.50764 18.4085 1.4549C18.2812 1.40216 18.1448 1.37501 18.0071 1.375H16.1406C16.0495 1.375 15.962 1.41122 15.8976 1.47568C15.8331 1.54015 15.7969 1.62758 15.7969 1.71875C15.7969 1.80992 15.8331 1.89735 15.8976 1.96182C15.962 2.02628 16.0495 2.0625 16.1406 2.0625Z" fill="url(#paint2_linear_14383_26351)"/>
<path d="M18.7132 9.08691C18.6221 9.08691 18.5347 9.12311 18.4702 9.18754C18.4057 9.25197 18.3695 9.33936 18.3695 9.4305L18.3688 11.2966C18.3686 11.3923 18.3305 11.4841 18.2628 11.5517C18.1951 11.6194 18.1033 11.6574 18.0076 11.6575H16.1418C16.0518 11.6592 15.9661 11.6962 15.903 11.7605C15.84 11.8248 15.8047 11.9112 15.8047 12.0012C15.8047 12.0913 15.84 12.1777 15.903 12.242C15.9661 12.3062 16.0518 12.3432 16.1418 12.345H18.0076C18.2855 12.3447 18.5521 12.2343 18.7487 12.0377C18.9453 11.8412 19.0559 11.5748 19.0563 11.2968L19.057 9.43083C19.057 9.38568 19.0481 9.34096 19.0308 9.29924C19.0136 9.25751 18.9882 9.2196 18.9563 9.18766C18.9244 9.15573 18.8865 9.13039 18.8448 9.11311C18.8031 9.09582 18.7584 9.08692 18.7132 9.08691Z" fill="url(#paint3_linear_14383_26351)"/>
<path d="M16.9122 13.6086L12.99 12.2989C12.9522 12.2886 12.9178 12.2748 12.8799 12.2645C17.419 10.2024 16.0548 3.42797 10.9997 3.34766C9.93134 3.34733 8.89537 3.71439 8.06554 4.38727C7.23571 5.06015 6.66251 5.99791 6.44207 7.04328C6.22164 8.08864 6.36737 9.17801 6.85484 10.1287C7.34231 11.0793 8.14186 11.8334 9.11938 12.2645C9.08155 12.2748 9.04719 12.2886 9.00938 12.2989L5.08719 13.6086C4.29714 13.8707 3.60982 14.3752 3.12291 15.0503C2.63601 15.7254 2.37431 16.5368 2.375 17.3692V19.2461C2.37555 19.6115 2.52095 19.9618 2.77934 20.2202C3.03773 20.4786 3.38802 20.624 3.75344 20.6245H18.2459C18.6114 20.624 18.9617 20.4786 19.22 20.2202C19.4784 19.9618 19.6238 19.6115 19.6244 19.2461V17.3692C19.6251 16.5368 19.3634 15.7254 18.8765 15.0503C18.3896 14.3752 17.7022 13.8707 16.9122 13.6086Z" fill="url(#paint4_linear_14383_26351)"/>
<defs>
<linearGradient id="paint0_linear_14383_26351" x1="4.57265" y1="1.375" x2="4.57265" y2="4.63306" gradientUnits="userSpaceOnUse">
<stop stop-color="#223CDD"/>
<stop offset="1" stop-color="#6176FF"/>
</linearGradient>
<linearGradient id="paint1_linear_14383_26351" x1="4.57095" y1="9.09375" x2="4.57095" y2="12.3452" gradientUnits="userSpaceOnUse">
<stop stop-color="#223CDD"/>
<stop offset="1" stop-color="#6176FF"/>
</linearGradient>
<linearGradient id="paint2_linear_14383_26351" x1="17.4262" y1="1.375" x2="17.4262" y2="4.63307" gradientUnits="userSpaceOnUse">
<stop stop-color="#223CDD"/>
<stop offset="1" stop-color="#6176FF"/>
</linearGradient>
<linearGradient id="paint3_linear_14383_26351" x1="17.4308" y1="9.08691" x2="17.4308" y2="12.345" gradientUnits="userSpaceOnUse">
<stop stop-color="#223CDD"/>
<stop offset="1" stop-color="#6176FF"/>
</linearGradient>
<linearGradient id="paint4_linear_14383_26351" x1="10.9997" y1="3.34766" x2="10.9997" y2="20.6245" gradientUnits="userSpaceOnUse">
<stop stop-color="#223CDD"/>
<stop offset="1" stop-color="#6176FF"/>
</linearGradient>
</defs>
</svg>
