<svg width="22" height="22" viewBox="0 0 22 22" fill="none" xmlns="http://www.w3.org/2000/svg">
<g clip-path="url(#clip0_14358_25919)">
<path fill-rule="evenodd" clip-rule="evenodd" d="M16.639 6.07008C16.5397 6.07008 16.4504 6.00047 16.4293 5.89949C15.9777 3.74719 14.2955 2.06496 12.1436 1.61379C12.0272 1.5893 11.9528 1.47543 11.9773 1.35941C12.0018 1.2434 12.1153 1.16863 12.2317 1.19312C14.5507 1.67953 16.3636 3.49195 16.8496 5.81098C16.874 5.92742 16.7997 6.04129 16.6837 6.06535C16.6687 6.06879 16.6536 6.07008 16.639 6.07008Z" fill="url(#paint0_linear_14358_25919)"/>
<path fill-rule="evenodd" clip-rule="evenodd" d="M16.2498 1.61816H12.1884C12.0698 1.61816 11.9736 1.52234 11.9736 1.40332C11.9736 1.28473 12.0698 1.18848 12.1884 1.18848H16.2498C16.3684 1.18848 16.4647 1.28473 16.4647 1.40332C16.4647 1.52234 16.3684 1.61816 16.2498 1.61816ZM9.81141 1.61816H5.75C5.63141 1.61816 5.53516 1.52234 5.53516 1.40332C5.53516 1.28473 5.63141 1.18848 5.75 1.18848H9.81141C9.93 1.18848 10.0262 1.28473 10.0262 1.40332C10.0262 1.52234 9.93 1.61816 9.81141 1.61816Z" fill="url(#paint1_linear_14358_25919)"/>
<path fill-rule="evenodd" clip-rule="evenodd" d="M17.9517 8.44777H15.5742C15.4556 8.44777 15.3594 8.35152 15.3594 8.23293V5.85547C15.3594 5.73687 15.4556 5.64062 15.5742 5.64062H17.9517C18.0703 5.64062 18.1665 5.73687 18.1665 5.85547V8.23293C18.1665 8.35152 18.0703 8.44777 17.9517 8.44777Z" fill="url(#paint2_linear_14358_25919)"/>
<path fill-rule="evenodd" clip-rule="evenodd" d="M12.1876 2.80715H9.81055C9.69195 2.80715 9.5957 2.7109 9.5957 2.5923V0.214844C9.5957 0.09625 9.69195 0 9.81055 0H12.1876C12.3066 0 12.4024 0.09625 12.4024 0.214844V2.5923C12.4024 2.7109 12.3066 2.80715 12.1876 2.80715Z" fill="url(#paint3_linear_14358_25919)"/>
<path fill-rule="evenodd" clip-rule="evenodd" d="M5.35974 6.06995C5.34514 6.06995 5.3301 6.06866 5.31549 6.06566C5.19904 6.04116 5.12471 5.9273 5.1492 5.81128C5.63517 3.49183 7.44803 1.67941 9.76705 1.193C9.88349 1.16894 9.99736 1.24327 10.0214 1.35929C10.0459 1.4753 9.97158 1.58917 9.85514 1.61366C7.70326 2.06484 6.02103 3.74706 5.56986 5.89937C5.54838 6.00034 5.459 6.06995 5.35974 6.06995Z" fill="url(#paint4_linear_14358_25919)"/>
<path fill-rule="evenodd" clip-rule="evenodd" d="M6.42434 8.44777H4.04688C3.92828 8.44777 3.83203 8.35152 3.83203 8.23293V5.85547C3.83203 5.73687 3.92828 5.64062 4.04688 5.64062H6.42434C6.54293 5.64062 6.63918 5.73687 6.63918 5.85547V8.23293C6.63918 8.35152 6.54293 8.44777 6.42434 8.44777Z" fill="url(#paint5_linear_14358_25919)"/>
<path fill-rule="evenodd" clip-rule="evenodd" d="M18.6275 2.80715H16.25C16.1314 2.80715 16.0352 2.7109 16.0352 2.5923V0.214844C16.0352 0.09625 16.1314 0 16.25 0H18.6275C18.7461 0 18.8423 0.09625 18.8423 0.214844V2.5923C18.8423 2.7109 18.7461 2.80715 18.6275 2.80715Z" fill="url(#paint6_linear_14358_25919)"/>
<path fill-rule="evenodd" clip-rule="evenodd" d="M5.74856 2.80715H3.37109C3.2525 2.80715 3.15625 2.7109 3.15625 2.5923V0.214844C3.15625 0.09625 3.2525 0 3.37109 0H5.74856C5.86715 0 5.9634 0.09625 5.9634 0.214844V2.5923C5.9634 2.7109 5.86715 2.80715 5.74856 2.80715Z" fill="url(#paint7_linear_14358_25919)"/>
<path fill-rule="evenodd" clip-rule="evenodd" d="M12.2249 21.9989H9.77355C9.67 21.9989 9.58105 21.925 9.56215 21.8232L9.08305 19.2321C8.35988 19.0491 7.6698 18.7625 7.02656 18.3796L4.85492 19.8732C4.76941 19.9321 4.65426 19.9214 4.58121 19.8483L2.84785 18.1145C2.77438 18.0415 2.76406 17.9263 2.8225 17.8408L4.31609 15.6696C3.93324 15.0264 3.64664 14.3359 3.46316 13.6127L0.872578 13.1336C0.770742 13.1147 0.697266 13.0262 0.697266 12.9222V11.6963C0.697266 11.5777 0.793086 11.4814 0.912109 11.4814H5.52609C5.52437 11.6086 5.52352 11.6851 5.52352 11.6963C5.52352 14.7157 7.98004 17.1727 10.9995 17.1727C14.0189 17.1727 16.4754 14.7157 16.4754 11.6963C16.4754 11.6795 16.4732 11.6018 16.4698 11.4814H21.0872C21.2058 11.4814 21.3021 11.5777 21.3021 11.6963V12.9222C21.3021 13.0257 21.2282 13.1147 21.1259 13.1336L18.5353 13.6127C18.3518 14.3354 18.0657 15.0259 17.6824 15.6692L19.176 17.8408C19.2348 17.9263 19.2241 18.0415 19.1511 18.1145L17.4177 19.8483C17.3442 19.9214 17.2291 19.9321 17.144 19.8732L14.9723 18.3796C14.3295 18.7629 13.639 19.0491 12.9159 19.2326L12.4363 21.8232C12.4174 21.925 12.3289 21.9989 12.2249 21.9989ZM5.95062 11.4814H7.77551L9.05727 13.3618V15.5596C9.05727 15.9154 9.34602 16.2041 9.7018 16.2041H12.2971C12.6533 16.2041 12.9416 15.9154 12.9416 15.5596V13.3618L14.2234 11.4814H16.0513C16.0474 11.6018 16.0457 11.6795 16.0457 11.6963C16.0457 14.4789 13.7817 16.743 10.9995 16.743C8.21723 16.743 5.9532 14.4789 5.9532 11.6963C5.9532 11.6851 5.95234 11.6086 5.95062 11.4814Z" fill="url(#paint8_linear_14358_25919)"/>
<path fill-rule="evenodd" clip-rule="evenodd" d="M9.18201 12.7824L7.43404 10.218C7.42502 10.206 7.41771 10.1927 7.41127 10.1793V10.1785L7.40912 10.1733L7.4074 10.1695L7.40697 10.1686L7.40525 10.1634L7.40396 10.16L7.40353 10.1587L7.40224 10.1553L7.40181 10.1536L7.40095 10.1501L7.40052 10.1484L7.39923 10.145L7.3988 10.1432C7.39666 10.1334 7.39451 10.123 7.39365 10.1123L7.39322 10.1097V10.1071C7.39064 10.0736 7.3958 10.0393 7.40955 10.007V10.0062L7.4117 10.0019V10.0014L7.41384 9.99715V9.99672L7.41642 9.99242L7.41857 9.9877L7.419 9.98727L7.42115 9.98297L7.42158 9.98254L7.42416 9.97867L7.42459 9.97781L7.42502 9.97695L10.7847 4.53711V10.0908C10.7847 10.2094 10.881 10.3052 10.9996 10.3052C11.1182 10.3052 11.2144 10.2094 11.2144 10.0908V4.53711L14.572 9.97352C14.5767 9.98125 14.5815 9.98898 14.5853 9.99715L14.5896 10.007L14.5913 10.0113L14.5918 10.0118L14.5935 10.0161V10.0169L14.5952 10.0208V10.0221L14.5965 10.0259L14.5969 10.0272L14.5982 10.0307L14.5986 10.032L14.5999 10.0371L14.6008 10.0405L14.6012 10.0423L14.6021 10.0457V10.0474L14.6029 10.0509L14.6034 10.0526L14.6038 10.056L14.6042 10.0577L14.6047 10.0607V10.0629L14.6051 10.0659L14.6055 10.068L14.606 10.0711V10.0732L14.6064 10.0762V10.0788V10.0839L14.6068 10.0865V10.0891C14.6068 10.1243 14.5986 10.16 14.5806 10.1931L14.578 10.1978L14.5754 10.2021V10.2025L14.5729 10.2064L14.5724 10.2073L14.5699 10.2107L14.5694 10.2116L14.5669 10.215L12.8172 12.782C12.6999 12.6225 12.5108 12.5186 12.2972 12.5186H9.70193C9.48837 12.5186 9.29931 12.6225 9.18201 12.7824Z" fill="url(#paint9_linear_14358_25919)"/>
<path fill-rule="evenodd" clip-rule="evenodd" d="M12.2965 15.7747H9.70117C9.58258 15.7747 9.48633 15.6785 9.48633 15.5599V13.1631C9.48633 13.0445 9.58258 12.9482 9.70117 12.9482H12.2965C12.4155 12.9482 12.5113 13.0445 12.5113 13.1631V15.5599C12.5113 15.6785 12.4155 15.7747 12.2965 15.7747Z" fill="url(#paint10_linear_14358_25919)"/>
</g>
<defs>
<linearGradient id="paint0_linear_14358_25919" x1="14.4134" y1="1.18848" x2="14.4134" y2="6.07008" gradientUnits="userSpaceOnUse">
<stop stop-color="#223CDD"/>
<stop offset="1" stop-color="#6176FF"/>
</linearGradient>
<linearGradient id="paint1_linear_14358_25919" x1="10.9999" y1="1.18848" x2="10.9999" y2="1.61816" gradientUnits="userSpaceOnUse">
<stop stop-color="#223CDD"/>
<stop offset="1" stop-color="#6176FF"/>
</linearGradient>
<linearGradient id="paint2_linear_14358_25919" x1="16.7629" y1="5.64062" x2="16.7629" y2="8.44777" gradientUnits="userSpaceOnUse">
<stop stop-color="#223CDD"/>
<stop offset="1" stop-color="#6176FF"/>
</linearGradient>
<linearGradient id="paint3_linear_14358_25919" x1="10.9991" y1="0" x2="10.9991" y2="2.80715" gradientUnits="userSpaceOnUse">
<stop stop-color="#223CDD"/>
<stop offset="1" stop-color="#6176FF"/>
</linearGradient>
<linearGradient id="paint4_linear_14358_25919" x1="7.58531" y1="1.18848" x2="7.58531" y2="6.06995" gradientUnits="userSpaceOnUse">
<stop stop-color="#223CDD"/>
<stop offset="1" stop-color="#6176FF"/>
</linearGradient>
<linearGradient id="paint5_linear_14358_25919" x1="5.23561" y1="5.64062" x2="5.23561" y2="8.44777" gradientUnits="userSpaceOnUse">
<stop stop-color="#223CDD"/>
<stop offset="1" stop-color="#6176FF"/>
</linearGradient>
<linearGradient id="paint6_linear_14358_25919" x1="17.4387" y1="0" x2="17.4387" y2="2.80715" gradientUnits="userSpaceOnUse">
<stop stop-color="#223CDD"/>
<stop offset="1" stop-color="#6176FF"/>
</linearGradient>
<linearGradient id="paint7_linear_14358_25919" x1="4.55982" y1="0" x2="4.55982" y2="2.80715" gradientUnits="userSpaceOnUse">
<stop stop-color="#223CDD"/>
<stop offset="1" stop-color="#6176FF"/>
</linearGradient>
<linearGradient id="paint8_linear_14358_25919" x1="10.9997" y1="11.4814" x2="10.9997" y2="21.9989" gradientUnits="userSpaceOnUse">
<stop stop-color="#223CDD"/>
<stop offset="1" stop-color="#6176FF"/>
</linearGradient>
<linearGradient id="paint9_linear_14358_25919" x1="10.9997" y1="4.53711" x2="10.9997" y2="12.7824" gradientUnits="userSpaceOnUse">
<stop stop-color="#223CDD"/>
<stop offset="1" stop-color="#6176FF"/>
</linearGradient>
<linearGradient id="paint10_linear_14358_25919" x1="10.9988" y1="12.9482" x2="10.9988" y2="15.7747" gradientUnits="userSpaceOnUse">
<stop stop-color="#223CDD"/>
<stop offset="1" stop-color="#6176FF"/>
</linearGradient>
<clipPath id="clip0_14358_25919">
<rect width="22" height="22" fill="white"/>
</clipPath>
</defs>
</svg>
