<svg width="24" height="24" viewBox="0 0 24 24" fill="none" xmlns="http://www.w3.org/2000/svg">
<path d="M21.375 1.5H15.375C15.0769 1.50087 14.7913 1.61968 14.5805 1.83047C14.3697 2.04126 14.2509 2.3269 14.25 2.625V21.375C14.2509 21.6731 14.3697 21.9587 14.5805 22.1695C14.7913 22.3803 15.0769 22.4991 15.375 22.5H21.375C21.6731 22.4991 21.9587 22.3803 22.1695 22.1695C22.3803 21.9587 22.4991 21.6731 22.5 21.375V2.625C22.4991 2.3269 22.3803 2.04126 22.1695 1.83047C21.9587 1.61968 21.6731 1.50087 21.375 1.5ZM20.625 19.875H16.125C16.0255 19.875 15.9302 19.8355 15.8598 19.7652C15.7895 19.6948 15.75 19.5995 15.75 19.5C15.75 19.4005 15.7895 19.3052 15.8598 19.2348C15.9302 19.1645 16.0255 19.125 16.125 19.125H20.625C20.7233 19.1268 20.817 19.167 20.8859 19.2372C20.9548 19.3073 20.9934 19.4017 20.9934 19.5C20.9934 19.5983 20.9548 19.6927 20.8859 19.7628C20.817 19.833 20.7233 19.8732 20.625 19.875ZM20.625 17.625H16.125C16.0255 17.625 15.9302 17.5855 15.8598 17.5152C15.7895 17.4448 15.75 17.3495 15.75 17.25C15.75 17.1505 15.7895 17.0552 15.8598 16.9848C15.9302 16.9145 16.0255 16.875 16.125 16.875H20.625C20.7233 16.8768 20.817 16.917 20.8859 16.9872C20.9548 17.0573 20.9934 17.1517 20.9934 17.25C20.9934 17.3483 20.9548 17.4427 20.8859 17.5128C20.817 17.583 20.7233 17.6232 20.625 17.625ZM20.625 15.375H16.125C16.0255 15.375 15.9302 15.3355 15.8598 15.2652C15.7895 15.1948 15.75 15.0995 15.75 15C15.75 14.9005 15.7895 14.8052 15.8598 14.7348C15.9302 14.6645 16.0255 14.625 16.125 14.625H20.625C20.7233 14.6268 20.817 14.667 20.8859 14.7372C20.9548 14.8073 20.9934 14.9017 20.9934 15C20.9934 15.0983 20.9548 15.1927 20.8859 15.2628C20.817 15.333 20.7233 15.3732 20.625 15.375ZM21 9C20.9997 9.09936 20.9601 9.19458 20.8898 9.26484C20.8196 9.3351 20.7244 9.3747 20.625 9.375H16.125C16.0256 9.3747 15.9304 9.3351 15.8602 9.26484C15.7899 9.19458 15.7503 9.09936 15.75 9V4.5C15.7503 4.40064 15.7899 4.30542 15.8602 4.23516C15.9304 4.1649 16.0256 4.1253 16.125 4.125H20.625C20.7244 4.1253 20.8196 4.1649 20.8898 4.23516C20.9601 4.30542 20.9997 4.40064 21 4.5V9Z" fill="url(#paint0_linear_14384_25805)"/>
<path d="M16.5 4.875H20.25V8.625H16.5V4.875Z" fill="url(#paint1_linear_14384_25805)"/>
<path d="M12.69 17.7413C12.6209 17.6711 12.5271 17.6308 12.4286 17.6292C12.3301 17.6276 12.235 17.6647 12.1636 17.7326C12.0923 17.8005 12.0505 17.8937 12.0472 17.9921C12.044 18.0905 12.0796 18.1863 12.1462 18.2587L12.255 18.375H9.75V16.125H10.125C10.4233 16.1248 10.7093 16.0062 10.9202 15.7952C11.1312 15.5843 11.2498 15.2983 11.25 15V7.5C11.2503 7.40064 11.2899 7.30542 11.3602 7.23516C11.4304 7.1649 11.5256 7.1253 11.625 7.125H12.2213L12.1088 7.23375C12.0409 7.30492 12.0035 7.39982 12.0047 7.49816C12.0058 7.59651 12.0454 7.69051 12.1149 7.76005C12.1845 7.8296 12.2785 7.86918 12.3768 7.87034C12.4752 7.8715 12.5701 7.83414 12.6412 7.76625L13.3912 7.01625C13.4603 6.94654 13.4993 6.85261 13.5 6.75451C13.5007 6.65642 13.463 6.56194 13.395 6.49125L12.6825 5.74125C12.6486 5.70574 12.6079 5.67727 12.563 5.65748C12.518 5.63769 12.4696 5.62697 12.4205 5.62592C12.3713 5.62488 12.3225 5.63353 12.2767 5.65139C12.231 5.66925 12.1892 5.69596 12.1537 5.73C11.94 5.94 12.0487 6.20625 12.2512 6.375H11.625C11.3269 6.37587 11.0413 6.49468 10.8305 6.70547C10.6197 6.91626 10.5009 7.2019 10.5 7.5V15C10.4997 15.0994 10.4601 15.1946 10.3898 15.2648C10.3196 15.3351 10.2244 15.3747 10.125 15.375H9.75V2.625C9.74913 2.3269 9.63033 2.04126 9.41953 1.83047C9.20874 1.61968 8.9231 1.50087 8.625 1.5H2.625C2.3269 1.50087 2.04126 1.61968 1.83047 1.83047C1.61968 2.04126 1.50087 2.3269 1.5 2.625V21.375C1.50087 21.6731 1.61968 21.9587 1.83047 22.1695C2.04126 22.3803 2.3269 22.4991 2.625 22.5H8.625C8.9231 22.4991 9.20874 22.3803 9.41953 22.1695C9.63032 21.9587 9.74913 21.6731 9.75 21.375V19.125H12.225C12.1705 19.1554 12.1235 19.1977 12.0875 19.2486C12.0515 19.2996 12.0274 19.358 12.017 19.4196C12.0065 19.4811 12.01 19.5442 12.0272 19.6042C12.0444 19.6642 12.0748 19.7196 12.1163 19.7663C12.1509 19.801 12.1921 19.8286 12.2375 19.8474C12.2829 19.8663 12.3315 19.8759 12.3806 19.8759C12.4297 19.8759 12.4784 19.8663 12.5237 19.8474C12.5691 19.8286 12.6103 19.801 12.645 19.7663L13.395 19.0163C13.4645 18.947 13.5042 18.8534 13.5056 18.7553C13.507 18.6572 13.47 18.5624 13.4025 18.4913L12.69 17.7413ZM3.375 4.125H7.875C7.97306 4.1271 8.0664 4.16754 8.13501 4.23763C8.20362 4.30773 8.24204 4.40191 8.24204 4.5C8.24204 4.59809 8.20362 4.69227 8.13501 4.76237C8.0664 4.83246 7.97306 4.8729 7.875 4.875H3.375C3.27554 4.875 3.18016 4.83549 3.10984 4.76516C3.03951 4.69484 3 4.59946 3 4.5C3 4.40054 3.03951 4.30516 3.10984 4.23484C3.18016 4.16451 3.27554 4.125 3.375 4.125ZM3.375 6.375H7.875C7.97306 6.3771 8.0664 6.41754 8.13501 6.48763C8.20362 6.55773 8.24204 6.65191 8.24204 6.75C8.24204 6.84809 8.20362 6.94227 8.13501 7.01237C8.0664 7.08246 7.97306 7.1229 7.875 7.125H3.375C3.27554 7.125 3.18016 7.08549 3.10984 7.01517C3.03951 6.94484 3 6.84946 3 6.75C3 6.65054 3.03951 6.55516 3.10984 6.48483C3.18016 6.41451 3.27554 6.375 3.375 6.375ZM3.375 8.625H7.875C7.97306 8.6271 8.0664 8.66754 8.13501 8.73763C8.20362 8.80773 8.24204 8.90191 8.24204 9C8.24204 9.09809 8.20362 9.19227 8.13501 9.26237C8.0664 9.33246 7.97306 9.3729 7.875 9.375H3.375C3.27554 9.375 3.18016 9.33549 3.10984 9.26517C3.03951 9.19484 3 9.09946 3 9C3 8.90054 3.03951 8.80516 3.10984 8.73483C3.18016 8.66451 3.27554 8.625 3.375 8.625ZM8.25 19.5C8.2497 19.5994 8.2101 19.6946 8.13984 19.7648C8.06958 19.8351 7.97436 19.8747 7.875 19.875H3.375C3.27564 19.8747 3.18042 19.8351 3.11016 19.7648C3.0399 19.6946 3.0003 19.5994 3 19.5V18C3.0003 17.9006 3.0399 17.8054 3.11016 17.7352C3.18042 17.6649 3.27564 17.6253 3.375 17.625H7.875C7.97436 17.6253 8.06958 17.6649 8.13984 17.7352C8.2101 17.8054 8.2497 17.9006 8.25 18V19.5ZM8.25 16.5C8.2497 16.5994 8.2101 16.6946 8.13984 16.7648C8.06958 16.8351 7.97436 16.8747 7.875 16.875H3.375C3.27564 16.8747 3.18042 16.8351 3.11016 16.7648C3.0399 16.6946 3.0003 16.5994 3 16.5V15C3.0003 14.9006 3.0399 14.8054 3.11016 14.7352C3.18042 14.6649 3.27564 14.6253 3.375 14.625H7.875C7.97436 14.6253 8.06958 14.6649 8.13984 14.7352C8.2101 14.8054 8.2497 14.9006 8.25 15V16.5Z" fill="url(#paint2_linear_14384_25805)"/>
<path d="M3.75 15.375H7.5V16.125H3.75V15.375Z" fill="url(#paint3_linear_14384_25805)"/>
<path d="M3.75 18.375H7.5V19.125H3.75V18.375Z" fill="url(#paint4_linear_14384_25805)"/>
<defs>
<linearGradient id="paint0_linear_14384_25805" x1="18.375" y1="1.5" x2="18.375" y2="22.5" gradientUnits="userSpaceOnUse">
<stop stop-color="#223CDD"/>
<stop offset="1" stop-color="#6176FF"/>
</linearGradient>
<linearGradient id="paint1_linear_14384_25805" x1="18.375" y1="4.875" x2="18.375" y2="8.625" gradientUnits="userSpaceOnUse">
<stop stop-color="#223CDD"/>
<stop offset="1" stop-color="#6176FF"/>
</linearGradient>
<linearGradient id="paint2_linear_14384_25805" x1="7.50283" y1="1.5" x2="7.50283" y2="22.5" gradientUnits="userSpaceOnUse">
<stop stop-color="#223CDD"/>
<stop offset="1" stop-color="#6176FF"/>
</linearGradient>
<linearGradient id="paint3_linear_14384_25805" x1="5.625" y1="15.375" x2="5.625" y2="16.125" gradientUnits="userSpaceOnUse">
<stop stop-color="#223CDD"/>
<stop offset="1" stop-color="#6176FF"/>
</linearGradient>
<linearGradient id="paint4_linear_14384_25805" x1="5.625" y1="18.375" x2="5.625" y2="19.125" gradientUnits="userSpaceOnUse">
<stop stop-color="#223CDD"/>
<stop offset="1" stop-color="#6176FF"/>
</linearGradient>
</defs>
</svg>
