<svg width="24" height="24" viewBox="0 0 24 24" fill="none" xmlns="http://www.w3.org/2000/svg">
<g clip-path="url(#clip0_14384_25870)">
<path d="M12 0.75C9.77497 0.75 7.59989 1.4098 5.74984 2.64597C3.89979 3.88213 2.45785 5.63914 1.60636 7.69481C0.754875 9.75048 0.532087 12.0125 0.966171 14.1948C1.40025 16.3771 2.47171 18.3816 4.04505 19.955C5.61839 21.5283 7.62295 22.5998 9.80524 23.0338C11.9875 23.4679 14.2495 23.2451 16.3052 22.3936C18.3609 21.5422 20.1179 20.1002 21.354 18.2502C22.5902 16.4001 23.25 14.225 23.25 12C23.2464 9.01743 22.0599 6.15806 19.9509 4.04906C17.8419 1.94006 14.9826 0.753633 12 0.75ZM11.3963 18.9637C11.3963 19.0342 11.3824 19.1039 11.3555 19.169C11.3285 19.234 11.289 19.2932 11.2392 19.343C11.1894 19.3928 11.1303 19.4323 11.0652 19.4592C11.0002 19.4862 10.9304 19.5 10.86 19.5H8.1825C8.04047 19.4994 7.90442 19.4427 7.80399 19.3423C7.70355 19.2418 7.64686 19.1058 7.64625 18.9637V17.625H8.45251C8.52249 17.6233 8.58904 17.5943 8.63794 17.5442C8.68684 17.4941 8.71421 17.4269 8.71421 17.3569C8.71421 17.2869 8.68684 17.2196 8.63794 17.1695C8.58904 17.1194 8.52249 17.0904 8.45251 17.0887H7.64625V15.4838H8.45251C8.52249 15.4821 8.58904 15.4531 8.63794 15.403C8.68684 15.3529 8.71421 15.2856 8.71421 15.2156C8.71421 15.1456 8.68684 15.0784 8.63794 15.0283C8.58904 14.9782 8.52249 14.9492 8.45251 14.9475H7.64625V13.3387H8.45251C8.52246 13.337 8.58897 13.308 8.63784 13.2579C8.68671 13.2078 8.71406 13.1406 8.71406 13.0706C8.71406 13.0006 8.68671 12.9334 8.63784 12.8833C8.58897 12.8332 8.52246 12.8042 8.45251 12.8025H7.64625V11.1975H8.45251C8.52246 11.1958 8.58897 11.1668 8.63784 11.1167C8.68671 11.0666 8.71406 10.9994 8.71406 10.9294C8.71406 10.8594 8.68671 10.7922 8.63784 10.7421C8.58897 10.692 8.52246 10.663 8.45251 10.6613H7.64625V9.0525H8.45251C8.52304 9.05223 8.5906 9.02409 8.64047 8.97422C8.69035 8.92434 8.71848 8.85678 8.71875 8.78625C8.71862 8.71533 8.69065 8.64729 8.64085 8.5968C8.59105 8.5463 8.52342 8.51737 8.45251 8.51625H7.64625V6.91125H8.45251C8.52362 6.91125 8.59181 6.883 8.6421 6.83272C8.69238 6.78243 8.72063 6.71424 8.72063 6.64313C8.72063 6.57201 8.69238 6.50382 8.6421 6.45353C8.59181 6.40325 8.52362 6.375 8.45251 6.375H7.64625V5.03625C7.64686 4.89421 7.70355 4.75817 7.80399 4.65773C7.90442 4.5573 8.04047 4.5006 8.1825 4.5H10.86C10.9304 4.49999 11.0002 4.51385 11.0652 4.54079C11.1303 4.56773 11.1894 4.60723 11.2392 4.65703C11.289 4.70683 11.3285 4.76595 11.3555 4.83102C11.3824 4.89609 11.3963 4.96582 11.3963 5.03625V18.9637ZM16.3538 16.8225C16.3532 16.8643 16.3429 16.9054 16.3238 16.9425L15.1163 19.3538C15.0937 19.3974 15.0595 19.434 15.0175 19.4595C14.9755 19.4851 14.9273 19.4986 14.8781 19.4986C14.829 19.4986 14.7808 19.4851 14.7388 19.4595C14.6968 19.434 14.6626 19.3974 14.64 19.3538L13.4363 16.9425C13.4171 16.9054 13.4069 16.8643 13.4063 16.8225V6.91125H16.3538V16.8225ZM16.3538 6.375H13.4063V5.97375C13.41 5.58533 13.5669 5.21408 13.8429 4.94073C14.1188 4.66738 14.4916 4.51404 14.88 4.51404C15.2684 4.51404 15.6412 4.66738 15.9172 4.94073C16.1931 5.21408 16.35 5.58533 16.3538 5.97375V6.375Z" fill="url(#paint0_linear_14384_25870)"/>
</g>
<defs>
<linearGradient id="paint0_linear_14384_25870" x1="12" y1="0.75" x2="12" y2="23.25" gradientUnits="userSpaceOnUse">
<stop stop-color="#223CDD"/>
<stop offset="1" stop-color="#6176FF"/>
</linearGradient>
<clipPath id="clip0_14384_25870">
<rect width="24" height="24" fill="white"/>
</clipPath>
</defs>
</svg>
