<svg width="22" height="22" viewBox="0 0 22 22" fill="none" xmlns="http://www.w3.org/2000/svg">
<path d="M19.5938 2.0625H2.40625C2.13299 2.0633 1.87115 2.1722 1.67793 2.36543C1.4847 2.55865 1.3758 2.82049 1.375 3.09375V4.8125H9.30187C9.46187 4.81203 9.61956 4.77437 9.7625 4.7025L11.9316 3.61969C12.1693 3.49976 12.4319 3.43736 12.6981 3.4375H20.625V3.09375C20.6242 2.82049 20.5153 2.55865 20.3221 2.36543C20.1288 2.1722 19.867 2.0633 19.5938 2.0625ZM3.10063 3.78125C3.00946 3.78125 2.92202 3.74503 2.85756 3.68056C2.7931 3.61609 2.75688 3.52866 2.75689 3.43749C2.75689 3.34632 2.79311 3.25889 2.85757 3.19442C2.92204 3.12996 3.00948 3.09375 3.10065 3.09375C3.19181 3.09375 3.27925 3.12997 3.34371 3.19444C3.40817 3.25891 3.44439 3.34634 3.44439 3.43751C3.44438 3.52868 3.40816 3.61611 3.3437 3.68058C3.27923 3.74504 3.19179 3.78125 3.10063 3.78125ZM4.47563 3.78125C4.38446 3.78125 4.29702 3.74503 4.23256 3.68056C4.1681 3.61609 4.13188 3.52866 4.13189 3.43749C4.13189 3.34632 4.16811 3.25889 4.23257 3.19442C4.29704 3.12996 4.38448 3.09375 4.47565 3.09375C4.56681 3.09375 4.65425 3.12997 4.71871 3.19444C4.78317 3.25891 4.81939 3.34634 4.81939 3.43751C4.81938 3.52868 4.78316 3.61611 4.7187 3.68058C4.65423 3.74504 4.56679 3.78125 4.47563 3.78125ZM5.85063 3.78125C5.75946 3.78125 5.67202 3.74503 5.60756 3.68056C5.5431 3.61609 5.50688 3.52866 5.50689 3.43749C5.50689 3.34632 5.54311 3.25889 5.60757 3.19442C5.67204 3.12996 5.75948 3.09375 5.85065 3.09375C5.89579 3.09375 5.94049 3.10264 5.98219 3.11992C6.0239 3.1372 6.06179 3.16252 6.09371 3.19444C6.12563 3.22636 6.15095 3.26426 6.16822 3.30596C6.1855 3.34767 6.19439 3.39237 6.19439 3.43751C6.19438 3.48265 6.18549 3.52735 6.16821 3.56906C6.15094 3.61076 6.12562 3.64866 6.0937 3.68058C6.06177 3.71249 6.02388 3.73781 5.98217 3.75509C5.94047 3.77236 5.89577 3.78125 5.85063 3.78125Z" fill="url(#paint0_linear_14384_25754)"/>
<path d="M15.7952 9.96875C16.1111 9.97034 16.414 10.0952 16.6393 10.3166C16.8647 10.5381 16.9947 10.8388 17.0017 11.1547L17.012 11.6875H17.8749C18.1484 11.6875 18.4107 11.5789 18.6041 11.3855C18.7975 11.1921 18.9061 10.9298 18.9061 10.6562C18.9061 10.3827 18.7975 10.1204 18.6041 9.92705C18.4107 9.73365 18.1484 9.625 17.8749 9.625H13.7499C13.4785 9.62813 13.2192 9.73815 13.0284 9.93121C12.8375 10.1243 12.7305 10.3848 12.7305 10.6562C12.7305 10.9277 12.8375 11.1882 13.0283 11.3813C13.2192 11.5743 13.4784 11.6844 13.7499 11.6875H14.5852V11.1788C14.5856 10.858 14.7133 10.5505 14.9401 10.3237C15.1669 10.0969 15.4744 9.96922 15.7952 9.96875Z" fill="url(#paint1_linear_14384_25754)"/>
<path d="M18.1332 15.3413H16.7272C16.6374 15.3409 16.5513 15.3054 16.4871 15.2426C16.4229 15.1797 16.3858 15.0943 16.3835 15.0045C16.3674 14.1885 16.3286 11.9122 16.3147 11.1683C16.3104 11.0322 16.2529 10.9032 16.1546 10.809C16.0563 10.7148 15.9251 10.6627 15.7889 10.6641C15.6528 10.6654 15.5226 10.72 15.4262 10.8162C15.3298 10.9123 15.2749 11.0424 15.2732 11.1785V16.6166C15.2716 16.7067 15.2346 16.7926 15.1704 16.8557C15.1061 16.9189 15.0196 16.9543 14.9294 16.9543C14.8393 16.9543 14.7528 16.9189 14.6885 16.8558C14.6242 16.7926 14.5873 16.7068 14.5857 16.6166L14.5857 15.3757C14.3269 15.434 14.0855 15.5529 13.8816 15.7226C13.6776 15.8924 13.5169 16.1081 13.4125 16.352C13.3081 16.596 13.2631 16.8612 13.2813 17.1259C13.2994 17.3907 13.38 17.6473 13.5166 17.8748L14.4001 19.9373H18.9272C19.055 19.3063 19.4121 17.5867 19.5322 16.9776C19.5627 16.7757 19.5494 16.5696 19.4932 16.3733C19.4371 16.1769 19.3393 15.995 19.2066 15.8398C19.0739 15.6846 18.9093 15.5597 18.7241 15.4737C18.5389 15.3877 18.3374 15.3426 18.1332 15.3413Z" fill="url(#paint2_linear_14384_25754)"/>
<path d="M12.2375 4.235L10.0684 5.31781C9.83071 5.43774 9.56814 5.50015 9.30187 5.5H1.375V16.8438C1.3758 17.117 1.48471 17.3788 1.67793 17.5721C1.87115 17.7653 2.13299 17.8742 2.40625 17.875H12.7738C12.6409 17.5475 12.5838 17.1942 12.6068 16.8415C12.6297 16.4889 12.7322 16.1459 12.9064 15.8385C13.0807 15.531 13.3222 15.2669 13.613 15.0659C13.9037 14.865 14.2361 14.7324 14.5854 14.6781L14.5853 12.375H13.75C11.4789 12.3049 11.4784 9.00779 13.75 8.9375H17.875C20.1447 9.00766 20.148 12.3039 17.875 12.375H17.0225L17.0637 14.6541H18.1328C18.4379 14.656 18.739 14.7239 19.0154 14.853C19.2918 14.9822 19.537 15.1696 19.7342 15.4024C19.9314 15.6352 20.0759 15.9079 20.1579 16.2018C20.2398 16.4956 20.2573 16.8038 20.209 17.105L20.075 17.7547C20.241 17.6674 20.3799 17.5363 20.4768 17.3758C20.5738 17.2153 20.625 17.0313 20.625 16.8438V4.125H12.6981C12.5381 4.12547 12.3804 4.16313 12.2375 4.235ZM2.75 6.875C2.75027 6.78392 2.78658 6.69664 2.85098 6.63223C2.91539 6.56783 3.00267 6.53152 3.09375 6.53125H9.96875C10.0598 6.53152 10.1471 6.56783 10.2115 6.63223C10.2759 6.69664 10.3122 6.78392 10.3125 6.875V11C10.3122 11.0911 10.2759 11.1784 10.2115 11.2428C10.1471 11.3072 10.0598 11.3435 9.96875 11.3438H3.09375C3.00267 11.3435 2.91539 11.3072 2.85098 11.2428C2.78658 11.1784 2.75027 11.0911 2.75 11V6.875ZM9.625 15.4688H3.09375C3.0035 15.4673 2.91743 15.4305 2.85411 15.3662C2.79078 15.3019 2.75529 15.2152 2.75529 15.125C2.7553 15.0347 2.79079 14.9481 2.85412 14.8838C2.91745 14.8195 3.00352 14.7826 3.09377 14.7812H9.625C9.71525 14.7826 9.80132 14.8195 9.86465 14.8838C9.92797 14.9481 9.96347 15.0347 9.96347 15.125C9.96347 15.2153 9.92797 15.3019 9.86465 15.3662C9.80132 15.4305 9.71525 15.4674 9.625 15.4688ZM11 13.4062H3.09375C3.0035 13.4048 2.91743 13.368 2.85411 13.3037C2.79078 13.2394 2.75529 13.1527 2.75529 13.0625C2.7553 12.9722 2.79079 12.8856 2.85412 12.8213C2.91745 12.757 3.00352 12.7201 3.09377 12.7188H11C11.0902 12.7201 11.1763 12.757 11.2396 12.8213C11.303 12.8856 11.3385 12.9722 11.3385 13.0625C11.3385 13.1528 11.303 13.2394 11.2396 13.3037C11.1763 13.368 11.0902 13.4049 11 13.4062Z" fill="url(#paint3_linear_14384_25754)"/>
<path d="M9.625 7.21875H3.4375V10.6562H9.625V7.21875Z" fill="url(#paint4_linear_14384_25754)"/>
<defs>
<linearGradient id="paint0_linear_14384_25754" x1="11" y1="2.0625" x2="11" y2="4.8125" gradientUnits="userSpaceOnUse">
<stop stop-color="#223CDD"/>
<stop offset="1" stop-color="#6176FF"/>
</linearGradient>
<linearGradient id="paint1_linear_14384_25754" x1="15.8183" y1="9.625" x2="15.8183" y2="11.6875" gradientUnits="userSpaceOnUse">
<stop stop-color="#223CDD"/>
<stop offset="1" stop-color="#6176FF"/>
</linearGradient>
<linearGradient id="paint2_linear_14384_25754" x1="16.4128" y1="10.6641" x2="16.4128" y2="19.9373" gradientUnits="userSpaceOnUse">
<stop stop-color="#223CDD"/>
<stop offset="1" stop-color="#6176FF"/>
</linearGradient>
<linearGradient id="paint3_linear_14384_25754" x1="11" y1="4.125" x2="11" y2="17.875" gradientUnits="userSpaceOnUse">
<stop stop-color="#223CDD"/>
<stop offset="1" stop-color="#6176FF"/>
</linearGradient>
<linearGradient id="paint4_linear_14384_25754" x1="6.53125" y1="7.21875" x2="6.53125" y2="10.6562" gradientUnits="userSpaceOnUse">
<stop stop-color="#223CDD"/>
<stop offset="1" stop-color="#6176FF"/>
</linearGradient>
</defs>
</svg>
