<svg width="24" height="24" viewBox="0 0 24 24" fill="none" xmlns="http://www.w3.org/2000/svg">
<g clip-path="url(#clip0_14384_25854)">
<path d="M10.2617 13.7392H13.7392V10.2617H10.2617V13.7392ZM12.6513 11.0301C12.6526 10.951 12.6848 10.8756 12.7412 10.82C12.7976 10.7645 12.8735 10.7334 12.9527 10.7334C13.0318 10.7334 13.1077 10.7645 13.1641 10.82C13.2205 10.8756 13.2528 10.951 13.254 11.0301V12.9708C13.2528 13.0499 13.2205 13.1253 13.1641 13.1809C13.1077 13.2364 13.0318 13.2675 12.9527 13.2675C12.8735 13.2675 12.7976 13.2364 12.7412 13.1808C12.6848 13.1253 12.6526 13.0499 12.6513 12.9707V11.0301ZM10.6052 11.5153C10.6054 11.3068 10.6883 11.1068 10.8358 10.9593C10.9832 10.8119 11.1832 10.729 11.3917 10.7288H11.6358C11.8442 10.7295 12.0439 10.8125 12.1912 10.9599C12.3386 11.1073 12.4217 11.3069 12.4223 11.5153V12.9708C12.4212 13.0499 12.389 13.1255 12.3326 13.1811C12.2762 13.2367 12.2002 13.2679 12.121 13.2679C12.0418 13.2679 11.9658 13.2367 11.9094 13.1811C11.853 13.1255 11.8208 13.0499 11.8196 12.9707V12.3018H11.2079V12.9708C11.2067 13.0499 11.1745 13.1254 11.1181 13.1809C11.0617 13.2365 10.9857 13.2676 10.9066 13.2676C10.8274 13.2676 10.7515 13.2365 10.6951 13.1809C10.6387 13.1254 10.6064 13.0499 10.6052 12.9707V11.5153Z" fill="url(#paint0_linear_14384_25854)"/>
<path d="M9.19847 11.1894H9.65951V10.7705H8.64098C8.34976 11.5533 8.34357 12.4137 8.62351 13.2006C8.90344 13.9875 9.45161 14.6506 10.1718 15.0736V14.3414H9.96085C9.881 14.3411 9.80449 14.3093 9.74803 14.2529C9.69156 14.1964 9.65974 14.1199 9.65951 14.04V13.8291H9.42749C9.34847 13.8277 9.27315 13.7954 9.21775 13.739C9.16235 13.6827 9.13131 13.6068 9.13132 13.5278C9.13132 13.4487 9.16237 13.3729 9.21777 13.3165C9.27317 13.2601 9.34849 13.2278 9.42751 13.2264H9.65951V12.8106H8.91521C8.83606 12.8094 8.76057 12.7771 8.70502 12.7207C8.64948 12.6643 8.61834 12.5884 8.61835 12.5092C8.61835 12.4301 8.64949 12.3541 8.70504 12.2977C8.76059 12.2413 8.83609 12.2091 8.91523 12.2079H9.65951V11.7921H9.19847C9.11933 11.7909 9.04383 11.7586 8.98828 11.7022C8.93274 11.6458 8.9016 11.5699 8.9016 11.4907C8.9016 11.4116 8.93274 11.3356 8.98828 11.2792C9.04383 11.2228 9.11933 11.1905 9.19847 11.1894Z" fill="url(#paint1_linear_14384_25854)"/>
<path d="M15.0736 13.8291H14.3413V14.04C14.3411 14.1199 14.3093 14.1964 14.2528 14.2528C14.1964 14.3093 14.1198 14.3411 14.04 14.3414H13.8291V14.5734C13.8277 14.6524 13.7953 14.7277 13.739 14.7831C13.6826 14.8385 13.6067 14.8696 13.5277 14.8696C13.4487 14.8696 13.3728 14.8385 13.3165 14.7831C13.2601 14.7277 13.2277 14.6524 13.2264 14.5734V14.3414H12.8105V15.0857C12.8105 15.1656 12.7788 15.2423 12.7222 15.2988C12.6657 15.3553 12.5891 15.387 12.5092 15.387C12.4292 15.387 12.3526 15.3553 12.2961 15.2988C12.2396 15.2423 12.2078 15.1656 12.2078 15.0857V14.3414H11.792V14.8024C11.7908 14.8816 11.7585 14.9571 11.7022 15.0126C11.6458 15.0681 11.5698 15.0993 11.4906 15.0993C11.4115 15.0993 11.3355 15.0681 11.2791 15.0126C11.2228 14.957 11.1905 14.8815 11.1893 14.8024V14.3414H10.7734V15.3599C11.5565 15.6436 12.4138 15.6461 13.1984 15.3667C13.983 15.0874 14.646 14.5438 15.0736 13.8291Z" fill="url(#paint2_linear_14384_25854)"/>
<path d="M14.8034 12.811H14.3424V13.2269H15.3609C15.5074 12.8345 15.5829 12.4192 15.5839 12.0004C15.5828 11.3801 15.4206 10.7706 15.1132 10.2318C14.8057 9.69302 14.3636 9.24331 13.8301 8.92676V9.65902H14.041C14.1209 9.65926 14.1974 9.69109 14.2538 9.74755C14.3103 9.80401 14.3421 9.88052 14.3424 9.96036V10.1713H14.5744C14.6534 10.1727 14.7287 10.205 14.7841 10.2614C14.8395 10.3177 14.8705 10.3936 14.8705 10.4726C14.8705 10.5517 14.8395 10.6275 14.7841 10.6839C14.7287 10.7403 14.6534 10.7726 14.5744 10.774H14.3424V11.1898H15.0867C15.1658 11.191 15.2413 11.2233 15.2968 11.2797C15.3524 11.3361 15.3835 11.4121 15.3835 11.4912C15.3835 11.5704 15.3524 11.6463 15.2968 11.7027C15.2413 11.7591 15.1658 11.7914 15.0866 11.7925H14.3424V12.2084H14.8034C14.8824 12.2097 14.9578 12.242 15.0132 12.2984C15.0686 12.3548 15.0997 12.4307 15.0997 12.5097C15.0997 12.5888 15.0686 12.6646 15.0132 12.721C14.9578 12.7774 14.8824 12.8097 14.8034 12.811Z" fill="url(#paint3_linear_14384_25854)"/>
<path d="M8.92578 10.1677H9.65802V9.95982C9.65826 9.87997 9.69009 9.80346 9.74655 9.747C9.80301 9.69054 9.87952 9.65872 9.95936 9.65848H10.1703V9.42643C10.1717 9.34742 10.204 9.2721 10.2604 9.21671C10.3168 9.16131 10.3926 9.13027 10.4716 9.13027C10.5507 9.13028 10.6265 9.16132 10.6829 9.21672C10.7393 9.27212 10.7716 9.34744 10.773 9.42646V9.65848H11.1888V8.91417C11.1888 8.83425 11.2206 8.7576 11.2771 8.70109C11.3336 8.64458 11.4103 8.61283 11.4902 8.61283C11.5701 8.61283 11.6468 8.64458 11.7033 8.70109C11.7598 8.7576 11.7915 8.83425 11.7915 8.91417V9.65848H12.2074V9.19744C12.2086 9.1183 12.2408 9.0428 12.2972 8.98725C12.3536 8.9317 12.4296 8.90057 12.5087 8.90057C12.5879 8.90057 12.6638 8.9317 12.7202 8.98725C12.7766 9.0428 12.8089 9.1183 12.8101 9.19744V9.65848H13.2259V8.63995C12.4432 8.35679 11.5864 8.35434 10.802 8.63302C10.0176 8.91169 9.35442 9.45419 8.92578 10.1677Z" fill="url(#paint4_linear_14384_25854)"/>
<path d="M7.8144 12C7.81645 10.9431 8.21787 9.92601 8.9382 9.15259C9.65853 8.37916 10.6446 7.90655 11.6986 7.82946V5.61462C11.699 5.38924 11.6549 5.166 11.5689 4.95768C11.4828 4.74936 11.3566 4.56005 11.1973 4.40056C11.0381 4.24107 10.849 4.11455 10.6408 4.02822C10.4326 3.94189 10.2094 3.89746 9.98403 3.89746C9.75865 3.89746 9.53548 3.94189 9.32728 4.02822C9.11909 4.11455 8.92996 4.24107 8.77071 4.40056C8.61146 4.56005 8.48521 4.74936 8.39919 4.95768C8.31318 5.166 8.26907 5.38924 8.2694 5.61462C8.26824 5.78333 8.32493 5.98456 8.15489 6.09674C8.11046 6.12778 8.05854 6.14639 8.0045 6.15064C7.95046 6.15488 7.89627 6.14461 7.84753 6.12089C7.5708 5.98547 7.26668 5.91536 6.9586 5.91597C6.41437 5.91607 5.89246 6.13231 5.50764 6.51714C5.12281 6.90197 4.90657 7.42387 4.90646 7.9681C4.90864 8.70274 5.35269 9.66077 6.19617 9.66764C6.47267 9.66755 6.73782 9.55768 6.93334 9.36217C7.12887 9.16666 7.23875 8.90151 7.23885 8.62501C7.24004 8.54587 7.27231 8.47038 7.3287 8.41484C7.38508 8.35929 7.46105 8.32816 7.5402 8.32816C7.61934 8.32817 7.69531 8.35931 7.75169 8.41485C7.80807 8.4704 7.84034 8.5459 7.84152 8.62503C7.83756 8.94755 7.73945 9.26188 7.55925 9.52938C7.37905 9.79688 7.12461 10.0059 6.82721 10.1307C6.52981 10.2556 6.20241 10.2908 5.88527 10.2321C5.56812 10.1734 5.27505 10.0232 5.04207 9.80018C4.58985 9.98524 4.2055 10.3049 3.94114 10.7158C3.67679 11.1268 3.54523 11.6091 3.56432 12.0973C3.5834 12.5856 3.7522 13.0561 4.04783 13.4452C4.34345 13.8342 4.75158 14.1229 5.21686 14.2721C5.26345 14.2879 5.30569 14.3144 5.34022 14.3495C5.37475 14.3845 5.40061 14.4272 5.41574 14.474C5.42929 14.5209 5.43116 14.5704 5.42118 14.6182C5.4112 14.666 5.38968 14.7106 5.3585 14.7482C5.06709 15.1109 4.90769 15.5619 4.90648 16.0271C4.90528 16.4924 5.06234 16.9442 5.35186 17.3084C5.64139 17.6725 6.04616 17.9274 6.4997 18.0311C6.95323 18.1348 7.42855 18.0812 7.84759 17.8791C7.89634 17.8558 7.95043 17.846 8.00425 17.8507C8.05806 17.8554 8.10964 17.8744 8.15361 17.9058C8.19759 17.9372 8.23236 17.9798 8.25432 18.0291C8.27627 18.0785 8.28461 18.1328 8.27846 18.1865C8.27092 18.2525 8.26789 18.319 8.2694 18.3854C8.26906 18.6108 8.31317 18.834 8.39919 19.0423C8.4852 19.2506 8.61145 19.44 8.7707 19.5994C8.92995 19.7589 9.11908 19.8855 9.32728 19.9718C9.53547 20.0581 9.75864 20.1025 9.98402 20.1025C10.2094 20.1025 10.4326 20.0581 10.6408 19.9718C10.849 19.8855 11.0381 19.7589 11.1973 19.5994C11.3566 19.44 11.4828 19.2506 11.5689 19.0423C11.6549 18.834 11.699 18.6108 11.6986 18.3854V16.1705C10.6445 16.0935 9.65853 15.6208 8.9382 14.8474C8.21787 14.074 7.81645 13.0569 7.8144 12Z" fill="url(#paint5_linear_14384_25854)"/>
<path d="M18.7826 9.72832C18.7361 9.71325 18.6939 9.6871 18.6598 9.65211C18.6256 9.61713 18.6005 9.57437 18.5866 9.52751C18.5726 9.48066 18.5703 9.43111 18.5798 9.38315C18.5892 9.3352 18.6102 9.29026 18.6409 9.25222C19.9966 7.59056 18.087 5.16002 16.1519 6.12132C16.1031 6.14461 16.049 6.15441 15.9952 6.14971C15.9414 6.14502 15.8898 6.12599 15.8458 6.09461C15.8018 6.06324 15.7671 6.02066 15.7451 5.97129C15.7231 5.92193 15.7148 5.86759 15.721 5.81391C15.7479 5.58185 15.7271 5.34674 15.66 5.12299C15.5928 4.89924 15.4807 4.69155 15.3304 4.51267C15.1802 4.33378 14.995 4.18746 14.7862 4.08267C14.5774 3.97789 14.3494 3.91685 14.1162 3.90328C13.883 3.88972 13.6494 3.92393 13.4299 4.00381C13.2104 4.08369 13.0095 4.20756 12.8395 4.36782C12.6695 4.52809 12.5341 4.72138 12.4414 4.93584C12.3488 5.1503 12.3009 5.38142 12.3008 5.61504V7.82988C13.3556 7.90495 14.3428 8.37695 15.0636 9.15082C15.7843 9.92468 16.1851 10.9429 16.1851 12.0004C16.1851 13.0579 15.7843 14.0762 15.0636 14.85C14.3428 15.6239 13.3556 16.0959 12.3008 16.171V18.3858C12.3009 18.6194 12.3488 18.8505 12.4414 19.065C12.5341 19.2794 12.6695 19.4727 12.8395 19.633C13.0095 19.7933 13.2104 19.9171 13.4299 19.997C13.6495 20.0769 13.883 20.1111 14.1162 20.0975C14.3494 20.084 14.5774 20.0229 14.7862 19.9181C14.995 19.8133 15.1802 19.667 15.3304 19.4881C15.4807 19.3093 15.5928 19.1016 15.66 18.8778C15.7271 18.6541 15.7479 18.419 15.721 18.1869C15.7148 18.1332 15.7232 18.0789 15.7451 18.0295C15.7671 17.9802 15.8019 17.9376 15.8458 17.9062C15.8898 17.8748 15.9414 17.8558 15.9952 17.8511C16.0491 17.8464 16.1032 17.8563 16.1519 17.8796C16.4286 18.015 16.7327 18.0851 17.0408 18.0845C17.4268 18.0812 17.8041 17.9695 18.1297 17.762C18.4552 17.5546 18.7158 17.2597 18.8817 16.9112C19.0477 16.5627 19.1122 16.1745 19.068 15.791C19.0239 15.4076 18.8727 15.0442 18.6319 14.7426C18.4981 14.572 18.3148 14.4472 18.1071 14.3853C17.8994 14.3234 17.6776 14.3274 17.4723 14.3969C17.267 14.4663 17.0883 14.5977 16.9608 14.773C16.8334 14.9483 16.7634 15.1588 16.7606 15.3755C16.7606 15.4554 16.7289 15.532 16.6723 15.5886C16.6158 15.6451 16.5392 15.6768 16.4593 15.6768C16.3793 15.6768 16.3027 15.645 16.2462 15.5885C16.1897 15.532 16.1579 15.4554 16.1579 15.3754C16.1583 15.0513 16.2543 14.7345 16.4339 14.4647C16.6135 14.1948 16.8687 13.984 17.1675 13.8585C17.4664 13.7331 17.7956 13.6986 18.114 13.7593C18.4324 13.8201 18.7257 13.9735 18.9574 14.2002C19.4096 14.0151 19.7939 13.6955 20.0583 13.2845C20.3227 12.8736 20.4542 12.3913 20.4351 11.9031C20.416 11.4148 20.2472 10.9443 19.9516 10.5552C19.656 10.1662 19.2479 9.87751 18.7826 9.72832Z" fill="url(#paint6_linear_14384_25854)"/>
<path d="M11.8191 11.6991V11.5153C11.8153 11.2854 11.5433 11.3347 11.3912 11.3315C11.1837 11.3364 11.2035 11.5505 11.2074 11.6991H11.8191Z" fill="url(#paint7_linear_14384_25854)"/>
<path d="M12.0004 0.75C9.77529 0.749964 7.60016 1.40974 5.75006 2.64591C3.89995 3.88207 2.45796 5.6391 1.60643 7.6948C0.754899 9.7505 0.532082 12.0125 0.966152 14.1949C1.40022 16.3772 2.47168 18.3818 4.04504 19.9552C5.6184 21.5286 7.62299 22.6001 9.80532 23.0342C11.9876 23.4683 14.2497 23.2455 16.3054 22.394C18.3611 21.5425 20.1182 20.1006 21.3544 18.2505C22.5906 16.4004 23.2504 14.2253 23.2504 12.0002C23.247 9.01751 22.0607 6.15796 19.9516 4.04887C17.8426 1.93978 14.983 0.753398 12.0004 0.75ZM12.0004 22.6096C9.90204 22.6095 7.85084 21.9873 6.10616 20.8215C4.36148 19.6557 3.00168 17.9987 2.19871 16.0601C1.39574 14.1215 1.18566 11.9883 1.59505 9.93026C2.00444 7.87225 3.01491 5.98185 4.49867 4.49812C5.98242 3.01439 7.87284 2.00397 9.93086 1.59462C11.9889 1.18527 14.1221 1.39538 16.0607 2.19839C17.9993 3.0014 19.6562 4.36123 20.822 6.10594C21.9877 7.85064 22.61 9.90185 22.61 12.0002C22.6067 14.813 21.4879 17.5097 19.4989 19.4986C17.5099 21.4876 14.8132 22.6064 12.0004 22.6096Z" fill="url(#paint8_linear_14384_25854)"/>
</g>
<defs>
<linearGradient id="paint0_linear_14384_25854" x1="12.0004" y1="10.2617" x2="12.0004" y2="13.7392" gradientUnits="userSpaceOnUse">
<stop stop-color="#223CDD"/>
<stop offset="1" stop-color="#6176FF"/>
</linearGradient>
<linearGradient id="paint1_linear_14384_25854" x1="9.29488" y1="10.7705" x2="9.29488" y2="15.0736" gradientUnits="userSpaceOnUse">
<stop stop-color="#223CDD"/>
<stop offset="1" stop-color="#6176FF"/>
</linearGradient>
<linearGradient id="paint2_linear_14384_25854" x1="12.9235" y1="13.8291" x2="12.9235" y2="15.5745" gradientUnits="userSpaceOnUse">
<stop stop-color="#223CDD"/>
<stop offset="1" stop-color="#6176FF"/>
</linearGradient>
<linearGradient id="paint3_linear_14384_25854" x1="14.707" y1="8.92676" x2="14.707" y2="13.2269" gradientUnits="userSpaceOnUse">
<stop stop-color="#223CDD"/>
<stop offset="1" stop-color="#6176FF"/>
</linearGradient>
<linearGradient id="paint4_linear_14384_25854" x1="11.0759" y1="8.42578" x2="11.0759" y2="10.1677" gradientUnits="userSpaceOnUse">
<stop stop-color="#223CDD"/>
<stop offset="1" stop-color="#6176FF"/>
</linearGradient>
<linearGradient id="paint5_linear_14384_25854" x1="7.63058" y1="3.89746" x2="7.63058" y2="20.1025" gradientUnits="userSpaceOnUse">
<stop stop-color="#223CDD"/>
<stop offset="1" stop-color="#6176FF"/>
</linearGradient>
<linearGradient id="paint6_linear_14384_25854" x1="16.3689" y1="3.90039" x2="16.3689" y2="20.1004" gradientUnits="userSpaceOnUse">
<stop stop-color="#223CDD"/>
<stop offset="1" stop-color="#6176FF"/>
</linearGradient>
<linearGradient id="paint7_linear_14384_25854" x1="11.5121" y1="11.3291" x2="11.5121" y2="11.6991" gradientUnits="userSpaceOnUse">
<stop stop-color="#223CDD"/>
<stop offset="1" stop-color="#6176FF"/>
</linearGradient>
<linearGradient id="paint8_linear_14384_25854" x1="12.0002" y1="0.75" x2="12.0002" y2="23.2504" gradientUnits="userSpaceOnUse">
<stop stop-color="#223CDD"/>
<stop offset="1" stop-color="#6176FF"/>
</linearGradient>
<clipPath id="clip0_14384_25854">
<rect width="24" height="24" fill="white"/>
</clipPath>
</defs>
</svg>
