<svg width="24" height="24" viewBox="0 0 24 24" fill="none" xmlns="http://www.w3.org/2000/svg">
<g clip-path="url(#clip0_14384_25761)">
<path d="M12.0001 7.40137L11.4633 8.2049C11.2948 8.45849 11.184 8.74594 11.1387 9.04701H12.8614C12.8161 8.74594 12.7053 8.45849 12.5368 8.2049L12.0001 7.40137Z" fill="url(#paint0_linear_14384_25761)"/>
<path d="M9.5957 20.097L10.4957 21.0004H13.504L14.404 20.097V19.9268H9.5957V20.097Z" fill="url(#paint1_linear_14384_25761)"/>
<path d="M9.5957 18.4033H14.404V19.2842H9.5957V18.4033Z" fill="url(#paint2_linear_14384_25761)"/>
<path d="M9.5957 16.8799H14.404V17.7604H9.5957V16.8799Z" fill="url(#paint3_linear_14384_25761)"/>
<path d="M11.1133 9.68945H12.8874V16.2366H11.1133V9.68945Z" fill="url(#paint4_linear_14384_25761)"/>
<path d="M12.7158 3.03937C11.2884 2.87768 9.84831 3.20499 8.63103 3.9678C7.41376 4.73061 6.49125 5.8838 6.01431 7.23885C5.53738 8.59391 5.53422 10.0707 6.00537 11.4278C6.47651 12.7848 7.39408 13.942 8.60809 14.71C8.87516 14.8741 9.10137 15.0968 9.26955 15.3613C9.43773 15.6259 9.54347 15.9252 9.57875 16.2367H10.4691V9.36481C10.4684 8.8262 10.6272 8.29945 10.9255 7.85094L11.7322 6.64242C11.7634 6.60122 11.8038 6.56782 11.8501 6.54482C11.8963 6.52182 11.9473 6.50985 11.999 6.50985C12.0507 6.50985 12.1017 6.52182 12.148 6.54482C12.1943 6.56782 12.2346 6.60122 12.2658 6.64242L13.0693 7.84774C13.3696 8.29668 13.5295 8.82474 13.529 9.36481V16.2367H14.4225C14.4668 15.9202 14.5798 15.6172 14.7536 15.349C14.9273 15.0808 15.1577 14.8539 15.4285 14.6842C16.5314 13.9768 17.3882 12.9452 17.8812 11.7313C18.3743 10.5173 18.4794 9.18045 18.1821 7.90435C17.8848 6.62824 17.1998 5.47547 16.221 4.60437C15.2422 3.73327 14.0177 3.18658 12.7158 3.03937ZM7.72742 9.68946H7.03636C6.9513 9.68917 6.86983 9.65518 6.80979 9.59493C6.74975 9.53468 6.71603 9.4531 6.71603 9.36804C6.71603 9.28298 6.74975 9.2014 6.80979 9.14115C6.86983 9.0809 6.9513 9.04691 7.03636 9.04662H7.72742C7.76972 9.04648 7.81163 9.05468 7.85076 9.07077C7.88988 9.08686 7.92544 9.11051 7.9554 9.14037C7.98537 9.17024 8.00914 9.20572 8.02536 9.24478C8.04158 9.28385 8.04993 9.32574 8.04993 9.36804C8.04993 9.41034 8.04158 9.45223 8.02536 9.4913C8.00914 9.53036 7.98537 9.56585 7.9554 9.59571C7.92544 9.62557 7.88988 9.64922 7.85076 9.66531C7.81163 9.6814 7.76972 9.6896 7.72742 9.68946ZM9.20593 12.6143L8.71736 13.1029C8.65706 13.1626 8.57563 13.1961 8.49076 13.1961C8.4059 13.1961 8.32447 13.1626 8.26417 13.1029C8.23437 13.0731 8.21073 13.0378 8.19459 12.9989C8.17846 12.9601 8.17016 12.9184 8.17016 12.8763C8.17016 12.8342 8.17846 12.7925 8.19459 12.7536C8.21073 12.7147 8.23437 12.6794 8.26417 12.6497L8.75274 12.1611C8.81291 12.1014 8.89431 12.0679 8.97911 12.068C9.06391 12.0682 9.14519 12.1019 9.20515 12.1619C9.26512 12.2219 9.29887 12.3032 9.29901 12.3879C9.29916 12.4727 9.26569 12.5541 9.20593 12.6143ZM9.20593 6.57494C9.14479 6.63438 9.06298 6.6678 8.97771 6.66814C8.89341 6.66776 8.81262 6.63429 8.75274 6.57494L8.26417 6.08637C8.23437 6.05664 8.21072 6.02132 8.19459 5.98244C8.17846 5.94356 8.17015 5.90187 8.17015 5.85978C8.17015 5.81768 8.17846 5.776 8.19459 5.73711C8.21072 5.69823 8.23437 5.66291 8.26417 5.63318C8.29351 5.60269 8.3287 5.57844 8.36764 5.56187C8.40657 5.5453 8.44845 5.53676 8.49076 5.53676C8.53308 5.53676 8.57496 5.5453 8.61389 5.56187C8.65283 5.57844 8.68802 5.60269 8.71736 5.63318L9.20593 6.12174C9.23573 6.15147 9.25937 6.18679 9.2755 6.22568C9.29163 6.26456 9.29993 6.30625 9.29993 6.34834C9.29993 6.39044 9.29163 6.43212 9.2755 6.47101C9.25937 6.50989 9.23573 6.5452 9.20593 6.57494ZM12.3204 5.09641C12.3204 5.18166 12.2866 5.26341 12.2263 5.32369C12.166 5.38397 12.0843 5.41783 11.999 5.41783C11.9138 5.41783 11.832 5.38397 11.7717 5.32369C11.7115 5.26341 11.6776 5.18166 11.6776 5.09641V4.4054C11.6776 4.32015 11.7115 4.2384 11.7717 4.17812C11.832 4.11784 11.9138 4.08398 11.999 4.08398C12.0843 4.08398 12.166 4.11784 12.2263 4.17812C12.2866 4.2384 12.3204 4.32015 12.3204 4.4054V5.09641ZM15.7338 13.1029C15.6735 13.1626 15.5921 13.1961 15.5072 13.1961C15.4224 13.1961 15.341 13.1626 15.2807 13.1029L14.7921 12.6143C14.7623 12.5846 14.7387 12.5493 14.7225 12.5104C14.7064 12.4715 14.6981 12.4298 14.6981 12.3877C14.6981 12.3456 14.7064 12.3039 14.7225 12.2651C14.7387 12.2262 14.7623 12.1909 14.7921 12.1611C14.8214 12.1306 14.8566 12.1064 14.8956 12.0898C14.9345 12.0732 14.9764 12.0647 15.0187 12.0647C15.061 12.0647 15.1029 12.0732 15.1418 12.0898C15.1808 12.1064 15.216 12.1306 15.2453 12.1611L15.7338 12.6465C15.7941 12.7071 15.8279 12.7892 15.8279 12.8747C15.8279 12.9602 15.7941 13.0422 15.7338 13.1029ZM15.7338 6.08637L15.2453 6.57495C15.2153 6.6047 15.1798 6.62827 15.1407 6.64429C15.1017 6.66031 15.0598 6.66848 15.0176 6.66833C14.9753 6.66818 14.9335 6.65972 14.8946 6.64342C14.8556 6.62712 14.8203 6.6033 14.7905 6.57334C14.7607 6.54337 14.7372 6.50783 14.7212 6.46876C14.7051 6.42968 14.697 6.38783 14.6971 6.3456C14.6973 6.30337 14.7057 6.26158 14.722 6.22262C14.7383 6.18366 14.7621 6.14829 14.7921 6.11854L15.2807 5.62999C15.3104 5.60018 15.3457 5.57654 15.3846 5.5604C15.4235 5.54427 15.4652 5.53597 15.5073 5.53597C15.5494 5.53597 15.591 5.54427 15.6299 5.5604C15.6688 5.57654 15.7041 5.60018 15.7339 5.62999C15.7941 5.69067 15.8279 5.77269 15.8279 5.85818C15.8279 5.94367 15.7941 6.02569 15.7338 6.08637ZM16.9617 9.68945H16.2706C16.2283 9.6896 16.1864 9.68139 16.1473 9.6653C16.1082 9.64921 16.0726 9.62556 16.0426 9.5957C16.0127 9.56584 15.9889 9.53036 15.9727 9.49129C15.9564 9.45222 15.9481 9.41033 15.9481 9.36803C15.9481 9.32573 15.9564 9.28385 15.9727 9.24478C15.9889 9.20571 16.0127 9.17023 16.0426 9.14037C16.0726 9.11051 16.1082 9.08685 16.1473 9.07077C16.1864 9.05468 16.2283 9.04647 16.2706 9.04661H16.9617C17.004 9.04647 17.0459 9.05468 17.085 9.07077C17.1241 9.08685 17.1597 9.11051 17.1896 9.14037C17.2196 9.17023 17.2434 9.20571 17.2596 9.24478C17.2758 9.28385 17.2842 9.32573 17.2842 9.36803C17.2842 9.41033 17.2758 9.45222 17.2596 9.49129C17.2434 9.53036 17.2196 9.56584 17.1896 9.5957C17.1597 9.62556 17.1241 9.64921 17.085 9.6653C17.0459 9.68139 17.004 9.6896 16.9617 9.68945Z" fill="url(#paint5_linear_14384_25761)"/>
<path d="M12.0002 0.75C9.77514 0.749964 7.60005 1.40973 5.74997 2.64588C3.8999 3.88202 2.45793 5.63902 1.60641 7.69468C0.754899 9.75035 0.532085 12.0124 0.966148 14.1947C1.40021 16.377 2.47166 18.3815 4.04499 19.9549C5.61832 21.5282 7.62288 22.5997 9.80517 23.0338C11.9875 23.4679 14.2495 23.2451 16.3052 22.3937C18.3608 21.5422 20.1179 20.1002 21.354 18.2502C22.5902 16.4001 23.25 14.225 23.25 12C23.2467 9.01738 22.0603 6.15787 19.9513 4.04882C17.8423 1.93977 14.9828 0.753403 12.0002 0.75ZM12.0002 22.6092C9.90189 22.6092 7.85072 21.9869 6.10607 20.8212C4.36142 19.6554 3.00164 17.9984 2.19868 16.0598C1.39572 14.1213 1.18565 11.9881 1.59503 9.93013C2.00441 7.87216 3.01485 5.98179 4.49858 4.49808C5.98232 3.01437 7.8727 2.00396 9.93068 1.59462C11.9887 1.18527 14.1218 1.39538 16.0604 2.19837C17.999 3.00137 19.6559 4.36118 20.8216 6.10585C21.9874 7.85052 22.6096 9.9017 22.6096 12C22.6063 14.8128 21.4875 17.5094 19.4986 19.4983C17.5096 21.4872 14.813 22.606 12.0002 22.6092Z" fill="url(#paint6_linear_14384_25761)"/>
</g>
<defs>
<linearGradient id="paint0_linear_14384_25761" x1="12.0001" y1="7.40137" x2="12.0001" y2="9.04701" gradientUnits="userSpaceOnUse">
<stop stop-color="#223CDD"/>
<stop offset="1" stop-color="#6176FF"/>
</linearGradient>
<linearGradient id="paint1_linear_14384_25761" x1="11.9998" y1="19.9268" x2="11.9998" y2="21.0004" gradientUnits="userSpaceOnUse">
<stop stop-color="#223CDD"/>
<stop offset="1" stop-color="#6176FF"/>
</linearGradient>
<linearGradient id="paint2_linear_14384_25761" x1="11.9998" y1="18.4033" x2="11.9998" y2="19.2842" gradientUnits="userSpaceOnUse">
<stop stop-color="#223CDD"/>
<stop offset="1" stop-color="#6176FF"/>
</linearGradient>
<linearGradient id="paint3_linear_14384_25761" x1="11.9998" y1="16.8799" x2="11.9998" y2="17.7604" gradientUnits="userSpaceOnUse">
<stop stop-color="#223CDD"/>
<stop offset="1" stop-color="#6176FF"/>
</linearGradient>
<linearGradient id="paint4_linear_14384_25761" x1="12.0003" y1="9.68945" x2="12.0003" y2="16.2366" gradientUnits="userSpaceOnUse">
<stop stop-color="#223CDD"/>
<stop offset="1" stop-color="#6176FF"/>
</linearGradient>
<linearGradient id="paint5_linear_14384_25761" x1="12.0009" y1="2.99902" x2="12.0009" y2="16.2367" gradientUnits="userSpaceOnUse">
<stop stop-color="#223CDD"/>
<stop offset="1" stop-color="#6176FF"/>
</linearGradient>
<linearGradient id="paint6_linear_14384_25761" x1="12" y1="0.75" x2="12" y2="23.25" gradientUnits="userSpaceOnUse">
<stop stop-color="#223CDD"/>
<stop offset="1" stop-color="#6176FF"/>
</linearGradient>
<clipPath id="clip0_14384_25761">
<rect width="24" height="24" fill="white"/>
</clipPath>
</defs>
</svg>
