<svg width="22" height="22" viewBox="0 0 22 22" fill="none" xmlns="http://www.w3.org/2000/svg">
<g clip-path="url(#clip0_14358_25901)">
<path fill-rule="evenodd" clip-rule="evenodd" d="M20.0426 17.8165H1.95836C1.13035 17.8165 0.457031 17.1428 0.457031 16.3148V3.83965C0.457031 3.01164 1.13035 2.33789 1.95836 2.33789H3.59375V3.6334V3.69742H2.02668C1.91066 3.69742 1.81656 3.79152 1.81656 3.90754V15.1589C1.81656 15.2749 1.91066 15.369 2.02668 15.369H19.9747C20.0907 15.369 20.1848 15.2749 20.1848 15.1589V3.90754C20.1848 3.79152 20.0907 3.69742 19.9747 3.69742H18.4077V2.33789H20.0426C20.8711 2.33789 21.5444 3.01164 21.5444 3.83965V16.3148C21.5444 17.1428 20.8706 17.8165 20.0426 17.8165ZM2.23637 14.9492H19.765V4.11723H18.4077V12.4828C18.4077 13.444 17.6256 14.2256 16.6644 14.2256H5.33699C4.37535 14.2256 3.59375 13.444 3.59375 12.4828V4.11723H2.23637V14.9492ZM11.0007 17.1458C10.58 17.1458 10.2376 16.8033 10.2376 16.3827C10.2376 15.962 10.58 15.6195 11.0007 15.6195C11.4214 15.6195 11.7638 15.962 11.7638 16.3827C11.7638 16.8033 11.4214 17.1458 11.0007 17.1458ZM11.0007 16.0393C10.8116 16.0393 10.6574 16.1936 10.6574 16.3827C10.6574 16.5721 10.8116 16.726 11.0007 16.726C11.1902 16.726 11.344 16.5721 11.344 16.3827C11.344 16.1936 11.1902 16.0393 11.0007 16.0393Z" fill="url(#paint0_linear_14358_25901)"/>
<path fill-rule="evenodd" clip-rule="evenodd" d="M8.23438 19.32V18.2363H13.7657V19.32H8.23438Z" fill="url(#paint1_linear_14358_25901)"/>
<path fill-rule="evenodd" clip-rule="evenodd" d="M15.6218 22.0004H6.38008C5.75703 22.0004 5.25 21.4934 5.25 20.8703C5.25 20.2473 5.75703 19.7402 6.38008 19.7402H15.6218C16.2448 19.7402 16.7514 20.2473 16.7514 20.8703C16.7519 21.4934 16.2448 22.0004 15.6218 22.0004Z" fill="url(#paint2_linear_14358_25901)"/>
<path fill-rule="evenodd" clip-rule="evenodd" d="M16.6645 13.8059H5.33711C4.6075 13.8059 4.01367 13.2125 4.01367 12.4829V3.63344H17.988V12.4829C17.988 13.2125 17.3941 13.8059 16.6645 13.8059ZM7.5457 7.24453C7.51004 7.24453 7.47395 7.23508 7.44086 7.21617L5.87465 6.31168C5.80934 6.2743 5.76938 6.20469 5.76938 6.12992C5.76938 6.05473 5.80934 5.98555 5.87465 5.94816L7.44086 5.04367C7.54141 4.98566 7.66988 5.02004 7.72789 5.12059C7.7859 5.2207 7.75152 5.34918 7.65098 5.40719L6.3993 6.12992L7.65098 6.85266C7.75152 6.91066 7.7859 7.03914 7.72789 7.13926C7.68879 7.20672 7.61832 7.24453 7.5457 7.24453ZM9.4909 7.24453C9.41828 7.24453 9.34781 7.20672 9.30871 7.13926C9.2507 7.03871 9.28551 6.91066 9.38563 6.85266L10.6373 6.12992L9.38563 5.40719C9.28551 5.34918 9.2507 5.2207 9.30871 5.12059C9.36672 5.02004 9.4952 4.98566 9.59574 5.04367L11.1624 5.94773C11.2273 5.98555 11.2672 6.05473 11.2672 6.12992C11.2672 6.20469 11.2273 6.2743 11.1624 6.31168L9.59574 7.21617C9.56266 7.23508 9.52656 7.24453 9.4909 7.24453ZM8.23234 7.81043C8.21902 7.81043 8.20527 7.80914 8.19195 7.80656C8.07809 7.78422 8.00375 7.67422 8.02609 7.56035L8.59887 4.61914C8.62078 4.50527 8.73078 4.43094 8.84508 4.45328C8.95852 4.47563 9.03285 4.58563 9.01094 4.69949L8.43816 7.6407C8.4184 7.74082 8.33074 7.81043 8.23234 7.81043ZM16.0655 5.8257H12.5112C12.3952 5.8257 12.3015 5.73203 12.3015 5.61602C12.3015 5.5 12.3952 5.4059 12.5112 5.4059H16.0655C16.1816 5.4059 16.2752 5.5 16.2752 5.61602C16.2752 5.73203 16.1816 5.8257 16.0655 5.8257ZM16.0655 7.08898H13.0466C12.9305 7.08898 12.8369 6.99531 12.8369 6.8793C12.8369 6.76328 12.9305 6.66918 13.0466 6.66918H16.0655C16.1816 6.66918 16.2752 6.76328 16.2752 6.8793C16.2752 6.99531 16.1816 7.08898 16.0655 7.08898ZM11.2329 9.14461H5.84113C5.72512 9.14461 5.63102 9.05051 5.63102 8.93449C5.63102 8.81848 5.72512 8.72437 5.84113 8.72437H11.2329C11.3489 8.72437 11.443 8.81848 11.443 8.93449C11.443 9.05051 11.3489 9.14461 11.2329 9.14461ZM9.39508 11.3068H5.84113C5.72512 11.3068 5.63102 11.2127 5.63102 11.0971C5.63102 10.9811 5.72512 10.887 5.84113 10.887H9.39508C9.51109 10.887 9.6052 10.9811 9.6052 11.0971C9.6052 11.2127 9.51109 11.3068 9.39508 11.3068ZM9.39508 12.5701H6.37609C6.26008 12.5701 6.16641 12.476 6.16641 12.36C6.16641 12.2439 6.26008 12.1503 6.37609 12.1503H9.39508C9.51109 12.1503 9.6052 12.2439 9.6052 12.36C9.6052 12.476 9.51109 12.5701 9.39508 12.5701ZM15.1722 10.1234H13.5497C13.4337 10.1234 13.3396 10.0293 13.3396 9.91332C13.3396 9.79731 13.4337 9.70363 13.5497 9.70363H15.1722C15.2882 9.70363 15.3819 9.79731 15.3819 9.91332C15.3819 10.0293 15.2882 10.1234 15.1722 10.1234ZM15.1722 10.9085H13.7942C13.6782 10.9085 13.5841 10.8144 13.5841 10.6984C13.5841 10.5823 13.6782 10.4887 13.7942 10.4887H15.1722C15.2882 10.4887 15.3819 10.5823 15.3819 10.6984C15.3819 10.8144 15.2882 10.9085 15.1722 10.9085ZM4.01367 3.21363V1.32344C4.01367 0.593828 4.6075 0 5.33711 0H16.6645C17.3941 0 17.988 0.593828 17.988 1.32344V3.21363H4.01367ZM16.5171 2.02684H12.5954C12.4794 2.02684 12.3853 1.93273 12.3853 1.81672C12.3853 1.7007 12.4794 1.6066 12.5954 1.6066H16.5171C16.6332 1.6066 16.7273 1.7007 16.7273 1.81672C16.7273 1.93273 16.6332 2.02684 16.5171 2.02684ZM6.00313 2.54547C5.60137 2.54547 5.2748 2.21848 5.2748 1.81672C5.2748 1.41496 5.60137 1.08797 6.00313 1.08797C6.40488 1.08797 6.73187 1.41496 6.73187 1.81672C6.73187 2.21848 6.40488 2.54547 6.00313 2.54547ZM6.00313 1.50777C5.83297 1.50777 5.69461 1.64656 5.69461 1.81672C5.69461 1.98687 5.83297 2.12566 6.00313 2.12566C6.17371 2.12566 6.31207 1.98687 6.31207 1.81672C6.31207 1.64656 6.17371 1.50777 6.00313 1.50777ZM7.90105 2.54547C7.4993 2.54547 7.1723 2.21848 7.1723 1.81672C7.1723 1.41496 7.4993 1.08797 7.90105 1.08797C8.30281 1.08797 8.62981 1.41496 8.62981 1.81672C8.62981 2.21848 8.30281 2.54547 7.90105 2.54547ZM7.90105 1.50777C7.7309 1.50777 7.59211 1.64656 7.59211 1.81672C7.59211 1.98687 7.7309 2.12566 7.90105 2.12566C8.07121 2.12566 8.21 1.98687 8.21 1.81672C8.21 1.64656 8.07121 1.50777 7.90105 1.50777ZM9.79898 2.54547C9.39723 2.54547 9.07023 2.21848 9.07023 1.81672C9.07023 1.41496 9.39723 1.08797 9.79898 1.08797C10.2007 1.08797 10.5277 1.41496 10.5277 1.81672C10.5277 2.21848 10.2007 2.54547 9.79898 2.54547ZM9.79898 1.50777C9.62883 1.50777 9.49004 1.64656 9.49004 1.81672C9.49004 1.98687 9.62883 2.12566 9.79898 2.12566C9.96914 2.12566 10.1079 1.98687 10.1079 1.81672C10.1079 1.64656 9.96914 1.50777 9.79898 1.50777ZM13.3095 12.8189C13.2786 12.8189 13.2472 12.812 13.2184 12.7982C13.1621 12.7707 13.1205 12.72 13.1059 12.659L12.8536 11.6278L11.9045 11.153C11.8486 11.1246 11.8078 11.073 11.794 11.012C11.7798 10.9506 11.794 10.8866 11.8323 10.8367L12.4815 9.99711L12.2611 8.95898C12.2482 8.89754 12.2632 8.83352 12.3023 8.78453C12.3414 8.73555 12.4003 8.70633 12.4635 8.70547L13.5244 8.68914L14.1986 7.86973C14.2385 7.82117 14.2982 7.79324 14.361 7.79324C14.4237 7.79324 14.483 7.82117 14.523 7.86973L15.1971 8.68914L16.2585 8.70547C16.3212 8.70633 16.3801 8.73512 16.4196 8.78453C16.4587 8.83352 16.4737 8.89754 16.4604 8.95898L16.2404 9.99711L16.8893 10.8367C16.9275 10.8866 16.9417 10.9506 16.9279 11.012C16.9137 11.073 16.8734 11.1246 16.8171 11.153L15.8679 11.6278L15.6161 12.659C15.6011 12.72 15.5598 12.7707 15.5035 12.7982C15.4468 12.8253 15.3811 12.8257 15.3239 12.7995L14.361 12.3539L13.3976 12.7995C13.3697 12.8124 13.3396 12.8189 13.3095 12.8189ZM12.3208 10.8917L13.1286 11.2961C13.1836 11.3236 13.224 11.3738 13.2386 11.4336L13.453 12.3114L14.2729 11.932C14.3287 11.9058 14.3932 11.9058 14.4491 11.932L15.2689 12.3114L15.4833 11.434C15.4979 11.3738 15.5383 11.3236 15.5933 11.2961L16.4011 10.8917L15.8486 10.1767C15.8112 10.1282 15.7966 10.065 15.8095 10.0048L15.9968 9.12141L15.0936 9.10766C15.0321 9.10637 14.9741 9.07844 14.9346 9.03074L14.361 8.33336L13.7869 9.03074C13.7478 9.07844 13.6894 9.10637 13.6279 9.10723L12.7247 9.12141L12.9121 10.0048C12.925 10.065 12.9108 10.1282 12.873 10.1767L12.3208 10.8917Z" fill="url(#paint3_linear_14358_25901)"/>
</g>
<defs>
<linearGradient id="paint0_linear_14358_25901" x1="11.0007" y1="2.33789" x2="11.0007" y2="17.8165" gradientUnits="userSpaceOnUse">
<stop stop-color="#223CDD"/>
<stop offset="1" stop-color="#6176FF"/>
</linearGradient>
<linearGradient id="paint1_linear_14358_25901" x1="11.0001" y1="18.2363" x2="11.0001" y2="19.32" gradientUnits="userSpaceOnUse">
<stop stop-color="#223CDD"/>
<stop offset="1" stop-color="#6176FF"/>
</linearGradient>
<linearGradient id="paint2_linear_14358_25901" x1="11.0007" y1="19.7402" x2="11.0007" y2="22.0004" gradientUnits="userSpaceOnUse">
<stop stop-color="#223CDD"/>
<stop offset="1" stop-color="#6176FF"/>
</linearGradient>
<linearGradient id="paint3_linear_14358_25901" x1="11.0008" y1="0" x2="11.0008" y2="13.8059" gradientUnits="userSpaceOnUse">
<stop stop-color="#223CDD"/>
<stop offset="1" stop-color="#6176FF"/>
</linearGradient>
<clipPath id="clip0_14358_25901">
<rect width="22" height="22" fill="white"/>
</clipPath>
</defs>
</svg>
