<svg width="24" height="24" viewBox="0 0 24 24" fill="none" xmlns="http://www.w3.org/2000/svg">
<path d="M11.2938 20.4073L10.6713 19.3348C10.5049 19.0457 10.4365 18.7105 10.4764 18.3793C10.5163 18.0481 10.6623 17.7387 10.8926 17.4973C10.8449 17.2348 10.8173 16.969 10.8101 16.7023C10.4801 16.7173 10.1501 16.7211 9.81632 16.7211C6.43757 16.7211 3.02507 16.1736 1.55882 15.1123V19.0986C1.51467 20.4518 7.94122 21.5129 12.0514 21.0709C11.7288 20.9455 11.4606 20.7106 11.2938 20.4073ZM2.90882 18.5436C2.75715 18.5413 2.61245 18.4795 2.50599 18.3714C2.39952 18.2633 2.33985 18.1177 2.33985 17.966C2.33986 17.8144 2.39954 17.6687 2.506 17.5607C2.61247 17.4526 2.75717 17.3908 2.90885 17.3886C3.06052 17.3908 3.20522 17.4527 3.31168 17.5607C3.41814 17.6688 3.47782 17.8144 3.47781 17.9661C3.47781 18.1178 3.41812 18.2634 3.31166 18.3714C3.20519 18.4795 3.0605 18.5413 2.90882 18.5436ZM4.63757 19.0311C4.48594 19.0287 4.3413 18.9669 4.2349 18.8588C4.12849 18.7508 4.06884 18.6052 4.06885 18.4535C4.06885 18.3019 4.1285 18.1563 4.23491 18.0483C4.34132 17.9402 4.48596 17.8784 4.6376 17.8761C4.78923 17.8784 4.93387 17.9402 5.04027 18.0483C5.14668 18.1563 5.20633 18.3019 5.20632 18.4536C5.20632 18.6052 5.14667 18.7508 5.04026 18.8588C4.93385 18.9669 4.78921 19.0287 4.63757 19.0311ZM6.36257 19.3123C6.2109 19.31 6.0662 19.2482 5.95974 19.1402C5.85328 19.0321 5.7936 18.8865 5.7936 18.7348C5.79361 18.5831 5.85329 18.4375 5.95975 18.3294C6.06622 18.2214 6.21092 18.1596 6.3626 18.1573C6.51427 18.1596 6.65897 18.2214 6.76543 18.3295C6.87189 18.4375 6.93157 18.5831 6.93156 18.7348C6.93156 18.8865 6.87188 19.0321 6.76541 19.1402C6.65895 19.2482 6.51425 19.3101 6.36257 19.3123Z" fill="url(#paint0_linear_14384_25815)"/>
<path d="M9.81609 15.971C10.4781 15.8896 10.896 16.236 10.8923 15.5022C10.6624 15.2615 10.5164 14.953 10.4759 14.6226C10.4353 14.2923 10.5025 13.9576 10.6673 13.6685L11.2973 12.5847C11.4634 12.2957 11.7188 12.0685 12.0252 11.9372C12.3316 11.806 12.6723 11.7779 12.9961 11.8572C13.2672 11.634 13.557 11.4345 13.8623 11.261C10.2902 11.8509 3.73428 11.5442 1.55859 9.92969V13.916C1.55858 14.7747 4.70109 15.971 9.81609 15.971ZM6.36234 12.9785C6.51402 12.9807 6.65872 13.0425 6.76518 13.1506C6.87164 13.2587 6.93131 13.4043 6.93131 13.556C6.93131 13.7077 6.87163 13.8533 6.76516 13.9613C6.6587 14.0694 6.51399 14.1312 6.36232 14.1335C6.21064 14.1312 6.06594 14.0694 5.95948 13.9613C5.85302 13.8532 5.79335 13.7076 5.79335 13.5559C5.79336 13.4042 5.85304 13.2586 5.95951 13.1506C6.06598 13.0425 6.21066 12.9807 6.36234 12.9785ZM4.63734 12.6935C4.78902 12.6957 4.93372 12.7575 5.04018 12.8656C5.14664 12.9737 5.20631 13.1193 5.20631 13.271C5.20631 13.4227 5.14663 13.5683 5.04016 13.6763C4.9337 13.7844 4.78899 13.8462 4.63732 13.8485C4.48564 13.8462 4.34094 13.7844 4.23448 13.6763C4.12802 13.5682 4.06835 13.4226 4.06836 13.2709C4.06836 13.1192 4.12805 12.9736 4.23451 12.8656C4.34098 12.7575 4.48566 12.6957 4.63734 12.6935ZM2.90859 12.2097C3.06031 12.2119 3.20508 12.2737 3.31159 12.3818C3.41811 12.4898 3.47782 12.6355 3.47781 12.7872C3.47781 12.939 3.4181 13.0846 3.31158 13.1927C3.20506 13.3007 3.06029 13.3625 2.90857 13.3647C2.75685 13.3625 2.61208 13.3007 2.50557 13.1926C2.39905 13.0846 2.33934 12.9389 2.33935 12.7872C2.33935 12.6355 2.39907 12.4898 2.50559 12.3817C2.61211 12.2737 2.75687 12.2119 2.90859 12.2097Z" fill="url(#paint1_linear_14384_25815)"/>
<path d="M9.81609 10.7922C11.5651 10.8103 13.3111 10.6432 15.0248 10.2935C15.1698 10.1227 15.3502 9.98555 15.5536 9.89164C15.7569 9.79773 15.9783 9.7493 16.2023 9.74973H16.8473C17.6461 9.41973 18.0736 9.05223 18.0736 8.73723V4.75098C16.6073 5.81223 13.1949 6.36348 9.81609 6.36348C6.43732 6.36348 3.02484 5.81223 1.55859 4.75098V8.73723C1.55859 9.59598 4.70109 10.7922 9.81609 10.7922ZM6.36234 7.79598C6.51402 7.79823 6.65872 7.86007 6.76518 7.96813C6.87164 8.07619 6.93132 8.22179 6.93131 8.37349C6.93131 8.52518 6.87163 8.67078 6.76517 8.77884C6.6587 8.88689 6.514 8.94873 6.36232 8.95098C6.21065 8.94872 6.06595 8.88688 5.95949 8.77882C5.85303 8.67076 5.79335 8.52515 5.79336 8.37346C5.79336 8.22176 5.85305 8.07616 5.95951 7.96811C6.06598 7.86006 6.21067 7.79823 6.36234 7.79598ZM4.63734 7.51473C4.78902 7.51698 4.93372 7.57882 5.04018 7.68688C5.14664 7.79494 5.20632 7.94054 5.20632 8.09224C5.20631 8.24393 5.14663 8.38953 5.04017 8.49759C4.9337 8.60564 4.789 8.66748 4.63732 8.66973C4.48564 8.66747 4.34095 8.60563 4.23449 8.49756C4.12803 8.3895 4.06835 8.2439 4.06836 8.0922C4.06837 7.94051 4.12805 7.79491 4.23452 7.68686C4.34099 7.5788 4.48567 7.51697 4.63734 7.51473ZM2.90859 7.02723C3.06027 7.02948 3.20497 7.09132 3.31143 7.19938C3.41789 7.30744 3.47757 7.45304 3.47756 7.60474C3.47756 7.75643 3.41788 7.90203 3.31142 8.01009C3.20495 8.11814 3.06025 8.17998 2.90857 8.18223C2.75689 8.17997 2.6122 8.11813 2.50573 8.01007C2.39927 7.90201 2.3396 7.7564 2.3396 7.60471C2.33961 7.45302 2.39929 7.30742 2.50576 7.19936C2.61222 7.09131 2.75692 7.02948 2.90859 7.02723Z" fill="url(#paint2_linear_14384_25815)"/>
<path d="M9.81609 5.61375C14.9348 5.61375 18.0736 4.4175 18.0736 3.55875C18.0736 2.69625 14.9348 1.5 9.81609 1.5C4.70109 1.5 1.55859 2.69625 1.55859 3.55875C1.55859 4.4175 4.70109 5.61375 9.81609 5.61375Z" fill="url(#paint3_linear_14384_25815)"/>
<path d="M22.0447 17.8762C22.0127 17.8527 21.9304 17.8321 21.9397 17.7863C22.1346 16.9266 22.1409 16.0349 21.9584 15.1725C22.0614 15.1272 22.1537 15.0609 22.2295 14.9779C22.3053 14.8948 22.3629 14.7968 22.3986 14.6901C22.4343 14.5835 22.4472 14.4705 22.4367 14.3586C22.4261 14.2466 22.3922 14.1381 22.3372 14.04L21.711 12.96C21.6538 12.8635 21.5772 12.78 21.4859 12.7149C21.3946 12.6498 21.2908 12.6045 21.1809 12.5819C21.0711 12.5593 20.9578 12.5599 20.8482 12.5837C20.7387 12.6075 20.6353 12.6539 20.5447 12.72C20.5378 12.7242 20.5297 12.7261 20.5216 12.7254C20.5135 12.7247 20.5059 12.7215 20.4997 12.7162C19.8528 12.1175 19.0839 11.6659 18.2459 11.3926C18.258 11.2809 18.2466 11.168 18.2125 11.061C18.1783 10.954 18.1222 10.8553 18.0477 10.7713C17.9732 10.6872 17.882 10.6197 17.7799 10.573C17.6778 10.5263 17.567 10.5014 17.4547 10.5H16.2022C15.9926 10.5007 15.7917 10.5843 15.6435 10.7325C15.4952 10.8807 15.4116 11.0816 15.411 11.2913C15.4071 11.3284 15.4258 11.4143 15.3885 11.43C14.5497 11.6674 13.783 12.1094 13.1572 12.7162C13.1237 12.7456 13.0569 12.6832 13.026 12.6713C12.9362 12.6189 12.8369 12.5849 12.7339 12.5711C12.631 12.5573 12.5263 12.564 12.4259 12.5909C12.3255 12.6177 12.2314 12.6641 12.149 12.7275C12.0667 12.7908 11.9977 12.8699 11.946 12.96L11.3197 14.04C11.2647 14.1381 11.2309 14.2466 11.2204 14.3586C11.2098 14.4705 11.2228 14.5834 11.2584 14.6901C11.2941 14.7967 11.3517 14.8947 11.4275 14.9778C11.5032 15.0609 11.5955 15.1272 11.6985 15.1725C11.6225 15.6115 11.5749 16.0549 11.556 16.5C11.5747 16.9451 11.6223 17.3885 11.6985 17.8275C11.5956 17.8728 11.5033 17.9391 11.4275 18.0222C11.3517 18.1052 11.2941 18.2033 11.2585 18.3099C11.2228 18.4165 11.2098 18.5295 11.2204 18.6414C11.2309 18.7534 11.2648 18.8619 11.3197 18.96L11.946 20.04C12.0031 20.1364 12.0798 20.2199 12.1711 20.285C12.2623 20.35 12.3662 20.3953 12.476 20.4179C12.5858 20.4405 12.6991 20.4399 12.8087 20.4161C12.9182 20.3924 13.0216 20.346 13.1122 20.28C13.7674 20.8714 14.5445 21.3117 15.3885 21.5699C15.4259 21.5853 15.4066 21.6772 15.411 21.7088C15.4116 21.9184 15.4952 22.1193 15.6435 22.2675C15.7917 22.4157 15.9926 22.4993 16.2022 22.5H17.4547C17.567 22.4986 17.6778 22.4737 17.7799 22.427C17.882 22.3803 17.9732 22.3128 18.0477 22.2287C18.1222 22.1447 18.1783 22.046 18.2125 21.939C18.2466 21.8321 18.258 21.7191 18.2459 21.6075C19.0839 21.334 19.8527 20.8824 20.4997 20.2837C20.5147 20.2688 20.5485 20.2837 20.5559 20.2875C20.6465 20.3519 20.7494 20.3967 20.8582 20.4191C20.967 20.4416 21.0793 20.4412 21.1879 20.4179C21.2965 20.3946 21.3991 20.349 21.4891 20.2839C21.5792 20.2189 21.6547 20.1358 21.7109 20.04L22.3372 18.96C22.4415 18.7774 22.4694 18.5609 22.4146 18.3578C22.3598 18.1547 22.2268 17.9816 22.0447 17.8762ZM16.8285 19.5C16.033 19.4995 15.2702 19.1832 14.7077 18.6207C14.1452 18.0582 13.829 17.2955 13.8285 16.5C13.9777 12.5253 19.6798 12.5264 19.8285 16.5C19.8279 17.2955 19.5117 18.0583 18.9492 18.6207C18.3867 19.1832 17.6239 19.4995 16.8285 19.5Z" fill="url(#paint4_linear_14384_25815)"/>
<defs>
<linearGradient id="paint0_linear_14384_25815" x1="6.80498" y1="15.1123" x2="6.80498" y2="21.1726" gradientUnits="userSpaceOnUse">
<stop stop-color="#223CDD"/>
<stop offset="1" stop-color="#6176FF"/>
</linearGradient>
<linearGradient id="paint1_linear_14384_25815" x1="7.71047" y1="9.92969" x2="7.71047" y2="15.9836" gradientUnits="userSpaceOnUse">
<stop stop-color="#223CDD"/>
<stop offset="1" stop-color="#6176FF"/>
</linearGradient>
<linearGradient id="paint2_linear_14384_25815" x1="9.81609" y1="4.75098" x2="9.81609" y2="10.7936" gradientUnits="userSpaceOnUse">
<stop stop-color="#223CDD"/>
<stop offset="1" stop-color="#6176FF"/>
</linearGradient>
<linearGradient id="paint3_linear_14384_25815" x1="9.81609" y1="1.5" x2="9.81609" y2="5.61375" gradientUnits="userSpaceOnUse">
<stop stop-color="#223CDD"/>
<stop offset="1" stop-color="#6176FF"/>
</linearGradient>
<linearGradient id="paint4_linear_14384_25815" x1="16.8294" y1="10.5" x2="16.8294" y2="22.5" gradientUnits="userSpaceOnUse">
<stop stop-color="#223CDD"/>
<stop offset="1" stop-color="#6176FF"/>
</linearGradient>
</defs>
</svg>
