<svg width="24" height="24" viewBox="0 0 24 24" fill="none" xmlns="http://www.w3.org/2000/svg">
<path d="M9.08778 20.6378C10.0074 20.6405 10.9016 20.3368 11.6294 19.7746C12.3571 19.2124 12.8768 18.4238 13.1063 17.5333C13.3359 16.6429 13.2622 15.7013 12.897 14.8573C12.5317 14.0134 11.8957 13.3152 11.0894 12.873C10.2831 12.4308 9.35251 12.2698 8.44454 12.4155C7.53656 12.5612 6.703 13.0053 6.07553 13.6775C5.44806 14.3498 5.06244 15.2119 4.97959 16.1278C4.89673 17.0436 5.12136 17.961 5.618 18.7349L3.36015 20.9928C3.27776 21.0746 3.21234 21.1719 3.16763 21.2791C3.12292 21.3862 3.09981 21.5011 3.09961 21.6172C3.09941 21.7334 3.12214 21.8484 3.16648 21.9557C3.21082 22.063 3.27591 22.1605 3.35801 22.2426C3.44012 22.3247 3.53762 22.3898 3.64493 22.4341C3.75224 22.4785 3.86725 22.5012 3.98336 22.501C4.09947 22.5008 4.2144 22.4777 4.32155 22.4329C4.42871 22.3882 4.52599 22.3228 4.60781 22.2404L6.86563 19.9826C7.52787 20.4103 8.29944 20.6378 9.08778 20.6378ZM9.08778 13.1378C9.75529 13.1378 10.4078 13.3358 10.9628 13.7066C11.5178 14.0775 11.9504 14.6046 12.2059 15.2213C12.4613 15.838 12.5282 16.5166 12.3979 17.1713C12.2677 17.8259 11.9463 18.4273 11.4743 18.8993C11.0023 19.3713 10.4009 19.6928 9.74621 19.823C9.09152 19.9532 8.41292 19.8864 7.79622 19.6309C7.17952 19.3755 6.65242 18.9429 6.28157 18.3879C5.91072 17.8329 5.71278 17.1803 5.71278 16.5128C5.71375 15.618 6.06965 14.7601 6.70237 14.1274C7.33509 13.4947 8.19297 13.1388 9.08778 13.1378Z" fill="url(#paint0_linear_14384_25770)"/>
<path d="M18.0159 18.8664V19.7027C18.0167 20.3308 17.8038 20.9405 17.4121 21.4314C18.1398 21.1669 18.8006 20.7461 19.3481 20.1986C19.8955 19.6512 20.3163 18.9903 20.5809 18.2627C20.089 18.6528 19.4799 18.8655 18.8521 18.8664H18.0159Z" fill="url(#paint1_linear_14384_25770)"/>
<path d="M19.6584 1.5H7.54594C7.3829 1.49988 7.22144 1.5319 7.07079 1.59424C6.92014 1.65657 6.78325 1.748 6.66797 1.86328C6.55268 1.97857 6.46126 2.11545 6.39892 2.2661C6.33659 2.41675 6.30457 2.57821 6.30469 2.74125V12.5137C7.09062 11.9637 8.02185 11.6588 8.98089 11.6374C9.93992 11.6161 10.8838 11.8793 11.6934 12.3937H19.6584C19.7579 12.3937 19.8533 12.4333 19.9236 12.5036C19.9939 12.5739 20.0334 12.6693 20.0334 12.7687C20.0334 12.8682 19.9939 12.9636 19.9236 13.0339C19.8533 13.1042 19.7579 13.1437 19.6584 13.1437H12.6122C13.0424 13.5944 13.3834 14.1225 13.6172 14.7H19.6584C19.7579 14.7 19.8533 14.7395 19.9236 14.8098C19.9939 14.8802 20.0334 14.9755 20.0334 15.075C20.0334 15.1745 19.9939 15.2698 19.9236 15.3402C19.8533 15.4105 19.7579 15.45 19.6584 15.45H13.8497C13.9266 15.7985 13.9656 16.1543 13.9659 16.5112C13.9667 16.6766 13.958 16.8419 13.9397 17.0062H16.0247C16.1241 17.0062 16.2195 17.0458 16.2899 17.1161C16.3602 17.1864 16.3997 17.2818 16.3997 17.3812C16.3997 17.4807 16.3602 17.5761 16.2899 17.6464C16.2195 17.7167 16.1241 17.7562 16.0247 17.7562H13.8047C13.6574 18.3144 13.411 18.8416 13.0772 19.3125H16.0247C16.1241 19.3125 16.2195 19.352 16.2899 19.4223C16.3602 19.4927 16.3997 19.588 16.3997 19.6875C16.3997 19.787 16.3602 19.8823 16.2899 19.9527C16.2195 20.023 16.1241 20.0625 16.0247 20.0625H12.4284C11.7148 20.7356 10.8141 21.1769 9.84484 21.3281C8.87558 21.4794 7.88324 21.3336 6.99844 20.91L6.60094 21.3075C6.71584 21.4467 6.86022 21.5585 7.02365 21.6351C7.18709 21.7116 7.36548 21.7508 7.54594 21.75H15.2184C15.7613 21.7493 16.2816 21.5334 16.6655 21.1495C17.0493 20.7657 17.2652 20.2453 17.2659 19.7025V18.4912C17.2658 18.442 17.2753 18.3931 17.2941 18.3475C17.3129 18.302 17.3405 18.2606 17.3754 18.2257C17.4102 18.1908 17.4517 18.1632 17.4972 18.1444C17.5428 18.1257 17.5916 18.1161 17.6409 18.1162H18.8522C19.395 18.1156 19.9154 17.8996 20.2992 17.5158C20.6831 17.132 20.899 16.6116 20.8997 16.0687V2.74125C20.8998 2.57821 20.8678 2.41675 20.8055 2.2661C20.7431 2.11545 20.6517 1.97857 20.5364 1.86328C20.4211 1.748 20.2842 1.65657 20.1336 1.59424C19.9829 1.5319 19.8215 1.49988 19.6584 1.5ZM7.54594 3.1725H11.1797C11.2791 3.1725 11.3745 3.21201 11.4449 3.28234C11.5152 3.35266 11.5547 3.44804 11.5547 3.5475C11.5547 3.64696 11.5152 3.74234 11.4449 3.81267C11.3745 3.88299 11.2791 3.9225 11.1797 3.9225H7.54594C7.44648 3.9225 7.3511 3.88299 7.28077 3.81267C7.21045 3.74234 7.17094 3.64696 7.17094 3.5475C7.17094 3.44804 7.21045 3.35266 7.28077 3.28234C7.3511 3.21201 7.44648 3.1725 7.54594 3.1725ZM7.54594 5.07375H11.1797C11.2791 5.07375 11.3745 5.11326 11.4449 5.18358C11.5152 5.25391 11.5547 5.34929 11.5547 5.44875C11.5547 5.54821 11.5152 5.64359 11.4449 5.71391C11.3745 5.78424 11.2791 5.82375 11.1797 5.82375H7.54594C7.44648 5.82375 7.3511 5.78424 7.28077 5.71391C7.21045 5.64359 7.17094 5.54821 7.17094 5.44875C7.17094 5.34929 7.21045 5.25391 7.28077 5.18358C7.3511 5.11326 7.44648 5.07375 7.54594 5.07375ZM19.6584 10.8412H7.54594C7.44648 10.8412 7.3511 10.8017 7.28077 10.7314C7.21045 10.6611 7.17094 10.5657 7.17094 10.4662C7.17094 10.3668 7.21045 10.2714 7.28077 10.2011C7.3511 10.1308 7.44648 10.0912 7.54594 10.0912H19.6584C19.7579 10.0912 19.8533 10.1308 19.9236 10.2011C19.9939 10.2714 20.0334 10.3668 20.0334 10.4662C20.0334 10.5657 19.9939 10.6611 19.9236 10.7314C19.8533 10.8017 19.7579 10.8412 19.6584 10.8412ZM19.6584 8.535H7.54594C7.44648 8.535 7.3511 8.49549 7.28077 8.42516C7.21045 8.35484 7.17094 8.25946 7.17094 8.16C7.17094 8.06054 7.21045 7.96516 7.28077 7.89483C7.3511 7.82451 7.44648 7.785 7.54594 7.785H19.6584C19.7579 7.785 19.8533 7.82451 19.9236 7.89483C19.9939 7.96516 20.0334 8.06054 20.0334 8.16C20.0334 8.25946 19.9939 8.35484 19.9236 8.42516C19.8533 8.49549 19.7579 8.535 19.6584 8.535Z" fill="url(#paint2_linear_14384_25770)"/>
<defs>
<linearGradient id="paint0_linear_14384_25770" x1="8.16846" y1="12.3633" x2="8.16846" y2="22.501" gradientUnits="userSpaceOnUse">
<stop stop-color="#223CDD"/>
<stop offset="1" stop-color="#6176FF"/>
</linearGradient>
<linearGradient id="paint1_linear_14384_25770" x1="18.9965" y1="18.2627" x2="18.9965" y2="21.4314" gradientUnits="userSpaceOnUse">
<stop stop-color="#223CDD"/>
<stop offset="1" stop-color="#6176FF"/>
</linearGradient>
<linearGradient id="paint2_linear_14384_25770" x1="13.6022" y1="1.5" x2="13.6022" y2="21.75" gradientUnits="userSpaceOnUse">
<stop stop-color="#223CDD"/>
<stop offset="1" stop-color="#6176FF"/>
</linearGradient>
</defs>
</svg>
