<svg width="24" height="24" viewBox="0 0 24 24" fill="none" xmlns="http://www.w3.org/2000/svg">
<path d="M15.3 7.5752H2.625C2.3269 7.57606 2.04126 7.69487 1.83047 7.90566C1.61968 8.11645 1.50087 8.40209 1.5 8.7002V21.3752C1.50087 21.6733 1.61968 21.9589 1.83047 22.1697C2.04126 22.3805 2.3269 22.4993 2.625 22.5002H15.3C15.5981 22.4993 15.8837 22.3805 16.0945 22.1697C16.3053 21.9589 16.4241 21.6733 16.425 21.3752V8.7002C16.4241 8.40209 16.3053 8.11645 16.0945 7.90566C15.8837 7.69487 15.5981 7.57606 15.3 7.5752ZM6.05625 17.0214C6.12641 17.0917 6.16589 17.1868 6.16605 17.2861C6.1662 17.3853 6.12702 17.4806 6.05709 17.551C5.98715 17.6215 5.89215 17.6613 5.79289 17.6619C5.69364 17.6624 5.59821 17.6236 5.5275 17.5539L3.2775 15.3039C3.20724 15.2331 3.16781 15.1374 3.16781 15.0377C3.16781 14.9379 3.20724 14.8422 3.2775 14.7714L5.5275 12.5214C5.56219 12.4867 5.6034 12.4591 5.64876 12.4403C5.69413 12.4214 5.74276 12.4118 5.79187 12.4118C5.84099 12.4118 5.88962 12.4214 5.93499 12.4403C5.98035 12.4591 6.02156 12.4867 6.05625 12.5214C6.12651 12.5922 6.16593 12.6879 6.16593 12.7877C6.16593 12.8874 6.12651 12.9831 6.05625 13.0539L4.0725 15.0377L6.05625 17.0214ZM9.88875 12.8777L8.76375 17.3777C8.75196 17.4255 8.73087 17.4705 8.70168 17.5101C8.67249 17.5498 8.63577 17.5833 8.59362 17.6087C8.55148 17.6342 8.50473 17.6511 8.45605 17.6585C8.40738 17.6658 8.35772 17.6635 8.30993 17.6517C8.26214 17.6399 8.21715 17.6188 8.17753 17.5895C8.1379 17.5603 8.10443 17.5236 8.07901 17.4814C8.05359 17.4393 8.03674 17.3925 8.0294 17.3438C8.02206 17.2951 8.02439 17.2455 8.03625 17.1977L9.16125 12.6977C9.18659 12.6028 9.24816 12.5217 9.3327 12.4717C9.41725 12.4218 9.51803 12.407 9.61335 12.4306C9.70868 12.4542 9.79094 12.5142 9.84244 12.5979C9.89394 12.6815 9.91057 12.7819 9.88875 12.8777ZM14.6475 15.3039L12.3975 17.5539C12.3269 17.6241 12.2313 17.6633 12.1318 17.6629C12.0323 17.6626 11.937 17.6227 11.8669 17.5521C11.7968 17.4815 11.7576 17.3859 11.7579 17.2864C11.7583 17.1869 11.7981 17.0916 11.8687 17.0214L13.8525 15.0377L11.8687 13.0539C11.7985 12.9831 11.7591 12.8874 11.7591 12.7877C11.7591 12.6879 11.7985 12.5922 11.8687 12.5214C11.9034 12.4867 11.9446 12.4591 11.99 12.4403C12.0354 12.4214 12.084 12.4118 12.1331 12.4118C12.1822 12.4118 12.2309 12.4214 12.2762 12.4403C12.3216 12.4591 12.3628 12.4867 12.3975 12.5214L14.6475 14.7714C14.7178 14.8422 14.7572 14.9379 14.7572 15.0377C14.7572 15.1374 14.7178 15.2331 14.6475 15.3039Z" fill="url(#paint0_linear_14384_25865)"/>
<path d="M18.3371 4.53711H5.66211C5.36401 4.53799 5.07837 4.65679 4.86758 4.86758C4.65679 5.07837 4.53799 5.36401 4.53711 5.66211V6.82461H15.2996C15.7968 6.82479 16.2736 7.02239 16.6252 7.37398C16.9768 7.72557 17.1744 8.20238 17.1746 8.69961V19.4621H18.3371C18.6352 19.4612 18.9208 19.3424 19.1316 19.1316C19.3424 18.9208 19.4612 18.6352 19.4621 18.3371V5.66211C19.4612 5.36401 19.3424 5.07837 19.1316 4.86758C18.9208 4.65679 18.6352 4.53799 18.3371 4.53711Z" fill="url(#paint1_linear_14384_25865)"/>
<path d="M21.3742 1.5H8.69922C8.40112 1.50087 8.11547 1.61968 7.90468 1.83047C7.69389 2.04126 7.57509 2.3269 7.57422 2.625V3.7875H18.3367C18.8339 3.78768 19.3108 3.98529 19.6623 4.33688C20.0139 4.68847 20.2115 5.16528 20.2117 5.6625V16.425H21.3742C21.6723 16.4241 21.958 16.3053 22.1688 16.0945C22.3795 15.8837 22.4983 15.5981 22.4992 15.3V2.625C22.4983 2.3269 22.3795 2.04126 22.1688 1.83047C21.958 1.61968 21.6723 1.50087 21.3742 1.5Z" fill="url(#paint2_linear_14384_25865)"/>
<defs>
<linearGradient id="paint0_linear_14384_25865" x1="8.9625" y1="7.5752" x2="8.9625" y2="22.5002" gradientUnits="userSpaceOnUse">
<stop stop-color="#223CDD"/>
<stop offset="1" stop-color="#6176FF"/>
</linearGradient>
<linearGradient id="paint1_linear_14384_25865" x1="11.9996" y1="4.53711" x2="11.9996" y2="19.4621" gradientUnits="userSpaceOnUse">
<stop stop-color="#223CDD"/>
<stop offset="1" stop-color="#6176FF"/>
</linearGradient>
<linearGradient id="paint2_linear_14384_25865" x1="15.0367" y1="1.5" x2="15.0367" y2="16.425" gradientUnits="userSpaceOnUse">
<stop stop-color="#223CDD"/>
<stop offset="1" stop-color="#6176FF"/>
</linearGradient>
</defs>
</svg>
