<svg width="24" height="24" viewBox="0 0 24 24" fill="none" xmlns="http://www.w3.org/2000/svg">
<path d="M13.6417 16.7102C16.149 15.1149 15.0075 11.1354 11.9993 11.1377C8.9778 11.1514 7.85699 15.086 10.3493 16.7102C9.57681 16.9676 8.8738 17.399 8.29449 17.9712C7.71518 18.5434 7.27505 19.241 7.00806 20.0102C6.93115 20.25 6.91195 20.5047 6.95202 20.7534C6.9921 21.002 7.09032 21.2378 7.23869 21.4413C7.38706 21.6449 7.58139 21.8105 7.80587 21.9248C8.03036 22.0391 8.27865 22.0987 8.53054 22.0989L15.468 22.0989C15.8819 22.0981 16.2795 21.9379 16.5784 21.6516C16.8773 21.3653 17.0544 20.9749 17.073 20.5614C16.8823 18.7627 15.3031 17.2667 13.6417 16.7102Z" fill="url(#paint0_linear_14384_25843)"/>
<path d="M19.9569 16.6608C22.267 14.8724 20.076 11.3253 17.4333 12.5696C15.8437 13.2921 15.6346 15.6803 17.062 16.6608C16.6888 16.8027 16.3378 16.9972 16.0195 17.2383C16.9946 18.1594 17.9814 19.5078 17.7857 20.9208H21.1757C21.3872 20.9203 21.5955 20.8693 21.7833 20.7722C21.9712 20.675 22.1331 20.5344 22.2557 20.3621C23.1625 19.0256 21.1675 17.0306 19.9569 16.6608Z" fill="url(#paint1_linear_14384_25843)"/>
<path d="M7.98057 17.2383C7.66272 16.9965 7.31155 16.802 6.93799 16.6608C8.78921 15.3183 7.79019 12.3018 5.49064 12.3146C3.17764 12.2934 2.20572 15.3478 4.04303 16.6608C2.8329 17.04 0.838933 19.0079 1.74432 20.3621C1.86691 20.5344 2.02885 20.675 2.21669 20.7722C2.40452 20.8693 2.61283 20.9203 2.82432 20.9208L6.21422 20.9208C6.01064 19.5102 7.00886 18.1718 7.98057 17.2383Z" fill="url(#paint2_linear_14384_25843)"/>
<path d="M20.535 10.4139C20.442 10.4151 20.3512 10.3856 20.2767 10.33C20.2021 10.2745 20.1479 10.1959 20.1225 10.1064C19.9423 9.47252 19.688 8.86207 19.365 8.28764C19.3193 8.20633 19.3018 8.11213 19.3154 8.01982C19.3289 7.92751 19.3728 7.84233 19.44 7.77764C20.2463 7.13264 20.4654 6.03983 19.7138 5.26139L19.14 4.68764C18.8417 4.39215 18.4387 4.22638 18.0188 4.22638C17.5988 4.22638 17.1959 4.39213 16.8975 4.68762C16.6966 4.8921 16.4332 5.23041 16.1138 5.03637C15.5393 4.71338 14.9289 4.45913 14.295 4.27887C14.2056 4.25346 14.127 4.19928 14.0714 4.12472C14.0158 4.05016 13.9863 3.95936 13.9875 3.86637C14.1001 2.84299 13.4857 1.91698 12.405 1.90137H11.595C10.5104 1.91894 9.90219 2.84076 10.0125 3.86637C10.0137 3.95936 9.98425 4.05016 9.92867 4.12472C9.87309 4.19929 9.79448 4.25346 9.70502 4.27887C9.07001 4.45586 8.45917 4.71027 7.88627 5.03637C7.80496 5.08213 7.71075 5.0996 7.61844 5.08603C7.52612 5.07246 7.44093 5.02862 7.37623 4.96139C6.73696 4.1579 5.63375 3.93526 4.86001 4.68764L4.28626 5.26135C3.53252 6.03923 3.75639 7.13486 4.56002 7.77765C4.62726 7.84233 4.67112 7.92752 4.68469 8.01983C4.69827 8.11214 4.68079 8.20635 4.63502 8.28765C4.30891 8.86055 4.0545 9.47139 3.87752 10.1064C3.78152 10.4684 3.38235 10.4158 3.08625 10.4139C2.66618 10.4138 2.26324 10.5804 1.96586 10.8771C1.66847 11.1738 1.50093 11.5763 1.5 11.9964V12.8064C1.50031 13.0985 1.58139 13.3847 1.73427 13.6336C1.88715 13.8824 2.10587 14.0841 2.36625 14.2164C2.48934 13.4765 2.87069 12.8041 3.44259 12.3187C4.01448 11.8333 4.73989 11.5663 5.49 11.5652C5.86931 11.5638 6.24562 11.6324 6.6 11.7677C6.75466 10.4445 7.3899 9.22424 8.38506 8.33863C9.38022 7.45302 10.666 6.96376 11.9981 6.96376C13.3303 6.96377 14.6161 7.45305 15.6112 8.33866C16.6064 9.22428 17.2416 10.4445 17.3962 11.7677C17.8343 11.6059 18.3026 11.5426 18.7679 11.5823C19.2332 11.6221 19.684 11.7639 20.0882 11.9977C20.4925 12.2315 20.8402 12.5515 21.1067 12.935C21.3732 13.3185 21.5518 13.756 21.63 14.2164C21.8916 14.0853 22.1116 13.884 22.2653 13.635C22.419 13.3859 22.5002 13.099 22.5 12.8064V11.9964C22.4835 10.9125 21.5585 10.3027 20.535 10.4139Z" fill="url(#paint3_linear_14384_25843)"/>
<path d="M12.5891 10.4365C13.3307 10.5554 14.0204 10.8918 14.5705 11.4032C15.1206 11.9147 15.5065 12.578 15.6791 13.309C15.9133 12.8468 16.257 12.449 16.6803 12.1502C16.6162 10.9523 16.0952 9.82453 15.2246 8.99921C14.3539 8.1739 13.2 7.71387 12.0003 7.71387C10.8007 7.71387 9.64668 8.1739 8.77604 8.99921C7.9054 9.82453 7.38439 10.9523 7.32031 12.1502C7.74329 12.4515 8.08582 12.8519 8.31781 13.3165C8.53784 12.3877 9.09941 11.5757 9.89082 11.0421C10.6822 10.5085 11.6455 10.2923 12.5891 10.4365Z" fill="url(#paint4_linear_14384_25843)"/>
<defs>
<linearGradient id="paint0_linear_14384_25843" x1="12.0023" y1="11.1377" x2="12.0023" y2="22.0989" gradientUnits="userSpaceOnUse">
<stop stop-color="#223CDD"/>
<stop offset="1" stop-color="#6176FF"/>
</linearGradient>
<linearGradient id="paint1_linear_14384_25843" x1="19.2522" y1="12.3105" x2="19.2522" y2="20.9208" gradientUnits="userSpaceOnUse">
<stop stop-color="#223CDD"/>
<stop offset="1" stop-color="#6176FF"/>
</linearGradient>
<linearGradient id="paint2_linear_14384_25843" x1="4.7481" y1="12.3145" x2="4.7481" y2="20.9208" gradientUnits="userSpaceOnUse">
<stop stop-color="#223CDD"/>
<stop offset="1" stop-color="#6176FF"/>
</linearGradient>
<linearGradient id="paint3_linear_14384_25843" x1="12" y1="1.90137" x2="12" y2="14.2164" gradientUnits="userSpaceOnUse">
<stop stop-color="#223CDD"/>
<stop offset="1" stop-color="#6176FF"/>
</linearGradient>
<linearGradient id="paint4_linear_14384_25843" x1="12.0003" y1="7.71387" x2="12.0003" y2="13.3165" gradientUnits="userSpaceOnUse">
<stop stop-color="#223CDD"/>
<stop offset="1" stop-color="#6176FF"/>
</linearGradient>
</defs>
</svg>
