<svg width="24" height="24" viewBox="0 0 24 24" fill="none" xmlns="http://www.w3.org/2000/svg">
<path d="M22.1257 1.5H19.8757C19.7763 1.5003 19.6811 1.5399 19.6109 1.61016C19.5406 1.68042 19.501 1.77564 19.5007 1.875V2.625H15.8145C15.715 2.625 15.6196 2.66451 15.5493 2.73484C15.479 2.80516 15.4395 2.90054 15.4395 3C15.4395 3.09946 15.479 3.19484 15.5493 3.26516C15.6196 3.33549 15.715 3.375 15.8145 3.375H19.5007V4.125C19.501 4.22436 19.5406 4.31958 19.6109 4.38984C19.6811 4.4601 19.7763 4.4997 19.8757 4.5H20.6257V8.18625C20.6257 8.28571 20.6652 8.38109 20.7355 8.45142C20.8059 8.52174 20.9012 8.56125 21.0007 8.56125C21.1002 8.56125 21.1955 8.52174 21.2659 8.45142C21.3362 8.38109 21.3757 8.28571 21.3757 8.18625V4.5H22.1257C22.2251 4.4997 22.3203 4.4601 22.3905 4.38984C22.4608 4.31958 22.5004 4.22436 22.5007 4.125V1.875C22.5004 1.77564 22.4608 1.68042 22.3905 1.61016C22.3203 1.5399 22.2251 1.5003 22.1257 1.5Z" fill="url(#paint0_linear_14384_25789)"/>
<path d="M22.1257 19.4997H21.3757V15.8135C21.3757 15.714 21.3362 15.6186 21.2659 15.5483C21.1955 15.478 21.1002 15.4385 21.0007 15.4385C20.9012 15.4385 20.8059 15.478 20.7355 15.5483C20.6652 15.6186 20.6257 15.714 20.6257 15.8135V19.4997H19.8757C19.7763 19.5 19.6811 19.5396 19.6109 19.6099C19.5406 19.6802 19.501 19.7754 19.5007 19.8747V20.6247H15.8145C15.715 20.6247 15.6196 20.6642 15.5493 20.7346C15.479 20.8049 15.4395 20.9003 15.4395 20.9997C15.4395 21.0992 15.479 21.1946 15.5493 21.2649C15.6196 21.3352 15.715 21.3747 15.8145 21.3747H19.5007V22.1247C19.501 22.2241 19.5406 22.3193 19.6109 22.3896C19.6811 22.4598 19.7763 22.4994 19.8757 22.4997H22.1257C22.2251 22.4994 22.3203 22.4598 22.3905 22.3896C22.4608 22.3193 22.5004 22.2241 22.5007 22.1247V19.8747C22.5004 19.7754 22.4608 19.6802 22.3905 19.6099C22.3203 19.5396 22.2251 19.5 22.1257 19.4997Z" fill="url(#paint1_linear_14384_25789)"/>
<path d="M8.18625 20.6247H4.5V19.8747C4.4997 19.7754 4.4601 19.6802 4.38984 19.6099C4.31958 19.5396 4.22436 19.5 4.125 19.4997H3.375V15.8135C3.375 15.714 3.33549 15.6186 3.26516 15.5483C3.19484 15.478 3.09946 15.4385 3 15.4385C2.90054 15.4385 2.80516 15.478 2.73484 15.5483C2.66451 15.6186 2.625 15.714 2.625 15.8135V19.4997H1.875C1.77564 19.5 1.68042 19.5396 1.61016 19.6099C1.5399 19.6802 1.5003 19.7754 1.5 19.8747V22.1247C1.5003 22.2241 1.5399 22.3193 1.61016 22.3896C1.68042 22.4598 1.77564 22.4994 1.875 22.4997H4.125C4.22436 22.4994 4.31958 22.4598 4.38984 22.3896C4.4601 22.3193 4.4997 22.2241 4.5 22.1247V21.3747H8.18625C8.28571 21.3747 8.38109 21.3352 8.45142 21.2649C8.52174 21.1946 8.56125 21.0992 8.56125 20.9997C8.56125 20.9003 8.52174 20.8049 8.45142 20.7346C8.38109 20.6642 8.28571 20.6247 8.18625 20.6247Z" fill="url(#paint2_linear_14384_25789)"/>
<path d="M1.875 4.5H2.625V8.18625C2.625 8.28571 2.66451 8.38109 2.73484 8.45142C2.80516 8.52174 2.90054 8.56125 3 8.56125C3.09946 8.56125 3.19484 8.52174 3.26516 8.45142C3.33549 8.38109 3.375 8.28571 3.375 8.18625V4.5H4.125C4.22436 4.4997 4.31958 4.4601 4.38984 4.38984C4.4601 4.31958 4.4997 4.22436 4.5 4.125V3.375H8.18625C8.28571 3.375 8.38109 3.33549 8.45142 3.26516C8.52174 3.19484 8.56125 3.09946 8.56125 3C8.56125 2.90054 8.52174 2.80516 8.45142 2.73484C8.38109 2.66451 8.28571 2.625 8.18625 2.625H4.5V1.875C4.4997 1.77564 4.4601 1.68042 4.38984 1.61016C4.31958 1.5399 4.22436 1.5003 4.125 1.5H1.875C1.77564 1.5003 1.68042 1.5399 1.61016 1.61016C1.5399 1.68042 1.5003 1.77564 1.5 1.875V4.125C1.5003 4.22436 1.5399 4.31958 1.61016 4.38984C1.68042 4.4601 1.77564 4.4997 1.875 4.5Z" fill="url(#paint3_linear_14384_25789)"/>
<path d="M19.8809 12C19.8807 12.0743 19.9026 12.1471 19.9437 12.209C19.9849 12.2709 20.0435 12.3192 20.1121 12.3479C20.1807 12.3765 20.2563 12.3841 20.3292 12.3698C20.4022 12.3555 20.4692 12.3198 20.5219 12.2674C20.5746 12.2149 20.6106 12.148 20.6253 12.0751C20.64 12.0023 20.6327 11.9267 20.6044 11.8579C20.5761 11.7891 20.5281 11.7303 20.4664 11.6889C20.4047 11.6474 20.332 11.6252 20.2577 11.625H20.254C20.2049 11.6251 20.1562 11.6348 20.1109 11.6537C20.0655 11.6726 20.0243 11.7002 19.9896 11.7351C19.955 11.7699 19.9275 11.8112 19.9089 11.8567C19.8902 11.9022 19.8807 11.9509 19.8809 12Z" fill="url(#paint4_linear_14384_25789)"/>
<path d="M18.3826 11.625H18.3789C18.2791 11.6255 18.1836 11.6655 18.1133 11.7363C18.043 11.8072 18.0037 11.903 18.0039 12.0027C18.0041 12.1025 18.044 12.1981 18.1146 12.2686C18.1852 12.3391 18.281 12.3787 18.3807 12.3787C18.4805 12.3787 18.5762 12.3391 18.6469 12.2686C18.7175 12.1981 18.7573 12.1025 18.7576 12.0027C18.7578 11.903 18.7185 11.8072 18.6482 11.7363C18.5779 11.6655 18.4824 11.6255 18.3826 11.625Z" fill="url(#paint5_linear_14384_25789)"/>
<path d="M5.63257 11.625H5.62891C5.52913 11.6255 5.43361 11.6655 5.36331 11.7363C5.29301 11.8072 5.25367 11.903 5.25391 12.0027C5.25415 12.1025 5.29396 12.1981 5.3646 12.2686C5.43525 12.3391 5.53096 12.3787 5.63074 12.3787C5.73052 12.3787 5.82623 12.3391 5.89688 12.2686C5.96752 12.1981 6.00733 12.1025 6.00757 12.0027C6.00781 11.903 5.96847 11.8072 5.89817 11.7363C5.82787 11.6655 5.73235 11.6255 5.63257 11.625Z" fill="url(#paint6_linear_14384_25789)"/>
<path d="M3.75757 11.625H3.75391C3.65413 11.6255 3.55861 11.6655 3.48831 11.7363C3.41801 11.8072 3.37867 11.903 3.37891 12.0027C3.37915 12.1025 3.41896 12.1981 3.4896 12.2686C3.56025 12.3391 3.65596 12.3787 3.75574 12.3787C3.85552 12.3787 3.95123 12.3391 4.02188 12.2686C4.09252 12.1981 4.13233 12.1025 4.13257 12.0027C4.13281 11.903 4.09347 11.8072 4.02317 11.7363C3.95287 11.6655 3.85735 11.6255 3.75757 11.625Z" fill="url(#paint7_linear_14384_25789)"/>
<path d="M12 5.83922C9.88251 5.82304 7.79868 6.3692 5.96134 7.42193C4.12401 8.47465 2.59904 9.99621 1.54218 11.8312C1.51449 11.8831 1.5 11.9411 1.5 11.9999C1.5 12.0588 1.51449 12.1167 1.54218 12.1687C2.59903 14.0036 4.12401 15.5252 5.96134 16.5779C7.79867 17.6306 9.88251 18.1768 12 18.1606C14.1175 18.1768 16.2013 17.6306 18.0387 16.5779C19.876 15.5252 21.401 14.0036 22.4578 12.1687C22.4855 12.1167 22.5 12.0588 22.5 11.9999C22.5 11.9411 22.4855 11.8831 22.4578 11.8312C21.401 9.99621 19.876 8.47465 18.0387 7.42193C16.2013 6.3692 14.1175 5.82304 12 5.83922ZM12 17.4107C10.0533 17.4268 8.13596 16.9365 6.43599 15.9879C4.73602 15.0393 3.3119 13.665 2.30337 11.9999C3.31189 10.3348 4.73601 8.96051 6.43598 8.01192C8.13595 7.06333 10.0533 6.57303 12 6.58915C13.9467 6.57303 15.864 7.06333 17.564 8.01192C19.264 8.96051 20.6881 10.3348 21.6966 11.9999C20.6881 13.665 19.264 15.0393 17.564 15.9879C15.864 16.9365 13.9467 17.4268 12 17.4107Z" fill="url(#paint8_linear_14384_25789)"/>
<path d="M11.9996 7.3125C11.0726 7.3125 10.1664 7.58739 9.39558 8.10242C8.6248 8.61744 8.02404 9.34946 7.66929 10.2059C7.31453 11.0624 7.22171 12.0048 7.40256 12.914C7.58342 13.8232 8.02982 14.6584 8.68532 15.3139C9.34082 15.9694 10.176 16.4158 11.0852 16.5966C11.9944 16.7775 12.9368 16.6846 13.7933 16.3299C14.6497 15.9751 15.3817 15.3744 15.8968 14.6036C16.4118 13.8328 16.6867 12.9266 16.6867 11.9996C16.685 10.757 16.1906 9.56585 15.312 8.68722C14.4333 7.8086 13.2422 7.31423 11.9996 7.3125ZM14.6469 13.312C14.6474 13.3776 14.6303 13.4422 14.5973 13.4989C14.5643 13.5556 14.5167 13.6024 14.4594 13.6344L12.1871 14.9506C12.1298 14.9825 12.0652 14.9993 11.9996 14.9993C11.934 14.9993 11.8694 14.9825 11.8121 14.9506L9.53982 13.6344C9.48251 13.6024 9.43487 13.5556 9.40188 13.4989C9.36889 13.4422 9.35177 13.3776 9.35232 13.312V10.6872C9.35177 10.6216 9.36889 10.557 9.40188 10.5003C9.43487 10.4435 9.48251 10.3967 9.53982 10.3647L11.8121 9.04859C11.8696 9.01721 11.9341 9.00077 11.9996 9.00077C12.0651 9.00077 12.1296 9.01721 12.1871 9.04859L14.4594 10.3647C14.5167 10.3967 14.5643 10.4435 14.5973 10.5003C14.6303 10.557 14.6474 10.6216 14.6469 10.6872V13.312Z" fill="url(#paint9_linear_14384_25789)"/>
<path d="M12.375 13.9756L13.8975 13.0947V11.3359L12.375 12.2172V13.9756Z" fill="url(#paint10_linear_14384_25789)"/>
<path d="M10.1016 13.0947L11.6241 13.9756V12.2172L10.1016 11.3359V13.0947Z" fill="url(#paint11_linear_14384_25789)"/>
<path d="M11.9991 9.80664L10.4766 10.6879L11.9991 11.5691L13.5216 10.6879L11.9991 9.80664Z" fill="url(#paint12_linear_14384_25789)"/>
<defs>
<linearGradient id="paint0_linear_14384_25789" x1="18.9701" y1="1.5" x2="18.9701" y2="8.56125" gradientUnits="userSpaceOnUse">
<stop stop-color="#223CDD"/>
<stop offset="1" stop-color="#6176FF"/>
</linearGradient>
<linearGradient id="paint1_linear_14384_25789" x1="18.9701" y1="15.4385" x2="18.9701" y2="22.4997" gradientUnits="userSpaceOnUse">
<stop stop-color="#223CDD"/>
<stop offset="1" stop-color="#6176FF"/>
</linearGradient>
<linearGradient id="paint2_linear_14384_25789" x1="5.03063" y1="15.4385" x2="5.03063" y2="22.4997" gradientUnits="userSpaceOnUse">
<stop stop-color="#223CDD"/>
<stop offset="1" stop-color="#6176FF"/>
</linearGradient>
<linearGradient id="paint3_linear_14384_25789" x1="5.03063" y1="1.5" x2="5.03063" y2="8.56125" gradientUnits="userSpaceOnUse">
<stop stop-color="#223CDD"/>
<stop offset="1" stop-color="#6176FF"/>
</linearGradient>
<linearGradient id="paint4_linear_14384_25789" x1="20.2568" y1="11.625" x2="20.2568" y2="12.3768" gradientUnits="userSpaceOnUse">
<stop stop-color="#223CDD"/>
<stop offset="1" stop-color="#6176FF"/>
</linearGradient>
<linearGradient id="paint5_linear_14384_25789" x1="18.3807" y1="11.625" x2="18.3807" y2="12.3787" gradientUnits="userSpaceOnUse">
<stop stop-color="#223CDD"/>
<stop offset="1" stop-color="#6176FF"/>
</linearGradient>
<linearGradient id="paint6_linear_14384_25789" x1="5.63074" y1="11.625" x2="5.63074" y2="12.3787" gradientUnits="userSpaceOnUse">
<stop stop-color="#223CDD"/>
<stop offset="1" stop-color="#6176FF"/>
</linearGradient>
<linearGradient id="paint7_linear_14384_25789" x1="3.75574" y1="11.625" x2="3.75574" y2="12.3787" gradientUnits="userSpaceOnUse">
<stop stop-color="#223CDD"/>
<stop offset="1" stop-color="#6176FF"/>
</linearGradient>
<linearGradient id="paint8_linear_14384_25789" x1="12" y1="5.83887" x2="12" y2="18.161" gradientUnits="userSpaceOnUse">
<stop stop-color="#223CDD"/>
<stop offset="1" stop-color="#6176FF"/>
</linearGradient>
<linearGradient id="paint9_linear_14384_25789" x1="11.9996" y1="7.3125" x2="11.9996" y2="16.6867" gradientUnits="userSpaceOnUse">
<stop stop-color="#223CDD"/>
<stop offset="1" stop-color="#6176FF"/>
</linearGradient>
<linearGradient id="paint10_linear_14384_25789" x1="13.1363" y1="11.3359" x2="13.1363" y2="13.9756" gradientUnits="userSpaceOnUse">
<stop stop-color="#223CDD"/>
<stop offset="1" stop-color="#6176FF"/>
</linearGradient>
<linearGradient id="paint11_linear_14384_25789" x1="10.8628" y1="11.3359" x2="10.8628" y2="13.9756" gradientUnits="userSpaceOnUse">
<stop stop-color="#223CDD"/>
<stop offset="1" stop-color="#6176FF"/>
</linearGradient>
<linearGradient id="paint12_linear_14384_25789" x1="11.9991" y1="9.80664" x2="11.9991" y2="11.5691" gradientUnits="userSpaceOnUse">
<stop stop-color="#223CDD"/>
<stop offset="1" stop-color="#6176FF"/>
</linearGradient>
</defs>
</svg>
