<svg width="24" height="24" viewBox="0 0 24 24" fill="none" xmlns="http://www.w3.org/2000/svg">
<path d="M18.6202 15.3784C18.7087 15.6282 18.8825 15.8386 19.1111 15.9726C19.3397 16.1066 19.6083 16.1555 19.8695 16.1106C20.1306 16.0658 20.3675 15.93 20.5383 15.7274C20.709 15.5248 20.8027 15.2684 20.8027 15.0034C20.8027 14.7384 20.709 14.482 20.5383 14.2794C20.3675 14.0768 20.1306 13.9411 19.8695 13.8962C19.6083 13.8513 19.3397 13.9002 19.1111 14.0342C18.8825 14.1682 18.7087 14.3787 18.6202 14.6284L13.6778 14.6284V12.3785H15.9953C16.0837 12.6286 16.2578 12.8395 16.4867 12.9738C16.7156 13.1081 16.9846 13.1571 17.2462 13.1122C17.5077 13.0673 17.745 12.9315 17.916 12.7286C18.0871 12.5257 18.1809 12.2688 18.1809 12.0035C18.1809 11.7381 18.0871 11.4812 17.916 11.2783C17.745 11.0754 17.5077 10.9396 17.2462 10.8947C16.9846 10.8498 16.7156 10.8988 16.4867 11.0331C16.2578 11.1674 16.0837 11.3783 15.9953 11.6284H13.6778V9.37852H18.6202C18.7087 9.62872 18.8828 9.8396 19.1117 9.97388C19.3406 10.1082 19.6096 10.1572 19.8711 10.1123C20.1327 10.0674 20.37 9.93154 20.541 9.72864C20.7121 9.52574 20.8059 9.2689 20.8059 9.00352C20.8059 8.73813 20.7121 8.4813 20.541 8.2784C20.37 8.07549 20.1327 7.9396 19.8711 7.89472C19.6096 7.84984 19.3406 7.89888 19.1117 8.03316C18.8828 8.16743 18.7087 8.37831 18.6202 8.62852H13.6778V6.37858H18.1777C18.6749 6.3784 19.1517 6.1808 19.5033 5.82922C19.8549 5.47764 20.0525 5.00084 20.0527 4.50362V4.06112C20.3029 3.97266 20.5138 3.7986 20.648 3.5697C20.7823 3.3408 20.8313 3.0718 20.7865 2.81025C20.7416 2.54869 20.6057 2.31142 20.4028 2.14037C20.1999 1.96932 19.9431 1.87551 19.6777 1.87551C19.4123 1.87551 19.1555 1.96932 18.9526 2.14037C18.7497 2.31142 18.6138 2.54869 18.5689 2.81025C18.524 3.0718 18.5731 3.3408 18.7073 3.5697C18.8416 3.7986 19.0525 3.97266 19.3027 4.06112V4.50362C19.3018 4.80171 19.183 5.08735 18.9722 5.29813C18.7614 5.50892 18.4758 5.62772 18.1777 5.6286H13.6778V3.57738C13.6709 3.13335 13.5214 2.70332 13.2513 2.35082C12.9812 1.99833 12.6048 1.74208 12.1779 1.61993C11.7712 1.4757 11.331 1.455 10.9126 1.56043C10.4942 1.66586 10.1164 1.89271 9.82667 2.21243C7.77815 1.78187 5.84403 3.98252 7.00306 5.86114C5.147 6.01964 4.02473 8.11068 5.06434 9.62978C4.53205 9.75879 4.05857 10.063 3.71996 10.4935C3.38135 10.924 3.19726 11.4558 3.19727 12.0035C3.19727 12.5512 3.38136 13.083 3.71997 13.5135C4.05858 13.9439 4.53206 14.2481 5.06435 14.3771C4.02475 15.8929 5.16744 17.9847 7.00678 18.1458C5.84143 20.0178 7.77734 22.2321 9.8267 21.7944C11.0345 23.2357 13.7242 22.3133 13.6778 20.4294L13.6778 18.3783H18.1777C18.4758 18.3792 18.7615 18.498 18.9723 18.7088C19.1831 18.9195 19.3019 19.2052 19.3027 19.5033V19.9458C19.0525 20.0343 18.8417 20.2083 18.7074 20.4372C18.5731 20.6661 18.5241 20.9351 18.5689 21.1967C18.6138 21.4582 18.7497 21.6955 18.9526 21.8666C19.1555 22.0376 19.4123 22.1314 19.6777 22.1314C19.9431 22.1314 20.1999 22.0376 20.4028 21.8666C20.6057 21.6955 20.7416 21.4582 20.7865 21.1967C20.8314 20.9351 20.7823 20.6661 20.6481 20.4372C20.5138 20.2083 20.3029 20.0343 20.0527 19.9458C20.179 18.7238 19.4638 17.6541 18.1777 17.6284H13.6778V15.3784H18.6202ZM9.64292 16.4996C9.24115 16.6113 8.81196 16.5667 8.4418 16.3746C8.07163 16.1826 7.78798 15.8574 7.64797 15.4646C7.53492 15.1542 7.51979 14.6291 7.96675 14.6284C8.01605 14.6297 8.0646 14.6407 8.10962 14.6609C8.15463 14.681 8.19522 14.7099 8.22903 14.7458C8.26284 14.7817 8.28921 14.8239 8.30661 14.8701C8.32402 14.9162 8.33212 14.9653 8.33045 15.0146C8.33064 15.0921 8.342 15.1692 8.3642 15.2434C8.44421 15.4526 8.60041 15.6238 8.80144 15.7226C9.00246 15.8213 9.23342 15.8404 9.44791 15.7759C9.54327 15.7519 9.64424 15.7663 9.72906 15.8161C9.81387 15.8658 9.87574 15.9469 9.90133 16.0418C9.92691 16.1368 9.91416 16.238 9.86582 16.3236C9.81748 16.4092 9.73743 16.4725 9.64292 16.4996ZM9.90917 8.09603C9.8967 8.14399 9.87481 8.18899 9.84478 8.22842C9.81476 8.26785 9.77719 8.30091 9.73427 8.32568C9.69135 8.35046 9.64393 8.36645 9.59477 8.37274C9.54561 8.37902 9.4957 8.37546 9.44792 8.36228C9.23343 8.29778 9.00247 8.31683 8.80145 8.41561C8.60042 8.51438 8.44422 8.68557 8.36422 8.89478C8.33593 9.12757 8.23943 9.38347 7.96297 9.37851C7.57401 9.3746 7.5329 8.95937 7.64801 8.66979C7.78809 8.2772 8.07194 7.9524 8.44223 7.76099C8.81252 7.56958 9.24164 7.52583 9.64294 7.63856C9.7387 7.66427 9.82041 7.72677 9.87028 7.81246C9.92015 7.89815 9.93413 8.00008 9.90917 8.09603ZM10.5804 13.1284C10.5802 13.0791 10.5898 13.0303 10.6086 12.9847C10.6274 12.9392 10.655 12.8977 10.6898 12.8629C10.7247 12.828 10.7661 12.8004 10.8117 12.7816C10.8573 12.7628 10.9061 12.7533 10.9554 12.7534C11.1664 12.7647 11.3734 12.6922 11.5314 12.5518C11.6893 12.4114 11.7855 12.2143 11.7991 12.0034C11.8005 11.9049 11.8406 11.8108 11.9107 11.7415C11.9809 11.6723 12.0756 11.6334 12.1741 11.6334C12.2727 11.6334 12.3674 11.6723 12.4376 11.7415C12.5077 11.8108 12.5478 11.9049 12.5491 12.0034C12.5359 12.4134 12.3608 12.8015 12.0621 13.0826C11.7634 13.3637 11.3655 13.515 10.9554 13.5034C10.9061 13.5036 10.8573 13.494 10.8117 13.4752C10.7661 13.4564 10.7247 13.4288 10.6899 13.394C10.655 13.3591 10.6274 13.3177 10.6086 13.2721C10.5898 13.2266 10.5802 13.1777 10.5804 13.1284ZM12.3166 19.6045C12.1921 19.7944 12.0282 19.9553 11.836 20.0763C11.6439 20.1972 11.4279 20.2755 11.2029 20.3058C11.1105 20.3037 11.022 20.2679 10.9543 20.2049C10.8865 20.142 10.8443 20.0564 10.8355 19.9643C10.8267 19.8723 10.852 19.7802 10.9066 19.7056C10.9612 19.631 11.0413 19.579 11.1317 19.5595C11.2439 19.5395 11.351 19.4969 11.4463 19.4344C11.5417 19.3719 11.6234 19.2907 11.6866 19.1958C11.7795 19.0533 11.8174 18.8819 11.7932 18.7136C11.7691 18.5452 11.6845 18.3914 11.5554 18.2808C11.5188 18.2478 11.489 18.208 11.4679 18.1635C11.4467 18.1191 11.4345 18.0709 11.432 18.0217C11.4295 17.9725 11.4367 17.9233 11.4532 17.8769C11.4698 17.8305 11.4953 17.7879 11.5284 17.7514C11.5614 17.7149 11.6013 17.6852 11.6459 17.6642C11.6904 17.6431 11.7386 17.6311 11.7878 17.6287C11.837 17.6263 11.8862 17.6337 11.9325 17.6504C11.9788 17.667 12.0214 17.6927 12.0579 17.7258C12.3194 17.9557 12.4895 18.272 12.537 18.617C12.5845 18.962 12.5063 19.3125 12.3166 19.6045ZM12.5154 5.77858C12.4591 6.09433 12.209 6.54239 11.8366 6.32606C11.7941 6.3011 11.757 6.26797 11.7273 6.22858C11.6977 6.18919 11.6761 6.14432 11.6639 6.09655C11.6517 6.04879 11.6491 5.99908 11.6562 5.9503C11.6633 5.90152 11.68 5.85463 11.7054 5.81234C11.7425 5.74959 11.7691 5.68118 11.7841 5.60984C11.8016 5.50798 11.7986 5.40363 11.7751 5.30297C11.7516 5.20231 11.7081 5.1074 11.6473 5.02383C11.5864 4.94027 11.5094 4.86975 11.4209 4.81647C11.3323 4.76318 11.2339 4.7282 11.1316 4.71359C11.0355 4.69336 10.9511 4.63613 10.8968 4.55425C10.8424 4.47238 10.8225 4.37242 10.8412 4.27595C10.8599 4.17949 10.9158 4.09424 10.9968 4.03861C11.0778 3.98298 11.1774 3.96142 11.2741 3.97859C11.4754 4.01206 11.6678 4.08568 11.84 4.19507C12.0123 4.30446 12.1607 4.44739 12.2765 4.61534C12.3923 4.78329 12.4732 4.97284 12.5142 5.17268C12.5552 5.37252 12.5556 5.57858 12.5154 5.77858Z" fill="url(#paint0_linear_14384_25812)"/>
<defs>
<linearGradient id="paint0_linear_14384_25812" x1="12.0016" y1="1.49414" x2="12.0016" y2="22.4999" gradientUnits="userSpaceOnUse">
<stop stop-color="#223CDD"/>
<stop offset="1" stop-color="#6176FF"/>
</linearGradient>
</defs>
</svg>
