<svg width="54" height="55" viewBox="0 0 54 55" fill="none" xmlns="http://www.w3.org/2000/svg">
<rect y="0.0302734" width="54" height="54" rx="10" fill="#0066FF"/>
<g clip-path="url(#clip0_13032_42594)">
<path d="M37.4233 34.0006H23.1091C22.9078 34.0006 22.7312 33.867 22.6761 33.6736L19.5463 22.6375C19.5079 22.5016 19.5352 22.3557 19.6204 22.2432C19.7054 22.1307 19.8384 22.0645 19.9793 22.0645H40.0462C40.471 22.0645 40.8616 22.259 41.1179 22.5977C41.3707 22.9322 41.4522 23.3547 41.3426 23.7584C41.342 23.7607 41.3417 23.7625 41.3411 23.7643C41.3403 23.7678 41.3394 23.7707 41.3385 23.7742L41.3382 23.7736C41.3195 23.8311 41.2902 23.8826 41.2533 23.9271C41.0778 24.7762 40.4494 26.9699 38.7153 33.0244C38.5524 33.5986 38.0209 34.0006 37.4233 34.0006ZM23.4493 33.1006H37.4233C37.6204 33.1006 37.7956 32.9682 37.8496 32.7783C37.8706 32.7051 40.333 24.0221 40.471 23.534C40.4716 23.5322 40.4722 23.5305 40.4725 23.5281C40.5109 23.3934 40.4842 23.2521 40.3998 23.1402C40.3152 23.0283 40.1866 22.9644 40.0462 22.9644H20.5746L23.4493 33.1006Z" fill="white"/>
<path d="M38.0994 37.401H22.2735C22.2639 37.401 22.2545 37.4004 22.2451 37.4004C21.0876 37.3676 20.1562 36.4154 20.1562 35.25C20.1562 34.0641 21.121 33.0996 22.3069 33.0996H36.6686C36.917 33.0996 37.1186 33.3012 37.1186 33.5496C37.1186 33.798 36.917 33.9996 36.6686 33.9996H22.3069C21.6173 33.9996 21.0563 34.5604 21.0563 35.25C21.0563 35.9396 21.6173 36.501 22.3069 36.501H38.0994C38.3478 36.501 38.5494 36.7025 38.5494 36.951C38.5494 37.1994 38.3479 37.401 38.0994 37.401Z" fill="white"/>
<path d="M25.5972 40.88C26.6821 40.88 27.5616 40.0005 27.5616 38.9156C27.5616 37.8307 26.6821 36.9512 25.5972 36.9512C24.5123 36.9512 23.6328 37.8307 23.6328 38.9156C23.6328 40.0005 24.5123 40.88 25.5972 40.88Z" fill="#74ACFF"/>
<path d="M25.598 41.3287C24.2667 41.3287 23.1836 40.2453 23.1836 38.9141C23.1836 37.5828 24.2667 36.5 25.598 36.5C26.9292 36.5 28.0123 37.5828 28.0123 38.9141C28.0123 40.2453 26.9292 41.3287 25.598 41.3287ZM25.598 37.4C24.763 37.4 24.0836 38.0791 24.0836 38.9141C24.0836 39.749 24.763 40.4287 25.598 40.4287C26.4329 40.4287 27.1123 39.749 27.1123 38.9141C27.1123 38.0791 26.4329 37.4 25.598 37.4Z" fill="white"/>
<path d="M34.9429 40.88C36.0278 40.88 36.9073 40.0005 36.9073 38.9156C36.9073 37.8307 36.0278 36.9512 34.9429 36.9512C33.858 36.9512 32.9785 37.8307 32.9785 38.9156C32.9785 40.0005 33.858 40.88 34.9429 40.88Z" fill="#74ACFF"/>
<path d="M34.9437 41.3287C33.6124 41.3287 32.5293 40.2453 32.5293 38.9141C32.5293 37.5828 33.6124 36.5 34.9437 36.5C36.2749 36.5 37.358 37.5828 37.358 38.9141C37.358 40.2453 36.2749 41.3287 34.9437 41.3287ZM34.9437 37.4C34.1087 37.4 33.4293 38.0791 33.4293 38.9141C33.4293 39.749 34.1087 40.4287 34.9437 40.4287C35.7786 40.4287 36.458 39.749 36.458 38.9141C36.458 38.0791 35.7786 37.4 34.9437 37.4Z" fill="white"/>
<path d="M27.8951 22.5146H33.3098C34.7295 21.6156 35.6748 20.0352 35.6748 18.2305C35.6748 15.4292 33.4038 13.1582 30.6024 13.1582C27.8012 13.1582 25.5303 15.4291 25.5303 18.2305C25.5303 20.0352 26.4755 21.6156 27.8951 22.5146Z" fill="#74ACFF"/>
<path d="M33.3105 22.9658H27.8959C27.8106 22.9658 27.7272 22.9418 27.6551 22.8961C26.0432 21.8748 25.0811 20.1311 25.0811 18.2314C25.0811 15.1863 27.5584 12.709 30.6032 12.709C33.6483 12.709 36.1257 15.1863 36.1257 18.2314C36.1257 20.1311 35.1633 21.8748 33.5514 22.8961C33.4793 22.9418 33.3958 22.9658 33.3105 22.9658ZM28.0298 22.0658H33.1767C34.4622 21.2021 35.2257 19.7783 35.2257 18.2314C35.2257 15.6826 33.1521 13.609 30.6032 13.609C28.0547 13.609 25.9811 15.6826 25.9811 18.2314C25.9811 19.7783 26.7445 21.2021 28.0298 22.0658Z" fill="white"/>
<path d="M30.6029 20.8797C29.7472 20.8797 29.0508 20.1836 29.0508 19.3275C29.0508 19.0791 29.2523 18.8775 29.5008 18.8775C29.7492 18.8775 29.9508 19.0791 29.9508 19.3275C29.9508 19.6873 30.2435 19.9797 30.6029 19.9797C30.9624 19.9797 31.2548 19.6873 31.2548 19.3275C31.2548 18.9684 30.9624 18.676 30.6029 18.676C29.7472 18.676 29.0508 17.9799 29.0508 17.1238C29.0508 16.2684 29.7472 15.5723 30.6029 15.5723C31.4587 15.5723 32.1548 16.2684 32.1548 17.1238C32.1548 17.3723 31.9532 17.5738 31.7048 17.5738C31.4563 17.5738 31.2548 17.3723 31.2548 17.1238C31.2548 16.7647 30.9624 16.4723 30.6029 16.4723C30.2434 16.4723 29.9508 16.7646 29.9508 17.1238C29.9508 17.4836 30.2435 17.776 30.6029 17.776C31.4587 17.776 32.1548 18.4721 32.1548 19.3275C32.1548 20.1836 31.4587 20.8797 30.6029 20.8797Z" fill="white"/>
<path d="M30.6023 16.473C30.3539 16.473 30.1523 16.2715 30.1523 16.023V15.3123C30.1523 15.0639 30.3539 14.8623 30.6023 14.8623C30.8508 14.8623 31.0523 15.0639 31.0523 15.3123V16.023C31.0523 16.2715 30.8508 16.473 30.6023 16.473Z" fill="white"/>
<path d="M30.6023 21.6008C30.3539 21.6008 30.1523 21.3992 30.1523 21.1508V20.4295C30.1523 20.1811 30.3539 19.9795 30.6023 19.9795C30.8508 19.9795 31.0523 20.1811 31.0523 20.4295V21.1508C31.0523 21.3992 30.8508 21.6008 30.6023 21.6008Z" fill="white"/>
<path d="M23.1088 34.0004C22.9125 34.0004 22.7323 33.8709 22.6761 33.6729L18.6861 19.591C18.467 18.8234 17.7565 18.2867 16.9591 18.2867H15.5672C15.3188 18.2867 15.1172 18.0852 15.1172 17.8367C15.1172 17.5883 15.3188 17.3867 15.5672 17.3867H16.9591C18.1564 17.3867 19.2226 18.1918 19.5519 19.3449L23.5421 33.4279C23.6098 33.667 23.4709 33.9154 23.2318 33.9834C23.1908 33.9951 23.1495 34.0004 23.1088 34.0004Z" fill="white"/>
<path d="M30.6043 34.0006C30.3559 34.0006 30.1543 33.799 30.1543 33.5506V22.5145C30.1543 22.266 30.3559 22.0645 30.6043 22.0645C30.8527 22.0645 31.0543 22.266 31.0543 22.5145V33.5506C31.0543 33.799 30.8527 34.0006 30.6043 34.0006Z" fill="white"/>
<path d="M36.2558 22.5137L34.6484 33.5501L36.2558 22.5137Z" fill="white"/>
<path d="M34.6499 33.9998C34.6282 33.9998 34.6065 33.998 34.5845 33.9951C34.3384 33.9593 34.1682 33.7308 34.204 33.4847L35.8112 22.4486C35.8469 22.2025 36.0754 22.0367 36.3212 22.0683C36.5673 22.1041 36.7376 22.3326 36.7018 22.5787L35.0946 33.6148C35.0621 33.8386 34.8696 33.9998 34.6499 33.9998Z" fill="white"/>
<path d="M24.9492 22.5137L26.5572 33.5501L24.9492 22.5137Z" fill="white"/>
<path d="M26.557 33.9996C26.3373 33.9996 26.1448 33.8385 26.1123 33.6147L24.5047 22.5786C24.469 22.3325 24.6392 22.1039 24.8853 22.0682C25.132 22.0371 25.3596 22.2024 25.3954 22.4485L27.0029 33.4846C27.0386 33.7307 26.8684 33.9592 26.6223 33.995C26.6003 33.9979 26.5787 33.9996 26.557 33.9996Z" fill="white"/>
<path d="M39.5922 28.7311H21.615C21.3666 28.7311 21.165 28.5295 21.165 28.2811C21.165 28.0326 21.3666 27.8311 21.615 27.8311H39.5922C39.8406 27.8311 40.0422 28.0326 40.0422 28.2811C40.0422 28.5295 39.8406 28.7311 39.5922 28.7311Z" fill="white"/>
<path d="M14.3048 19.1009C15.0034 19.1009 15.5696 18.5346 15.5696 17.8361C15.5696 17.1376 15.0034 16.5713 14.3048 16.5713C13.6063 16.5713 13.04 17.1376 13.04 17.8361C13.04 18.5346 13.6063 19.1009 14.3048 19.1009Z" fill="#74ACFF"/>
<path d="M14.3056 19.5502C13.3602 19.5502 12.5908 18.7809 12.5908 17.8352C12.5908 16.8895 13.3602 16.1201 14.3056 16.1201C15.2513 16.1201 16.0206 16.8895 16.0206 17.8352C16.0206 18.7809 15.2513 19.5502 14.3056 19.5502ZM14.3056 17.0201C13.8564 17.0201 13.4908 17.3857 13.4908 17.8352C13.4908 18.2846 13.8564 18.6502 14.3056 18.6502C14.755 18.6502 15.1206 18.2846 15.1206 17.8352C15.1206 17.3857 14.755 17.0201 14.3056 17.0201Z" fill="white"/>
</g>
<defs>
<clipPath id="clip0_13032_42594">
<rect width="30" height="30" fill="white" transform="translate(11.9902 12.0205)"/>
</clipPath>
</defs>
</svg>
