<svg width="54" height="55" viewBox="0 0 54 55" fill="none" xmlns="http://www.w3.org/2000/svg">
<rect y="0.0302734" width="54" height="54" rx="10" fill="#0066FF"/>
<path d="M40.7992 33.1106C40.4021 32.3165 39.4756 31.9636 38.6374 32.2283L32.7256 34.2136C32.7256 34.0812 32.7256 33.9489 32.7256 33.8165C32.7256 32.9783 32.0198 32.2724 31.1815 32.2724H27.1668C26.7256 32.2724 26.3286 32.14 25.9756 31.8753L21.8286 28.8753C21.3874 28.5224 20.8139 28.3459 20.2403 28.3459H18.7403V28.1253C18.7403 27.243 18.0345 26.5371 17.108 26.5371H14.5933C13.7109 26.5371 12.9609 27.243 12.9609 28.1253V37.4342C12.9609 38.3165 13.6668 39.0665 14.5933 39.0665H17.108C17.9903 39.0665 18.6962 38.3606 18.6962 37.4342V36.8165H19.5345C19.8433 36.8165 20.1521 36.9048 20.4168 37.0371L25.4021 39.9048C26.0198 40.2577 26.7698 40.3459 27.4315 40.0812L39.7845 35.5371C40.8433 35.2724 41.2845 34.0812 40.7992 33.1106ZM18.0345 37.4783C18.0345 38.0077 17.5933 38.4489 17.0639 38.4489H14.5933C14.0639 38.4489 13.6227 38.0077 13.6227 37.4783V28.1253C13.6227 27.5959 14.0639 27.1989 14.5933 27.1989H17.108C17.6374 27.1989 18.0345 27.64 18.0345 28.1253V37.4783ZM39.608 35.0077L27.2551 39.5518C26.7698 39.7283 26.2404 39.6842 25.7551 39.4195L20.7698 36.5518C20.4168 36.3312 19.9756 36.243 19.5345 36.243H18.6962V29.0518H20.2403C20.6815 29.0518 21.0786 29.1842 21.4315 29.4489L25.5786 32.4489C26.0198 32.8018 26.5933 32.9783 27.1668 32.9783H31.1815C31.6668 32.9783 32.0639 33.3753 32.0639 33.8606C32.0639 34.3459 31.7992 34.743 31.3139 34.743H25.9756C25.7992 34.743 25.6227 34.8753 25.6227 35.0959C25.6227 35.2724 25.7551 35.4489 25.9756 35.4489H31.3139C31.6668 35.4489 31.9315 35.3606 32.1521 35.1842L38.8139 32.9783C39.3433 32.8018 39.9168 33.0224 40.1815 33.5518C40.5345 34.0371 40.2256 34.7871 39.608 35.0077Z" fill="white"/>
<path d="M18.0348 28.1228V37.4316C18.0348 37.961 17.5936 38.4022 17.0642 38.4022H14.5936C14.0642 38.4022 13.623 37.961 13.623 37.4316V28.1228C13.623 27.5933 14.0642 27.1963 14.5936 27.1963H17.1083C17.6378 27.1963 18.0348 27.6375 18.0348 28.1228Z" fill="#74ACFF"/>
<path d="M38.4608 15.2857C36.4314 13.2563 33.0784 13.2563 31.049 15.2857C30.6961 15.6387 30.4314 15.9916 30.2108 16.3887C29.9902 16.0357 29.7255 15.6828 29.4166 15.374C27.4314 13.3887 24.2108 13.3446 22.1814 15.3298C20.1961 17.3151 20.1961 20.5798 22.1814 22.5651L30.1225 30.5063C30.1666 30.5946 30.2549 30.5946 30.3431 30.5946C30.4314 30.5946 30.5196 30.5504 30.5637 30.5063L38.4608 22.6534C40.4902 20.624 40.4902 17.3151 38.4608 15.2857ZM30.3872 29.8446L23.7696 23.2269H25.7549C25.8872 23.2269 25.9755 23.1828 26.0196 23.0946L27.3431 21.1093L28.8431 25.3446C28.9314 25.6093 29.2843 25.6534 29.4166 25.3887L32.8137 19.874L34.0931 23.3151C34.1372 23.4475 34.2696 23.5357 34.4019 23.5357H36.6961L30.3872 29.8446ZM38.0196 22.2122L37.3578 22.874H34.6666L33.2108 19.0357C33.1666 18.9034 33.0784 18.8151 32.9461 18.8151C32.8137 18.8151 32.6814 18.8593 32.6372 18.9916L29.2402 24.5063L27.7402 20.3151C27.6961 20.1828 27.6078 20.0946 27.4755 20.0946C27.3431 20.0946 27.2549 20.1387 27.1666 20.2269L25.5784 22.6093H23.1078L22.6666 22.1681C20.9461 20.4475 20.9461 17.624 22.6666 15.8593C24.3872 14.0946 27.2108 14.1387 28.9755 15.8593C29.3725 16.2563 29.7255 16.7416 29.9461 17.3151C29.9902 17.4475 30.1225 17.5357 30.2549 17.5357C30.3872 17.5357 30.5196 17.4475 30.5637 17.3151C30.7843 16.7416 31.1372 16.2563 31.5784 15.8151C33.3431 14.0504 36.2549 14.0504 38.0637 15.8151C39.7843 17.5357 39.7843 20.4034 38.0196 22.2122Z" fill="white"/>
<path d="M38.0203 22.2108L37.3586 22.8726H34.6674L33.2115 19.0344C33.1674 18.902 33.0792 18.8138 32.9468 18.8138C32.8145 18.8138 32.6821 18.8579 32.638 18.9902L29.2409 24.5049L27.7409 20.3138C27.6968 20.1814 27.6086 20.0932 27.4762 20.0932C27.3439 20.0932 27.2556 20.1373 27.1674 20.2255L25.5792 22.6079H23.1086L22.6674 22.1667C20.9468 20.4461 20.9468 17.6226 22.6674 15.8579C24.388 14.0932 27.2115 14.1373 28.9762 15.8579C29.3733 16.2549 29.7262 16.7402 29.9468 17.3138C29.9909 17.4461 30.1233 17.5344 30.2556 17.5344C30.388 17.5344 30.5203 17.4461 30.5645 17.3138C30.785 16.7402 31.138 16.2549 31.5792 15.8138C33.3439 14.0491 36.2556 14.0491 38.0645 15.8138C39.785 17.5344 39.785 20.402 38.0203 22.2108Z" fill="#74ACFF"/>
<path d="M36.696 23.4897L30.3872 29.8427L23.7695 23.225H25.7548C25.8872 23.225 25.9754 23.1809 26.0195 23.0927L27.3431 21.1074L28.8431 25.3427C28.9313 25.6074 29.2842 25.6515 29.4166 25.3868L32.8136 19.8721L34.0931 23.3132C34.1372 23.4456 34.2695 23.5338 34.4019 23.5338H36.696V23.4897Z" fill="#74ACFF"/>
</svg>
