<svg width="80" height="80" viewBox="0 0 80 80" fill="none" xmlns="http://www.w3.org/2000/svg">
<circle cx="40" cy="40" r="39.7" stroke="url(#paint0_linear_12333_8408)" stroke-width="0.6"/>
<path d="M38.2485 15.6748C37.9717 15.6748 37.7454 15.9012 37.7454 16.1779V17.461C37.7454 17.7378 37.9718 17.9642 38.2485 17.9642C38.5252 17.9642 38.7516 17.7377 38.7516 17.461V16.1779C38.7516 15.9012 38.5252 15.6748 38.2485 15.6748ZM30.072 19.9567L29.3172 18.9202C29.1663 18.6888 28.8543 18.6233 28.6229 18.7793C28.3865 18.9303 28.326 19.2422 28.477 19.4736C28.4871 19.4887 28.4921 19.4988 28.5022 19.5089L29.257 20.5505C29.3526 20.6812 29.5036 20.7567 29.6645 20.7567C29.9413 20.7567 30.1676 20.5303 30.1676 20.2536C30.1676 20.1479 30.1374 20.0423 30.072 19.9567ZM47.9999 44.632L47.2501 43.5904C47.0891 43.364 46.7772 43.3137 46.5507 43.4747C46.5458 43.4747 46.5458 43.4797 46.5407 43.4797C46.3142 43.6407 46.2639 43.9577 46.4299 44.1842L47.1847 45.2207C47.2803 45.3516 47.4313 45.432 47.5922 45.432C47.6979 45.427 47.8036 45.3968 47.8891 45.3364C48.1156 45.1755 48.1659 44.8585 47.9999 44.632ZM24.512 27.0564L23.2893 26.6589C23.0226 26.5733 22.7409 26.7192 22.6553 26.9859C22.5698 27.2526 22.7157 27.5344 22.9824 27.6199V27.64L24.2001 28.0375C24.2503 28.0426 24.3057 28.0426 24.356 28.0375C24.5724 28.0375 24.7686 27.8966 24.834 27.6903C24.9196 27.4237 24.7787 27.142 24.512 27.0564ZM53.5196 36.4556L52.2818 36.1084C52.0251 36.0077 51.7333 36.1336 51.6277 36.3901C51.527 36.6468 51.6529 36.9386 51.9094 37.0442C51.9346 37.0543 51.9547 37.0594 51.9749 37.0644H51.9899L53.2076 37.4619C53.2579 37.467 53.3132 37.467 53.3635 37.4619C53.6403 37.5072 53.9019 37.316 53.9472 37.0342C53.9875 36.7574 53.7963 36.5009 53.5196 36.4556ZM24.8088 36.4455C24.7183 36.1939 24.4516 36.0631 24.2 36.1336L22.9823 36.4959C22.7207 36.5814 22.5748 36.8632 22.6602 37.1299V37.135C22.7256 37.3413 22.9218 37.4872 23.1382 37.4872C23.1885 37.4923 23.2439 37.4923 23.2942 37.4872L24.5119 37.0897C24.7737 36.9939 24.9095 36.7021 24.8088 36.4455ZM53.8466 27.0212C53.7611 26.7596 53.4743 26.6137 53.2077 26.6991L51.99 27.0966C51.7233 27.1821 51.5774 27.4639 51.6629 27.7256V27.7307C51.7384 27.927 51.9296 28.0628 52.141 28.0577C52.1913 28.0628 52.2466 28.0628 52.2969 28.0577L53.5196 27.6602C53.7863 27.5747 53.9322 27.2879 53.8466 27.0212ZM29.9613 43.4798C29.7348 43.3138 29.4229 43.3641 29.2568 43.5905L28.502 44.6321C28.341 44.8586 28.3863 45.1705 28.6127 45.3365C28.6983 45.3969 28.804 45.4321 28.9096 45.4321C29.0707 45.4321 29.2215 45.3517 29.3171 45.2208L30.0719 44.1843C30.238 43.9578 30.1877 43.6458 29.9613 43.4798ZM47.9193 18.8045C47.7029 18.6284 47.3859 18.6687 47.2148 18.8851C47.2047 18.8951 47.1998 18.9103 47.1896 18.9202L46.4348 19.9567C46.2738 20.1832 46.3191 20.4951 46.5456 20.6612C46.7719 20.8272 47.0889 20.777 47.25 20.5506L48.0047 19.509C48.1759 19.2926 48.1407 18.9756 47.9193 18.8045ZM46.8929 24.616C42.9179 20.2032 36.1201 19.8511 31.7073 23.8311C30.3588 25.0387 29.3374 26.5633 28.7386 28.2689C26.7612 33.8692 29.6997 40.0078 35.3 41.9853L35.6321 42.1061V45.1251H41.3379C41.6197 45.1251 41.8864 45.1905 42.1279 45.3062V42.086L42.4599 41.9652C43.8084 41.4923 45.0512 40.7576 46.1129 39.8016C50.5207 35.8216 50.8729 29.0238 46.8929 24.616ZM46.2438 35.9071C45.162 37.8745 43.3355 39.3236 41.1769 39.9375C40.4221 40.1589 39.6373 40.2696 38.8472 40.2696C37.4132 40.2696 36.0043 39.9073 34.7464 39.213C30.6607 36.9487 29.1814 31.8014 31.4457 27.7156C33.7048 23.6299 38.8523 22.1506 42.9379 24.4099C47.0287 26.674 48.5081 31.8214 46.2438 35.9071ZM45.3934 35.4141C44.9607 36.1839 44.3971 36.8683 43.7279 37.4418L43.7228 37.4317C43.5769 35.5801 42.3995 33.9699 40.6787 33.2705C42.007 32.2592 42.2586 30.3622 41.2472 29.0389C40.2359 27.7155 38.3439 27.4589 37.0156 28.4703C35.6922 29.4816 35.4356 31.3786 36.447 32.702C36.613 32.9183 36.8042 33.1045 37.0156 33.2705C35.3048 33.975 34.1375 35.5851 33.9965 37.4267C30.887 34.7297 30.5548 30.0251 33.2468 26.9155C35.9438 23.806 40.6535 23.4688 43.763 26.1658C46.4249 28.4754 47.1042 32.3347 45.3934 35.4141ZM56.599 52.5972L43.5821 61.478C42.5909 62.1623 41.4134 62.5246 40.2058 62.5246H28.3915V56.9897C28.4116 56.9847 28.4317 56.9797 28.4468 56.9746L31.3048 54.1065C31.8483 53.5581 32.5879 53.2561 33.3578 53.2561H42.5355C43.3456 53.2511 44.0098 53.9103 44.0098 54.7203C44.0098 55.0523 43.8992 55.3744 43.6928 55.636L43.6173 55.6813C43.5469 55.7316 43.4865 55.7971 43.4462 55.8776C43.1896 56.089 42.8676 56.2047 42.5355 56.2047H35.0987C34.8219 56.2047 34.5956 56.4311 34.5956 56.7078C34.5956 56.9845 34.8219 57.2109 35.0987 57.2109H42.5355C43.2298 57.2059 43.8839 56.9141 44.3519 56.4059L54.7122 49.7439C55.5021 49.2207 56.5638 49.437 57.0821 50.227C57.6053 51.0172 57.3889 52.0738 56.599 52.5972ZM27.4001 54.7759V63.375C27.4001 63.8982 26.9775 64.326 26.4492 64.326H24.039C23.5208 64.3159 23.1032 63.8933 23.0981 63.375V54.7759C23.1032 54.2476 23.5308 53.8249 24.0542 53.8249H26.4493C26.9775 53.8249 27.4001 54.2525 27.4001 54.7759ZM42.8423 38.106C42.2436 38.4833 41.5895 38.7752 40.9051 38.9714C38.8623 39.5551 36.6634 39.2381 34.8671 38.0959C34.9275 38.0153 34.9577 37.9197 34.9627 37.8191C34.9627 35.6706 36.7038 33.9297 38.8522 33.9297C41.0007 33.9297 42.7417 35.6707 42.7417 37.8191C42.7467 37.9248 42.782 38.0204 42.8423 38.106ZM40.8599 30.8905C40.8599 32.0025 39.9592 32.9032 38.8472 32.9032C37.7352 32.9032 36.8345 32.0025 36.8345 30.8905C36.8345 29.7785 37.7352 28.8778 38.8472 28.8778C39.9592 28.8779 40.8599 29.7785 40.8599 30.8905Z" fill="#818181"/>
<defs>
<linearGradient id="paint0_linear_12333_8408" x1="17.6" y1="8.8" x2="60" y2="76.8" gradientUnits="userSpaceOnUse">
<stop stop-color="white" stop-opacity="0.5"/>
<stop offset="1" stop-color="white" stop-opacity="0.1"/>
</linearGradient>
</defs>
</svg>
