<svg width="80" height="80" viewBox="0 0 80 80" fill="none" xmlns="http://www.w3.org/2000/svg">
<circle cx="40" cy="40" r="39.7" stroke="url(#paint0_linear_12333_8364)" stroke-width="0.6"/>
<path d="M51.3977 63.1277V64.4141H28.6006V63.1277C28.6006 61.7259 29.7557 60.5918 31.168 60.5918H31.5564H31.567C31.567 60.5918 31.5723 60.5918 31.5775 60.5918H48.4206H48.4312H48.4417H48.8302C50.2426 60.5918 51.3977 61.7259 51.3977 63.1277ZM63.8147 18.6731V22.8314H16.1836V18.6731C16.1836 16.9721 17.5854 15.5859 19.3075 15.5859H60.6906C62.4128 15.5859 63.8147 16.9721 63.8147 18.6731ZM26.6055 19.2087C26.6055 18.7729 26.2537 18.4211 25.8179 18.4211H23.0982C22.6625 18.4211 22.3106 18.7729 22.3106 19.2087C22.3106 19.6444 22.6624 19.9963 23.0982 19.9963H25.8179C26.2537 19.9962 26.6055 19.6444 26.6055 19.2087ZM33.3994 19.2087C33.3994 18.7729 33.0477 18.4211 32.6118 18.4211H29.8974C29.4616 18.4211 29.1098 18.7729 29.1098 19.2087C29.1098 19.6444 29.4615 19.9963 29.8974 19.9963H32.6118C33.0477 19.9962 33.3994 19.6444 33.3994 19.2087ZM40.1986 19.2087C40.1986 18.7729 39.8469 18.4211 39.411 18.4211H36.6914C36.2557 18.4211 35.9038 18.7729 35.9038 19.2087C35.9038 19.6444 36.2556 19.9963 36.6914 19.9963H39.411C39.8469 19.9962 40.1986 19.6444 40.1986 19.2087ZM32.3546 52.9841V59.0167H47.6437V52.9841H32.3546ZM63.8147 24.4065V48.3218C63.8147 50.0229 62.4128 51.409 60.6907 51.409H19.3075C17.5854 51.409 16.1836 50.0229 16.1836 48.3218V24.4065H63.8147ZM31.3781 37.5533L34.7488 34.1773C35.0533 33.8676 35.0533 33.3688 34.7488 33.0643C34.4391 32.7545 33.9403 32.7545 33.6305 33.0643L29.7085 36.9968C29.3987 37.3013 29.3987 37.8001 29.7085 38.1099L33.6305 42.0424C33.788 42.1946 33.9875 42.2733 34.1923 42.2733C34.3918 42.2733 34.5913 42.1946 34.7488 42.0424C35.0533 41.7326 35.0533 41.2338 34.7488 40.9293L31.3781 37.5533ZM42.5141 31.2582C42.1098 31.0954 41.6478 31.2949 41.4902 31.6992L37.0484 42.8194C36.8856 43.2237 37.0852 43.6857 37.4842 43.8433C37.584 43.8853 37.6784 43.901 37.7782 43.901C38.0933 43.901 38.3872 43.712 38.508 43.4074L42.9498 32.2819C43.1126 31.8777 42.9131 31.4209 42.5141 31.2582ZM50.2897 36.9968L46.3678 33.0643C46.058 32.7545 45.5593 32.7545 45.2494 33.0643C44.9449 33.3687 44.9449 33.8676 45.2494 34.1773L48.6201 37.5533L45.2494 40.9293C44.9449 41.2338 44.9449 41.7326 45.2494 42.0424C45.4069 42.1946 45.6064 42.2733 45.806 42.2733C46.0107 42.2733 46.2103 42.1946 46.3678 42.0424L50.2897 38.1099C50.5995 37.8001 50.5995 37.3014 50.2897 36.9968Z" fill="#818181"/>
<defs>
<linearGradient id="paint0_linear_12333_8364" x1="17.6" y1="8.8" x2="60" y2="76.8" gradientUnits="userSpaceOnUse">
<stop stop-color="white" stop-opacity="0.5"/>
<stop offset="1" stop-color="white" stop-opacity="0.1"/>
</linearGradient>
</defs>
</svg>
