<svg width="80" height="80" viewBox="0 0 80 80" fill="none" xmlns="http://www.w3.org/2000/svg">
<circle cx="40" cy="40" r="39.7" stroke="url(#paint0_linear_12333_8401)" stroke-width="0.6"/>
<g clip-path="url(#clip0_12333_8401)">
<path d="M40.0008 14.5C39.8988 14.4994 39.7977 14.5189 39.7034 14.5577C39.6091 14.5964 39.5234 14.6534 39.4513 14.7255C39.3792 14.7976 39.3221 14.8833 39.2834 14.9777C39.2447 15.072 39.2251 15.1731 39.2258 15.275V17.865C39.2258 18.0706 39.3074 18.2677 39.4528 18.413C39.5981 18.5584 39.7952 18.64 40.0008 18.64C40.2063 18.64 40.4035 18.5584 40.5488 18.413C40.6941 18.2677 40.7758 18.0706 40.7758 17.865V15.275C40.7764 15.1731 40.7569 15.072 40.7181 14.9777C40.6794 14.8833 40.6224 14.7976 40.5503 14.7255C40.4782 14.6534 40.3925 14.5964 40.2981 14.5577C40.2038 14.5189 40.1027 14.4994 40.0008 14.5ZM31.0008 20.055L29.7108 17.81C29.6629 17.7165 29.5964 17.6336 29.5155 17.5665C29.4346 17.4995 29.3409 17.4496 29.24 17.4198C29.1392 17.3901 29.0334 17.3812 28.929 17.3937C28.8247 17.4062 28.7239 17.4397 28.6329 17.4924C28.542 17.545 28.4626 17.6156 28.3998 17.6998C28.3369 17.7841 28.2919 17.8802 28.2673 17.9824C28.2428 18.0846 28.2393 18.1908 28.2571 18.2943C28.2749 18.3979 28.3136 18.4968 28.3708 18.585L29.6708 20.825C29.7384 20.9431 29.8359 21.0413 29.9535 21.1098C30.0711 21.1783 30.2047 21.2146 30.3408 21.215C30.4779 21.2163 30.6128 21.18 30.7308 21.11C30.8178 21.0585 30.8938 20.9903 30.9544 20.9094C31.0151 20.8285 31.0592 20.7364 31.0843 20.6384C31.1094 20.5405 31.1149 20.4385 31.1006 20.3384C31.0862 20.2383 31.0523 20.142 31.0008 20.055ZM23.6558 26.81L21.3958 25.5C21.3078 25.4498 21.2108 25.4174 21.1103 25.4046C21.0098 25.3919 20.9077 25.3991 20.81 25.4258C20.6126 25.4797 20.4447 25.6098 20.3433 25.7875C20.2418 25.9652 20.2151 26.1759 20.2691 26.3733C20.323 26.5707 20.4531 26.7386 20.6308 26.84L22.8808 28.14C23.0008 28.2045 23.1346 28.2388 23.2708 28.24C23.4413 28.2412 23.6074 28.1858 23.743 28.0825C23.8787 27.9791 23.9762 27.8337 24.0202 27.6689C24.0643 27.5042 24.0524 27.3295 23.9864 27.1722C23.9205 27.015 23.8042 26.884 23.6558 26.8V26.81ZM59.3708 47.31L57.1208 46.015C57.0326 45.9578 56.9337 45.9191 56.8301 45.9014C56.7265 45.8836 56.6204 45.8871 56.5182 45.9116C56.416 45.9361 56.3198 45.9812 56.2356 46.044C56.1513 46.1069 56.0807 46.1862 56.0281 46.2772C55.9755 46.3682 55.9419 46.4689 55.9295 46.5733C55.917 46.6776 55.9259 46.7835 55.9556 46.8843C55.9853 46.9851 56.0352 47.0788 56.1023 47.1597C56.1694 47.2407 56.2522 47.3071 56.3458 47.355L58.6058 48.65C58.7197 48.721 58.8516 48.7574 58.9858 48.755C59.1558 48.754 59.3208 48.6972 59.4553 48.5932C59.5898 48.4892 59.6864 48.3438 59.7302 48.1796C59.7739 48.0153 59.7625 47.8411 59.6975 47.684C59.6326 47.5269 59.5178 47.3955 59.3708 47.31ZM20.6808 36.31H18.0758C17.8702 36.31 17.6731 36.3917 17.5278 36.537C17.3824 36.6824 17.3008 36.8795 17.3008 37.085C17.3008 37.2906 17.3824 37.4877 17.5278 37.633C17.6731 37.7784 17.8702 37.86 18.0758 37.86H20.6808C20.8863 37.86 21.0834 37.7784 21.2288 37.633C21.3741 37.4877 21.4558 37.2906 21.4558 37.085C21.4558 36.8795 21.3741 36.6824 21.2288 36.537C21.0834 36.3917 20.8863 36.31 20.6808 36.31ZM61.9258 36.31H59.3208C59.1152 36.31 58.9181 36.3917 58.7728 36.537C58.6274 36.6824 58.5458 36.8795 58.5458 37.085C58.5458 37.2906 58.6274 37.4877 58.7728 37.633C58.9181 37.7784 59.1152 37.86 59.3208 37.86H61.9258C62.1313 37.86 62.3284 37.7784 62.4738 37.633C62.6191 37.4877 62.7008 37.2906 62.7008 37.085C62.7008 36.8795 62.6191 36.6824 62.4738 36.537C62.3284 36.3917 62.1313 36.31 61.9258 36.31ZM23.9258 46.31C23.8223 46.1324 23.6529 46.0029 23.4544 45.9495C23.2559 45.8961 23.0444 45.9233 22.8658 46.025L20.6158 47.32C20.4663 47.4043 20.349 47.5359 20.2824 47.6941C20.2157 47.8522 20.2035 48.028 20.2475 48.1939C20.2915 48.3598 20.3894 48.5064 20.5257 48.6106C20.6621 48.7149 20.8292 48.771 21.0008 48.77C21.1349 48.7724 21.2669 48.736 21.3808 48.665L23.6408 47.37C23.7298 47.3205 23.8082 47.2539 23.8715 47.1741C23.9347 47.0942 23.9816 47.0027 24.0095 46.9047C24.0374 46.8067 24.0456 46.7042 24.0338 46.603C24.0221 46.5018 23.9904 46.404 23.9408 46.315L23.9258 46.31ZM59.6408 25.81C59.591 25.7219 59.5242 25.6446 59.4443 25.5825C59.3644 25.5204 59.2729 25.4748 59.1753 25.4483C59.0776 25.4218 58.9757 25.4149 58.8753 25.4281C58.775 25.4413 58.6783 25.4742 58.5908 25.525L56.3308 26.825C56.1824 26.909 56.0661 27.04 56.0001 27.1972C55.9342 27.3545 55.9223 27.5292 55.9663 27.6939C56.0104 27.8587 56.1079 28.0041 56.2435 28.1075C56.3792 28.2108 56.5453 28.2662 56.7158 28.265C56.852 28.2638 56.9858 28.2295 57.1058 28.165L59.3558 26.865C59.4478 26.8166 59.529 26.7499 59.5944 26.669C59.6598 26.5881 59.708 26.4947 59.7361 26.3946C59.7641 26.2944 59.7715 26.1896 59.7577 26.0865C59.7439 25.9834 59.7092 25.8842 59.6558 25.795L59.6408 25.81ZM51.3508 17.525C51.1719 17.4246 50.9608 17.3982 50.7627 17.4515C50.5646 17.5047 50.3952 17.6334 50.2908 17.81L49.0008 20.055C48.9494 20.1423 48.9158 20.2389 48.9019 20.3392C48.8879 20.4395 48.8939 20.5416 48.9194 20.6396C48.945 20.7376 48.9896 20.8296 49.0507 20.9103C49.1119 20.991 49.1884 21.0589 49.2758 21.11C49.3937 21.18 49.5286 21.2163 49.6658 21.215C49.8019 21.2146 49.9354 21.1783 50.0531 21.1098C50.1707 21.0413 50.2682 20.9431 50.3358 20.825L51.6358 18.585C51.6868 18.4967 51.7199 18.3993 51.7332 18.2982C51.7465 18.1971 51.7397 18.0943 51.7133 17.9959C51.6868 17.8974 51.6412 17.8051 51.5789 17.7243C51.5167 17.6435 51.4392 17.5758 51.3508 17.525ZM44.8808 60.365C44.6091 61.4067 43.9996 62.3288 43.1477 62.9869C42.2959 63.6451 41.2498 64.0021 40.1733 64.0021C39.0968 64.0021 38.0507 63.6451 37.1988 62.9869C36.347 62.3288 35.7375 61.4067 35.4658 60.365H44.8808ZM48.4558 56.95C48.4558 57.4133 48.2721 57.8576 47.945 58.1857C47.6179 58.5137 47.174 58.6987 46.7108 58.7H33.2958C32.8317 58.7 32.3865 58.5156 32.0583 58.1875C31.7302 57.8593 31.5458 57.4141 31.5458 56.95C31.5458 56.4859 31.7302 56.0408 32.0583 55.7126C32.3865 55.3844 32.8317 55.2 33.2958 55.2H46.7108C46.9404 55.2 47.1677 55.2453 47.3797 55.3333C47.5918 55.4213 47.7843 55.5503 47.9465 55.7129C48.1086 55.8754 48.237 56.0684 48.3244 56.2807C48.4118 56.493 48.4564 56.7204 48.4558 56.95ZM32.3608 38.75C31.8978 39.2132 31.5826 39.8034 31.4551 40.4458C31.3277 41.0882 31.3936 41.754 31.6447 42.3589C31.8957 42.9638 32.3206 43.4806 32.8655 43.8439C33.4104 44.2073 34.0509 44.4008 34.7058 44.4H44.9558C45.1614 44.3985 45.3653 44.4384 45.5551 44.5175C45.745 44.5965 45.917 44.713 46.0608 44.86C46.2062 45.0025 46.321 45.173 46.3984 45.3612C46.4757 45.5495 46.514 45.7515 46.5108 45.955C46.5109 46.3588 46.3529 46.7465 46.0707 47.0353C45.7885 47.3241 45.4044 47.4909 45.0008 47.5C43.2608 47.5 41.0608 47.5 40.0358 47.5C39.8158 47.501 39.5982 47.5457 39.3956 47.6315C39.193 47.7174 39.0095 47.8426 38.8558 48C38.6976 48.1521 38.5718 48.3346 38.4859 48.5365C38.4 48.7384 38.3557 48.9556 38.3558 49.175V53.675H33.5258C33.557 53.002 33.4091 52.3327 33.0973 51.7354C32.7855 51.1381 32.3209 50.6342 31.7508 50.275C29.4879 48.8592 27.6394 46.8704 26.3926 44.5102C25.1458 42.15 24.5449 39.5022 24.6508 36.835C24.818 33.054 26.3694 29.4664 29.0099 26.755C31.6504 24.0435 35.1955 22.3974 38.9708 22.13H39.0608H39.5608V28.88C39.5615 28.8942 39.5592 28.9084 39.5543 28.9217C39.5493 28.9351 39.5417 28.9472 39.5319 28.9575C39.522 28.9678 39.5102 28.976 39.4972 28.9816C39.4841 28.9872 39.47 28.99 39.4558 28.99H38.0008C37.25 28.9981 36.5322 29.2996 36.0008 29.83C35.6009 30.2296 35.328 30.7383 35.2161 31.2925C35.1043 31.8466 35.1586 32.4214 35.3722 32.9447C35.5859 33.4681 35.9493 33.9167 36.4169 34.2343C36.8845 34.5519 37.4355 34.7244 38.0008 34.73H45.5008C45.906 34.7297 46.2953 34.8876 46.5858 35.17C46.7293 35.3107 46.8431 35.4788 46.9204 35.6643C46.9977 35.8499 47.037 36.049 47.0358 36.25C47.0345 36.6563 46.8722 37.0454 46.5844 37.3322C46.2967 37.619 45.907 37.78 45.5008 37.78H34.7058C33.8266 37.7806 32.9835 38.1294 32.3608 38.75ZM55.3608 37.375C55.3635 39.946 54.7141 42.4756 53.4733 44.7273C52.2324 46.979 50.4407 48.8791 48.2658 50.25C47.6975 50.6116 47.235 51.117 46.925 51.715C46.615 52.3129 46.4687 52.9822 46.5008 53.655H39.8908V49.155C39.8908 49.1267 39.9017 49.0994 39.9212 49.0789C39.9408 49.0585 39.9675 49.0463 39.9958 49.045C41.0258 49.045 43.2458 49.075 44.9958 49.045C45.8119 49.0371 46.5919 48.7077 47.1667 48.1283C47.7414 47.5489 48.0645 46.7662 48.0658 45.95C48.0645 45.1274 47.7367 44.3389 47.1546 43.7577C46.5724 43.1765 45.7834 42.85 44.9608 42.85H34.7058C34.2368 42.8487 33.7873 42.6618 33.4557 42.3301C33.124 41.9985 32.9371 41.549 32.9358 41.08C32.9331 40.6185 33.1128 40.1747 33.4358 39.845C33.7703 39.5109 34.223 39.3223 34.6958 39.32H45.5358C45.9497 39.3367 46.3627 39.2696 46.7501 39.1227C47.1374 38.9759 47.4911 38.7522 47.7898 38.4653C48.0886 38.1783 48.3263 37.834 48.4887 37.4529C48.6511 37.0718 48.7348 36.6618 48.7348 36.2475C48.7348 35.8333 48.6511 35.4233 48.4887 35.0422C48.3263 34.6611 48.0886 34.3167 47.7898 34.0298C47.4911 33.7428 47.1374 33.5192 46.7501 33.3723C46.3627 33.2254 45.9497 33.1583 45.5358 33.175H38.0008C37.6641 33.1543 37.348 33.006 37.1169 32.7602C36.8858 32.5145 36.7571 32.1898 36.7571 31.8525C36.7571 31.5152 36.8858 31.1906 37.1169 30.9448C37.348 30.6991 37.6641 30.5507 38.0008 30.53H39.4408C39.8797 30.53 40.3007 30.3556 40.611 30.0453C40.9214 29.7349 41.0958 29.3139 41.0958 28.875V22.145C44.9532 22.4241 48.5637 24.1468 51.2076 26.9695C53.8515 29.7922 55.3344 33.5076 55.3608 37.375Z" fill="#818181"/>
</g>
<defs>
<linearGradient id="paint0_linear_12333_8401" x1="17.6" y1="8.8" x2="60" y2="76.8" gradientUnits="userSpaceOnUse">
<stop stop-color="white" stop-opacity="0.5"/>
<stop offset="1" stop-color="white" stop-opacity="0.1"/>
</linearGradient>
<clipPath id="clip0_12333_8401">
<rect width="50" height="50" fill="white" transform="translate(15 15)"/>
</clipPath>
</defs>
</svg>
