<svg width="80" height="80" viewBox="0 0 80 80" fill="none" xmlns="http://www.w3.org/2000/svg">
<circle cx="40" cy="40" r="39.7" stroke="url(#paint0_linear_12333_8445)" stroke-width="0.6"/>
<path d="M15.6943 29.0992V53.057C15.6943 55.4184 17.6029 57.327 19.9643 57.327H60.0346H60.0448C62.4062 57.3321 64.3198 55.4184 64.325 53.057V29.0992H15.6943ZM37.5738 41.7546L56.3408 33.009L55.6721 32.793C55.6464 32.7878 55.6258 32.7827 55.6052 32.7724C55.3428 32.6694 55.2091 32.3711 55.3171 32.1035C55.42 31.8411 55.7184 31.7125 55.9859 31.8154L58.2906 32.5563L57.5756 34.8713C57.5035 35.0977 57.2926 35.2417 57.0611 35.2314C57.0097 35.2417 56.9582 35.2417 56.9067 35.2314C56.6341 35.1491 56.4797 34.861 56.5672 34.5884L56.7627 33.9557L37.9853 42.7115C37.9133 42.7424 37.8413 42.7578 37.7693 42.7578L37.795 42.7321C37.5943 42.7321 37.4194 42.6189 37.332 42.444C37.2086 42.1868 37.3166 41.8781 37.5738 41.7546ZM19.9952 32.3197H29.4147C29.6978 32.3197 29.9292 32.5512 29.9292 32.8342C29.9292 33.1223 29.6978 33.3486 29.4147 33.3486H19.9952C19.7071 33.3486 19.4808 33.1223 19.4808 32.8342C19.4808 32.5512 19.707 32.3197 19.9952 32.3197ZM29.9908 41.4974H19.9952C19.7071 41.4974 19.4808 41.271 19.4808 40.9829C19.4808 40.7 19.7071 40.4685 19.9952 40.4685H29.9909C30.2739 40.4685 30.5054 40.7 30.5054 40.9829C30.5053 41.2711 30.2738 41.4974 29.9908 41.4974ZM30.7573 44.543H32.3007C32.5837 44.543 32.8151 44.7745 32.8151 45.0574C32.8151 45.3455 32.5837 45.5719 32.3007 45.5719H30.7573C30.4692 45.5719 30.2429 45.3455 30.2429 45.0574C30.243 44.7744 30.4693 44.543 30.7573 44.543ZM19.9952 44.543H28.355C28.638 44.543 28.8694 44.7745 28.8694 45.0574C28.8694 45.3455 28.638 45.5719 28.355 45.5719H19.9952C19.7071 45.5719 19.4808 45.3455 19.4808 45.0574C19.4808 44.7744 19.707 44.543 19.9952 44.543ZM19.9952 48.6174H27.7787C28.0617 48.6174 28.2932 48.8489 28.2932 49.1318C28.2932 49.4199 28.0617 49.6463 27.7787 49.6463H19.9952C19.7071 49.6463 19.4808 49.4199 19.4808 49.1318C19.4808 48.8488 19.707 48.6174 19.9952 48.6174ZM32.5837 53.7155H19.9952C19.7071 53.7155 19.4808 53.4892 19.4808 53.2011C19.4808 52.9182 19.7071 52.6866 19.9952 52.6866H32.5837C32.8667 52.6866 33.0981 52.9182 33.0981 53.2011C33.0981 53.4892 32.8666 53.7155 32.5837 53.7155ZM35.3668 37.423H19.9952C19.7071 37.423 19.4808 37.1967 19.4808 36.9086C19.4808 36.6257 19.7071 36.3941 19.9952 36.3941H35.3668C35.6498 36.3941 35.8812 36.6257 35.8812 36.9086C35.8812 37.1967 35.6498 37.423 35.3668 37.423ZM42.2347 52.8255C42.2295 53.5097 41.679 54.0602 41 54.0602H38.1705C37.4863 54.0602 36.9358 53.5098 36.9358 52.8255V46.0914C36.9358 45.4123 37.4863 44.8567 38.1705 44.8567H41C41.679 44.8567 42.2347 45.4123 42.2347 46.0914V52.8255ZM48.3669 52.8255C48.3617 53.5097 47.8113 54.0602 47.1322 54.0602H44.3285C43.6442 54.0602 43.0937 53.5098 43.0937 52.8255V43.1333C43.0937 42.4542 43.6442 41.9038 44.3285 41.8986H47.1322C47.8112 41.9038 48.3617 42.4542 48.3669 43.1333V52.8255ZM54.5248 52.8255C54.5197 53.5097 53.9642 54.0602 53.2851 54.0602H50.4813C49.7971 54.0602 49.2467 53.5098 49.2467 52.8255V40.4017C49.2467 39.7226 49.7971 39.1722 50.4813 39.167H53.2851C53.9642 39.167 54.5197 39.7226 54.5248 40.4017V52.8255ZM60.6776 52.8255C60.6725 53.5097 60.1221 54.0602 59.443 54.0602H56.6393C55.955 54.0602 55.4046 53.5098 55.4046 52.8255V37.8242C55.4046 37.1452 55.955 36.5896 56.6393 36.5896H59.443C60.1221 36.5947 60.6725 37.1451 60.6776 37.8242V52.8255ZM47.338 43.1333V52.8255C47.338 52.9387 47.2454 53.0313 47.1322 53.0313H44.3285C44.2153 53.0313 44.1227 52.9387 44.1227 52.8255V43.1333C44.1227 43.0201 44.2153 42.9275 44.3285 42.9275H47.1322C47.2454 42.9275 47.338 43.0202 47.338 43.1333ZM59.6487 37.8242V52.8255C59.6487 52.9387 59.5561 53.0313 59.443 53.0313H56.6393C56.5261 53.0364 56.4335 52.9489 56.4335 52.8357C56.4335 52.8357 56.4335 52.8306 56.4335 52.8255V37.8242C56.4283 37.7162 56.5158 37.6236 56.629 37.6185H56.6393H59.443C59.556 37.6185 59.6487 37.7111 59.6487 37.8242ZM60.0346 22.6738H19.9437C17.5824 22.6789 15.6738 24.5876 15.6738 26.9438V28.0858H64.3044V26.9438C64.2992 24.5876 62.3907 22.6789 60.0346 22.6738ZM46.7001 25.92H33.3244C33.0363 25.92 32.81 25.6937 32.81 25.4056C32.81 25.1226 33.0363 24.8911 33.3244 24.8911H46.7C46.983 24.8911 47.2144 25.1226 47.2144 25.4056C47.2145 25.6937 46.983 25.92 46.7001 25.92ZM41.2058 46.0914V52.8255C41.2058 52.9387 41.1132 53.0313 41 53.0313H38.1705C38.0573 53.0313 37.9647 52.9387 37.9647 52.8255V46.0914C37.9647 45.9782 38.0574 45.8856 38.1705 45.8856H41C41.1133 45.8856 41.2058 45.9782 41.2058 46.0914ZM53.4959 40.3965V40.4017V52.8256C53.4959 52.9388 53.4033 53.0313 53.2901 53.0313C53.285 53.0313 53.285 53.0313 53.285 53.0313H50.4812C50.3681 53.0313 50.2755 52.9388 50.2755 52.8256V40.4017C50.2755 40.2885 50.3681 40.1959 50.4812 40.1959H53.285C53.3981 40.1959 53.4908 40.2833 53.4959 40.3965Z" fill="#818181"/>
<defs>
<linearGradient id="paint0_linear_12333_8445" x1="17.6" y1="8.8" x2="60" y2="76.8" gradientUnits="userSpaceOnUse">
<stop stop-color="white" stop-opacity="0.5"/>
<stop offset="1" stop-color="white" stop-opacity="0.1"/>
</linearGradient>
</defs>
</svg>
