<svg width="80" height="80" viewBox="0 0 80 80" fill="none" xmlns="http://www.w3.org/2000/svg">
<circle cx="40" cy="40" r="39.7" stroke="url(#paint0_linear_12333_8356)" stroke-width="0.6"/>
<path d="M24.4961 58.5861V61.4108C24.4961 63.0699 25.8507 64.4141 27.515 64.4141H52.4857C54.1501 64.4141 55.5047 63.07 55.5047 61.4108V58.5861H24.4961ZM41.6595 62.2877H38.3413C37.9056 62.2877 37.5537 61.9359 37.5537 61.5001C37.5537 61.0644 37.9055 60.7125 38.3413 60.7125H41.6595C42.0952 60.7125 42.4471 61.0643 42.4471 61.5001C42.4471 61.9358 42.0953 62.2877 41.6595 62.2877ZM55.5047 18.5892V21.4139H24.4961V18.5892C24.4961 16.93 25.8507 15.5859 27.515 15.5859H52.4857C54.1501 15.5859 55.5047 16.93 55.5047 18.5892ZM24.4961 22.9889V57.011H55.5046V22.9889H24.4961ZM35.7896 42.7249C36.0941 43.0347 36.0941 43.5334 35.7844 43.838C35.6269 43.9902 35.4273 44.0638 35.2278 44.0638C35.0283 44.0638 34.8235 43.985 34.6661 43.8275L31.4424 40.5514C31.1431 40.2469 31.1431 39.7533 31.4424 39.4488L34.6661 36.1726C34.9759 35.8628 35.4746 35.8575 35.7844 36.1621C36.0941 36.4666 36.0941 36.9654 35.7896 37.2752L33.1119 40L35.7896 42.7249ZM42.5573 35.658L38.9083 44.9196C38.7876 45.2294 38.4883 45.4185 38.1785 45.4185C38.0787 45.4185 37.9842 45.4027 37.8897 45.3659C37.4854 45.2084 37.2859 44.7517 37.4435 44.3421L41.0925 35.0806C41.25 34.6763 41.7067 34.4715 42.111 34.6343C42.5153 34.7916 42.7148 35.2484 42.5573 35.658ZM48.5584 40.5513L45.3347 43.8274C45.1771 43.985 44.9724 44.0637 44.7729 44.0637C44.5734 44.0637 44.3739 43.9901 44.2164 43.8379C43.9066 43.5334 43.9066 43.0346 44.2111 42.7248L46.8889 40L44.2112 37.2751C43.9067 36.9653 43.9067 36.4665 44.2165 36.162C44.5263 35.8575 45.025 35.8627 45.3348 36.1725L48.5585 39.4487C48.8577 39.7532 48.8577 40.2468 48.5584 40.5513Z" fill="#818181"/>
<defs>
<linearGradient id="paint0_linear_12333_8356" x1="17.6" y1="8.8" x2="60" y2="76.8" gradientUnits="userSpaceOnUse">
<stop stop-color="white" stop-opacity="0.5"/>
<stop offset="1" stop-color="white" stop-opacity="0.1"/>
</linearGradient>
</defs>
</svg>
