<svg width="80" height="80" viewBox="0 0 80 80" fill="none" xmlns="http://www.w3.org/2000/svg">
<circle cx="40" cy="40" r="39.7" stroke="url(#paint0_linear_12333_8372)" stroke-width="0.6"/>
<path fill-rule="evenodd" clip-rule="evenodd" d="M44.6672 57.5433C44.4894 57.4651 44.3713 57.2952 44.3713 57.095V50.7601C44.7052 50.6243 45.0304 50.4739 45.3478 50.3089V56.7737L49.382 58.512C49.6857 58.1556 50.1379 57.93 50.6427 57.93C51.5578 57.93 52.299 58.6712 52.299 59.5862C52.299 60.5013 51.5578 61.2425 50.6427 61.2425C49.6574 61.2425 48.8908 60.389 48.9963 59.4075L44.6672 57.5433ZM49.1779 53.1927C49.1779 53.4368 49.3556 53.6312 49.5842 53.6732L53.6379 54.3782C53.7404 55.1946 54.4377 55.8255 55.2814 55.8255C56.1965 55.8255 56.9377 55.0843 56.9377 54.1692C56.9377 53.2542 56.1965 52.513 55.2814 52.513C54.6369 52.513 54.0793 52.8812 53.8049 53.4173L50.1545 52.7825V48.0638V45.636C49.8664 46.1546 49.5392 46.6487 49.1779 47.1146V48.0638V53.1927ZM29.8459 45.636C30.134 46.1546 30.4611 46.6487 30.8224 47.1146V48.0638V53.1927C30.8224 53.4388 30.6467 53.6312 30.4162 53.6732L26.3625 54.3782C26.2599 55.1946 25.5636 55.8255 24.7189 55.8255C23.8039 55.8255 23.0627 55.0843 23.0627 54.1692C23.0627 53.2542 23.8039 52.513 24.7189 52.513C25.3635 52.513 25.9211 52.8812 26.1955 53.4173L29.8459 52.7825V45.636ZM35.6291 50.761C35.2961 50.6253 34.9699 50.4749 34.6525 50.3099V56.7747L30.6183 58.513C30.3146 58.1566 29.8625 57.931 29.3576 57.931C28.4426 57.931 27.7013 58.6722 27.7013 59.5872C27.7013 60.5023 28.4426 61.2435 29.3576 61.2435C30.3429 61.2435 31.1095 60.3899 31.0041 59.4085L35.3127 57.5511C35.4972 57.4817 35.6281 57.303 35.6281 57.0941V50.761H35.6291ZM39.5119 51.6019C39.674 51.6087 39.8361 51.6126 40.0002 51.6126C40.1642 51.6126 40.3263 51.6087 40.4885 51.6019V59.9036C41.2453 60.1165 41.801 60.8118 41.801 61.637C41.801 62.6312 40.9943 63.4378 40.0002 63.4378C39.006 63.4378 38.1994 62.6312 38.1994 61.637C38.1994 60.8118 38.7551 60.1165 39.5119 59.9036V51.6019ZM42.4377 16.6888C43.6584 16.8157 44.5959 17.764 44.7101 18.9857L45.0246 22.3733C45.1965 24.221 47.3654 25.1087 48.7834 23.9124L51.383 21.72C52.3205 20.929 53.6545 20.9105 54.6125 21.6761C55.9347 22.7317 57.1408 23.9271 58.2062 25.2405C58.9797 26.1937 58.9728 27.5267 58.1886 28.471L56.0168 31.0882C54.8322 32.5159 55.7375 34.678 57.5861 34.8343L60.9767 35.1224C62.2004 35.2259 63.1554 36.1575 63.2922 37.3773C63.3664 38.0433 63.4123 38.7171 63.4299 39.3987C63.4386 39.7298 63.175 39.9993 62.8439 39.9993H52.5812C52.5812 33.0511 46.9484 27.4183 40.0002 27.4183C33.0519 27.4183 27.4191 33.0511 27.4191 39.9993H17.1564C16.8254 39.9993 16.5627 39.7298 16.5705 39.3987C16.5861 38.7806 16.6261 38.1673 16.6886 37.5618C16.8156 36.3411 17.7638 35.4036 18.9855 35.2903L22.3732 34.9759C24.2209 34.804 25.1086 32.6351 23.9123 31.2171L21.7199 28.6175C20.9289 27.68 20.9103 26.346 21.676 25.388C22.7316 24.0657 23.9269 22.8597 25.2404 21.7942C26.1935 21.0208 27.5265 21.0276 28.4709 21.8118L31.0881 23.9837C32.5158 25.1683 34.6779 24.263 34.8342 22.4144L35.1222 19.0237C35.2258 17.8001 36.1574 16.845 37.3771 16.7083C39.0568 16.5208 40.757 16.514 42.4377 16.6888ZM40.4885 29.554V34.1067C41.8127 34.0765 43.0949 33.9212 44.3078 33.6546C43.4123 31.3724 42.0451 29.8235 40.4885 29.554ZM40.4885 35.0833V39.512H45.4045C45.3615 37.7122 45.0861 36.0316 44.633 34.5804C43.3078 34.8792 41.9181 35.0511 40.4885 35.0833ZM44.633 45.4202C43.3088 45.1214 41.9172 44.9495 40.4885 44.9173V40.4886H45.4045C45.3615 42.2884 45.0861 43.9691 44.633 45.4202ZM40.4885 50.4466V45.8939C41.8156 45.9241 43.092 46.0794 44.3078 46.346C43.4123 48.6282 42.0451 50.1771 40.4885 50.4466ZM39.5119 50.4466C37.9552 50.1761 36.5881 48.6273 35.6926 46.346C36.9054 46.0794 38.1886 45.9251 39.5119 45.8939V50.4466ZM39.5119 44.9173C38.0832 44.9495 36.6916 45.1214 35.3674 45.4202C34.9142 43.9691 34.6388 42.2874 34.5959 40.4886H39.5119V44.9173ZM35.3674 34.5804C34.9152 36.0316 34.6388 37.7132 34.5959 39.512H39.5119V35.0833C38.0822 35.0511 36.6916 34.8792 35.3674 34.5804ZM39.5119 29.554C37.9552 29.8245 36.5881 31.3724 35.6926 33.6546C36.9064 33.9212 38.1877 34.0755 39.5119 34.1067V29.554ZM42.9543 29.7806C44.0099 30.7474 44.758 32.095 45.2648 33.4183C46.092 33.1907 46.881 32.9105 47.6222 32.5833C46.3527 31.2796 44.7511 30.2991 42.9543 29.7806ZM45.5832 34.3411C46.0978 36.012 46.3429 37.8089 46.381 39.512H50.6242C50.5187 37.1839 49.6652 35.0511 48.298 33.348C47.4504 33.7396 46.5412 34.0735 45.5832 34.3411ZM48.298 46.6526C47.4504 46.261 46.5412 45.9271 45.5832 45.6595C46.0978 43.9886 46.3429 42.1917 46.381 40.4886H50.6242C50.5187 42.8167 49.6652 44.9495 48.298 46.6526ZM42.9543 50.22C44.7511 49.7015 46.3527 48.722 47.6222 47.4173C46.8801 47.0911 46.092 46.8108 45.2648 46.5823C44.759 47.9056 44.0099 49.2532 42.9543 50.22ZM37.0461 50.22C35.9904 49.2532 35.2424 47.9056 34.7355 46.5823C33.9084 46.8099 33.1193 47.0901 32.3781 47.4173C33.6476 48.721 35.2482 49.7015 37.0461 50.22ZM34.4172 45.6595C33.9025 43.9886 33.6574 42.1917 33.6193 40.4886H29.3761C29.4816 42.8167 30.3351 44.9495 31.7023 46.6526C32.55 46.261 33.4592 45.9271 34.4172 45.6595ZM31.7023 33.348C30.3351 35.0511 29.4816 37.1839 29.3761 39.512H33.6193C33.6584 37.8089 33.9025 36.012 34.4172 34.3411C33.4592 34.0735 32.55 33.7396 31.7023 33.348ZM37.0461 29.7806C35.2492 30.2991 33.6476 31.2786 32.3781 32.5833C33.1203 32.9095 33.9084 33.1898 34.7355 33.4183C35.2414 32.096 35.9894 30.7474 37.0461 29.7806Z" fill="#818181"/>
<defs>
<linearGradient id="paint0_linear_12333_8372" x1="17.6" y1="8.8" x2="60" y2="76.8" gradientUnits="userSpaceOnUse">
<stop stop-color="white" stop-opacity="0.5"/>
<stop offset="1" stop-color="white" stop-opacity="0.1"/>
</linearGradient>
</defs>
</svg>
