<svg width="80" height="80" viewBox="0 0 80 80" fill="none" xmlns="http://www.w3.org/2000/svg">
<circle cx="40" cy="40" r="39.7" stroke="url(#paint0_linear_12333_8379)" stroke-width="0.6"/>
<path d="M51.6882 40.5167C46.5418 40.5167 42.1499 43.7822 40.4654 48.3498V48.355C39.9952 49.6364 39.7369 51.0212 39.7369 52.4628C39.7369 59.0559 45.0951 64.4141 51.6882 64.4141C58.2761 64.4141 63.6395 59.0559 63.6395 52.4628C63.6395 45.8749 58.2761 40.5167 51.6882 40.5167ZM47.2858 55.2582C47.5907 55.5631 47.5907 56.0539 47.2858 56.3536C47.136 56.5086 46.9396 56.581 46.7382 56.581C46.5418 56.581 46.3403 56.5086 46.1905 56.3536L42.8475 53.0105C42.7027 52.8659 42.6201 52.6695 42.6201 52.4629C42.6201 52.2613 42.7027 52.0599 42.8475 51.9152L46.1905 48.5722C46.4954 48.2725 46.9862 48.2725 47.2859 48.5722C47.5908 48.877 47.5908 49.3679 47.2859 49.6676L44.4906 52.4629L47.2858 55.2582ZM54.2975 48.0243L50.5152 57.4799C50.3964 57.7847 50.1019 57.9656 49.7971 57.9656C49.6989 57.9656 49.6007 57.9501 49.5077 57.914C49.1099 57.7538 48.9187 57.3043 49.0736 56.9063L52.861 47.4508C53.016 47.0529 53.4707 46.8566 53.8687 47.0168C54.2613 47.177 54.4576 47.6265 54.2975 48.0243ZM57.1807 56.3535C57.0309 56.5085 56.8345 56.5809 56.633 56.5809C56.4366 56.5809 56.2403 56.5085 56.0854 56.3535C55.7856 56.0538 55.7856 55.563 56.0854 55.2581L58.8807 52.4627L56.0854 49.6674C55.7856 49.3677 55.7856 48.8769 56.0854 48.572C56.3902 48.2723 56.8811 48.2723 57.1808 48.572L60.529 51.915C60.6737 52.0598 60.7563 52.2612 60.7563 52.4627C60.7563 52.6694 60.6737 52.8657 60.529 53.0104L57.1807 56.3535ZM48.4174 27.5113V30.6684C48.2934 30.6632 48.1745 30.6528 48.0506 30.6528H21.5594C21.4354 30.6528 21.3165 30.6632 21.1977 30.6684V27.5113C21.3165 27.5217 21.4405 27.532 21.5594 27.532H48.0506C48.1746 27.532 48.2935 27.5217 48.4174 27.5113ZM48.0506 15.5859H21.5594C18.6969 15.5859 16.3614 17.9162 16.3614 20.784C16.3614 23.6518 18.6969 25.982 21.5595 25.982H48.0507C48.3865 25.982 48.712 25.9459 49.0324 25.8839H49.0531C51.4402 25.4137 53.2487 23.3056 53.2487 20.7841C53.2485 17.9162 50.9183 15.5859 48.0506 15.5859ZM25.197 21.559H22.5979C22.1742 21.559 21.8229 21.2128 21.8229 20.7839C21.8229 20.355 22.1742 20.0088 22.5979 20.0088H25.197C25.6259 20.0088 25.9721 20.355 25.9721 20.7839C25.9721 21.2128 25.6258 21.559 25.197 21.559ZM32.4669 21.559H29.873C29.4441 21.559 29.0979 21.2128 29.0979 20.7839C29.0979 20.355 29.4441 20.0088 29.873 20.0088H32.4669C32.8958 20.0088 33.242 20.355 33.242 20.7839C33.242 21.2128 32.8958 21.559 32.4669 21.559ZM49.0479 32.3012C48.7224 32.234 48.3968 32.203 48.0506 32.203H21.5594C21.2184 32.203 20.8877 32.234 20.5725 32.2961C19.5494 32.4976 18.6245 32.9885 17.8856 33.7273C16.9039 34.7091 16.3613 36.0163 16.3613 37.4011C16.3613 39.8864 18.1336 42.0358 20.5673 42.5061C20.8876 42.5681 21.2184 42.5991 21.5594 42.5991H42.4857C44.8987 40.3463 48.1333 38.9667 51.6882 38.9667C52.1273 38.9667 52.5563 38.9874 52.9851 39.0287C53.1607 38.5068 53.2485 37.9644 53.2485 37.4011C53.2485 34.9105 51.4814 32.7662 49.0479 32.3012ZM25.197 38.1761H22.5979C22.1742 38.1761 21.8229 37.8299 21.8229 37.401C21.8229 36.9773 22.1742 36.6259 22.5979 36.6259H25.197C25.6259 36.6259 25.9721 36.9772 25.9721 37.401C25.972 37.8299 25.6258 38.1761 25.197 38.1761ZM32.4669 38.1761H29.873C29.4441 38.1761 29.0979 37.8299 29.0979 37.401C29.0979 36.9773 29.4441 36.6259 29.873 36.6259H32.4669C32.8958 36.6259 33.242 36.9772 33.242 37.401C33.242 37.8299 32.8958 38.1761 32.4669 38.1761ZM41.0647 44.1491C40.3207 45.0998 39.6955 46.1487 39.2253 47.2751H21.5594C21.4354 47.2751 21.3165 47.2803 21.1977 47.2854V44.1336C21.3165 44.1388 21.4354 44.1491 21.5594 44.1491H41.0647ZM38.1868 52.4628C38.1868 51.202 38.3625 49.9826 38.688 48.8252H21.5594C21.3062 48.8252 21.053 48.8459 20.8153 48.8769C20.7224 48.8924 20.6552 48.9026 20.5932 48.913C19.5546 49.1146 18.6297 49.6054 17.8856 50.3494C16.9039 51.3312 16.3613 52.6384 16.3613 54.0231C16.3613 56.8908 18.6916 59.2212 21.5594 59.2212H40.0056C38.8533 57.2319 38.1868 54.9274 38.1868 52.4628ZM25.197 54.7982H22.5979C22.1742 54.7982 21.8229 54.452 21.8229 54.0232C21.8229 53.5943 22.1742 53.2481 22.5979 53.2481H25.197C25.6259 53.2481 25.9721 53.5943 25.9721 54.0232C25.972 54.452 25.6258 54.7982 25.197 54.7982ZM32.4669 54.7982H29.873C29.4441 54.7982 29.0979 54.452 29.0979 54.0232C29.0979 53.5943 29.4441 53.2481 29.873 53.2481H32.4669C32.8958 53.2481 33.242 53.5943 33.242 54.0232C33.242 54.452 32.8958 54.7982 32.4669 54.7982Z" fill="#818181"/>
<defs>
<linearGradient id="paint0_linear_12333_8379" x1="17.6" y1="8.8" x2="60" y2="76.8" gradientUnits="userSpaceOnUse">
<stop stop-color="white" stop-opacity="0.5"/>
<stop offset="1" stop-color="white" stop-opacity="0.1"/>
</linearGradient>
</defs>
</svg>
