<svg width="80" height="80" viewBox="0 0 80 80" fill="none" xmlns="http://www.w3.org/2000/svg">
<circle cx="40" cy="40" r="39.7" stroke="url(#paint0_linear_12333_8394)" stroke-width="0.6"/>
<path d="M39.144 24.6207H30.0294V22.9091H49.9703V24.6207H40.8556V26.2553C40.8523 26.4801 40.7607 26.6946 40.6006 26.8524C40.4404 27.0102 40.2246 27.0986 39.9998 27.0986C39.775 27.0986 39.5592 27.0102 39.3991 26.8524C39.239 26.6946 39.1473 26.4801 39.144 26.2553V24.6207ZM56.1322 49.3628C56.558 49.0792 57.0472 49.3755 57.4159 49.611V30.8854C57.2029 31.0276 56.9729 31.1426 56.7313 31.2278C56.3663 31.3236 56.0054 31.055 55.7043 30.8854V39.3923H53.9926C53.7679 39.3958 53.5536 39.4875 53.3959 39.6476C53.2383 39.8078 53.1499 40.0235 53.1499 40.2482C53.1499 40.4729 53.2383 40.6886 53.396 40.8487C53.5536 41.0089 53.768 41.1005 53.9926 41.104H55.7043V49.6109L56.1322 49.3628ZM23.8675 31.1336C23.4342 31.4089 22.9526 31.1229 22.5837 30.8854V49.6109L23.0116 49.3628C23.4283 49.0782 23.9304 49.3762 24.2954 49.611V41.104H26.007C26.2318 41.1006 26.4463 41.009 26.6041 40.8489C26.7618 40.6887 26.8503 40.4729 26.8503 40.2481C26.8503 40.0233 26.7618 39.8075 26.6041 39.6474C26.4463 39.4873 26.2318 39.3956 26.007 39.3923H24.2954V30.8854L23.8675 31.1336ZM50.7918 40.3337C50.2029 54.6474 29.7988 54.6513 29.2078 40.3338C29.2066 38.9158 29.4849 37.5114 30.0267 36.201C30.5685 34.8906 31.3632 33.6998 32.3655 32.6967C33.3677 31.6936 34.5578 30.8978 35.8678 30.3549C37.1777 29.812 38.5818 29.5325 39.9998 29.5325C41.4178 29.5325 42.8219 29.812 44.1318 30.3549C45.4418 30.8978 46.6319 31.6935 47.6341 32.6966C48.6364 33.6997 49.4311 34.8905 49.973 36.2009C50.5148 37.5113 50.793 38.9157 50.7918 40.3337ZM44.6384 41.472C44.6375 41.0543 44.5273 40.644 44.3185 40.2822C44.1098 39.9203 43.81 39.6194 43.4488 39.4095C43.5817 38.8029 43.625 38.1801 43.5772 37.5609C43.5724 37.2567 43.5034 36.9568 43.3746 36.6812C43.2458 36.4055 43.0601 36.1601 42.8297 35.9613C42.5994 35.7625 42.3296 35.6146 42.038 35.5275C41.7465 35.4403 41.4398 35.4158 41.1381 35.4556C41.1506 35.3357 41.1378 35.2145 41.1006 35.0998C41.0633 34.9852 41.0023 34.8797 40.9216 34.7901C40.8409 34.7006 40.7423 34.6289 40.6322 34.5799C40.522 34.5309 40.4028 34.5056 40.2823 34.5056C40.1617 34.5056 40.0425 34.5309 39.9324 34.5799C39.8222 34.6289 39.7236 34.7006 39.643 34.7901C39.5623 34.8797 39.5013 34.9852 39.464 35.0998C39.4267 35.2145 39.4139 35.3357 39.4265 35.4556H37.0302C36.8105 35.4586 36.6005 35.5463 36.4439 35.7003C36.2872 35.8544 36.1961 36.0629 36.1895 36.2825C36.1829 36.5021 36.2612 36.7158 36.4083 36.879C36.5553 37.0422 36.7596 37.1424 36.9787 37.1587V43.5089H36.2171C36.1047 43.5089 35.9934 43.5311 35.8896 43.5741C35.7857 43.6171 35.6914 43.6801 35.6119 43.7596C35.5324 43.8391 35.4694 43.9334 35.4264 44.0373C35.3834 44.1411 35.3612 44.2524 35.3612 44.3648C35.3612 44.4772 35.3834 44.5884 35.4264 44.6923C35.4694 44.7961 35.5324 44.8905 35.6119 44.9699C35.6914 45.0494 35.7857 45.1124 35.8896 45.1555C35.9934 45.1985 36.1047 45.2206 36.2171 45.2206H39.4264C39.4162 45.3392 39.4307 45.4586 39.4691 45.5713C39.5074 45.684 39.5688 45.7875 39.6493 45.8752C39.7297 45.9629 39.8276 46.0329 39.9365 46.0808C40.0455 46.1288 40.1632 46.1535 40.2823 46.1535C40.4013 46.1535 40.519 46.1288 40.628 46.0808C40.737 46.0329 40.8348 45.9629 40.9153 45.8752C40.9957 45.7875 41.0571 45.684 41.0955 45.5713C41.1338 45.4586 41.1483 45.3392 41.1381 45.2206H42.2592C42.8897 45.219 43.494 44.9679 43.9398 44.522C44.3856 44.0762 44.6368 43.4719 44.6384 42.8414L44.6384 41.472ZM42.2592 40.8045H38.6904V43.5089H42.2592C42.4362 43.5087 42.6058 43.4383 42.731 43.3131C42.8561 43.188 42.9265 43.0183 42.9267 42.8414V41.472C42.9265 41.295 42.8561 41.1254 42.731 41.0002C42.6058 40.8751 42.4362 40.8047 42.2592 40.8045ZM41.8655 38.6991V37.5608C41.8656 37.5091 41.8555 37.4579 41.8358 37.41C41.8161 37.3622 41.7871 37.3188 41.7505 37.2822C41.7139 37.2456 41.6704 37.2166 41.6226 37.1969C41.5748 37.1771 41.5235 37.1671 41.4718 37.1672H38.6904V39.0928H41.4718C41.5236 39.093 41.5748 39.0829 41.6226 39.0631C41.6705 39.0434 41.7139 39.0144 41.7505 38.9778C41.7871 38.9412 41.8161 38.8978 41.8358 38.8499C41.8556 38.8021 41.8656 38.7509 41.8655 38.6991ZM40.8556 54.241C40.8523 54.0162 40.7607 53.8017 40.6006 53.6439C40.4404 53.4862 40.2246 53.3977 39.9998 53.3977C39.775 53.3977 39.5592 53.4862 39.3991 53.6439C39.239 53.8017 39.1473 54.0162 39.144 54.241V55.8756H30.0294V57.5873H49.9703V55.8756H40.8556V54.241ZM60.5911 20.4528L56.5601 18.125L52.5377 20.4528L56.5601 22.7807L60.5911 20.4528ZM55.7043 24.2613L51.6819 21.942V26.5891L55.7043 28.9084V24.2613ZM57.4159 24.2613V28.9084L61.4469 26.5891V21.942L57.4159 24.2613ZM27.4619 20.4528L23.4395 18.125L19.4086 20.4528L23.4395 22.7807L27.4619 20.4528ZM22.5837 24.2613L18.5527 21.942V26.5891L22.5837 28.9084V24.2613ZM24.2954 28.9084L28.3177 26.5891V21.9334L24.2954 24.2613V28.9084ZM27.4619 53.4108L23.4395 51.0915L19.4086 53.4194L23.4395 55.7387C23.4396 55.7301 27.4767 53.4273 27.4619 53.4108ZM18.5527 59.5471L22.5837 61.875V57.2193L18.5527 54.9V59.5471ZM24.2954 57.2279V61.875L28.3177 59.5471V54.9C28.3177 54.9086 24.2806 57.2114 24.2954 57.2279ZM56.5601 51.0915C56.5601 51.1001 52.523 53.4029 52.5377 53.4194L56.5601 55.7387L60.5911 53.4194L56.5601 51.0915ZM51.6819 59.5471L55.7043 61.875V57.2193L51.6819 54.9V59.5471ZM57.4159 57.2279V61.875L61.4469 59.5471V54.9C61.4469 54.9086 57.4011 57.2114 57.4159 57.2279Z" fill="#818181"/>
<defs>
<linearGradient id="paint0_linear_12333_8394" x1="17.6" y1="8.8" x2="60" y2="76.8" gradientUnits="userSpaceOnUse">
<stop stop-color="white" stop-opacity="0.5"/>
<stop offset="1" stop-color="white" stop-opacity="0.1"/>
</linearGradient>
</defs>
</svg>
