<svg width="80" height="80" viewBox="0 0 80 80" fill="none" xmlns="http://www.w3.org/2000/svg">
<circle cx="40" cy="40" r="39.7" stroke="url(#paint0_linear_12333_8430)" stroke-width="0.6"/>
<path d="M51.526 37.0854L50.773 35.27C50.6978 35.0888 50.7183 34.882 50.8275 34.7191L51.5334 33.6667L50.2067 32.34L49.1543 33.0459C48.9913 33.1552 48.7845 33.1755 48.6034 33.1005L46.788 32.3474C46.6069 32.2723 46.4756 32.1118 46.4376 31.9196L46.1927 30.6774H44.3164L44.0715 31.9196C44.0335 32.1118 43.9022 32.2723 43.7211 32.3474L41.9058 33.1005C41.7246 33.1757 41.5177 33.1552 41.3549 33.0459L40.3024 32.34L38.9757 33.6667L39.6816 34.7191C39.7908 34.882 39.8113 35.0887 39.7362 35.27L38.9832 37.0854C38.9081 37.2665 38.7476 37.3979 38.5553 37.4358L37.3131 37.6807V39.5569L38.5554 39.8019C38.7476 39.8399 38.9081 39.9713 38.9832 40.1523L39.7362 41.9676C39.8114 42.1488 39.7909 42.3556 39.6816 42.5185L38.9757 43.571L40.3024 44.8976L41.3549 44.1918C41.5179 44.0824 41.7247 44.0622 41.9058 44.1372L43.7211 44.8902C43.9022 44.9653 44.0336 45.1258 44.0715 45.3181L44.3164 46.5603H46.1927L46.4376 45.3181C46.4755 45.1258 46.6069 44.9653 46.788 44.8902L48.6034 44.1372C48.7845 44.0621 48.9913 44.0823 49.1543 44.1918L50.2067 44.8976L51.5334 43.571L50.8275 42.5185C50.7184 42.3556 50.6979 42.1489 50.773 41.9676L51.526 40.1523C51.6011 39.9713 51.7616 39.8399 51.9538 39.8019L53.196 39.5569V37.6807L51.9538 37.4358C51.7616 37.3978 51.6011 37.2665 51.526 37.0854ZM45.2545 43.668C42.4703 43.668 40.2053 41.403 40.2053 38.6188C40.2053 35.8346 42.4703 33.5696 45.2545 33.5696C48.0387 33.5696 50.3037 35.8346 50.3037 38.6188C50.3037 41.403 48.0387 43.668 45.2545 43.668ZM49.1318 38.6188C49.1318 40.7568 47.3924 42.4962 45.2545 42.4962C43.1166 42.4962 41.3772 40.7567 41.3772 38.6188C41.3772 36.4809 43.1166 34.7415 45.2545 34.7415C47.3924 34.7415 49.1318 36.4809 49.1318 38.6188ZM32.8353 38.0329H36.1412V37.199C36.1412 36.9191 36.3392 36.6783 36.6139 36.6241L38.0209 36.3466L38.5334 35.1111L37.7341 33.9193C37.5781 33.6869 37.6085 33.3765 37.8064 33.1786L39.8145 31.1707C40.0123 30.9729 40.3227 30.9425 40.5551 31.0984L41.7468 31.8976L42.9823 31.3851L43.2598 29.9782C43.314 29.7036 43.5548 29.5055 43.8347 29.5055H46.6743C46.9542 29.5055 47.195 29.7035 47.2492 29.9782L47.5267 31.3851L48.7623 31.8976L49.954 31.0984C50.1867 30.9425 50.497 30.9729 50.6946 31.1708L52.7025 33.1787C52.9005 33.3765 52.9309 33.6868 52.7749 33.9193L51.9757 35.111L52.4882 36.3466L53.8951 36.6241C54.1697 36.6783 54.3678 36.9191 54.3678 37.199V38.0329H55.7107C59.2514 38.0329 62.1318 35.1523 62.1318 31.6117C62.1318 28.0711 59.2514 25.1905 55.7107 25.1905C55.5493 25.1905 55.395 25.1238 55.2843 25.0063C55.1735 24.8888 55.1162 24.7308 55.1259 24.5696C55.347 20.8689 52.5184 17.6457 48.8206 17.3842C45.1208 17.1219 41.8687 19.9161 41.567 23.6109C41.5487 23.8334 41.4059 24.0262 41.1982 24.1083C40.9906 24.1901 40.7543 24.147 40.5893 23.997C39.4998 23.0083 37.9559 22.5986 36.5596 22.9286C35.5108 23.1761 34.5584 23.8958 33.9466 24.903C33.3139 25.9444 33.1143 27.1887 33.3988 28.317C33.4429 28.4914 33.4044 28.6763 33.2944 28.8186C33.1844 28.9609 33.0152 29.0448 32.8354 29.0463C30.3771 29.0656 28.3773 31.0813 28.3773 33.5396C28.3773 35.9979 30.3772 38.0135 32.8355 38.033L32.8353 38.0329ZM47.8366 18.7702C47.8575 18.4472 48.1358 18.2002 48.4591 18.2232C51.1785 18.399 53.3724 20.1421 54.048 22.664C54.1317 22.9765 53.9463 23.2978 53.6337 23.3817C53.5829 23.3953 53.5318 23.4018 53.4816 23.4018C53.223 23.4018 52.9862 23.2291 52.916 22.9674C52.3725 20.9387 50.5934 19.5355 48.3835 19.3927C48.0605 19.3718 47.8157 19.0932 47.8365 18.7703L47.8366 18.7702ZM63.0065 50.8592C63.3683 51.2406 63.4367 51.814 63.2015 52.4488C62.5979 52.8792 61.3247 53.5796 60.068 54.1685L43.6645 61.2905C40.3269 62.7223 39.2731 62.6052 36.7278 62.3223C35.5283 62.189 34.2786 61.9786 32.9556 61.7559C29.3247 61.1447 25.2377 60.4573 21.2689 61.3252V51.3191C23.6245 51.2217 25.4926 50.7396 27.1544 50.3097C28.9638 49.8416 30.5263 49.4377 32.2568 49.6494C36.4199 50.1594 39.7496 50.4955 43.4801 50.5949C45.4066 50.6462 46.4166 51.2591 46.4821 52.4167C46.5176 53.0449 46.3362 53.5481 45.9276 53.955C44.2277 55.6482 39.1375 55.34 36.6907 55.1917C36.2875 55.1673 35.9393 55.1462 35.6522 55.1351C35.3291 55.1193 35.0564 55.3747 35.044 55.698C35.0315 56.0215 35.2836 56.2937 35.6069 56.3061C35.8812 56.3167 36.2234 56.3375 36.6198 56.3615C39.6353 56.544 44.6818 56.8498 46.7545 54.7854C46.9516 54.5892 47.1165 54.3773 47.2492 54.1503C49.5961 53.6739 54.0334 52.3282 57.4228 51.0628C61.3811 49.5849 62.6973 50.5334 63.0064 50.8591L63.0065 50.8592ZM20.0971 50.7247V62.3304C20.0971 62.495 19.958 62.634 19.7936 62.634H16.9637C16.7991 62.634 16.6602 62.4949 16.6602 62.3304V50.7247C16.6602 50.56 16.7992 50.4211 16.9637 50.4211H19.7936C19.9581 50.4211 20.0971 50.5601 20.0971 50.7247Z" fill="#818181"/>
<defs>
<linearGradient id="paint0_linear_12333_8430" x1="17.6" y1="8.8" x2="60" y2="76.8" gradientUnits="userSpaceOnUse">
<stop stop-color="white" stop-opacity="0.5"/>
<stop offset="1" stop-color="white" stop-opacity="0.1"/>
</linearGradient>
</defs>
</svg>
