<svg width="80" height="80" viewBox="0 0 80 80" fill="none" xmlns="http://www.w3.org/2000/svg">
<circle cx="40" cy="40" r="39.7" stroke="url(#paint0_linear_12333_8423)" stroke-width="0.6"/>
<path d="M33.1448 48.0713C32.891 47.8175 32.891 47.4046 33.1448 47.1509C33.3986 46.8972 33.8115 46.8972 34.0652 47.1509C34.3189 47.4046 34.319 47.8176 34.0652 48.0713C33.8114 48.325 33.3985 48.325 33.1447 48.0713H33.1448ZM43.1948 51.0505C43.965 51.2987 44.5242 52.0216 44.5242 52.8733C44.5242 53.9294 43.665 54.7887 42.6089 54.7887C41.5527 54.7887 40.6936 53.9295 40.6936 52.8733C40.6936 52.0216 41.2527 51.2986 42.0229 51.0505V43.9409C42.0229 43.7855 42.0847 43.6365 42.1945 43.5266L43.9742 41.7469H41.2048L38.8803 44.0714V48.4891C39.6269 48.7357 40.1677 49.439 40.1677 50.2672C40.1677 51.3001 39.3273 52.1404 38.2943 52.1404C37.2613 52.1404 36.421 51.3001 36.421 50.2672C36.421 49.439 36.9618 48.7357 37.7084 48.4891V43.8286C37.7084 43.6732 37.7701 43.5242 37.88 43.4143L39.5475 41.7468H35.9306L34.1909 43.4864V45.8873C34.4478 45.9741 34.6895 46.1177 34.8938 46.322C35.6045 47.0326 35.6045 48.1891 34.8938 48.8997C34.5384 49.255 34.0717 49.4327 33.6049 49.4327C33.1381 49.4327 32.6714 49.2551 32.3161 48.8997C31.6055 48.1891 31.6055 47.0326 32.3161 46.322C32.5204 46.1177 32.7622 45.9741 33.019 45.8873V43.2437C33.019 43.0883 33.0808 42.9392 33.1906 42.8293L34.4514 41.5686C32.392 40.9956 30.8742 39.102 30.8742 36.8716C30.8742 34.4354 32.6844 32.3998 35.0304 32.0495C34.9294 31.0139 35.1741 29.9396 35.7344 29.0173C36.4003 27.921 37.4507 27.1345 38.6162 26.8593C39.8099 26.5773 41.1001 26.7894 42.1704 27.4114C42.625 25.4597 43.918 23.8467 45.6213 22.9368V19.4254C45.6213 17.9006 44.3808 16.6602 42.8561 16.6602H39.7062L38.8051 18.2209C38.5227 18.7101 38.0168 19.0021 37.452 19.0021H27.8003C27.2354 19.0021 26.7296 18.7101 26.4472 18.2209L25.5461 16.6602H22.3962C20.8714 16.6602 19.631 17.9007 19.631 19.4254V58.6487H45.6213V41.7571L43.1947 44.1837V51.0506L43.1948 51.0505ZM27.8003 17.8303H37.452C37.6016 17.8303 37.7153 17.7646 37.7901 17.635L38.3529 16.6602H26.8992L27.462 17.635C27.5368 17.7646 27.6507 17.8303 27.8003 17.8303ZM37.5929 50.2673C37.5929 50.654 37.9075 50.9687 38.2943 50.9687C38.6812 50.9687 38.9958 50.654 38.9958 50.2673C38.9958 49.8806 38.6812 49.5658 38.2943 49.5658C37.9075 49.5658 37.5929 49.8805 37.5929 50.2673ZM41.8653 52.8733C41.8653 53.2833 42.1988 53.6168 42.6088 53.6168C43.0187 53.6168 43.3522 53.2833 43.3522 52.8733C43.3522 52.4634 43.0187 52.1299 42.6088 52.1299C42.1989 52.1299 41.8653 52.4635 41.8653 52.8733ZM19.6309 59.8206H45.6213V60.5746C45.6213 62.0993 44.3808 63.3398 42.8561 63.3398H22.3962C20.8714 63.3398 19.631 62.0993 19.631 60.5746L19.6309 59.8206ZM30.2612 61.5803C30.2612 61.9038 30.5236 62.1662 30.8472 62.1662H34.4051C34.7286 62.1662 34.991 61.9038 34.991 61.5803C34.991 61.2567 34.7286 60.9943 34.4051 60.9943H30.8472C30.5236 60.9943 30.2612 61.2567 30.2612 61.5803ZM49.2121 23.3203C52.2853 23.5376 54.6359 26.2163 54.4521 29.2917C54.4425 29.4528 54.4998 29.6109 54.6105 29.7284C54.7213 29.8459 54.8756 29.9126 55.037 29.9126C57.9767 29.9126 60.3683 32.3042 60.3683 35.2438C60.3683 38.1835 57.9767 40.5751 55.037 40.5751H35.7204C33.6944 40.5591 32.0462 38.8979 32.0462 36.8718C32.0462 34.8457 33.6944 33.1844 35.7204 33.1685C35.9002 33.167 36.0694 33.0831 36.1794 32.9408C36.2894 32.7984 36.3279 32.6136 36.2839 32.4392C36.0495 31.5101 36.2143 30.4847 36.7359 29.6259C37.24 28.7961 38.0235 28.2035 38.8855 27.9999C39.1484 27.9378 39.4178 27.9075 39.6875 27.9075C40.5979 27.9075 41.5135 28.2522 42.2063 28.8811C42.3716 29.0311 42.6076 29.0742 42.8153 28.9922C43.023 28.9102 43.1659 28.7174 43.1841 28.4949C43.4348 25.4243 46.1404 23.1025 49.2122 23.3203H49.2121ZM43.8805 34.8789L41.5701 32.5686C41.7053 32.3062 41.783 32.0097 41.783 31.6948C41.783 30.6388 40.9238 29.7795 39.8677 29.7795C38.8115 29.7795 37.9523 30.6387 37.9523 31.6948C37.9523 32.751 38.8115 33.6102 39.8677 33.6102C40.1825 33.6102 40.4791 33.5324 40.7414 33.3972L43.0518 35.7075C43.1661 35.8219 43.3161 35.8791 43.4661 35.8791C43.6161 35.8791 43.766 35.8219 43.8805 35.7075C44.1093 35.4787 44.1093 35.1077 43.8805 34.8789ZM47.4351 25.5835C47.4959 25.9014 47.8028 26.1097 48.1206 26.0489C49.0065 25.8795 49.8614 26.051 50.5272 26.5317C51.1911 27.0111 51.6186 27.7433 51.7308 28.5935C51.7696 28.8883 52.0214 29.1028 52.3109 29.1028C52.3364 29.1028 52.3623 29.1012 52.3883 29.0978C52.7091 29.0555 52.9349 28.761 52.8926 28.4402C52.74 27.284 52.128 26.2421 51.2134 25.5817C50.2833 24.9103 49.1068 24.6674 47.9006 24.898C47.5828 24.9588 47.3743 25.2657 47.4352 25.5836L47.4351 25.5835ZM39.8677 30.9514C39.4577 30.9514 39.1242 31.2849 39.1242 31.6948C39.1242 32.1048 39.4577 32.4383 39.8677 32.4383C40.2776 32.4383 40.6111 32.1047 40.6111 31.6948C40.6111 31.285 40.2776 30.9514 39.8677 30.9514ZM50.39 51.6791V43.9392C50.39 43.7842 50.3291 43.6347 50.2212 43.5267L48.4412 41.7467H46.7831L49.2191 44.1827V51.679C48.779 51.8977 48.4772 52.3489 48.4772 52.8721C48.4772 53.6084 49.0724 54.2036 49.806 54.2036C50.5395 54.2036 51.1347 53.6085 51.1347 52.8721C51.1347 52.3489 50.8302 51.8949 50.39 51.679V51.6791ZM54.7057 49.1213V43.8285C54.7057 43.6735 54.6447 43.524 54.534 43.4133L52.8676 41.7468H51.2095L53.5348 44.0721V49.1213C53.1168 49.3345 52.8316 49.7663 52.8316 50.2673C52.8316 50.9787 53.4102 51.5545 54.1188 51.5545C54.8275 51.5545 55.4061 50.9787 55.4061 50.2673C55.4061 49.7662 55.1209 49.3344 54.7057 49.1213ZM59.395 46.522V43.2444C59.395 43.0895 59.3341 42.9399 59.2234 42.8292L57.6096 41.2153C57.2082 41.3897 56.7874 41.5226 56.35 41.614L58.2241 43.4853V46.522C58.1189 46.5773 58.0221 46.6493 57.9335 46.7379C57.4519 47.2195 57.4519 48.0029 57.9335 48.4847C58.418 48.9691 59.2014 48.9691 59.683 48.4847C60.1675 48.003 60.1675 47.2196 59.683 46.7379C59.5972 46.6493 59.4975 46.5773 59.395 46.522Z" fill="#818181"/>
<defs>
<linearGradient id="paint0_linear_12333_8423" x1="17.6" y1="8.8" x2="60" y2="76.8" gradientUnits="userSpaceOnUse">
<stop stop-color="white" stop-opacity="0.5"/>
<stop offset="1" stop-color="white" stop-opacity="0.1"/>
</linearGradient>
</defs>
</svg>
