<svg width="80" height="80" viewBox="0 0 80 80" fill="none" xmlns="http://www.w3.org/2000/svg">
<circle cx="40" cy="40" r="39.7" stroke="url(#paint0_linear_12333_8387)" stroke-width="0.6"/>
<path d="M58.7148 40.9648C58.7148 40.7648 58.7448 40.5698 58.7448 40.3698C58.7448 38.2348 57.8967 36.1872 56.3871 34.6776C54.8774 33.1679 52.8298 32.3198 50.6948 32.3198C50.0977 32.322 49.5025 32.3891 48.9198 32.5198C48.5669 30.5894 47.8106 28.7552 46.7004 27.1371C45.5902 25.5189 44.151 24.1532 42.477 23.1291C40.803 22.1051 38.9318 21.4457 36.9856 21.1942C35.0394 20.9426 33.062 21.1045 31.1827 21.6693C29.3033 22.2341 27.5642 23.189 26.0791 24.4717C24.5939 25.7544 23.3961 27.336 22.5639 29.1132C21.7317 30.8904 21.2838 32.8232 21.2495 34.7852C21.2152 36.7473 21.5953 38.6946 22.3648 40.4998C20.4968 41.136 18.8749 42.3414 17.727 43.9466C16.5791 45.5519 15.9629 47.4763 15.9648 49.4498C15.9662 51.953 16.9612 54.3533 18.7312 56.1234C20.5013 57.8935 22.9016 58.8885 25.4048 58.8898H54.5948C57.0981 58.8885 59.4984 57.8935 61.2685 56.1234C63.0385 54.3533 64.0335 51.953 64.0348 49.4498C64.0338 47.6787 63.5344 45.9437 62.5936 44.4432C61.6527 42.9426 60.3086 41.7372 58.7148 40.9648ZM45.7148 49.2798C45.574 49.42 45.3836 49.4991 45.1848 49.4998C45.0863 49.5 44.9888 49.4806 44.8978 49.4429C44.8068 49.4051 44.7243 49.3497 44.6548 49.2798C44.0427 48.6663 43.3156 48.1796 42.5151 47.8475C41.7146 47.5154 40.8565 47.3444 39.9898 47.3444C39.1232 47.3444 38.2651 47.5154 37.4646 47.8475C36.6641 48.1796 35.937 48.6663 35.3248 49.2798C35.1827 49.4123 34.9946 49.4844 34.8003 49.481C34.606 49.4775 34.4206 49.3988 34.2832 49.2614C34.1458 49.124 34.0671 48.9386 34.0637 48.7443C34.0602 48.55 34.1324 48.362 34.2648 48.2198C35.0162 47.4672 35.9086 46.8702 36.891 46.4628C37.8733 46.0554 38.9264 45.8458 39.9898 45.8458C41.0533 45.8458 42.1063 46.0554 43.0887 46.4628C44.0711 46.8702 44.9635 47.4672 45.7148 48.2198C45.8554 48.3597 45.9353 48.5494 45.9372 48.7477C45.939 48.9461 45.8628 49.1372 45.7248 49.2798H45.7148ZM48.3098 46.6848C48.2406 46.7549 48.158 46.8106 48.067 46.8486C47.9761 46.8866 47.8784 46.9062 47.7798 46.9062C47.6812 46.9062 47.5836 46.8866 47.4926 46.8486C47.4017 46.8106 47.3191 46.7549 47.2498 46.6848C45.3248 44.7661 42.7178 43.6887 39.9998 43.6887C37.2819 43.6887 34.6749 44.7661 32.7498 46.6848C32.6828 46.7634 32.6002 46.8274 32.5073 46.8726C32.4143 46.9179 32.313 46.9434 32.2098 46.9476C32.1065 46.9519 32.0034 46.9347 31.9071 46.8972C31.8108 46.8598 31.7232 46.8028 31.65 46.7298C31.5767 46.6569 31.5193 46.5697 31.4814 46.4735C31.4435 46.3774 31.4258 46.2744 31.4295 46.1711C31.4333 46.0678 31.4583 45.9664 31.5031 45.8732C31.5479 45.7801 31.6115 45.6972 31.6898 45.6298C32.7817 44.5358 34.0786 43.668 35.5062 43.0758C36.9339 42.4837 38.4643 42.1789 40.0098 42.1789C41.5554 42.1789 43.0858 42.4837 44.5135 43.0758C45.9411 43.668 47.238 44.5358 48.3298 45.6298C48.3986 45.6996 48.4529 45.7824 48.4896 45.8733C48.5263 45.9641 48.5447 46.0614 48.5438 46.1594C48.5428 46.2574 48.5226 46.3542 48.4842 46.4444C48.4457 46.5345 48.3899 46.6162 48.3198 46.6848H48.3098ZM50.9098 44.0848C50.7684 44.2241 50.5784 44.303 50.3798 44.3048C50.2813 44.305 50.1838 44.2856 50.0928 44.2479C50.0018 44.2101 49.9193 44.1547 49.8498 44.0848C48.5553 42.7895 47.0182 41.7619 45.3264 41.0608C43.6346 40.3598 41.8212 39.9989 39.9898 39.9989C38.1585 39.9989 36.3451 40.3598 34.6533 41.0608C32.9615 41.7619 31.4244 42.7895 30.1298 44.0848C30.0606 44.1549 29.978 44.2106 29.887 44.2486C29.7961 44.2866 29.6984 44.3062 29.5998 44.3062C29.5012 44.3062 29.4036 44.2866 29.3126 44.2486C29.2217 44.2106 29.1391 44.1549 29.0698 44.0848C28.9306 43.9435 28.8526 43.7531 28.8526 43.5548C28.8526 43.3564 28.9306 43.166 29.0698 43.0248C30.5037 41.5904 32.206 40.4525 34.0797 39.6762C35.9534 38.8998 37.9617 38.5002 39.9898 38.5002C42.018 38.5002 44.0263 38.8998 45.9 39.6762C47.7736 40.4525 49.476 41.5904 50.9098 43.0248C51.0504 43.1647 51.1303 43.3544 51.1322 43.5527C51.134 43.7511 51.0578 43.9422 50.9198 44.0848H50.9098Z" fill="#818181"/>
<defs>
<linearGradient id="paint0_linear_12333_8387" x1="17.6" y1="8.8" x2="60" y2="76.8" gradientUnits="userSpaceOnUse">
<stop stop-color="white" stop-opacity="0.5"/>
<stop offset="1" stop-color="white" stop-opacity="0.1"/>
</linearGradient>
</defs>
</svg>
