<svg width="80" height="80" viewBox="0 0 80 80" fill="none" xmlns="http://www.w3.org/2000/svg">
<circle cx="40" cy="40" r="39.7" stroke="url(#paint0_linear_12333_8437)" stroke-width="0.6"/>
<g clip-path="url(#clip0_12333_8437)">
<path fill-rule="evenodd" clip-rule="evenodd" d="M19.0039 43.5693L15.4688 42.4121C15.1855 42.3145 15 42.0508 15 41.7578V36.4844C15 36.1035 15.3027 35.8008 15.6836 35.8008H19.0039V43.5693ZM54.5508 50.5469H44.6875C44.3457 50.5469 44.0527 50.293 44.0137 49.9512C43.7598 47.959 42.041 46.4453 40 46.4453C37.9297 46.4453 36.2402 47.9199 35.9863 49.9512C35.9473 50.293 35.6543 50.5469 35.3125 50.5469H25.4492C24.082 50.5469 22.8125 50.0195 21.8555 49.0625C20.8984 48.1055 20.3711 46.8359 20.3711 45.4688V34.5312C20.3711 33.1641 20.8984 31.8945 21.8555 30.9375C22.8125 29.9805 24.082 29.4531 25.4492 29.4531H54.5508C57.3047 29.4531 59.6289 31.7773 59.6289 34.5312V45.4688C59.6289 48.2227 57.3047 50.5469 54.5508 50.5469ZM47.8125 47.2266C47.5684 47.2266 47.3438 47.0996 47.2168 46.8848L44.9707 42.9785C44.7852 42.6465 44.8926 42.2363 45.2246 42.041C45.5566 41.8555 45.9668 41.9629 46.1621 42.2949L47.8125 45.1758L49.4629 42.3047C49.6484 41.9727 50.0684 41.8652 50.4004 42.0508C50.7324 42.2363 50.8398 42.6563 50.6543 42.9883L48.4082 46.8945C48.2812 47.0996 48.0566 47.2266 47.8125 47.2266ZM55.2344 47.2266C55 47.2266 54.7754 47.1094 54.6484 46.8945L53.5752 45.0781H53.3789V46.543C53.3789 46.9238 53.0762 47.2266 52.6953 47.2266C52.3145 47.2266 52.0117 46.9238 52.0117 46.543V44.3945V42.0508C52.0117 41.6699 52.3145 41.3672 52.6953 41.3672H54.3555C55.3613 41.3672 56.2109 42.2168 56.2109 43.2227C56.2109 43.9746 55.7363 44.6387 55.0771 44.9268L55.8301 46.2012C56.0254 46.5234 55.918 46.9434 55.5859 47.1387C55.4688 47.1973 55.3516 47.2266 55.2344 47.2266ZM53.3789 43.7109H54.3555C54.5508 43.7109 54.8438 43.5352 54.8438 43.2227C54.8438 42.9102 54.5508 42.7344 54.3555 42.7344H53.3789V43.7109ZM43.418 35.3125H39.8047C39.4238 35.3125 39.1211 35.0098 39.1211 34.6289C39.1211 34.248 39.4238 33.9453 39.8047 33.9453H43.418C43.7988 33.9453 44.1016 34.248 44.1016 34.6289C44.1016 35.0098 43.7988 35.3125 43.418 35.3125ZM26.0352 38.8281C25.6543 38.8281 25.3516 38.5254 25.3516 38.1445V34.6289C25.3516 34.248 25.6543 33.9453 26.0352 33.9453H35.4102C35.791 33.9453 36.0938 34.248 36.0938 34.6289C36.0938 35.0098 35.791 35.3125 35.4102 35.3125H26.7188V38.1445C26.7188 38.5254 26.416 38.8281 26.0352 38.8281ZM60.9961 35.8008H64.3164C64.6973 35.8008 65 36.1035 65 36.4844V41.7578C65 42.0508 64.8145 42.3145 64.5312 42.4121L60.9961 43.5693V35.8008Z" fill="#818181"/>
</g>
<defs>
<linearGradient id="paint0_linear_12333_8437" x1="17.6" y1="8.8" x2="60" y2="76.8" gradientUnits="userSpaceOnUse">
<stop stop-color="white" stop-opacity="0.5"/>
<stop offset="1" stop-color="white" stop-opacity="0.1"/>
</linearGradient>
<clipPath id="clip0_12333_8437">
<rect width="50" height="50" fill="white" transform="translate(15 15)"/>
</clipPath>
</defs>
</svg>
