<svg width="80" height="80" viewBox="0 0 80 80" fill="none" xmlns="http://www.w3.org/2000/svg">
<circle cx="40" cy="40" r="39.7" stroke="url(#paint0_linear_12333_8416)" stroke-width="0.6"/>
<path d="M45.6859 60.1498C45.6859 60.1498 41.3208 56.9794 41.3208 56.9794C42.296 56.2611 44.3393 54.7754 45.3111 54.0745L48.4503 56.3625C49.6919 57.2761 51.2615 57.401 52.6358 56.6983C57.6764 53.8495 53.1696 46.6231 48.4035 49.8967C46.0258 51.6212 42.3319 54.3052 39.9934 56.0112C38.5973 56.9293 33.8057 60.8048 32.2626 61.2507C26.7762 63.4891 20.3228 59.0483 20.4713 53.1063C20.3776 46.0808 28.6714 41.8784 34.3007 46.0626L38.6658 49.2408L34.6755 52.1379L31.5363 49.8577C30.2791 48.9519 28.7095 48.8348 27.3508 49.5297C22.3445 52.3492 26.7501 59.5484 31.5363 56.3625C35.8501 53.2215 41.3506 49.2227 45.6859 46.0627C48.3017 44.1552 51.8682 43.86 54.7599 45.352C65.6001 51.4562 55.9753 67.0439 45.6859 60.1498ZM39.9925 35.3129C42.5785 35.3129 44.68 33.2114 44.68 30.6255C44.4617 24.4213 35.5225 24.4229 35.305 30.6256C35.305 33.2114 37.4066 35.3129 39.9925 35.3129ZM27.2972 33.5707C26.8481 31.6492 26.8481 29.6018 27.2972 27.6803C27.3753 27.3521 27.6488 27.1178 27.9769 27.0786C29.2222 27.0475 30.3499 26.3448 30.891 25.2428C31.4144 24.3522 31.4769 23.2506 31.0473 22.2975C30.8315 21.9112 30.732 21.4372 31.0941 21.1022C32.5865 19.7377 34.4347 18.5854 36.4222 18.1258C36.8157 18.1074 37.054 18.4189 37.2425 18.7116C38.5 20.5598 41.7535 20.4285 42.8754 18.5319C43.0472 18.2195 43.4535 18.0476 43.805 18.1648C44.7426 18.446 45.6488 18.8445 46.5082 19.3366C47.3675 19.8366 48.1722 20.4304 48.891 21.1022C49.1097 21.3131 49.1879 21.6257 49.1019 21.9147C48.4946 23.0299 48.4928 24.3994 49.2191 25.4537C49.7191 26.3443 50.641 26.9381 51.6801 27.0475C52.1115 27.045 52.5869 27.2054 52.6879 27.6803C53.1369 29.6018 53.137 31.6492 52.6878 33.5707C52.593 34.0478 52.1049 34.203 51.6801 34.2035C50.5451 34.3166 49.5853 35.0199 49.0942 36.016C48.4784 37.0261 48.5421 38.3012 49.1019 39.3363C49.1879 39.6253 49.1097 39.9378 48.891 40.1488C47.3993 41.5146 45.5447 42.6576 43.5707 43.1253C43.3012 43.1227 43.0405 42.9803 42.8988 42.7504C41.6062 40.6627 38.2927 40.7342 37.0438 42.8072C36.8332 43.0511 36.488 43.1987 36.1702 43.0855C34.2979 42.5124 32.5173 41.4894 31.0941 40.1488C30.7258 39.8074 30.8348 39.3455 31.0472 38.9535C32.0349 36.8367 30.3149 34.1709 27.9769 34.1723C27.6488 34.1333 27.3753 33.8989 27.2972 33.5707ZM33.7425 30.6255C34.086 38.9142 45.8978 38.9166 46.2425 30.6255C46.2425 27.1802 43.4378 24.3756 39.9925 24.3756C36.5473 24.3756 33.7425 27.1802 33.7425 30.6255Z" fill="#818181"/>
<defs>
<linearGradient id="paint0_linear_12333_8416" x1="17.6" y1="8.8" x2="60" y2="76.8" gradientUnits="userSpaceOnUse">
<stop stop-color="white" stop-opacity="0.5"/>
<stop offset="1" stop-color="white" stop-opacity="0.1"/>
</linearGradient>
</defs>
</svg>
