<svg width="80" height="80" viewBox="0 0 80 80" fill="none" xmlns="http://www.w3.org/2000/svg">
<circle cx="40" cy="40" r="39.7" stroke="url(#paint0_linear_12333_8453)" stroke-width="0.6"/>
<path d="M60.6295 29.8202H55.8452C55.5601 29.8202 55.3269 30.0534 55.3269 30.3386C55.3269 30.6236 55.5601 30.8569 55.8452 30.8569H60.6295C60.9146 30.8569 61.1479 30.6236 61.1479 30.3386C61.1479 30.0535 60.9146 29.8202 60.6295 29.8202ZM60.4792 25.6787C60.4066 25.404 60.1216 25.2381 59.8468 25.3106C59.7897 25.3262 59.7327 25.347 59.6809 25.3832L55.6274 27.3788C55.3734 27.5084 55.2698 27.8246 55.4046 28.0785C55.4875 28.2444 55.6586 28.3532 55.8452 28.3584H55.8556C55.923 28.3584 55.9955 28.3376 56.0525 28.3065L60.106 26.3109C60.3808 26.2385 60.5518 25.9586 60.4792 25.6787ZM60.1371 34.3557L56.0526 32.3652C55.7883 32.2615 55.4877 32.3859 55.3788 32.6555C55.2803 32.8888 55.3736 33.1635 55.5965 33.293L59.681 35.2886C59.7535 35.3249 59.8312 35.3404 59.909 35.3404C60.106 35.3404 60.2874 35.2316 60.3755 35.0502C60.5 34.7963 60.3963 34.4853 60.1371 34.3557ZM30.483 27.3685H35.8012L47.4534 21.5216V18.0333C47.4534 16.7322 46.4012 15.68 45.1001 15.6748H21.21C19.9089 15.6748 18.8516 16.7322 18.8516 18.0333V57.4269H47.4534V39.9952L35.8893 34.2054V42.8461C35.8944 42.9238 35.8944 43.0016 35.8893 43.0741C35.8271 44.4788 34.6349 45.5673 33.2302 45.5051C31.8255 45.4429 30.7422 44.2507 30.8044 42.846V34.3193H30.483C28.6688 34.252 27.2123 32.7954 27.1397 30.9812C27.0672 29.0583 28.5651 27.4411 30.483 27.3685ZM29.9647 18.4116H36.3559C36.6409 18.4116 36.8742 18.6449 36.8742 18.93C36.8742 19.215 36.6409 19.4483 36.3559 19.4483H29.9647C29.6796 19.4483 29.4464 19.215 29.4464 18.93C29.4464 18.6449 29.6796 18.4116 29.9647 18.4116ZM34.0491 47.7288H35.8374C37.7501 47.7288 39.2999 49.2786 39.2999 51.1913C39.2999 53.104 37.7501 54.6538 35.8374 54.6538H34.0491V47.7288ZM21.521 40.2284C21.521 40.5136 21.2877 40.7468 21.0026 40.7468C20.7176 40.7468 20.4843 40.5136 20.4843 40.2284V26.9123C20.4843 26.6272 20.7176 26.3939 21.0026 26.3939C21.2877 26.3939 21.521 26.6272 21.521 26.9123V40.2284ZM29.1146 48.2057C29.2027 47.9776 29.379 47.791 29.607 47.6977C30.0684 47.5007 30.5971 47.7184 30.7889 48.1745L32.8519 54.0524V54.0576C32.9452 54.3271 32.8052 54.6226 32.5356 54.7159C32.4786 54.7367 32.4216 54.747 32.3645 54.747C32.1469 54.747 31.9499 54.607 31.8773 54.3997L31.302 52.7773H28.5808L28.0002 54.3997C27.995 54.4204 27.9847 54.4412 27.9795 54.4619C27.8654 54.7263 27.5597 54.8455 27.2953 54.7366C27.0361 54.6226 26.9117 54.3168 27.0258 54.0524L29.1146 48.2057ZM30.9495 51.7407H28.9591L29.9543 48.9262L30.9495 51.7407ZM38.2633 51.1913C38.2633 52.5338 37.1748 53.6171 35.8375 53.6171H35.0859V48.7654H35.8375C37.1748 48.7655 38.2633 49.854 38.2633 51.1913ZM52.9426 30.7637C52.9374 32.1113 51.9474 33.2465 50.6152 33.4331V28.0942C51.9474 28.2808 52.9374 29.4211 52.9426 30.7637ZM49.5371 21.703C49.5061 21.6875 49.4697 21.6875 49.4387 21.703L35.8894 28.4829V33.0442L49.4387 39.7981C49.4697 39.8188 49.5061 39.8188 49.5371 39.7981C49.5682 39.7826 49.589 39.7463 49.589 39.71V21.7912C49.589 21.7549 49.5682 21.7238 49.5371 21.703ZM48.4538 37.3413C48.3657 37.5175 48.1895 37.6264 47.9925 37.6264C47.9096 37.6264 47.8318 37.6108 47.7592 37.5745L38.2218 32.8007C38.2114 32.7955 38.2062 32.7903 38.1958 32.7852C37.947 32.6504 37.8537 32.3394 37.9885 32.0854C38.1232 31.8314 38.4343 31.7382 38.6882 31.8729L48.2256 36.6469C48.4797 36.7764 48.5834 37.0873 48.4538 37.3413ZM18.8516 58.4636V61.9675C18.8516 63.2686 19.909 64.326 21.21 64.326H45.1001C46.4012 64.326 47.4534 63.2686 47.4534 61.9675V58.4636H18.8516ZM36.3558 61.8897H29.9646C29.6795 61.8897 29.4463 61.6564 29.4463 61.3714C29.4463 61.0863 29.6795 60.853 29.9646 60.853H36.3558C36.6408 60.853 36.8741 61.0863 36.8741 61.3714C36.8741 61.6564 36.6408 61.8897 36.3558 61.8897ZM34.8526 34.3194V42.8461C34.8993 43.6806 34.2669 44.3907 33.4376 44.4426C32.6031 44.4893 31.8878 43.8568 31.8411 43.0224C31.8359 42.9653 31.8359 42.9083 31.8411 42.8462V34.3195H34.8526V34.3194ZM34.8526 28.4052V33.2827H30.483C29.1354 33.2205 28.0935 32.0802 28.1557 30.7325C28.2127 29.4729 29.2234 28.4622 30.483 28.4052H34.8526Z" fill="#818181"/>
<defs>
<linearGradient id="paint0_linear_12333_8453" x1="17.6" y1="8.8" x2="60" y2="76.8" gradientUnits="userSpaceOnUse">
<stop stop-color="white" stop-opacity="0.5"/>
<stop offset="1" stop-color="white" stop-opacity="0.1"/>
</linearGradient>
</defs>
</svg>
