<svg width="80" height="80" viewBox="0 0 80 80" fill="none" xmlns="http://www.w3.org/2000/svg">
<circle cx="40" cy="40" r="39.7" stroke="url(#paint0_linear_12333_8468)" stroke-width="0.6"/>
<g clip-path="url(#clip0_12333_8468)">
<path d="M49.6363 27.5204H30.3639C28.7658 27.5204 27.4682 28.8137 27.4682 30.403V49.5971C27.4682 51.1864 28.7658 52.4797 30.3639 52.4797H49.6362C51.2343 52.4797 52.5319 51.1864 52.5319 49.5971V30.403C52.5319 28.8137 51.2344 27.5204 49.6363 27.5204ZM42.2252 44.3413C42.1425 44.3805 42.0511 44.3979 41.964 44.3979C41.7114 44.3979 41.4719 44.2499 41.3631 44.0061L40.3485 41.7069H36.4993L35.4848 44.0061C35.3367 44.3369 34.9535 44.4851 34.6227 44.3413C34.2917 44.1933 34.1437 43.8101 34.2874 43.4792L35.4587 40.8361C35.4631 40.8188 35.4631 40.8057 35.4718 40.7926L37.4486 36.3119C37.453 36.2988 37.466 36.2901 37.4704 36.2814L37.5053 36.203C37.6664 35.8373 38.0277 35.6021 38.424 35.6021C38.8202 35.6021 39.1816 35.8373 39.3428 36.203L39.3776 36.2814C39.382 36.2901 39.395 36.2989 39.3994 36.3119L41.3763 40.7926C41.385 40.8057 41.385 40.8188 41.3894 40.8361L42.5606 43.4792C42.7042 43.8101 42.5561 44.1933 42.2252 44.3413ZM45.7696 43.7447C45.7696 44.1062 45.4735 44.3979 45.1165 44.3979C44.7551 44.3979 44.4634 44.1062 44.4634 43.7447V39.3251C44.4634 38.9637 44.7551 38.672 45.1165 38.672C45.4735 38.672 45.7696 38.9637 45.7696 39.3251V43.7447ZM45.7696 36.5818C45.7696 36.9433 45.4735 37.235 45.1165 37.235C44.7551 37.235 44.4634 36.9433 44.4634 36.5818V36.3467C44.4634 35.9896 44.7551 35.6936 45.1165 35.6936C45.4735 35.6936 45.7696 35.9896 45.7696 36.3467V36.5818ZM39.7693 40.4006H37.0783L38.4238 37.3525L39.7693 40.4006ZM32.5118 26.007C32.1513 26.007 31.8587 25.7146 31.8587 25.3539V16.2391C31.8587 15.8782 32.1513 15.5859 32.5118 15.5859C32.8724 15.5859 33.1649 15.8783 33.1649 16.2391V25.3539C33.1649 25.7147 32.8724 26.007 32.5118 26.007ZM37.504 26.007C37.1434 26.007 36.8509 25.7146 36.8509 25.3539V16.2391C36.8509 15.8782 37.1435 15.5859 37.504 15.5859C37.8645 15.5859 38.1571 15.8783 38.1571 16.2391V25.3539C38.1571 25.7147 37.8645 26.007 37.504 26.007ZM42.4962 26.007C42.1355 26.007 41.8431 25.7146 41.8431 25.3539V16.2391C41.8431 15.8782 42.1356 15.5859 42.4962 15.5859C42.8567 15.5859 43.1493 15.8783 43.1493 16.2391V25.3539C43.1493 25.7147 42.8568 26.007 42.4962 26.007ZM47.4884 26.007C47.1277 26.007 46.8353 25.7146 46.8353 25.3539V16.2391C46.8353 15.8782 47.1278 15.5859 47.4884 15.5859C47.8489 15.5859 48.1415 15.8783 48.1415 16.2391V25.3539C48.1416 25.7147 47.849 26.007 47.4884 26.007ZM32.5118 64.4141C32.1513 64.4141 31.8587 64.1217 31.8587 63.7609V54.6464C31.8587 54.2855 32.1513 53.9933 32.5118 53.9933C32.8724 53.9933 33.1649 54.2856 33.1649 54.6464V63.7609C33.1649 64.1217 32.8724 64.4141 32.5118 64.4141ZM37.504 64.4141C37.1434 64.4141 36.8509 64.1217 36.8509 63.7609V54.6464C36.8509 54.2855 37.1435 53.9933 37.504 53.9933C37.8645 53.9933 38.1571 54.2856 38.1571 54.6464V63.7609C38.1571 64.1217 37.8645 64.4141 37.504 64.4141ZM42.4962 64.4141C42.1355 64.4141 41.8431 64.1217 41.8431 63.7609V54.6464C41.8431 54.2855 42.1356 53.9933 42.4962 53.9933C42.8567 53.9933 43.1493 54.2856 43.1493 54.6464V63.7609C43.1493 64.1217 42.8568 64.4141 42.4962 64.4141ZM47.4884 64.4141C47.1277 64.4141 46.8353 64.1217 46.8353 63.7609V54.6464C46.8353 54.2855 47.1278 53.9933 47.4884 53.9933C47.8489 53.9933 48.1415 54.2856 48.1415 54.6464V63.7609C48.1416 64.1217 47.849 64.4141 47.4884 64.4141ZM63.7611 33.1649H54.6463C54.2856 33.1649 53.9932 32.8726 53.9932 32.5118C53.9932 32.1511 54.2857 31.8587 54.6463 31.8587H63.7611C64.1217 31.8587 64.4143 32.1511 64.4143 32.5118C64.4143 32.8726 64.1217 33.1649 63.7611 33.1649ZM63.7611 38.1571H54.6463C54.2856 38.1571 53.9932 37.8647 53.9932 37.504C53.9932 37.1433 54.2857 36.8509 54.6463 36.8509H63.7611C64.1217 36.8509 64.4143 37.1433 64.4143 37.504C64.4143 37.8647 64.1217 38.1571 63.7611 38.1571ZM63.7611 43.1493H54.6463C54.2856 43.1493 53.9932 42.8569 53.9932 42.4962C53.9932 42.1355 54.2857 41.8431 54.6463 41.8431H63.7611C64.1217 41.8431 64.4143 42.1355 64.4143 42.4962C64.4143 42.8569 64.1217 43.1493 63.7611 43.1493ZM63.7611 48.1416H54.6463C54.2856 48.1416 53.9932 47.8492 53.9932 47.4885C53.9932 47.1277 54.2857 46.8354 54.6463 46.8354H63.7611C64.1217 46.8354 64.4143 47.1277 64.4143 47.4885C64.4143 47.8492 64.1217 48.1416 63.7611 48.1416ZM25.3539 33.1649H16.2391C15.8785 33.1649 15.5859 32.8726 15.5859 32.5118C15.5859 32.1511 15.8785 31.8587 16.2391 31.8587H25.3539C25.7145 31.8587 26.007 32.1511 26.007 32.5118C26.007 32.8726 25.7145 33.1649 25.3539 33.1649ZM25.3539 38.1571H16.2391C15.8785 38.1571 15.5859 37.8647 15.5859 37.504C15.5859 37.1433 15.8785 36.8509 16.2391 36.8509H25.3539C25.7145 36.8509 26.007 37.1433 26.007 37.504C26.007 37.8647 25.7145 38.1571 25.3539 38.1571ZM25.3539 43.1493H16.2391C15.8785 43.1493 15.5859 42.8569 15.5859 42.4962C15.5859 42.1355 15.8785 41.8431 16.2391 41.8431H25.3539C25.7145 41.8431 26.007 42.1355 26.007 42.4962C26.007 42.8569 25.7145 43.1493 25.3539 43.1493ZM25.3539 48.1416H16.2391C15.8785 48.1416 15.5859 47.8492 15.5859 47.4885C15.5859 47.1277 15.8785 46.8354 16.2391 46.8354H25.3539C25.7145 46.8354 26.007 47.1277 26.007 47.4885C26.007 47.8492 25.7145 48.1416 25.3539 48.1416Z" fill="#818181"/>
</g>
<defs>
<linearGradient id="paint0_linear_12333_8468" x1="17.6" y1="8.8" x2="60" y2="76.8" gradientUnits="userSpaceOnUse">
<stop stop-color="white" stop-opacity="0.5"/>
<stop offset="1" stop-color="white" stop-opacity="0.1"/>
</linearGradient>
<clipPath id="clip0_12333_8468">
<rect width="50" height="50" fill="white" transform="translate(15 15)"/>
</clipPath>
</defs>
</svg>
